<svg width="119" height="40" viewBox="0 0 119 40" fill="none" xmlns="http://www.w3.org/2000/svg">
<path d="M109.53 0H8.37566H7.4605C6.79387 0.00248492 6.12853 0.0593666 5.47104 0.170085C4.81336 0.2844 4.17634 0.496848 3.58104 0.8004C2.98618 1.10735 2.4425 1.50566 1.96957 1.98099C1.49483 2.4548 1.09855 3.002 0.795788 3.6018C0.497151 4.20099 0.289274 4.84172 0.179052 5.50275C0.069656 6.1643 0.00980342 6.83318 0 7.50375C0 7.81391 0 8.12406 0 8.43422V31.5758C0 31.8859 0 32.1861 0 32.4962C0.00980342 33.1668 0.069656 33.8357 0.179052 34.4972C0.286988 35.1575 0.491466 35.7981 0.785841 36.3982C1.09121 36.9934 1.48726 37.5369 1.95963 38.009C2.43003 38.4873 2.9742 38.886 3.57109 39.1896C4.16639 39.4931 4.80341 39.7056 5.46109 39.8199C6.11895 39.929 6.78391 39.9892 7.45056 40H111.53C112.196 39.9901 112.861 39.9299 113.519 39.8199C114.177 39.7056 114.814 39.4931 115.409 39.1896C116.007 38.8886 116.552 38.4896 117.02 38.009C117.977 37.0583 118.605 35.8238 118.811 34.4872C118.924 33.8259 118.987 33.1571 119 32.4862V31.5658C119 31.2056 119 30.8454 119 30.4752V9.54477C119 9.17459 119 8.81441 119 8.45423V7.52376C118.987 6.85295 118.924 6.18407 118.811 5.52276C118.705 4.86061 118.497 4.21919 118.194 3.62181C117.58 2.41778 116.606 1.43793 115.409 0.82041C114.814 0.516857 114.177 0.30441 113.519 0.190096C112.862 0.0784441 112.196 0.0215559 111.53 0.0200105H110.604L109.53 0Z" fill="#B7B7B7"/>
<path d="M8.37565 39.1496H7.48039C6.85703 39.1391 6.23528 39.0822 5.62024 38.9796C5.04366 38.8718 4.48682 38.6761 3.96898 38.3993C3.45442 38.1431 2.9842 37.8052 2.57636 37.3988C2.17563 36.9857 1.84016 36.5133 1.58162 35.9981C1.31873 35.4949 1.13103 34.9555 1.02457 34.3973C0.926533 33.7615 0.873348 33.1196 0.865414 32.4763C0.865414 32.2662 0.865414 31.5659 0.865414 31.5659V8.45429C0.865414 8.45429 0.865414 7.75394 0.865414 7.55384C0.878508 6.92701 0.935013 6.30185 1.03452 5.68291C1.12894 5.10514 1.31006 4.54515 1.57167 4.02208C1.82534 3.5039 2.16133 3.03079 2.56641 2.62138C2.97204 2.21227 3.44272 1.87413 3.95904 1.62088C4.47633 1.35745 5.02936 1.17204 5.60035 1.0706C6.21873 0.969239 6.84393 0.915723 7.47045 0.910522H111.51C112.13 0.914985 112.748 0.968511 113.36 1.0706C113.937 1.17346 114.496 1.35876 115.021 1.62088C115.531 1.87973 115.998 2.21732 116.404 2.62138C116.806 3.03658 117.142 3.51256 117.398 4.03208C117.654 4.55331 117.832 5.10957 117.926 5.68291C118.029 6.30831 118.089 6.94014 118.105 7.57386V8.4643C118.105 8.83449 118.105 9.19467 118.105 9.55485V30.4853C118.105 30.8455 118.105 31.1957 118.105 31.5558C118.105 31.916 118.105 32.1762 118.105 32.4863C118.097 33.1068 118.04 33.7257 117.936 34.3372C117.846 34.9193 117.665 35.4833 117.398 36.0081C117.139 36.5199 116.804 36.9889 116.404 37.3988C115.998 37.8079 115.527 38.146 115.011 38.3993C114.489 38.6686 113.929 38.8543 113.35 38.9495C112.735 39.0527 112.113 39.1095 111.49 39.1196H8.37565V39.1496Z" fill="#010101"/>
<path d="M24.6097 20.3101C24.6258 19.4761 24.849 18.6593 25.259 17.9341C25.669 17.2089 26.2528 16.5984 26.9573 16.1581C26.507 15.5112 25.9129 14.979 25.2221 14.6039C24.5314 14.2287 23.763 14.0209 22.9783 13.997C21.3072 13.8269 19.6858 14.9975 18.8403 14.9975C17.9947 14.9975 16.6618 13.997 15.2493 13.997C14.3329 14.0316 13.4415 14.3065 12.6633 14.7944C11.8851 15.2822 11.2472 15.9662 10.8128 16.7784C8.88297 20.1301 10.3154 25.0525 12.1656 27.7839C13.0807 29.1146 14.1551 30.5953 15.5676 30.5453C16.9801 30.4952 17.4675 29.6548 19.1287 29.6548C20.7899 29.6548 21.2674 30.5453 22.6998 30.5052C24.1322 30.4652 25.117 29.1746 26.0123 27.8339C26.6773 26.8927 27.1846 25.8484 27.5143 24.7424C26.6498 24.3737 25.9129 23.7563 25.3962 22.9677C24.8794 22.1791 24.6058 21.2546 24.6097 20.3101Z" fill="white"/>
<path d="M21.8941 12.2161C22.7043 11.2431 23.1041 9.98992 23.0082 8.72437C21.7752 8.85821 20.6363 9.45054 19.8151 10.3852C19.4147 10.8424 19.1083 11.3749 18.9136 11.9519C18.719 12.5289 18.64 13.139 18.6811 13.7469C19.2969 13.7529 19.906 13.6183 20.4626 13.3532C21.0192 13.088 21.5086 12.6992 21.8941 12.2161Z" fill="white"/>
<path d="M42.0573 27.1536H37.3423L36.2182 30.5153H34.2288L38.6653 18.0891H40.7542L45.2106 30.5153H43.2212L42.0573 27.1536ZM37.8297 25.6029H41.5699L39.7296 20.1501L37.8297 25.6029Z" fill="white"/>
<path d="M54.8496 25.983C54.8496 28.7944 53.3476 30.6053 51.0895 30.6053C50.5173 30.6348 49.9483 30.5023 49.4472 30.2229C48.946 29.9435 48.5328 29.5283 48.2545 29.0245V33.5068H46.3645V21.5008H48.1551V23.0115C48.4448 22.5016 48.8677 22.0811 49.3779 21.7955C49.8881 21.5098 50.4662 21.3698 51.0497 21.3907C53.3376 21.3907 54.8496 23.1816 54.8496 25.983ZM52.9497 25.983C52.9497 24.1521 51.9549 22.9815 50.5623 22.9815C49.1697 22.9815 48.2048 24.2121 48.2048 25.983C48.2048 27.7539 49.1995 28.9845 50.5623 28.9845C51.9251 28.9845 52.9497 27.8339 52.9497 25.983Z" fill="white"/>
<path d="M64.7572 25.983C64.7572 28.7944 63.2551 30.6053 60.9971 30.6053C60.425 30.6336 59.8565 30.5007 59.3556 30.2213C58.8547 29.942 58.4413 29.5275 58.1621 29.0245V33.5068H56.2721V21.5008H58.0626V23.0115C58.3532 22.5001 58.7776 22.0786 59.2897 21.7928C59.8018 21.507 60.382 21.368 60.9672 21.3907C63.2551 21.3907 64.7572 23.1816 64.7572 25.983ZM62.8572 25.983C62.8572 24.1521 61.9122 22.9815 60.4798 22.9815C59.0474 22.9815 58.1124 24.2121 58.1124 25.983C58.1124 27.7539 59.1071 28.9845 60.4798 28.9845C61.8526 28.9845 62.8572 27.8339 62.8572 25.983Z" fill="white"/>
<path d="M71.3125 27.0536C71.4418 28.2842 72.6355 29.0546 74.2967 29.0546C75.9579 29.0546 76.9825 28.2442 76.9825 27.1336C76.9825 26.0231 76.3061 25.5929 74.7045 25.1927L73.103 24.8025C70.835 24.2522 69.7806 23.1917 69.7806 21.4608C69.7806 19.3097 71.6408 17.839 74.2768 17.839C76.9128 17.839 78.6735 19.3097 78.7332 21.4608H76.8333C76.7139 20.2202 75.6993 19.4598 74.2072 19.4598C72.7151 19.4598 71.7004 20.2202 71.7004 21.3207C71.7004 22.2012 72.357 22.7114 73.9485 23.1116L75.3014 23.4418C77.8379 24.0521 78.8924 25.0726 78.8924 26.8935C78.8924 29.2147 77.0521 30.6654 74.1276 30.6654C71.3821 30.6654 69.5319 29.2447 69.4126 27.0036L71.3125 27.0536Z" fill="white"/>
<path d="M82.8812 19.3097V21.4508H84.5922V22.9315H82.8812V27.934C82.8812 28.7044 83.2294 29.0646 83.9754 29.0646C84.1775 29.077 84.3802 29.077 84.5822 29.0646V30.5253C84.2544 30.5884 83.9212 30.6186 83.5875 30.6153C81.7671 30.6153 81.0509 29.925 81.0509 28.1641V22.9315H79.718V21.4508H81.0211V19.3097H82.8812Z" fill="white"/>
<path d="M85.5869 25.983C85.5869 23.1316 87.258 21.3407 89.8543 21.3407C92.4505 21.3407 94.1316 23.1316 94.1316 25.983C94.1316 28.8344 92.4804 30.6253 89.8543 30.6253C87.2282 30.6253 85.5869 28.8444 85.5869 25.983ZM92.2516 25.983C92.2516 23.982 91.3563 22.8715 89.8543 22.8715C88.3522 22.8715 87.4669 24.042 87.4669 25.983C87.4669 27.924 88.3622 29.0946 89.8543 29.0946C91.3464 29.0946 92.2516 27.944 92.2516 25.983Z" fill="white"/>
<path d="M95.6536 21.4507H97.4142V22.9915C97.5402 22.5083 97.8295 22.0842 98.2325 21.7921C98.6354 21.5 99.1269 21.3581 99.6226 21.3907C99.8368 21.3872 100.051 21.4107 100.259 21.4607V23.2016C99.9924 23.1162 99.7135 23.0756 99.4336 23.0815C99.1644 23.0712 98.8962 23.1194 98.6473 23.223C98.3984 23.3265 98.1746 23.4829 97.9914 23.6815C97.8081 23.88 97.6697 24.1161 97.5855 24.3734C97.5014 24.6308 97.4735 24.9034 97.5038 25.1726V30.5453H95.6536V21.4507Z" fill="white"/>
<path d="M108.784 27.854C108.535 29.4948 106.944 30.6254 104.905 30.6254C102.288 30.6254 100.657 28.8545 100.657 26.0231C100.657 23.1916 102.328 21.3907 104.825 21.3907C107.322 21.3907 108.884 23.1116 108.884 25.863V26.4933H102.527V26.6134C102.497 26.9462 102.538 27.2816 102.647 27.5972C102.756 27.9129 102.931 28.2015 103.16 28.4438C103.389 28.6862 103.666 28.8767 103.974 29.0028C104.282 29.1288 104.612 29.1874 104.944 29.1746C105.382 29.2162 105.821 29.1151 106.198 28.8863C106.574 28.6575 106.867 28.3131 107.033 27.904L108.784 27.854ZM102.537 25.1526H107.033C107.05 24.8529 107.005 24.5529 106.901 24.2715C106.796 23.9902 106.636 23.7334 106.428 23.5174C106.221 23.3014 105.972 23.1308 105.696 23.0162C105.42 22.9016 105.123 22.8455 104.825 22.8515C104.524 22.8502 104.226 22.9088 103.948 23.0239C103.67 23.1391 103.417 23.3086 103.204 23.5225C102.992 23.7365 102.823 23.9907 102.709 24.2705C102.594 24.5502 102.536 24.8501 102.537 25.1526Z" fill="white"/>
<path d="M37.78 8.73438C38.3077 8.73438 38.8137 8.94519 39.1868 9.32045C39.5599 9.69572 39.7695 10.2047 39.7695 10.7354C39.7695 11.2661 39.5599 11.775 39.1868 12.1503C38.8137 12.5256 38.3077 12.7364 37.78 12.7364H36.3774V14.7374H35.4623V8.73438H37.78ZM36.3774 11.8759H37.5413C38.3371 11.8759 38.7946 11.4657 38.7946 10.7254C38.7946 9.985 38.347 9.55478 37.5413 9.55478H36.3774V11.8759Z" fill="white"/>
<path d="M40.6548 12.4562C40.6261 12.1604 40.6594 11.8618 40.7524 11.5796C40.8453 11.2974 40.996 11.038 41.1946 10.8179C41.3932 10.5977 41.6354 10.4218 41.9056 10.3015C42.1758 10.1811 42.4681 10.1189 42.7636 10.1189C43.0591 10.1189 43.3514 10.1811 43.6216 10.3015C43.8918 10.4218 44.134 10.5977 44.3326 10.8179C44.5312 11.038 44.6819 11.2974 44.7748 11.5796C44.8678 11.8618 44.901 12.1604 44.8724 12.4562C44.901 12.7521 44.8678 13.0507 44.7748 13.3328C44.6819 13.615 44.5312 13.8745 44.3326 14.0946C44.134 14.3147 43.8918 14.4906 43.6216 14.611C43.3514 14.7314 43.0591 14.7935 42.7636 14.7935C42.4681 14.7935 42.1758 14.7314 41.9056 14.611C41.6354 14.4906 41.3932 14.3147 41.1946 14.0946C40.996 13.8745 40.8453 13.615 40.7524 13.3328C40.6594 13.0507 40.6261 12.7521 40.6548 12.4562ZM43.9672 12.4562C43.9672 11.4557 43.5295 10.9054 42.7636 10.9054C41.9976 10.9054 41.5699 11.4757 41.5699 12.4562C41.5699 13.4367 41.9976 14.007 42.7636 14.007C43.5295 14.007 43.9175 13.4367 43.9175 12.4562H43.9672Z" fill="white"/>
<path d="M46.9713 13.997H46.9017V14.7073H46.0562V8.44421H46.9415V10.9155H47.0111C47.1433 10.6675 47.3421 10.462 47.5848 10.3222C47.8275 10.1825 48.1044 10.1142 48.3838 10.1251C49.5178 10.1251 50.234 11.0155 50.234 12.4562C50.234 13.8969 49.5178 14.7774 48.3838 14.7774C48.0999 14.7899 47.818 14.7237 47.569 14.5861C47.3199 14.4485 47.1131 14.2447 46.9713 13.997ZM46.9713 12.4562C46.9713 13.3967 47.4388 13.987 48.1849 13.987C48.9309 13.987 49.3786 13.4067 49.3786 12.4562C49.3786 11.5057 48.9309 10.9255 48.1849 10.9255C47.4388 10.9255 46.9216 11.5158 46.9216 12.4562H46.9713Z" fill="white"/>
<path d="M51.3084 8.86445C51.3024 8.74859 51.3311 8.63359 51.3908 8.5343C51.4504 8.43501 51.5383 8.35598 51.6431 8.30742C51.7478 8.25886 51.8647 8.24301 51.9785 8.26189C52.0923 8.28078 52.1978 8.33354 52.2815 8.41337C52.3652 8.4932 52.4232 8.59643 52.448 8.70974C52.4728 8.82304 52.4633 8.94122 52.4206 9.04901C52.378 9.15681 52.3042 9.24927 52.2087 9.31446C52.1133 9.37965 52.0007 9.41458 51.8853 9.41473C51.811 9.41881 51.7366 9.4076 51.6668 9.38178C51.5969 9.35596 51.533 9.31608 51.479 9.26457C51.425 9.21306 51.382 9.151 51.3527 9.08221C51.3233 9.01341 51.3083 8.93931 51.3084 8.86445ZM51.4377 10.2051H52.323V14.7074H51.4377V10.2051Z" fill="white"/>
<path d="M57.5652 13.4868C57.445 13.9089 57.1779 14.2734 56.8127 14.514C56.4475 14.7546 56.0085 14.8552 55.5758 14.7974C55.2779 14.8136 54.9801 14.7622 54.7047 14.647C54.4292 14.5318 54.183 14.3558 53.9843 14.1319C53.7856 13.908 53.6395 13.6421 53.5569 13.3538C53.4742 13.0655 53.4571 12.7621 53.5067 12.4662C53.4666 12.1709 53.4903 11.8703 53.5763 11.585C53.6623 11.2997 53.8085 11.0365 54.005 10.8133C54.2014 10.59 54.4434 10.4121 54.7145 10.2916C54.9856 10.1711 55.2794 10.1109 55.5758 10.1151C56.8291 10.1151 57.5652 10.9655 57.5652 12.3862V12.6964H54.4219V12.7464C54.4082 12.9084 54.4278 13.0716 54.4793 13.2258C54.5307 13.3799 54.6131 13.5219 54.7212 13.6428C54.8293 13.7637 54.9609 13.8611 55.1079 13.9289C55.2549 13.9967 55.4141 14.0335 55.5758 14.037C55.7874 14.0618 56.0016 14.0227 56.1912 13.9248C56.3807 13.8268 56.537 13.6743 56.6401 13.4868H57.5652ZM54.4517 12.036H56.7197C56.7315 11.8815 56.71 11.7262 56.6569 11.5807C56.6037 11.4351 56.52 11.3029 56.4115 11.1928C56.3029 11.0827 56.1722 10.9974 56.028 10.9426C55.8838 10.8879 55.7295 10.865 55.5758 10.8755C55.4239 10.8741 55.2732 10.9032 55.1326 10.9611C54.992 11.0189 54.8643 11.1044 54.7569 11.2124C54.6495 11.3204 54.5645 11.4489 54.507 11.5903C54.4495 11.7317 54.4205 11.8833 54.4219 12.036H54.4517Z" fill="white"/>
<path d="M58.7788 10.205H59.6243V10.8954H59.6939C59.788 10.6556 59.9551 10.4519 60.1713 10.3135C60.3875 10.1751 60.6418 10.1091 60.8976 10.125C61.0296 10.1076 61.1634 10.1076 61.2955 10.125V11.0054C61.1327 10.965 60.9657 10.9449 60.7981 10.9454C60.6523 10.9329 60.5055 10.9511 60.367 10.9987C60.2286 11.0464 60.1015 11.1225 59.9939 11.2223C59.8863 11.3221 59.8006 11.4432 59.7421 11.5782C59.6836 11.7131 59.6536 11.8587 59.6541 12.0059V14.6673H58.7788V10.205Z" fill="white"/>
<path d="M62.1709 14.107L64.6378 11.0255V10.9555H62.1908V10.2051H65.6922V10.8454L63.285 13.8469V13.9169H65.7121V14.6673H62.1709V14.107Z" fill="white"/>
<path d="M74.0579 14.7073H73.1328L72.2077 11.3857H72.1381L71.2229 14.7073H70.3078L69.0743 10.2051H69.9696L70.7753 13.6368H70.8449L71.7601 10.2051H72.6056L73.5307 13.6368H73.6004L74.3961 10.2051H75.2814L74.0579 14.7073Z" fill="white"/>
</svg>
