<svg width="12" height="15" viewBox="0 0 12 15" fill="none" xmlns="http://www.w3.org/2000/svg">
<path d="M9.3 0.406454L6.2 3.55645L3.1 0.456453C2.5 -0.143546 1.55 -0.143546 0.95 0.456453C0.35 1.05645 0.35 2.00645 0.95 2.60645L5.15 6.80645C5.45 7.10645 5.85 7.25645 6.2 7.25645C6.55 7.25645 6.95 7.10645 7.25 6.80645L11.45 2.60645C12.05 2.00645 12.05 1.05645 11.45 0.456453C10.85 -0.143546 9.9 -0.143546 9.3 0.406454Z" fill="white"/>
<path d="M9.3 7.60649L6.2 10.7065L3.1 7.60649C2.5 7.00649 1.55 7.00649 0.95 7.60649C0.35 8.20649 0.35 9.15649 0.95 9.75649L5.15 13.9565C5.45 14.2565 5.85 14.4065 6.2 14.4065C6.55 14.4065 6.95 14.2565 7.25 13.9565L11.45 9.75649C12.05 9.15649 12.05 8.20649 11.45 7.60649C10.85 7.00649 9.9 7.00649 9.3 7.60649Z" fill="white"/>
</svg>
