<svg width="32" height="40" viewBox="0 0 32 40" fill="none" xmlns="http://www.w3.org/2000/svg">
<path d="M31.4327 35.6156C31.2616 34.7914 31.0062 33.9815 30.6743 33.2074C30.348 32.4479 29.9445 31.7156 29.4747 31.0301C29.0097 30.3521 28.4758 29.7148 27.8885 29.1364C27.3019 28.5585 26.6558 28.0326 25.9672 27.5745C25.4091 27.2035 24.6562 27.354 24.2846 27.9124C23.913 28.4703 24.0647 29.2231 24.6222 29.5947C25.1828 29.9675 25.7082 30.3949 26.185 30.8651C26.6619 31.3352 27.0956 31.8527 27.473 32.4027C27.8533 32.9578 28.1803 33.5508 28.4439 34.1647C28.7118 34.7902 28.9181 35.4442 29.0567 36.11C29.1164 36.3991 29.1644 36.6918 29.1995 36.987H17.2133V33.7267C17.2133 33.0567 16.6701 32.5134 16 32.5134C15.3299 32.5134 14.7867 33.0567 14.7867 33.7267V36.9866H2.80044C2.83502 36.6915 2.88264 36.3988 2.9427 36.1097C3.08132 35.4439 3.28759 34.789 3.55574 34.1647C3.81933 33.5508 4.14572 32.9578 4.52641 32.4027C4.90375 31.8524 5.33721 31.3346 5.81466 30.8645C6.2918 30.3943 6.81779 29.9669 7.37653 29.5944C7.94164 29.2183 8.54527 28.8955 9.17074 28.635C9.80744 28.3696 10.4739 28.1657 11.1524 28.0289C11.848 27.8885 12.5653 27.8175 13.2842 27.8175H16C16.8217 27.8175 17.6441 27.735 18.4433 27.5721C19.2223 27.4135 19.9891 27.1762 20.7214 26.8681C21.4406 26.5656 22.1343 26.1907 22.7831 25.7539C23.4259 25.3217 24.0301 24.8251 24.5789 24.2794C25.127 23.734 25.6251 23.1328 26.0606 22.4913C26.4996 21.8442 26.876 21.1536 27.1796 20.4383C27.49 19.7082 27.7284 18.9438 27.8876 18.1672C28.0517 17.371 28.1345 16.5517 28.1345 15.7315V4.35618C28.1345 3.79258 27.7466 3.303 27.1978 3.17469L16.2766 0.618503C16.094 0.575733 15.9057 0.575733 15.7233 0.618503L4.80244 3.17469C4.25341 3.303 3.86544 3.79228 3.86544 4.35618V15.7318C3.86544 16.5529 3.94825 17.3725 4.11205 18.1672C4.2716 18.9444 4.51003 19.7085 4.82003 20.4383C5.12519 21.1557 5.50162 21.8467 5.93933 22.4919C6.37371 23.1316 6.87208 23.7334 7.42112 24.2794C7.96985 24.826 8.57378 25.3223 9.21655 25.7542C9.31634 25.8213 9.42342 25.8768 9.52534 25.9408C9.08793 26.0712 8.65659 26.2204 8.23678 26.3955C7.46844 26.7155 6.72648 27.1122 6.03155 27.5748C5.34389 28.0326 4.69779 28.5579 4.11114 29.1361C3.52328 29.7148 2.98972 30.3521 2.52471 31.0304C2.05454 31.7159 1.65111 32.4485 1.32533 33.2077C0.993482 33.9809 0.738074 34.7911 0.566691 35.6162C0.391061 36.461 0.302185 37.33 0.302185 38.2C0.302185 38.87 0.845455 39.4133 1.51552 39.4133H30.4839C31.1539 39.4133 31.6972 38.87 31.6972 38.2C31.6975 37.3297 31.6086 36.4607 31.4327 35.6156ZM6.29211 5.31835L16 3.04608L25.7079 5.31805V14.5181H6.29211V5.31835ZM9.13313 22.5595C8.6939 22.1224 8.29502 21.641 7.9477 21.129C7.59796 20.6136 7.29675 20.0616 7.05378 19.4892C6.80656 18.9074 6.61668 18.298 6.48928 17.678C6.43953 17.4368 6.40829 17.1908 6.37704 16.9448H25.6229C25.592 17.1908 25.5605 17.4371 25.5107 17.6789C25.3833 18.2983 25.1937 18.9071 24.9462 19.4895C24.7038 20.0607 24.4029 20.6124 24.0529 21.1287C23.7047 21.6413 23.3058 22.1227 22.8669 22.5598C22.4279 22.9969 21.9438 23.394 21.4291 23.7407C20.9094 24.0898 20.3549 24.3898 19.7801 24.6316C19.1947 24.8782 18.5817 25.0678 17.9589 25.1943C16.6792 25.4554 15.322 25.4554 14.0414 25.1943C13.418 25.0675 12.8053 24.8779 12.2195 24.6313C11.6459 24.3901 11.0911 24.0904 10.5709 23.7404C10.0565 23.3943 9.57296 22.9972 9.13313 22.5595Z" fill="#3FC07F"/>
<path d="M18.4073 7.55258H17.2134V6.36958C17.2134 5.69952 16.6701 5.15625 16 5.15625C15.33 5.15625 14.7867 5.69952 14.7867 6.36958V7.55258H13.5928C12.9227 7.55258 12.3795 8.09585 12.3795 8.76592C12.3795 9.43598 12.9227 9.97925 13.5928 9.97925H14.7867V11.1619C14.7867 11.832 15.33 12.3753 16 12.3753C16.6701 12.3753 17.2134 11.832 17.2134 11.1619V9.97925H18.4073C19.0774 9.97925 19.6206 9.43598 19.6206 8.76592C19.6206 8.09585 19.0774 7.55258 18.4073 7.55258Z" fill="#3FC07F"/>
</svg>
