<svg width="32" height="33" viewBox="0 0 32 33" fill="none" xmlns="http://www.w3.org/2000/svg">
<path d="M25.6 8.18001H21.76V6.90001C21.76 6.54801 21.4752 6.26001 21.12 6.26001H10.88C10.5248 6.26001 10.24 6.54801 10.24 6.90001V8.18001H6.40001C6.04481 8.18001 5.76001 8.46801 5.76001 8.82001C5.76001 11.9656 6.48961 14.1096 7.93281 15.1976C8.72961 15.7992 9.57121 15.94 10.1824 15.94C10.2784 15.94 10.368 15.9368 10.4512 15.9304C11.0208 17.7416 12.72 19.06 14.72 19.06H15.36V22.9H12.16C11.1008 22.9 10.24 23.7608 10.24 24.82V26.1C10.24 26.452 10.5248 26.74 10.88 26.74H21.12C21.4752 26.74 21.76 26.452 21.76 26.1V24.82C21.76 23.7608 20.8992 22.9 19.84 22.9H16.64V19.06H17.28C19.28 19.06 20.9792 17.7416 21.552 15.9304C21.6352 15.9368 21.7248 15.94 21.8208 15.94C22.4288 15.94 23.2736 15.7992 24.0704 15.1976C25.5104 14.1096 26.24 11.9656 26.24 8.82001C26.24 8.46801 25.9552 8.18001 25.6 8.18001ZM19.84 24.18C20.192 24.18 20.48 24.468 20.48 24.82V25.46H11.52V24.82C11.52 24.468 11.808 24.18 12.16 24.18H19.84ZM8.68801 14.164C7.69921 13.4056 7.13921 11.7864 7.05281 9.46001H10.24V14.58C10.24 14.6056 10.2432 14.6344 10.2432 14.66C9.84641 14.6696 9.24801 14.596 8.68801 14.164ZM20.48 14.58C20.48 16.3432 19.0432 17.78 17.28 17.78H14.72C12.9568 17.78 11.52 16.3432 11.52 14.58V7.54001H20.48V14.58ZM23.312 14.164C22.7488 14.596 22.1536 14.6696 21.7536 14.66C21.7536 14.6344 21.7568 14.6056 21.7568 14.58V9.46001H24.944C24.864 11.7864 24.304 13.4056 23.312 14.164Z" fill="white"/>
</svg>
