<svg width="32" height="32" viewBox="0 0 32 32" fill="none" xmlns="http://www.w3.org/2000/svg">
<path d="M12.16 17.92C12.16 18.272 11.872 18.56 11.52 18.56H8.96C8.608 18.56 8.32 18.272 8.32 17.92C8.32 17.568 8.608 17.28 8.96 17.28H11.52C11.872 17.28 12.16 17.568 12.16 17.92ZM17.28 17.28H14.72C14.368 17.28 14.08 17.568 14.08 17.92C14.08 18.272 14.368 18.56 14.72 18.56H17.28C17.632 18.56 17.92 18.272 17.92 17.92C17.92 17.568 17.632 17.28 17.28 17.28ZM26.24 10.24V23.68C26.24 25.0912 25.0912 26.24 23.68 26.24H8.32C6.9088 26.24 5.76 25.0912 5.76 23.68V10.24C5.76 8.82881 6.9088 7.68001 8.32 7.68001H10.24V6.40001C10.24 6.04801 10.528 5.76001 10.88 5.76001C11.232 5.76001 11.52 6.04801 11.52 6.40001V7.68001H15.36V6.40001C15.36 6.04801 15.648 5.76001 16 5.76001C16.352 5.76001 16.64 6.04801 16.64 6.40001V7.68001H20.48V6.40001C20.48 6.04801 20.768 5.76001 21.12 5.76001C21.472 5.76001 21.76 6.04801 21.76 6.40001V7.68001H23.68C25.0912 7.68001 26.24 8.82881 26.24 10.24ZM24.96 10.24C24.96 9.53281 24.3872 8.96001 23.68 8.96001H21.76V10.24C21.76 10.592 21.472 10.88 21.12 10.88C20.768 10.88 20.48 10.592 20.48 10.24V8.96001H16.64V10.24C16.64 10.592 16.352 10.88 16 10.88C15.648 10.88 15.36 10.592 15.36 10.24V8.96001H11.52V10.24C11.52 10.592 11.232 10.88 10.88 10.88C10.528 10.88 10.24 10.592 10.24 10.24V8.96001H8.32C7.6128 8.96001 7.04 9.53281 7.04 10.24V23.68C7.04 24.3872 7.6128 24.96 8.32 24.96H23.68C24.3872 24.96 24.96 24.3872 24.96 23.68V10.24ZM11.52 20.48H8.96C8.608 20.48 8.32 20.768 8.32 21.12C8.32 21.472 8.608 21.76 8.96 21.76H11.52C11.872 21.76 12.16 21.472 12.16 21.12C12.16 20.768 11.872 20.48 11.52 20.48ZM17.28 20.48H14.72C14.368 20.48 14.08 20.768 14.08 21.12C14.08 21.472 14.368 21.76 14.72 21.76H17.28C17.632 21.76 17.92 21.472 17.92 21.12C17.92 20.768 17.632 20.48 17.28 20.48ZM23.04 12.8H8.96C8.608 12.8 8.32 13.088 8.32 13.44C8.32 13.792 8.608 14.08 8.96 14.08H23.04C23.392 14.08 23.68 13.792 23.68 13.44C23.68 13.088 23.392 12.8 23.04 12.8ZM23.04 17.28H20.48C20.128 17.28 19.84 17.568 19.84 17.92C19.84 18.272 20.128 18.56 20.48 18.56H23.04C23.392 18.56 23.68 18.272 23.68 17.92C23.68 17.568 23.392 17.28 23.04 17.28ZM23.04 20.48H20.48C20.128 20.48 19.84 20.768 19.84 21.12C19.84 21.472 20.128 21.76 20.48 21.76H23.04C23.392 21.76 23.68 21.472 23.68 21.12C23.68 20.768 23.392 20.48 23.04 20.48Z" fill="#DF3020"/>
</svg>
