<svg width="32" height="33" viewBox="0 0 32 33" fill="none" xmlns="http://www.w3.org/2000/svg">
<path d="M23.68 7.54001H8.32001C6.90881 7.54001 5.76001 8.68881 5.76001 10.1V19.7C5.76001 21.1112 6.90881 22.26 8.32001 22.26H16V24.82C16 25.092 16.1728 25.3352 16.4288 25.4248C16.496 25.4472 16.5696 25.46 16.64 25.46C16.832 25.46 17.0144 25.3736 17.1392 25.22L19.5072 22.26H23.68C25.0912 22.26 26.24 21.1112 26.24 19.7V10.1C26.24 8.68881 25.0912 7.54001 23.68 7.54001ZM24.96 19.7C24.96 20.4072 24.3872 20.98 23.68 20.98H19.2C19.0048 20.98 18.8224 21.0696 18.7008 21.22L17.28 22.996V21.62C17.28 21.268 16.9952 20.98 16.64 20.98H8.32001C7.61281 20.98 7.04001 20.4072 7.04001 19.7V10.1C7.04001 9.39281 7.61281 8.82001 8.32001 8.82001H23.68C24.3872 8.82001 24.96 9.39281 24.96 10.1V19.7ZM21.12 16.5C21.12 16.852 20.8352 17.14 20.48 17.14H11.52C11.1648 17.14 10.88 16.852 10.88 16.5C10.88 16.148 11.1648 15.86 11.52 15.86H20.48C20.8352 15.86 21.12 16.148 21.12 16.5ZM10.88 13.3C10.88 12.948 11.1648 12.66 11.52 12.66H16.64C16.9952 12.66 17.28 12.948 17.28 13.3C17.28 13.652 16.9952 13.94 16.64 13.94H11.52C11.1648 13.94 10.88 13.652 10.88 13.3Z" fill="white"/>
</svg>
