<svg width="100%" height="100%" viewBox="0 0 24 24" fill="none" xmlns="http://www.w3.org/2000/svg">
<path fill-rule="evenodd" clip-rule="evenodd" d="M14.4 2C14.4 0.895431 13.5046 0 12.4 0H11.6C10.4954 0 9.6 0.895429 9.6 2V7.6C9.6 8.70457 8.70457 9.6 7.6 9.6H2C0.89543 9.6 0 10.4954 0 11.6V12.4C0 13.5046 0.895429 14.4 2 14.4H7.6C8.70457 14.4 9.6 15.2954 9.6 16.4V22C9.6 23.1046 10.4954 24 11.6 24H12.4C13.5046 24 14.4 23.1046 14.4 22V16.4C14.4 15.2954 15.2954 14.4 16.4 14.4H22C23.1046 14.4 24 13.5046 24 12.4V11.6C24 10.4954 23.1046 9.6 22 9.6H16.4C15.2954 9.6 14.4 8.70457 14.4 7.6V2Z" fill="#3FC07F"/>
</svg>
