<svg width="32" height="33" viewBox="0 0 32 33" fill="none" xmlns="http://www.w3.org/2000/svg">
<path d="M12.8 6.89999H8.96002C7.54882 6.89999 6.40002 8.04879 6.40002 9.45999V13.3C6.40002 14.7112 7.54882 15.86 8.96002 15.86H12.8C14.2112 15.86 15.36 14.7112 15.36 13.3V9.45999C15.36 8.04879 14.2112 6.89999 12.8 6.89999ZM14.08 13.3C14.08 14.0072 13.5072 14.58 12.8 14.58H8.96002C8.25282 14.58 7.68002 14.0072 7.68002 13.3V9.45999C7.68002 8.75279 8.25282 8.17999 8.96002 8.17999H12.8C13.5072 8.17999 14.08 8.75279 14.08 9.45999V13.3ZM12.8 17.14H8.96002C7.54882 17.14 6.40002 18.2888 6.40002 19.7V23.54C6.40002 24.9512 7.54882 26.1 8.96002 26.1H12.8C14.2112 26.1 15.36 24.9512 15.36 23.54V19.7C15.36 18.2888 14.2112 17.14 12.8 17.14ZM14.08 23.54C14.08 24.2472 13.5072 24.82 12.8 24.82H8.96002C8.25282 24.82 7.68002 24.2472 7.68002 23.54V19.7C7.68002 18.9928 8.25282 18.42 8.96002 18.42H12.8C13.5072 18.42 14.08 18.9928 14.08 19.7V23.54ZM23.04 6.89999H19.2C17.7888 6.89999 16.64 8.04879 16.64 9.45999V13.3C16.64 14.7112 17.7888 15.86 19.2 15.86H23.04C24.4512 15.86 25.6 14.7112 25.6 13.3V9.45999C25.6 8.04879 24.4512 6.89999 23.04 6.89999ZM24.32 13.3C24.32 14.0072 23.7472 14.58 23.04 14.58H19.2C18.4928 14.58 17.92 14.0072 17.92 13.3V9.45999C17.92 8.75279 18.4928 8.17999 19.2 8.17999H23.04C23.7472 8.17999 24.32 8.75279 24.32 9.45999V13.3ZM23.04 17.14H19.2C17.7888 17.14 16.64 18.2888 16.64 19.7V23.54C16.64 24.9512 17.7888 26.1 19.2 26.1H23.04C24.4512 26.1 25.6 24.9512 25.6 23.54V19.7C25.6 18.2888 24.4512 17.14 23.04 17.14ZM24.32 23.54C24.32 24.2472 23.7472 24.82 23.04 24.82H19.2C18.4928 24.82 17.92 24.2472 17.92 23.54V19.7C17.92 18.9928 18.4928 18.42 19.2 18.42H23.04C23.7472 18.42 24.32 18.9928 24.32 19.7V23.54Z" fill="white"/>
</svg>
