<svg width="45" height="44" viewBox="0 0 45 44" fill="none" xmlns="http://www.w3.org/2000/svg">
<path d="M13.1357 38.9999C12.8159 38.9999 12.556 38.7378 12.556 38.4151V34.4832C12.556 34.1606 12.8159 33.8984 13.1357 33.8984C13.4555 33.8984 13.7153 34.1606 13.7153 34.4832V38.4151C13.7153 38.7378 13.4555 38.9999 13.1357 38.9999Z" fill="#339966"/>
<path d="M28.2065 38.9999C27.8867 38.9999 27.6269 38.7378 27.6269 38.4151V34.4832C27.6269 34.1606 27.8867 33.8984 28.2065 33.8984C28.5263 33.8984 28.7862 34.1606 28.7862 34.4832V38.4151C28.7862 38.7378 28.5263 38.9999 28.2065 38.9999Z" fill="#339966"/>
<path d="M20.791 26.8816C20.791 26.8816 20.6911 26.8816 20.6511 26.8816C18.5724 26.9421 16.7535 25.6516 15.4543 23.1312C14.5748 21.4576 14.1151 19.4815 14.1151 17.4046V17.203C14.1151 17.0014 14.1151 16.7997 14.1551 16.5981C14.195 16.3158 14.4349 16.094 14.7347 16.094H26.5875C26.8673 16.094 27.1072 16.2956 27.1472 16.5578C27.2071 16.8602 27.2471 17.1425 27.2471 17.4046C27.2471 19.5017 26.7674 21.4979 25.888 23.1715C24.6087 25.5912 22.8498 26.8816 20.811 26.8816H20.791ZM20.6511 25.7121C22.3501 25.7525 23.7492 24.7241 24.8486 22.6271C25.6481 21.1148 26.0678 19.3 26.0678 17.4046C26.0678 17.3643 26.0678 17.3038 26.0678 17.2635H15.2544V17.4046C15.2544 19.3 15.6741 21.0745 16.4537 22.5867C17.573 24.704 18.9921 25.7726 20.6311 25.7121H20.6511Z" fill="#339966"/>
<path d="M26.2077 17.2633H15.1345C14.5548 17.2633 14.0951 16.7995 14.0951 16.2148V10.952C14.0951 9.92364 14.9146 9.09692 15.934 9.09692H25.3883C26.4076 9.09692 27.2271 9.92364 27.2271 10.952V16.2148C27.2271 16.7995 26.7674 17.2633 26.1878 17.2633H26.2077ZM15.2544 16.0938H26.0878V10.952C26.0878 10.5689 25.768 10.2463 25.3883 10.2463H15.934C15.5542 10.2463 15.2344 10.5689 15.2344 10.952V16.0938H15.2544Z" fill="#339966"/>
<path d="M26.6675 20.8122C26.5276 20.8122 26.3676 20.8122 26.2277 20.7517C25.9279 20.671 25.728 20.3686 25.788 20.0661C25.9879 19.2192 26.0678 18.3119 26.0678 17.4045C26.0678 17.223 26.0478 17.0214 26.0079 16.7996C25.9679 16.6383 26.0079 16.4568 26.1078 16.3358C26.2078 16.1947 26.3676 16.114 26.5275 16.114C26.5275 16.114 26.5875 16.114 26.6475 16.114C27.8068 16.114 28.7462 17.1625 28.7462 18.4732C28.7462 19.7838 27.8068 20.8323 26.6475 20.8323L26.6675 20.8122ZM27.2471 17.5053C27.2471 18.1909 27.1871 18.8765 27.0872 19.5217C27.407 19.3201 27.6269 18.9168 27.6269 18.453C27.6269 18.0699 27.487 17.7271 27.2671 17.5053H27.2471Z" fill="#339966"/>
<path d="M14.6947 20.8123C13.5354 20.8123 12.596 19.7638 12.596 18.4532C12.596 17.1425 13.5354 16.094 14.6947 16.094C14.7347 16.094 14.7947 16.094 14.8346 16.094C14.9945 16.094 15.1345 16.1948 15.2344 16.3158C15.3343 16.4569 15.3543 16.6183 15.3343 16.7796C15.2944 17.0014 15.2744 17.203 15.2744 17.3845C15.2744 18.2919 15.3743 19.1992 15.5542 20.0461C15.6342 20.3486 15.4343 20.6712 15.1145 20.7317C14.9746 20.772 14.8346 20.7922 14.6747 20.7922L14.6947 20.8123ZM14.1151 17.5055C13.8952 17.7273 13.7553 18.07 13.7553 18.4532C13.7553 18.9169 13.9752 19.3404 14.295 19.5218C14.195 18.8564 14.1351 18.191 14.1351 17.5055H14.1151Z" fill="#339966"/>
<path d="M33.1236 39.0001H8.23865C7.91884 39.0001 7.659 38.738 7.659 38.4153V32.2251C7.659 30.1079 9.35797 28.3939 11.4567 28.3939H16.7135C17.3731 28.3939 17.8928 27.8495 17.8928 27.2043V25.7323C17.8928 25.5307 17.9927 25.329 18.1726 25.2282C18.3525 25.1274 18.5724 25.1274 18.7523 25.2282C19.3519 25.571 19.9715 25.7323 20.6511 25.7121C21.3707 25.7121 21.9703 25.571 22.57 25.2282C22.7498 25.1274 22.9697 25.1274 23.1496 25.2282C23.3295 25.329 23.4294 25.5307 23.4294 25.7323V27.1841C23.4294 27.8495 23.9691 28.3738 24.6087 28.3738H29.8855C31.9843 28.3738 33.6832 30.0877 33.6832 32.2049V38.3952C33.6832 38.7178 33.4234 38.9799 33.1036 38.9799L33.1236 39.0001ZM8.79831 37.8306H32.5439V32.2251C32.5439 30.7531 31.3446 29.5433 29.8855 29.5433H24.6087C23.3295 29.5433 22.2701 28.4947 22.2701 27.1841V26.6195C21.7504 26.801 21.2108 26.8816 20.6511 26.8615C20.1114 26.8615 19.5518 26.801 19.0321 26.6195V27.1841C19.0321 28.4746 17.9927 29.5433 16.6935 29.5433H11.4367C9.97759 29.5433 8.77831 30.7531 8.77831 32.2251V37.8306H8.79831Z" fill="#339966"/>
<path d="M20.6711 15.4084C20.3513 15.4084 20.0915 15.1463 20.0915 14.8236V11.4966C20.0915 11.174 20.3513 10.9119 20.6711 10.9119C20.9909 10.9119 21.2507 11.174 21.2507 11.4966V14.8236C21.2507 15.1463 20.9909 15.4084 20.6711 15.4084Z" fill="#339966"/>
<path d="M22.3301 13.755H19.0321C18.7123 13.755 18.4525 13.4928 18.4525 13.1702C18.4525 12.8476 18.7123 12.5854 19.0321 12.5854H22.3301C22.6499 12.5854 22.9098 12.8476 22.9098 13.1702C22.9098 13.4928 22.6499 13.755 22.3301 13.755Z" fill="#339966"/>
<path d="M29.4458 16.3157C29.3059 16.3157 29.146 16.2552 29.046 16.1544C28.8861 15.9931 28.8262 15.7511 28.9061 15.5293L29.6457 13.5734C28.9261 12.8677 28.5463 11.9805 28.5463 11.0731C28.5463 8.81475 30.8849 7 33.7632 7C36.6414 7 38.98 8.83491 38.98 11.0731C38.98 13.3113 36.6414 15.1663 33.7632 15.1663C33.4034 15.1663 33.0436 15.1462 32.6838 15.0857L29.6457 16.2955C29.6457 16.2955 29.5057 16.3358 29.4258 16.3358L29.4458 16.3157ZM33.7632 8.14934C31.5245 8.14934 29.7056 9.45999 29.7056 11.0731C29.7056 11.7587 30.0654 12.4442 30.705 12.9685C30.9049 13.1298 30.9649 13.3919 30.8849 13.6137L30.4652 14.7026L32.424 13.9162C32.5239 13.8759 32.6438 13.8557 32.7438 13.8759C33.0836 13.9364 33.4234 13.9767 33.7832 13.9767C36.0218 13.9767 37.8407 12.666 37.8407 11.0529C37.8407 9.43982 36.0218 8.12917 33.7832 8.12917L33.7632 8.14934Z" fill="#339966"/>
<path d="M38.4203 39.0001H6.57965C6.25984 39.0001 6 38.7379 6 38.4153C6 38.0927 6.25984 37.8306 6.57965 37.8306H38.4203C38.7401 37.8306 39 38.0927 39 38.4153C39 38.7379 38.7401 39.0001 38.4203 39.0001Z" fill="#339966"/>
</svg>
