<svg width="32" height="33" viewBox="0 0 32 33" fill="none" xmlns="http://www.w3.org/2000/svg">
<path d="M23.5584 11.9688L18.5184 6.99601C18.0352 6.51921 17.3984 6.26001 16.72 6.26001H10.24C8.82879 6.26001 7.67999 7.40881 7.67999 8.82001V24.18C7.67999 25.5912 8.82879 26.74 10.24 26.74H21.76C23.1712 26.74 24.32 25.5912 24.32 24.18V13.7896C24.32 13.1112 24.0416 12.4456 23.5584 11.9688ZM22.6592 12.8808C22.7808 13.0024 22.8768 13.1464 22.9408 13.3H18.56C17.8528 13.3 17.28 12.7272 17.28 12.02V7.67441C17.4016 7.73521 17.5168 7.80881 17.6192 7.90801L22.6592 12.8808ZM21.76 25.46H10.24C9.53279 25.46 8.95999 24.8872 8.95999 24.18V8.82001C8.95999 8.11281 9.53279 7.54001 10.24 7.54001H16V12.02C16 13.4312 17.1488 14.58 18.56 14.58H23.04V24.18C23.04 24.8872 22.4672 25.46 21.76 25.46ZM21.12 22.9C21.12 23.2552 20.8352 23.54 20.48 23.54H11.52C11.1648 23.54 10.88 23.2552 10.88 22.9C10.88 22.5448 11.1648 22.26 11.52 22.26H20.48C20.8352 22.26 21.12 22.5448 21.12 22.9ZM21.12 19.7C21.12 20.0552 20.8352 20.34 20.48 20.34H11.52C11.1648 20.34 10.88 20.0552 10.88 19.7C10.88 19.3448 11.1648 19.06 11.52 19.06H20.48C20.8352 19.06 21.12 19.3448 21.12 19.7Z" fill="white"/>
</svg>
