<svg width="100%" height="100%" viewBox="0 0 336 116" fill="none" xmlns="http://www.w3.org/2000/svg">
<circle cx="3" cy="3" r="3" fill="#8CD9B2"/>
<circle cx="25" cy="3" r="3" fill="#8CD9B2"/>
<circle cx="47" cy="3" r="3" fill="#8CD9B2"/>
<circle cx="69" cy="3" r="3" fill="#8CD9B2"/>
<circle cx="91" cy="3" r="3" fill="#8CD9B2"/>
<circle cx="113" cy="3" r="3" fill="#8CD9B2"/>
<circle cx="135" cy="3" r="3" fill="#8CD9B2"/>
<circle cx="157" cy="3" r="3" fill="#8CD9B2"/>
<circle cx="179" cy="3" r="3" fill="#8CD9B2"/>
<circle cx="201" cy="3" r="3" fill="#8CD9B2"/>
<circle cx="223" cy="3" r="3" fill="#8CD9B2"/>
<circle cx="245" cy="3" r="3" fill="#8CD9B2"/>
<circle cx="267" cy="3" r="3" fill="#8CD9B2"/>
<circle cx="289" cy="3" r="3" fill="#8CD9B2"/>
<circle cx="311" cy="3" r="3" fill="#8CD9B2"/>
<circle cx="333" cy="3" r="3" fill="#8CD9B2"/>
<circle cx="3" cy="25" r="3" fill="#8CD9B2"/>
<circle cx="25" cy="25" r="3" fill="#8CD9B2"/>
<circle cx="47" cy="25" r="3" fill="#8CD9B2"/>
<circle cx="69" cy="25" r="3" fill="#8CD9B2"/>
<circle cx="91" cy="25" r="3" fill="#8CD9B2"/>
<circle cx="113" cy="25" r="3" fill="#8CD9B2"/>
<circle cx="135" cy="25" r="3" fill="#8CD9B2"/>
<circle cx="157" cy="25" r="3" fill="#8CD9B2"/>
<circle cx="179" cy="25" r="3" fill="#8CD9B2"/>
<circle cx="201" cy="25" r="3" fill="#8CD9B2"/>
<circle cx="223" cy="25" r="3" fill="#8CD9B2"/>
<circle cx="245" cy="25" r="3" fill="#8CD9B2"/>
<circle cx="267" cy="25" r="3" fill="#8CD9B2"/>
<circle cx="289" cy="25" r="3" fill="#8CD9B2"/>
<circle cx="311" cy="25" r="3" fill="#8CD9B2"/>
<circle cx="333" cy="25" r="3" fill="#8CD9B2"/>
<circle cx="3" cy="47" r="3" fill="#8CD9B2"/>
<circle cx="25" cy="47" r="3" fill="#8CD9B2"/>
<circle cx="47" cy="47" r="3" fill="#8CD9B2"/>
<circle cx="69" cy="47" r="3" fill="#8CD9B2"/>
<circle cx="91" cy="47" r="3" fill="#8CD9B2"/>
<circle cx="113" cy="47" r="3" fill="#8CD9B2"/>
<circle cx="135" cy="47" r="3" fill="#8CD9B2"/>
<circle cx="157" cy="47" r="3" fill="#8CD9B2"/>
<circle cx="179" cy="47" r="3" fill="#8CD9B2"/>
<circle cx="201" cy="47" r="3" fill="#8CD9B2"/>
<circle cx="223" cy="47" r="3" fill="#8CD9B2"/>
<circle cx="245" cy="47" r="3" fill="#8CD9B2"/>
<circle cx="267" cy="47" r="3" fill="#8CD9B2"/>
<circle cx="289" cy="47" r="3" fill="#8CD9B2"/>
<circle cx="311" cy="47" r="3" fill="#8CD9B2"/>
<circle cx="333" cy="47" r="3" fill="#8CD9B2"/>
<circle cx="3" cy="69" r="3" fill="#8CD9B2"/>
<circle cx="25" cy="69" r="3" fill="#8CD9B2"/>
<circle cx="47" cy="69" r="3" fill="#8CD9B2"/>
<circle cx="69" cy="69" r="3" fill="#8CD9B2"/>
<circle cx="91" cy="69" r="3" fill="#8CD9B2"/>
<circle cx="113" cy="69" r="3" fill="#8CD9B2"/>
<circle cx="135" cy="69" r="3" fill="#8CD9B2"/>
<circle cx="157" cy="69" r="3" fill="#8CD9B2"/>
<circle cx="179" cy="69" r="3" fill="#8CD9B2"/>
<circle cx="201" cy="69" r="3" fill="#8CD9B2"/>
<circle cx="223" cy="69" r="3" fill="#8CD9B2"/>
<circle cx="245" cy="69" r="3" fill="#8CD9B2"/>
<circle cx="267" cy="69" r="3" fill="#8CD9B2"/>
<circle cx="289" cy="69" r="3" fill="#8CD9B2"/>
<circle cx="311" cy="69" r="3" fill="#8CD9B2"/>
<circle cx="333" cy="69" r="3" fill="#8CD9B2"/>
<circle cx="3" cy="91" r="3" fill="#8CD9B2"/>
<circle cx="25" cy="91" r="3" fill="#8CD9B2"/>
<circle cx="47" cy="91" r="3" fill="#8CD9B2"/>
<circle cx="69" cy="91" r="3" fill="#8CD9B2"/>
<circle cx="91" cy="91" r="3" fill="#8CD9B2"/>
<circle cx="113" cy="91" r="3" fill="#8CD9B2"/>
<circle cx="135" cy="91" r="3" fill="#8CD9B2"/>
<circle cx="157" cy="91" r="3" fill="#8CD9B2"/>
<circle cx="179" cy="91" r="3" fill="#8CD9B2"/>
<circle cx="201" cy="91" r="3" fill="#8CD9B2"/>
<circle cx="223" cy="91" r="3" fill="#8CD9B2"/>
<circle cx="245" cy="91" r="3" fill="#8CD9B2"/>
<circle cx="267" cy="91" r="3" fill="#8CD9B2"/>
<circle cx="289" cy="91" r="3" fill="#8CD9B2"/>
<circle cx="311" cy="91" r="3" fill="#8CD9B2"/>
<circle cx="333" cy="91" r="3" fill="#8CD9B2"/>
<circle cx="3" cy="113" r="3" fill="#8CD9B2"/>
<circle cx="25" cy="113" r="3" fill="#8CD9B2"/>
<circle cx="47" cy="113" r="3" fill="#8CD9B2"/>
<circle cx="69" cy="113" r="3" fill="#8CD9B2"/>
<circle cx="91" cy="113" r="3" fill="#8CD9B2"/>
<circle cx="113" cy="113" r="3" fill="#8CD9B2"/>
<circle cx="135" cy="113" r="3" fill="#8CD9B2"/>
<circle cx="157" cy="113" r="3" fill="#8CD9B2"/>
<circle cx="179" cy="113" r="3" fill="#8CD9B2"/>
<circle cx="201" cy="113" r="3" fill="#8CD9B2"/>
<circle cx="223" cy="113" r="3" fill="#8CD9B2"/>
<circle cx="245" cy="113" r="3" fill="#8CD9B2"/>
<circle cx="267" cy="113" r="3" fill="#8CD9B2"/>
<circle cx="289" cy="113" r="3" fill="#8CD9B2"/>
<circle cx="311" cy="113" r="3" fill="#8CD9B2"/>
<circle cx="333" cy="113" r="3" fill="#8CD9B2"/>
</svg>
