<svg width="26" height="27" viewBox="0 0 26 27" fill="none" xmlns="http://www.w3.org/2000/svg">
<rect y="0.40625" width="26" height="26" rx="5" fill="white"/>
<path fill-rule="evenodd" clip-rule="evenodd" d="M12.496 21.3449L9.09149 17.9792C8.30868 17.1936 9.48299 16.0152 10.2658 16.8007L11.728 18.2683C11.973 18.5141 12.1696 18.4317 12.1696 18.0866V11.9738C12.1696 11.5135 12.5413 11.1406 12.9999 11.1406C13.4587 11.1406 13.8302 11.5135 13.8302 11.9738V18.0866C13.8302 18.4305 14.028 18.513 14.2718 18.2683L15.7342 16.8007C16.517 16.0152 17.6913 17.1936 16.9085 17.9792L13.532 21.3429C13.2469 21.6269 12.7826 21.6282 12.496 21.3449ZM15.7083 15.5156C15.2481 15.5156 14.875 15.1425 14.875 14.6822C14.875 14.222 15.2481 13.8489 15.7083 13.8489H15.9173C16.1469 13.8489 16.3333 13.6624 16.3333 13.4324V7.59875C16.3333 7.36879 16.1468 7.18225 15.9168 7.18225L10.0832 7.18225C9.85322 7.18225 9.66668 7.3688 9.66668 7.59875V13.4324C9.66668 13.6624 9.85318 13.8489 10.0827 13.8489H10.2917C10.7519 13.8489 11.125 14.222 11.125 14.6822C11.125 15.1425 10.7519 15.5156 10.2917 15.5156H10.0827C8.93263 15.5156 8.00002 14.5828 8.00002 13.4324V7.59875C8.00002 6.44836 8.93272 5.51559 10.0832 5.51559H15.9168C17.0672 5.51559 18 6.44829 18 7.59875V13.4324C18 14.5827 17.0676 15.5156 15.9173 15.5156H15.7083Z" fill="#F6610D"/>
</svg>
