<svg width="32" height="32" viewBox="0 0 32 32" fill="none" xmlns="http://www.w3.org/2000/svg">
<path d="M26.24 16C26.24 18.1184 24.5184 19.84 22.4 19.84H19.2C18.848 19.84 18.56 19.5552 18.56 19.2C18.56 18.8448 18.848 18.56 19.2 18.56H22.4C23.8112 18.56 24.96 17.4112 24.96 16C24.96 14.5888 23.8112 13.44 22.4 13.44C22.048 13.44 21.76 13.152 21.76 12.8C21.76 11.3888 20.6112 10.24 19.2 10.24C18.992 10.24 18.7712 10.2752 18.5088 10.3488C18.2464 10.4224 17.9648 10.3232 17.8112 10.0992C17.0304 8.98564 15.7536 8.32004 14.4 8.32004C12.1056 8.32004 10.24 10.1856 10.24 12.48C10.24 12.5536 10.2464 12.6272 10.2496 12.7008C10.2624 12.8768 10.2016 13.0784 10.08 13.2096C9.94881 13.3472 9.78561 13.4528 9.57121 13.44C8.17601 13.4528 7.04001 14.5984 7.04001 16C7.04001 17.4112 8.18881 18.56 9.60001 18.56H12.8C13.152 18.56 13.44 18.8448 13.44 19.2C13.44 19.5552 13.152 19.84 12.8 19.84H9.60001C7.48161 19.84 5.76001 18.1184 5.76001 16C5.76001 14.0992 7.14881 12.5152 8.96641 12.2112C9.10721 9.33764 11.4912 7.04004 14.4 7.04004C16.0256 7.04004 17.5616 7.77284 18.592 9.01764C18.8032 8.97924 19.0016 8.96004 19.2 8.96004C21.1168 8.96004 22.7072 10.3712 22.9952 12.2048C24.8288 12.4928 26.24 14.0832 26.24 16ZM17.4688 21.9488L16.64 22.7744V14.72C16.64 14.368 16.352 14.08 16 14.08C15.648 14.08 15.36 14.368 15.36 14.72V22.7744L14.5312 21.9456C14.2816 21.696 13.8752 21.696 13.6256 21.9456C13.376 22.1952 13.376 22.6016 13.6256 22.8512L15.5456 24.7712C15.6736 24.896 15.8368 24.96 16 24.96C16.1632 24.96 16.3264 24.896 16.4512 24.7712L18.3712 22.8512C18.6208 22.6016 18.6208 22.1952 18.3712 21.9456C18.1216 21.696 17.7184 21.696 17.4688 21.9488Z" fill="white"/>
</svg>
