<svg width="32" height="32" viewBox="0 0 32 32" fill="none" xmlns="http://www.w3.org/2000/svg">
<path d="M23.5583 11.4688L18.5183 6.49601C18.0351 6.01921 17.3983 5.76001 16.7199 5.76001H10.2399C8.82873 5.76001 7.67993 6.90881 7.67993 8.32001V23.68C7.67993 25.0912 8.82873 26.24 10.2399 26.24H21.7599C23.1711 26.24 24.3199 25.0912 24.3199 23.68V13.2896C24.3199 12.6112 24.0415 11.9456 23.5583 11.4688ZM22.6591 12.3808C22.7807 12.5024 22.8767 12.6464 22.9407 12.8H18.5599C17.8527 12.8 17.2799 12.2272 17.2799 11.52V7.17441C17.4015 7.23521 17.5167 7.30881 17.6191 7.40801L22.6591 12.3808ZM21.7599 24.96H10.2399C9.53273 24.96 8.95993 24.3872 8.95993 23.68V8.32001C8.95993 7.61281 9.53273 7.04001 10.2399 7.04001H15.9999V11.52C15.9999 12.9312 17.1487 14.08 18.5599 14.08H23.0399V23.68C23.0399 24.3872 22.4671 24.96 21.7599 24.96Z" fill="white"/>
</svg>
