<svg width="135" height="40" viewBox="0 0 135 40" fill="none" xmlns="http://www.w3.org/2000/svg">
<path d="M130 0H5C2.23858 0 0 2.23858 0 5V35C0 37.7614 2.23858 40 5 40H130C132.761 40 135 37.7614 135 35V5C135 2.23858 132.761 0 130 0Z" fill="black"/>
<path d="M130 0.8C131.114 0.8 132.182 1.2425 132.97 2.03015C133.758 2.8178 134.2 3.88609 134.2 5V35C134.2 36.1139 133.758 37.1822 132.97 37.9698C132.182 38.7575 131.114 39.2 130 39.2H5C3.88609 39.2 2.8178 38.7575 2.03015 37.9698C1.2425 37.1822 0.8 36.1139 0.8 35V5C0.8 3.88609 1.2425 2.8178 2.03015 2.03015C2.8178 1.2425 3.88609 0.8 5 0.8H130ZM130 0H5C3.67392 0 2.40215 0.526784 1.46447 1.46447C0.526784 2.40215 0 3.67392 0 5V35C0 36.3261 0.526784 37.5979 1.46447 38.5355C2.40215 39.4732 3.67392 40 5 40H130C131.326 40 132.598 39.4732 133.536 38.5355C134.473 37.5979 135 36.3261 135 35V5C135 3.67392 134.473 2.40215 133.536 1.46447C132.598 0.526784 131.326 0 130 0Z" fill="#A7A6A5"/>
<path d="M68.14 21.7499C67.2974 21.7519 66.4744 22.0037 65.7749 22.4734C65.0755 22.9432 64.531 23.6098 64.2104 24.3889C63.8898 25.1681 63.8075 26.0248 63.9738 26.8508C64.1401 27.6768 64.5476 28.4349 65.1448 29.0293C65.742 29.6236 66.502 30.0276 67.3287 30.19C68.1555 30.3524 69.0118 30.2661 69.7895 29.9418C70.5671 29.6175 71.2311 29.07 71.6976 28.3683C72.164 27.6667 72.412 26.8425 72.41 25.9999C72.4181 25.4379 72.3131 24.8799 72.1012 24.3593C71.8892 23.8386 71.5746 23.366 71.1762 22.9694C70.7778 22.5729 70.3037 22.2606 69.7821 22.051C69.2604 21.8415 68.702 21.7391 68.14 21.7499ZM68.14 28.5799C67.6236 28.616 67.1082 28.496 66.6609 28.2353C66.2137 27.9747 65.8552 27.5855 65.632 27.1184C65.4088 26.6512 65.3314 26.1278 65.4097 25.6161C65.4879 25.1043 65.7184 24.628 66.0709 24.249C66.4235 23.8699 66.882 23.6057 67.3867 23.4907C67.8915 23.3757 68.4192 23.4152 68.9012 23.604C69.3832 23.7929 69.7972 24.1223 70.0895 24.5496C70.3818 24.9769 70.5387 25.4822 70.54 25.9999C70.5561 26.3279 70.5063 26.6559 70.3937 26.9643C70.2811 27.2728 70.1078 27.5556 69.8841 27.7961C69.6604 28.0366 69.3909 28.2298 69.0913 28.3644C68.7918 28.499 68.4683 28.5723 68.14 28.5799ZM58.82 21.7499C57.9774 21.7519 57.1544 22.0037 56.4549 22.4734C55.7555 22.9432 55.211 23.6098 54.8904 24.3889C54.5698 25.1681 54.4875 26.0248 54.6538 26.8508C54.8201 27.6768 55.2276 28.4349 55.8248 29.0293C56.422 29.6236 57.182 30.0276 58.0087 30.19C58.8355 30.3524 59.6918 30.2661 60.4695 29.9418C61.2471 29.6175 61.9111 29.07 62.3776 28.3683C62.844 27.6667 63.0919 26.8425 63.09 25.9999C63.0981 25.4379 62.9931 24.8799 62.7812 24.3593C62.5692 23.8386 62.2546 23.366 61.8562 22.9694C61.4578 22.5729 60.9837 22.2606 60.4621 22.051C59.9404 21.8415 59.382 21.7391 58.82 21.7499ZM58.82 28.5799C58.3036 28.616 57.7882 28.496 57.3409 28.2353C56.8937 27.9747 56.5352 27.5855 56.312 27.1184C56.0888 26.6512 56.0114 26.1278 56.0897 25.6161C56.1679 25.1043 56.3984 24.628 56.7509 24.249C57.1035 23.8699 57.562 23.6057 58.0667 23.4907C58.5715 23.3757 59.0992 23.4152 59.5812 23.604C60.0632 23.7929 60.4772 24.1223 60.7695 24.5496C61.0618 24.9769 61.2187 25.4822 61.22 25.9999C61.2361 26.3279 61.1863 26.6559 61.0737 26.9643C60.9611 27.2728 60.7878 27.5556 60.5641 27.7961C60.3404 28.0366 60.0709 28.2298 59.7713 28.3644C59.4718 28.499 59.1483 28.5723 58.82 28.5799ZM47.74 23.0599V24.8599H52.06C51.9922 25.7077 51.6398 26.5077 51.06 27.1299C50.6266 27.5714 50.1054 27.9171 49.5301 28.1444C48.9547 28.3718 48.3381 28.4759 47.72 28.4499C46.4469 28.4499 45.226 27.9442 44.3259 27.044C43.4257 26.1439 42.92 24.923 42.92 23.6499C42.92 22.3769 43.4257 21.156 44.3259 20.2558C45.226 19.3556 46.4469 18.8499 47.72 18.8499C48.9404 18.8318 50.1189 19.2952 51 20.1399L52.27 18.8699C51.674 18.2804 50.9663 17.8158 50.1884 17.5033C49.4106 17.1908 48.5782 17.0366 47.74 17.0499C46.851 17.0153 45.9641 17.1605 45.1326 17.4769C44.3011 17.7932 43.5419 18.2742 42.9007 18.8909C42.2595 19.5077 41.7494 20.2475 41.401 21.0661C41.0525 21.8847 40.8729 22.7652 40.8729 23.6549C40.8729 24.5446 41.0525 25.4251 41.401 26.2437C41.7494 27.0623 42.2595 27.8022 42.9007 28.4189C43.5419 29.0357 44.3011 29.5166 45.1326 29.833C45.9641 30.1493 46.851 30.2945 47.74 30.2599C48.5954 30.2941 49.4484 30.1469 50.2429 29.8281C51.0374 29.5092 51.7555 29.0259 52.35 28.4099C53.4001 27.2563 53.9596 25.7391 53.91 24.1799C53.9136 23.8046 53.8834 23.4298 53.82 23.0599H47.74ZM93.05 24.4599C92.7892 23.6927 92.3015 23.0227 91.6515 22.5388C91.0015 22.0548 90.2198 21.7797 89.41 21.7499C88.863 21.7489 88.3216 21.86 87.8192 22.0765C87.3169 22.2929 86.8643 22.6101 86.4894 23.0085C86.1145 23.4068 85.8252 23.8778 85.6396 24.3923C85.4539 24.9068 85.3758 25.454 85.41 25.9999C85.4014 26.9128 85.6884 27.8039 86.2281 28.5402C86.7678 29.2765 87.5312 29.8184 88.4042 30.0851C89.2773 30.3517 90.2132 30.3288 91.0722 30.0196C91.9311 29.7105 92.667 29.1318 93.17 28.3699L91.72 27.3699C91.5038 27.7302 91.1972 28.0277 90.8306 28.2329C90.464 28.4382 90.0501 28.544 89.63 28.5399C89.1965 28.5578 88.7678 28.4442 88.4002 28.214C88.0325 27.9837 87.7431 27.6477 87.57 27.2499L93.26 24.8999L93.05 24.4599ZM87.25 25.8799C87.2297 25.5693 87.2716 25.2578 87.3733 24.9635C87.4749 24.6693 87.6342 24.3983 87.8419 24.1664C88.0495 23.9346 88.3014 23.7464 88.5827 23.6131C88.8639 23.4798 89.169 23.4039 89.48 23.3899C89.8022 23.3703 90.123 23.4461 90.4023 23.608C90.6816 23.7699 90.9069 24.0106 91.05 24.2999L87.25 25.8799ZM82.63 29.9999H84.5V17.4999H82.63V29.9999ZM79.57 22.6999H79.5C79.2206 22.3818 78.8759 22.1277 78.4893 21.9551C78.1027 21.7825 77.6833 21.6955 77.26 21.6999C76.1672 21.7529 75.1366 22.2243 74.382 23.0165C73.6273 23.8087 73.2063 24.8608 73.2063 25.9549C73.2063 27.049 73.6273 28.1012 74.382 28.8933C75.1366 29.6855 76.1672 30.1569 77.26 30.2099C77.6839 30.2184 78.1046 30.1332 78.4918 29.9603C78.879 29.7875 79.2233 29.5312 79.5 29.2099H79.57V29.8199C79.57 31.4499 78.7 32.3199 77.3 32.3199C76.8323 32.3096 76.3782 32.1606 75.9954 31.8918C75.6126 31.6229 75.3183 31.2464 75.15 30.8099L73.53 31.4799C73.8295 32.2322 74.3502 32.8758 75.0234 33.3258C75.6965 33.7757 76.4904 34.0108 77.3 33.9999C79.49 33.9999 81.3 32.7099 81.3 29.5699V21.9999H79.57V22.6999ZM77.42 28.5799C76.7648 28.5391 76.1498 28.25 75.7003 27.7716C75.2508 27.2932 75.0005 26.6614 75.0005 26.0049C75.0005 25.3485 75.2508 24.7167 75.7003 24.2383C76.1498 23.7598 76.7648 23.4708 77.42 23.4299C77.7402 23.4437 78.0544 23.5218 78.3438 23.6596C78.6333 23.7973 78.8921 23.9918 79.1048 24.2316C79.3175 24.4714 79.4798 24.7515 79.5821 25.0553C79.6843 25.3591 79.7244 25.6803 79.7 25.9999C79.7273 26.3206 79.6892 26.6435 79.5881 26.9491C79.4871 27.2546 79.3251 27.5365 79.1119 27.7777C78.8988 28.0189 78.639 28.2143 78.3482 28.3522C78.0574 28.4901 77.7416 28.5676 77.42 28.5799ZM101.81 17.4999H97.33V29.9999H99.2V25.2599H101.81C102.343 25.2982 102.878 25.2263 103.382 25.0487C103.886 24.871 104.348 24.5915 104.739 24.2274C105.13 23.8634 105.442 23.4227 105.655 22.9328C105.869 22.4428 105.979 21.9142 105.979 21.3799C105.979 20.8456 105.869 20.317 105.655 19.8271C105.442 19.3372 105.13 18.8965 104.739 18.5324C104.348 18.1684 103.886 17.8888 103.382 17.7112C102.878 17.5336 102.343 17.4616 101.81 17.4999ZM101.81 23.4999H99.2V19.2399H101.85C102.131 19.2399 102.409 19.2953 102.669 19.4028C102.929 19.5104 103.164 19.668 103.363 19.8667C103.562 20.0654 103.72 20.3013 103.827 20.561C103.935 20.8206 103.99 21.0989 103.99 21.3799C103.99 21.661 103.935 21.9392 103.827 22.1989C103.72 22.4585 103.562 22.6944 103.363 22.8931C103.164 23.0918 102.929 23.2495 102.669 23.357C102.409 23.4646 102.131 23.5199 101.85 23.5199L101.81 23.4999ZM113.35 21.7099C112.669 21.6679 111.991 21.8265 111.399 22.1659C110.807 22.5054 110.328 23.0109 110.02 23.6199L111.67 24.3099C111.837 24.0093 112.087 23.7634 112.39 23.602C112.694 23.4405 113.038 23.3703 113.38 23.3999C113.617 23.3722 113.858 23.392 114.088 23.4582C114.317 23.5245 114.531 23.6358 114.718 23.7856C114.904 23.9355 115.058 24.1209 115.172 24.3311C115.286 24.5413 115.356 24.7721 115.38 25.0099V25.1299C114.779 24.8138 114.109 24.6491 113.43 24.6499C111.65 24.6499 109.83 25.6499 109.83 27.4699C109.848 27.8568 109.943 28.2361 110.11 28.5855C110.277 28.9348 110.513 29.247 110.803 29.5035C111.093 29.7601 111.431 29.9557 111.799 30.0787C112.166 30.2018 112.554 30.2498 112.94 30.2199C113.409 30.2459 113.877 30.1466 114.295 29.9322C114.713 29.7178 115.067 29.3961 115.32 28.9999H115.38V29.9999H117.18V25.1899C117.18 22.9999 115.52 21.7299 113.39 21.7299L113.35 21.7099ZM113.12 28.5599C112.51 28.5599 111.66 28.2499 111.66 27.4999C111.66 26.4999 112.72 26.1599 113.66 26.1599C114.254 26.1453 114.841 26.2903 115.36 26.5799C115.297 27.123 115.04 27.6249 114.635 27.9926C114.231 28.3604 113.707 28.569 113.16 28.5799L113.12 28.5599ZM123.74 21.9999L121.6 27.4199H121.54L119.32 21.9999H117.32L120.65 29.5799L118.75 33.7899H120.7L125.82 21.9999H123.74ZM106.94 29.9999H108.8V17.4999H106.94V29.9999Z" fill="white"/>
<path d="M10.44 7.54998C10.2732 7.74979 10.1482 7.98114 10.0726 8.23025C9.99701 8.47936 9.97233 8.74113 10 8.99998V31.1C9.966 31.6104 10.1349 32.1135 10.47 32.5L10.54 32.57L22.89 20.15V19.85L10.51 7.47998L10.44 7.54998Z" fill="#60C6F1"/>
<path d="M27 24.27L22.88 20.15V19.85L27 15.73L27.1 15.78L32 18.56C33.39 19.35 33.39 20.65 32 21.44L27.11 24.22L27 24.27Z" fill="url(#paint0_linear_2_1484)"/>
<path d="M27.11 24.22L22.89 20L10.44 32.45C10.7229 32.7019 11.0855 32.846 11.4641 32.857C11.8427 32.8679 12.213 32.7451 12.51 32.51L27.11 24.22Z" fill="url(#paint1_linear_2_1484)"/>
<path d="M27.11 15.78L12.51 7.48998C12.213 7.25489 11.8427 7.13204 11.4641 7.14301C11.0855 7.15398 10.7229 7.29809 10.44 7.54998L22.89 20L27.11 15.78Z" fill="url(#paint2_linear_2_1484)"/>
<path d="M42.17 13H41.4V7.00003H43.45C43.9397 6.99163 44.4132 7.1746 44.77 7.51003C44.9441 7.67367 45.0828 7.87121 45.1776 8.09049C45.2724 8.30977 45.3213 8.54614 45.3213 8.78503C45.3213 9.02393 45.2724 9.2603 45.1776 9.47958C45.0828 9.69885 44.9441 9.89639 44.77 10.06C44.4132 10.3955 43.9397 10.5784 43.45 10.57H42.17V13ZM42.17 9.83003H43.46C43.6055 9.8367 43.7507 9.81152 43.8854 9.75625C44.0201 9.70098 44.1412 9.61695 44.24 9.51003C44.3384 9.41661 44.4167 9.30416 44.4702 9.17953C44.5237 9.05489 44.5513 8.92067 44.5513 8.78503C44.5513 8.6494 44.5237 8.51518 44.4702 8.39054C44.4167 8.2659 44.3384 8.15345 44.24 8.06003C44.1412 7.95312 44.0201 7.86909 43.8854 7.81381C43.7507 7.75854 43.6055 7.73336 43.46 7.74003H42.17V9.83003Z" fill="white" stroke="white" stroke-width="0.2" stroke-miterlimit="10"/>
<path d="M51.2 12.22C50.9112 12.509 50.5682 12.7383 50.1907 12.8948C49.8133 13.0512 49.4086 13.1318 49 13.1318C48.5914 13.1318 48.1868 13.0512 47.8093 12.8948C47.4318 12.7383 47.0888 12.509 46.8 12.22C46.2347 11.619 45.9199 10.825 45.9199 9.99996C45.9199 9.1749 46.2347 8.38091 46.8 7.77996C47.0888 7.4909 47.4318 7.26159 47.8093 7.10514C48.1868 6.94869 48.5914 6.86816 49 6.86816C49.4086 6.86816 49.8133 6.94869 50.1907 7.10514C50.5682 7.26159 50.9112 7.4909 51.2 7.77996C51.4889 8.07196 51.7165 8.41879 51.8693 8.80004C52.0221 9.1813 52.0972 9.58927 52.09 9.99996C52.1018 10.4113 52.0289 10.8206 51.8758 11.2025C51.7227 11.5844 51.4927 11.9307 51.2 12.22ZM47.37 11.72C47.5807 11.9388 47.8341 12.1121 48.1145 12.229C48.3948 12.346 48.6962 12.4042 49 12.4C49.304 12.406 49.606 12.3486 49.8866 12.2316C50.1672 12.1145 50.4204 11.9403 50.63 11.72C51.0615 11.2511 51.301 10.6372 51.301 9.99996C51.301 9.36276 51.0615 8.74883 50.63 8.27996C50.4204 8.05967 50.1672 7.88543 49.8866 7.76836C49.606 7.65128 49.304 7.59393 49 7.59996C48.6962 7.59575 48.3948 7.65392 48.1145 7.77089C47.8341 7.88785 47.5807 8.06112 47.37 8.27996C46.9449 8.75197 46.7096 9.36471 46.7096 9.99996C46.7096 10.6352 46.9449 11.248 47.37 11.72Z" fill="white" stroke="white" stroke-width="0.2" stroke-miterlimit="10"/>
<path d="M53.17 13.0001V7.00006H55.34C55.7897 6.99651 56.2246 7.16049 56.56 7.46006C56.7242 7.60687 56.8548 7.78741 56.9428 7.98934C57.0308 8.19127 57.0742 8.40982 57.07 8.63006C57.0767 8.90001 56.9999 9.16545 56.85 9.39006C56.7048 9.60699 56.4999 9.7772 56.26 9.88006C56.5515 9.97317 56.8067 10.155 56.99 10.4001C57.178 10.6429 57.2768 10.943 57.27 11.2501C57.2751 11.4806 57.2294 11.7094 57.136 11.9203C57.0427 12.1311 56.9041 12.3188 56.73 12.4701C56.3865 12.7924 55.9309 12.9682 55.46 12.9601L53.17 13.0001ZM53.94 9.57006H55.34C55.4708 9.5762 55.6014 9.5534 55.7224 9.50327C55.8434 9.45314 55.9518 9.37692 56.04 9.28006C56.2033 9.11052 56.2962 8.88539 56.3 8.65006C56.2999 8.41589 56.2105 8.19059 56.05 8.02006C55.964 7.92657 55.8585 7.85305 55.741 7.80468C55.6235 7.7563 55.4969 7.73425 55.37 7.74006H53.94V9.57006ZM53.94 12.2601H55.49C55.6256 12.266 55.7608 12.2412 55.8855 12.1876C56.0102 12.1339 56.1211 12.0527 56.21 11.9501C56.3004 11.8624 56.3723 11.7575 56.4214 11.6416C56.4705 11.5256 56.4958 11.401 56.4958 11.2751C56.4958 11.1491 56.4705 11.0245 56.4214 10.9085C56.3723 10.7926 56.3004 10.6877 56.21 10.6001C56.1147 10.5001 55.9998 10.4209 55.8724 10.3676C55.7451 10.3142 55.6081 10.2878 55.47 10.2901H53.94V12.2601Z" fill="white" stroke="white" stroke-width="0.2" stroke-miterlimit="10"/>
<path d="M58.31 13V7H59.08V13H58.31Z" fill="white" stroke="white" stroke-width="0.2" stroke-miterlimit="10"/>
<path d="M64 7.74H61.23V9.64H63.69V10.36H61.23V12.26H64V13H60.5V7H64V7.74Z" fill="white" stroke="white" stroke-width="0.2" stroke-miterlimit="10"/>
<path d="M65.17 13V7.00003H67.17C67.6596 6.99163 68.1332 7.1746 68.49 7.51003C68.6718 7.66899 68.8163 7.86615 68.9131 8.08742C69.0099 8.30869 69.0567 8.54861 69.05 8.79003C69.0498 9.19704 68.9044 9.59062 68.64 9.90003C68.3845 10.2079 68.0318 10.4195 67.64 10.5L69.32 13H68.41L66.79 10.57H65.94V13H65.17ZM65.94 9.85003H67.18C67.4722 9.85597 67.7554 9.74844 67.97 9.55003C68.0761 9.45429 68.1605 9.33692 68.2174 9.20582C68.2743 9.07472 68.3025 8.93294 68.3 8.79003C68.3034 8.65508 68.2795 8.52083 68.2297 8.39537C68.1798 8.26991 68.1051 8.15584 68.01 8.06003C67.9111 7.95312 67.7901 7.86909 67.6554 7.81381C67.5206 7.75854 67.3755 7.73336 67.23 7.74003H65.94V9.85003Z" fill="white" stroke="white" stroke-width="0.2" stroke-miterlimit="10"/>
<path d="M69.85 13V12.2L73 7.74H70V7H74V7.8L70.81 12.26H74V13H69.85Z" fill="white" stroke="white" stroke-width="0.2" stroke-miterlimit="10"/>
<path d="M76.75 13V12.2L79.94 7.74H76.88V7H80.88V7.8L77.69 12.26H80.91V13H76.75Z" fill="white" stroke="white" stroke-width="0.2" stroke-miterlimit="10"/>
<defs>
<linearGradient id="paint0_linear_2_1484" x1="31.09" y1="20" x2="6.91001" y2="20" gradientUnits="userSpaceOnUse">
<stop stop-color="#FFE000"/>
<stop offset="0.42" stop-color="#FABC12"/>
<stop offset="0.78" stop-color="#F6A41E"/>
<stop offset="1" stop-color="#F59B22"/>
</linearGradient>
<linearGradient id="paint1_linear_2_1484" x1="24.81" y1="22.29" x2="2.08" y2="45.03" gradientUnits="userSpaceOnUse">
<stop stop-color="#E94649"/>
<stop offset="1" stop-color="#C7196D"/>
</linearGradient>
<linearGradient id="paint2_linear_2_1484" x1="1.97" y1="-5.13002" x2="20.54" y2="13.43" gradientUnits="userSpaceOnUse">
<stop stop-color="#279F70"/>
<stop offset="0.09" stop-color="#30A26F"/>
<stop offset="0.49" stop-color="#58B06C"/>
<stop offset="0.8" stop-color="#70B96A"/>
<stop offset="1" stop-color="#79BC69"/>
</linearGradient>
</defs>
</svg>
