<svg width="100%" height="100%" viewBox="0 0 268 382" fill="none" xmlns="http://www.w3.org/2000/svg">
<g opacity="0.5" clip-path="url(#clip0_21_534)">
<path d="M-236.631 -636.944L-213.222 -678.349L-213.946 -680.064L-237.753 -637.981L-285.049 -637.981L-285.049 -636.505L-238.264 -636.505L-228.817 -620.473L-213.887 -594.612L-238.074 -552.737L-285.058 -552.737L-285.058 -551.262L-238.169 -551.262L-213.847 -509.102L-238.25 -466.837L-238.463 -466.471L-213.924 -423.935L-238.481 -380.494L-213.874 -338.732L-214.272 -338.732L-214.467 -338.393L-213.598 -336.931L-213.408 -337.266L-165.058 -337.719L-152.137 -315.768L-140.623 -295.812L-164.307 -253.928L-163.438 -252.462L-139.415 -294.952L-91.0056 -294.952L-66.6926 -252.778L-91.0961 -210.537L-91.3042 -210.166L-66.5161 -167.177L-90.3134 -125.094L-139.532 -124.642L-138.668 -123.176L-90.6165 -123.628L-66.0682 -81.9656L-89.6936 -40.1901L-88.8295 -38.7239L-64.8286 -81.1737L-16.9942 -81.6263L7.7758 -38.6516L56.886 -38.6516L81.2081 3.5222L56.8091 45.7865L56.5965 46.153L81 88.458L80.7964 88.458L56.6236 131.215L7.10622 131.668L6.6538 132.455L7.52245 133.903L7.97487 133.134L56.325 132.682L80.8778 174.349L57.0896 216.432L57.9628 217.884L82.113 175.168L130.174 174.738L154.939 217.649L204.049 217.649L228.371 259.823L203.972 302.069L203.76 302.44L228.779 345.799L277.889 345.799L297.166 379.231L298.442 378.493L279.318 345.347L303.505 303.467L351.859 303.467L371.037 336.708L372.313 335.975L352.71 301.992L303.6 301.992L279.278 259.823L303.677 217.577L303.889 217.21L279.35 174.674L303.903 131.234L302.206 131.234L278.409 173.317L230.054 173.769L214.672 147.669L205.691 132.098L230.009 90.0146L277.373 89.5938L278.278 88.1141L230.281 88.5394L205.565 45.7005L156.455 45.7005L132.132 3.5403L156.532 -38.7059L156.744 -39.0769L132.191 -81.6127L156.26 -124.275L205.777 -124.728L204.913 -126.194L156.563 -125.741L132.01 -167.404L155.812 -209.487L155.848 -209.487L154.989 -210.953L154.948 -210.953L130.775 -168.196L82.3211 -167.743L58.103 -209.722L82.6604 -253.163L57.4606 -295.93L57.2434 -296.296L8.5087 -295.844L-15.6279 -337.678L-15.5872 -337.678L8.60373 -380.476L58.1211 -380.929L57.2479 -382.39L8.90228 -381.938L-15.6596 -423.627L7.95223 -465.394L7.08358 -466.851L-16.8947 -424.437L-64.7924 -423.985L-89.5217 -466.905L-138.632 -466.905L-162.954 -509.065L-138.555 -551.312L-138.342 -551.678L-162.882 -594.214L-138.333 -637.655L-140.025 -637.655L-163.827 -595.571L-212.177 -595.119L-227.56 -621.22L-236.631 -636.944ZM278.002 260.574L302.17 302.463L277.984 344.338L229.629 344.338L205.461 302.449L229.647 260.569L278.002 260.574ZM278.024 175.335L302.188 217.224L278.002 259.099L229.647 259.099L205.483 217.21L229.67 175.33L278.024 175.335ZM203.968 132.424L213.414 148.452L228.344 174.312L204.158 216.187L155.803 216.187L131.757 174.502L142.746 155.067L155.808 132.41L203.968 132.424ZM141.443 154.343L130.526 173.24L82.407 173.67L57.8587 132.003L81.6605 89.9196L125.998 89.5214L130.02 89.5214L154.545 131.152L141.443 154.343ZM204.696 47.1847L228.57 88.5666L228.444 88.5666L204.465 130.949L156.305 130.949L132.142 89.0598L156.328 47.1847L204.696 47.1847ZM130.839 4.27336L155.002 46.1621L130.843 87.9919L126.038 88.0371L82.4613 88.0371L58.2976 46.1485L82.4839 4.27336L130.839 4.27336ZM-236.789 -380.512L-212.987 -422.596L-164.637 -423.048L-149.255 -396.916L-140.274 -381.381L-164.592 -339.298L-212.241 -338.845L-236.789 -380.512ZM-89.0783 -124.298L-65.2765 -166.381L-20.9393 -166.779L-17.1707 -166.779L7.26005 -124.461L5.05674 -120.565L-16.6096 -83.0471L-64.5028 -82.5946L-89.0783 -124.298ZM130.857 -80.9701L155.025 -39.0814L130.839 2.7982L82.4839 2.7982L58.3157 -39.0905L82.5156 -80.9792L130.857 -80.9701ZM56.981 -40.1132L8.62632 -40.1132L-15.3067 -81.5946L6.32356 -119.854L8.64442 -123.877L56.8272 -123.877L65.1382 -109.768L81.1583 -81.9928L56.981 -40.1132ZM155.043 -125.081L131.241 -82.9974L82.8911 -82.5449L66.4049 -110.523L58.4242 -124.357L82.1401 -166.309L130.49 -166.761L155.043 -125.081ZM56.7955 -209.12L80.9593 -167.232L56.7729 -125.352L9.21449 -125.352L-15.6098 -167.481L8.44086 -209.111L56.7955 -209.12ZM-17.0666 -168.3L-20.9031 -168.268L-65.4394 -168.268L-89.6076 -210.157L-65.4258 -252.045L-17.2747 -252.045L-7.74221 -235.868L7.09263 -210.157L-17.0666 -168.3ZM80.9773 -253.19L57.1755 -211.107L8.82541 -210.654L-6.47091 -236.61L-15.6279 -252.489L-0.90164 -278.54L8.26892 -294.418L56.4245 -294.871L80.9773 -253.19ZM-17.044 -337.271L7.02478 -295.554L-2.19101 -279.264L-17.0621 -253.511L-65.4168 -253.511L-89.585 -295.405L-65.3987 -337.284L-17.044 -337.271ZM-90.9242 -296.418L-139.03 -296.418L-150.874 -316.528L-163.153 -337.796L-163.026 -337.796L-139.048 -380.178L-90.888 -380.178L-66.7242 -338.289L-90.9242 -296.418ZM7.36862 -381.295L-16.4332 -339.212L-64.7833 -338.76L-89.3362 -380.426L-86.3864 -385.644L-65.0819 -422.528L-17.1842 -422.98L7.36862 -381.295ZM-90.3541 -465.421L-66.4347 -423.917L-87.6758 -386.359L-90.3903 -381.657L-138.55 -381.657L-147.979 -397.672L-162.909 -423.564L-138.718 -465.435L-90.3541 -465.421ZM-164.212 -508.332L-140.075 -466.453L-164.261 -424.578L-212.612 -424.578L-236.771 -466.453L-212.584 -508.328L-164.212 -508.332ZM-164.189 -593.576L-140.025 -551.683L-164.212 -509.808L-212.566 -509.808L-236.73 -551.696L-212.562 -593.608L-164.189 -593.576Z" fill="#B2E6CC"/>
<path d="M51.0001 217.857C50.9983 219.148 51.3794 220.411 52.0952 221.485C52.811 222.559 53.8292 223.397 55.0211 223.892C56.2131 224.387 57.5251 224.518 58.7912 224.267C60.0573 224.017 61.2206 223.396 62.1339 222.484C63.0472 221.571 63.6694 220.409 63.9219 219.143C64.1743 217.877 64.0457 216.564 63.5521 215.371C63.0586 214.179 62.2225 213.159 61.1494 212.442C60.0764 211.724 58.8147 211.341 57.524 211.341C55.7953 211.341 54.1373 212.027 52.9141 213.249C51.6909 214.471 51.0025 216.128 51.0001 217.857Z" fill="#B2E6CC"/>
<path d="M2.01209 132.763C2.01209 133.813 2.32334 134.839 2.90647 135.712C3.4896 136.585 4.31843 137.265 5.28813 137.667C6.25784 138.069 7.32488 138.174 8.35431 137.969C9.38375 137.764 10.3293 137.259 11.0715 136.516C11.8137 135.774 12.3191 134.828 12.5239 133.799C12.7287 132.769 12.6236 131.702 12.2219 130.732C11.8203 129.762 11.14 128.933 10.2673 128.35C9.39461 127.766 8.36857 127.455 7.31897 127.455C6.62172 127.454 5.93112 127.59 5.28672 127.857C4.64233 128.123 4.05681 128.514 3.56378 129.007C3.07075 129.5 2.67989 130.086 2.41362 130.73C2.14735 131.375 2.0109 132.066 2.01209 132.763Z" fill="#B2E6CC"/>
<path d="M51.5475 46.0127C51.5475 47.1376 51.881 48.2374 52.5059 49.1728C53.1308 50.1081 54.019 50.8372 55.0581 51.2677C56.0973 51.6982 57.2407 51.8109 58.3438 51.5914C59.447 51.3719 60.4603 50.8302 61.2557 50.0347C62.051 49.2392 62.5926 48.2257 62.812 47.1223C63.0315 46.019 62.9188 44.8753 62.4884 43.836C62.058 42.7966 61.3291 41.9082 60.3939 41.2832C59.4587 40.6582 58.3592 40.3246 57.2344 40.3246C56.4874 40.3241 55.7476 40.4708 55.0574 40.7564C54.3672 41.0421 53.74 41.461 53.2118 41.9893C52.6836 42.5176 52.2648 43.1449 51.9792 43.8352C51.6936 44.5256 51.5469 45.2655 51.5475 46.0127Z" fill="#B2E6CC"/>
<path d="M87.4277 86.8103C86.3708 83.5433 82.8661 81.7518 79.5997 82.8089C76.3332 83.866 74.5421 87.3714 75.599 90.6385C76.6559 93.9055 80.1607 95.697 83.4271 94.6399C86.6935 93.5828 88.4846 90.0774 87.4277 86.8103Z" fill="#B2E6CC"/>
<path d="M64.2341 131.056C63.7389 127.023 60.0686 124.155 56.0361 124.65C52.0036 125.145 49.1359 128.816 49.6311 132.85C50.1262 136.883 53.7966 139.751 57.8291 139.256C61.8616 138.761 64.7292 135.09 64.2341 131.056Z" fill="#B2E6CC"/>
<path d="M85.2996 171.419C83.6772 169.392 80.719 169.064 78.6923 170.687C76.6657 172.31 76.3381 175.269 77.9606 177.296C79.583 179.323 82.5412 179.65 84.5679 178.028C86.5945 176.405 86.9221 173.446 85.2996 171.419Z" fill="#B2E6CC"/>
<path d="M126.038 174.149C126.038 175.095 126.319 176.018 126.844 176.804C127.369 177.59 128.115 178.203 128.988 178.564C129.861 178.926 130.821 179.02 131.748 178.836C132.675 178.652 133.526 178.197 134.194 177.528C134.862 176.86 135.317 176.009 135.502 175.082C135.686 174.155 135.592 173.194 135.23 172.321C134.868 171.448 134.256 170.701 133.47 170.176C132.685 169.651 131.761 169.371 130.816 169.371C130.188 169.37 129.567 169.494 128.987 169.733C128.407 169.973 127.88 170.325 127.436 170.769C126.993 171.213 126.641 171.74 126.401 172.32C126.161 172.9 126.038 173.522 126.038 174.149Z" fill="#B2E6CC"/>
<path d="M150.057 216.911C150.057 217.962 150.369 218.988 150.953 219.861C151.536 220.734 152.365 221.415 153.336 221.816C154.306 222.218 155.373 222.322 156.403 222.117C157.433 221.911 158.378 221.405 159.12 220.662C159.862 219.918 160.367 218.972 160.57 217.941C160.774 216.911 160.668 215.844 160.265 214.874C159.862 213.904 159.18 213.076 158.306 212.494C157.432 211.912 156.405 211.602 155.355 211.604C153.95 211.607 152.603 212.168 151.61 213.163C150.617 214.158 150.059 215.506 150.057 216.911Z" fill="#B2E6CC"/>
<path d="M201.321 302.313C201.321 303.408 201.646 304.478 202.254 305.388C202.862 306.298 203.726 307.007 204.737 307.426C205.748 307.845 206.86 307.955 207.934 307.741C209.007 307.528 209.993 307.001 210.767 306.227C211.541 305.453 212.068 304.467 212.281 303.393C212.495 302.319 212.385 301.207 211.966 300.196C211.547 299.184 210.838 298.32 209.928 297.712C209.018 297.104 207.949 296.779 206.854 296.779C205.387 296.779 203.979 297.362 202.942 298.4C201.904 299.438 201.321 300.846 201.321 302.313Z" fill="#B2E6CC"/>
<path d="M224.806 345.062C224.805 345.932 225.063 346.783 225.545 347.507C226.028 348.231 226.714 348.795 227.518 349.129C228.321 349.462 229.206 349.55 230.059 349.381C230.912 349.212 231.696 348.793 232.312 348.178C232.927 347.563 233.346 346.779 233.516 345.926C233.686 345.073 233.6 344.188 233.267 343.384C232.934 342.58 232.371 341.893 231.647 341.41C230.924 340.926 230.074 340.668 229.204 340.668C228.038 340.668 226.92 341.131 226.096 341.955C225.271 342.778 224.807 343.896 224.806 345.062Z" fill="#B2E6CC"/>
<path d="M224.499 174.475C224.498 175.436 224.782 176.375 225.315 177.174C225.847 177.973 226.605 178.596 227.492 178.964C228.379 179.332 229.355 179.429 230.297 179.242C231.239 179.056 232.105 178.593 232.784 177.915C233.464 177.236 233.926 176.371 234.114 175.429C234.302 174.487 234.206 173.51 233.839 172.623C233.471 171.735 232.849 170.977 232.051 170.443C231.252 169.909 230.314 169.624 229.353 169.624C228.066 169.624 226.832 170.135 225.922 171.045C225.012 171.954 224.5 173.188 224.499 174.475Z" fill="#B2E6CC"/>
<path d="M198.643 217.016C198.642 218.186 198.988 219.331 199.638 220.305C200.288 221.279 201.211 222.038 202.293 222.487C203.374 222.936 204.564 223.054 205.712 222.826C206.86 222.598 207.915 222.035 208.743 221.207C209.571 220.379 210.135 219.325 210.364 218.176C210.593 217.028 210.476 215.838 210.028 214.756C209.58 213.674 208.822 212.75 207.849 212.099C206.875 211.449 205.731 211.101 204.56 211.101C203.784 211.101 203.014 211.253 202.296 211.55C201.578 211.847 200.926 212.283 200.376 212.832C199.827 213.381 199.391 214.033 199.093 214.751C198.796 215.469 198.643 216.239 198.643 217.016Z" fill="#B2E6CC"/>
<path d="M224.598 259.823C224.597 260.739 224.868 261.634 225.376 262.396C225.884 263.158 226.606 263.752 227.452 264.103C228.298 264.454 229.228 264.546 230.127 264.368C231.025 264.19 231.85 263.75 232.497 263.102C233.145 262.455 233.586 261.63 233.765 260.732C233.944 259.834 233.853 258.903 233.503 258.057C233.153 257.211 232.559 256.488 231.798 255.979C231.037 255.47 230.142 255.198 229.226 255.198C228 255.198 226.823 255.685 225.955 256.552C225.087 257.42 224.599 258.596 224.598 259.823Z" fill="#B2E6CC"/>
<path d="M148.723 46.3385C148.722 47.7633 149.144 49.1563 149.934 50.3415C150.725 51.5267 151.849 52.4507 153.165 52.9968C154.481 53.5429 155.929 53.6865 157.326 53.4094C158.723 53.1323 160.007 52.447 161.015 51.4401C162.023 50.4333 162.71 49.1501 162.989 47.7529C163.267 46.3556 163.126 44.907 162.581 43.5904C162.037 42.2737 161.115 41.148 159.931 40.3557C158.747 39.5633 157.354 39.14 155.93 39.1391C154.02 39.1391 152.188 39.8973 150.837 41.2472C149.486 42.5971 148.725 44.4282 148.723 46.3385Z" fill="#B2E6CC"/>
<path d="M125.179 88.82C125.179 89.8703 125.49 90.8971 126.074 91.7703C126.658 92.6435 127.488 93.3238 128.458 93.7251C129.429 94.1265 130.496 94.2308 131.526 94.0249C132.556 93.819 133.501 93.3121 134.243 92.5684C134.985 91.8247 135.489 90.8777 135.692 89.8471C135.896 88.8166 135.788 87.7489 135.385 86.7793C134.981 85.8096 134.299 84.9816 133.424 84.4C132.55 83.8184 131.522 83.5094 130.472 83.512C129.776 83.5126 129.087 83.6504 128.444 83.9176C127.801 84.1847 127.217 84.5759 126.726 85.0688C126.234 85.5618 125.845 86.1468 125.579 86.7904C125.314 87.4341 125.178 88.1237 125.179 88.82Z" fill="#B2E6CC"/>
<path d="M160.746 129.354C159.567 126.488 156.289 125.12 153.423 126.299C150.558 127.478 149.191 130.757 150.369 133.623C151.548 136.489 154.826 137.856 157.692 136.677C160.557 135.498 161.924 132.219 160.746 129.354Z" fill="#B2E6CC"/>
<path d="M197.738 131.831C197.737 133.211 198.146 134.561 198.912 135.709C199.678 136.857 200.767 137.752 202.041 138.281C203.316 138.809 204.719 138.948 206.073 138.68C207.426 138.411 208.67 137.747 209.646 136.771C210.622 135.795 211.287 134.552 211.556 133.198C211.826 131.845 211.688 130.442 211.16 129.166C210.632 127.891 209.738 126.801 208.591 126.034C207.443 125.267 206.094 124.858 204.714 124.858C202.865 124.858 201.091 125.592 199.783 126.9C198.475 128.207 197.739 129.981 197.738 131.831Z" fill="#B2E6CC"/>
<path d="M224.015 88.9241C224.015 89.9739 224.326 91.0001 224.909 91.873C225.492 92.7459 226.321 93.4262 227.291 93.828C228.26 94.2297 229.327 94.3348 230.357 94.13C231.386 93.9252 232.332 93.4197 233.074 92.6774C233.816 91.935 234.322 90.9892 234.526 89.9596C234.731 88.93 234.626 87.8627 234.224 86.8928C233.823 85.9229 233.143 85.0939 232.27 84.5107C231.397 83.9275 230.371 83.6161 229.321 83.6161C227.914 83.6173 226.565 84.177 225.57 85.1721C224.575 86.1673 224.016 87.5167 224.015 88.9241Z" fill="#B2E6CC"/>
<path d="M197.996 46.4426C197.996 47.8522 198.414 49.2301 199.197 50.4022C199.98 51.5742 201.093 52.4877 202.395 53.0271C203.697 53.5665 205.129 53.7076 206.512 53.4326C207.894 53.1576 209.164 52.4789 210.16 51.4821C211.157 50.4854 211.835 49.2155 212.11 47.833C212.385 46.4505 212.244 45.0175 211.705 43.7152C211.165 42.4129 210.252 41.2999 209.08 40.5167C207.909 39.7336 206.531 39.3156 205.122 39.3156C204.186 39.315 203.259 39.499 202.394 39.8569C201.529 40.2149 200.743 40.7398 200.082 41.4017C199.42 42.0636 198.895 42.8496 198.537 43.7145C198.179 44.5795 197.995 45.5065 197.996 46.4426Z" fill="#B2E6CC"/>
<path d="M72.5747 7.12706C72.5747 8.53645 72.9925 9.91422 73.7753 11.0862C74.5581 12.2581 75.6707 13.1716 76.9724 13.7111C78.2742 14.2507 79.7067 14.3921 81.0888 14.1175C82.4709 13.8428 83.7406 13.1645 84.7373 12.1682C85.734 11.172 86.413 9.90245 86.6885 8.52024C86.9639 7.13803 86.8235 5.70517 86.2848 4.4028C85.7462 3.10043 84.8336 1.98704 83.6624 1.20337C82.4912 0.419696 81.114 0.000931367 79.7049 3.68816e-05C78.7686 -0.00115326 77.8412 0.182354 76.9759 0.540043C76.1106 0.897732 75.3243 1.4226 74.662 2.08458C73.9998 2.74656 73.4745 3.53266 73.1163 4.39792C72.7582 5.26317 72.5741 6.19057 72.5747 7.12706Z" fill="#B2E6CC"/>
<path d="M128.333 4.97763C128.328 5.96861 128.617 6.93889 129.164 7.76548C129.71 8.59207 130.49 9.23776 131.403 9.62073C132.317 10.0037 133.324 10.1067 134.297 9.91664C135.269 9.72661 136.163 9.25212 136.866 8.55328C137.568 7.85445 138.047 6.96275 138.243 5.99119C138.438 5.01963 138.341 4.01195 137.963 3.09586C137.585 2.17978 136.943 1.39656 136.12 0.845419C135.297 0.29428 134.328 4.45607e-05 133.337 3.02989e-05C132.015 1.12832e-05 130.746 0.523559 129.809 1.45627C128.871 2.38897 128.341 3.655 128.333 4.97763Z" fill="#B2E6CC"/>
</g>
<defs>
<radialGradient id="paint0_radial_21_534" cx="0" cy="0" r="1" gradientUnits="userSpaceOnUse" gradientTransform="translate(288.148 156.789) rotate(45.3755) scale(7.55147)">
<stop offset="0.7"/>
<stop offset="0.79" stop-color="#000304"/>
<stop offset="0.89" stop-color="#000B11"/>
<stop offset="0.99" stop-color="#011827"/>
<stop offset="1" stop-color="#011A29"/>
</radialGradient>
<clipPath id="clip0_21_534">
<rect width="382" height="308" fill="white" transform="translate(0 382) rotate(-90)"/>
</clipPath>
</defs>
</svg>
