<svg width="100%" height="100%" viewBox="0 0 188 382" fill="none" xmlns="http://www.w3.org/2000/svg">
<g opacity="0.5" clip-path="url(#clip0_21_1623)">
<path d="M424.631 1018.94L401.222 1060.35L401.946 1062.06L425.753 1019.98L473.049 1019.98L473.049 1018.51L426.264 1018.51L416.817 1002.47L401.887 976.612L426.074 934.737L473.058 934.737L473.058 933.262L426.169 933.262L401.847 891.102L426.25 848.838L426.463 848.471L401.924 805.935L426.481 762.495L401.874 720.732L402.272 720.732L402.467 720.393L401.598 718.931L401.408 719.266L353.058 719.719L340.137 697.768L328.623 677.812L352.307 635.928L351.438 634.462L327.415 676.952L279.006 676.952L254.693 634.779L279.096 592.537L279.304 592.166L254.516 549.178L278.313 507.094L327.532 506.642L326.668 505.176L278.617 505.628L254.068 463.966L277.694 422.19L276.83 420.724L252.829 463.174L204.994 463.626L180.224 420.652L131.114 420.652L106.792 378.478L131.191 336.214L131.404 335.847L107 293.542L107.204 293.542L131.376 250.785L180.894 250.332L181.346 249.545L180.478 248.097L180.025 248.866L131.675 249.318L107.122 207.652L130.91 165.568L130.037 164.116L105.887 206.832L57.8265 207.262L33.061 164.351L-16.0491 164.351L-40.3713 122.177L-15.9722 79.9311L-15.7596 79.56L-40.7784 36.2007L-89.8886 36.2007L-109.166 2.76938L-110.442 3.50697L-91.3183 36.6532L-115.505 78.5328L-163.859 78.5328L-183.037 45.2916L-184.313 46.0246L-164.71 80.008L-115.6 80.008L-91.2776 122.177L-115.677 164.423L-115.889 164.79L-91.3499 207.326L-115.903 250.766L-114.206 250.766L-90.4089 208.683L-42.0543 208.231L-26.672 234.331L-17.6914 249.902L-42.009 291.985L-89.3728 292.406L-90.2777 293.886L-42.2805 293.461L-17.5647 336.3L31.5454 336.3L55.8675 378.46L31.4685 420.706L31.2559 421.077L55.8087 463.613L31.7399 506.275L-17.7774 506.728L-16.9133 508.194L31.4368 507.741L55.9896 549.404L32.1878 591.487L32.1516 591.487L33.0112 592.953L33.052 592.953L57.2248 550.196L105.679 549.743L129.897 591.722L105.34 635.163L130.539 677.93L130.757 678.296L179.491 677.844L203.628 719.678L203.587 719.678L179.396 762.476L129.879 762.929L130.752 764.39L179.098 763.938L203.66 805.628L180.048 847.394L180.916 848.851L204.895 806.437L252.792 805.985L277.522 848.905L326.632 848.905L350.954 891.066L326.555 933.312L326.342 933.678L350.882 976.214L326.333 1019.65L328.025 1019.65L351.827 977.572L400.177 977.119L415.56 1003.22L424.631 1018.94ZM-90.0017 121.426L-114.17 79.5374L-89.9836 37.6623L-41.629 37.6623L-17.4607 79.551L-41.647 121.431L-90.0017 121.426ZM-90.0244 206.665L-114.188 164.776L-90.0017 122.901L-41.647 122.901L-17.4833 164.79L-41.6697 206.67L-90.0244 206.665ZM-15.9677 249.576L-25.4142 233.549L-40.3441 207.688L-16.1577 165.813L32.1969 165.813L56.243 207.498L45.2537 226.933L32.1924 249.59L-15.9677 249.576ZM46.5567 227.657L57.4736 208.76L105.593 208.33L130.141 249.997L106.339 292.08L62.0023 292.479L57.9803 292.479L33.4546 250.848L46.5567 227.657ZM-16.6961 334.815L-40.5703 293.434L-40.4437 293.434L-16.4654 251.052L31.6948 251.052L55.8584 292.94L31.6721 334.815L-16.6961 334.815ZM57.1615 377.727L32.9977 335.838L57.1569 294.008L61.9616 293.963L105.539 293.963L129.702 335.852L105.516 377.727L57.1615 377.727ZM424.789 762.513L400.987 804.596L352.637 805.048L337.255 778.916L328.274 763.381L352.592 721.298L400.241 720.846L424.789 762.513ZM277.078 506.298L253.277 548.381L208.939 548.779L205.171 548.779L180.74 506.461L182.943 502.565L204.61 465.047L252.503 464.595L277.078 506.298ZM57.1434 462.97L32.975 421.082L57.1615 379.202L105.516 379.202L129.684 421.091L105.484 462.979L57.1434 462.97ZM131.019 422.113L179.374 422.113L203.307 463.595L181.676 501.854L179.356 505.877L131.173 505.877L122.862 491.768L106.842 463.993L131.019 422.113ZM32.957 507.081L56.7588 464.997L105.109 464.545L121.595 492.524L129.576 506.357L105.86 548.309L57.5098 548.761L32.957 507.081ZM131.204 591.12L107.041 549.232L131.227 507.352L178.786 507.352L203.61 549.481L179.559 591.111L131.204 591.12ZM205.067 550.3L208.903 550.268L253.439 550.268L277.608 592.157L253.426 634.045L205.275 634.045L195.742 617.868L180.907 592.157L205.067 550.3ZM107.023 635.19L130.824 593.107L179.175 592.655L194.471 618.61L203.628 634.489L188.902 660.54L179.731 676.418L131.575 676.871L107.023 635.19ZM205.044 719.271L180.975 677.554L190.191 661.264L205.062 635.512L253.417 635.512L277.585 677.405L253.399 719.284L205.044 719.271ZM278.924 678.418L327.03 678.418L338.874 698.528L351.153 719.796L351.026 719.796L327.048 762.178L278.888 762.178L254.724 720.289L278.924 678.418ZM180.631 763.295L204.433 721.212L252.783 720.76L277.336 762.427L274.386 767.644L253.082 804.528L205.184 804.98L180.631 763.295ZM278.354 847.421L254.435 805.917L275.676 768.359L278.39 763.657L326.55 763.657L335.979 779.672L350.909 805.564L326.718 847.435L278.354 847.421ZM352.212 890.333L328.075 848.453L352.261 806.578L400.612 806.578L424.771 848.453L400.584 890.328L352.212 890.333ZM352.189 975.576L328.025 933.683L352.212 891.808L400.566 891.808L424.73 933.696L400.562 975.608L352.189 975.576Z" fill="#B2E6CC"/>
<path d="M137 164.143C137.002 162.852 136.621 161.589 135.905 160.515C135.189 159.441 134.171 158.603 132.979 158.108C131.787 157.613 130.475 157.482 129.209 157.733C127.943 157.984 126.78 158.604 125.866 159.517C124.953 160.429 124.331 161.591 124.078 162.857C123.826 164.123 123.954 165.436 124.448 166.629C124.941 167.822 125.778 168.841 126.851 169.559C127.924 170.276 129.185 170.659 130.476 170.659C132.205 170.659 133.863 169.973 135.086 168.751C136.309 167.529 136.998 165.872 137 164.143Z" fill="#B2E6CC"/>
<path d="M185.988 249.237C185.988 248.187 185.677 247.161 185.094 246.288C184.511 245.415 183.682 244.735 182.712 244.333C181.742 243.931 180.675 243.826 179.646 244.031C178.616 244.236 177.671 244.741 176.929 245.484C176.186 246.226 175.681 247.172 175.476 248.201C175.271 249.231 175.377 250.298 175.778 251.268C176.18 252.238 176.86 253.067 177.733 253.65C178.606 254.234 179.632 254.545 180.681 254.545C181.378 254.546 182.069 254.41 182.713 254.143C183.358 253.877 183.943 253.486 184.436 252.993C184.929 252.5 185.32 251.914 185.587 251.27C185.853 250.625 185.989 249.934 185.988 249.237Z" fill="#B2E6CC"/>
<path d="M136.453 335.987C136.453 334.862 136.119 333.763 135.494 332.827C134.869 331.892 133.981 331.163 132.942 330.732C131.903 330.302 130.759 330.189 129.656 330.409C128.553 330.628 127.54 331.17 126.744 331.965C125.949 332.761 125.407 333.774 125.188 334.878C124.969 335.981 125.081 337.125 125.512 338.164C125.942 339.204 126.671 340.092 127.606 340.717C128.541 341.342 129.641 341.675 130.766 341.675C131.513 341.676 132.252 341.529 132.943 341.244C133.633 340.958 134.26 340.539 134.788 340.011C135.316 339.483 135.735 338.855 136.021 338.165C136.306 337.475 136.453 336.735 136.453 335.987Z" fill="#B2E6CC"/>
<path d="M100.572 295.19C101.629 298.457 105.134 300.248 108.4 299.191C111.667 298.134 113.458 294.629 112.401 291.362C111.344 288.095 107.839 286.303 104.573 287.36C101.307 288.417 99.5155 291.923 100.572 295.19Z" fill="#B2E6CC"/>
<path d="M123.766 250.944C124.261 254.977 127.931 257.845 131.964 257.35C135.996 256.855 138.864 253.184 138.369 249.15C137.874 245.117 134.203 242.249 130.171 242.744C126.138 243.239 123.271 246.91 123.766 250.944Z" fill="#B2E6CC"/>
<path d="M102.7 210.581C104.323 212.608 107.281 212.936 109.308 211.313C111.334 209.69 111.662 206.731 110.04 204.704C108.417 202.677 105.459 202.35 103.432 203.973C101.406 205.595 101.078 208.554 102.7 210.581Z" fill="#B2E6CC"/>
<path d="M61.9616 207.851C61.9616 206.906 61.6814 205.982 61.1564 205.196C60.6315 204.41 59.8853 203.798 59.0123 203.436C58.1393 203.074 57.1787 202.98 56.252 203.164C55.3252 203.348 54.4739 203.803 53.8058 204.472C53.1376 205.14 52.6826 205.991 52.4983 206.918C52.3139 207.845 52.4085 208.806 52.7701 209.679C53.1317 210.552 53.7441 211.299 54.5297 211.824C55.3154 212.349 56.2391 212.629 57.184 212.629C57.8116 212.63 58.4331 212.506 59.013 212.267C59.5929 212.027 60.1198 211.675 60.5636 211.231C61.0073 210.787 61.3592 210.26 61.5991 209.68C61.839 209.1 61.9622 208.478 61.9616 207.851Z" fill="#B2E6CC"/>
<path d="M37.9426 165.089C37.9426 164.038 37.6311 163.012 37.0476 162.139C36.4641 161.266 35.6347 160.585 34.6645 160.184C33.6942 159.782 32.6267 159.678 31.597 159.883C30.5674 160.089 29.6218 160.595 28.88 161.338C28.1382 162.082 27.6334 163.028 27.4297 164.059C27.2259 165.089 27.3323 166.156 27.7354 167.126C28.1384 168.096 28.82 168.924 29.6939 169.506C30.5679 170.088 31.5948 170.398 32.6448 170.396C34.0503 170.393 35.3971 169.832 36.3901 168.837C37.3832 167.842 37.9414 166.494 37.9426 165.089Z" fill="#B2E6CC"/>
<path d="M39.2772 335.662C39.2781 334.237 38.8565 332.844 38.0658 331.659C37.2752 330.473 36.1509 329.549 34.8351 329.003C33.5194 328.457 32.0713 328.314 30.6739 328.591C29.2766 328.868 27.9928 329.553 26.9849 330.56C25.9769 331.567 25.2902 332.85 25.0114 334.247C24.7326 335.644 24.8743 337.093 25.4186 338.41C25.9629 339.726 26.8854 340.852 28.0694 341.644C29.2533 342.437 30.6456 342.86 32.0701 342.861C33.98 342.861 35.8117 342.103 37.1631 340.753C38.5144 339.403 39.2748 337.572 39.2772 335.662Z" fill="#B2E6CC"/>
<path d="M62.8212 293.18C62.8212 292.13 62.5096 291.103 61.9259 290.23C61.3421 289.357 60.5125 288.676 59.542 288.275C58.5715 287.874 57.5038 287.769 56.474 287.975C55.4442 288.181 54.4986 288.688 53.757 289.432C53.0154 290.175 52.511 291.122 52.3078 292.153C52.1045 293.183 52.2116 294.251 52.6153 295.221C53.0191 296.19 53.7014 297.018 54.5759 297.6C55.4504 298.182 56.4777 298.491 57.5279 298.488C58.224 298.487 58.9132 298.35 59.556 298.082C60.1988 297.815 60.7827 297.424 61.2743 296.931C61.7659 296.438 62.1555 295.853 62.4209 295.21C62.6864 294.566 62.8224 293.876 62.8212 293.18Z" fill="#B2E6CC"/>
<path d="M27.2544 252.647C28.4331 255.512 31.7114 256.88 34.5768 255.701C37.4422 254.522 38.8095 251.243 37.6308 248.377C36.4522 245.511 33.1738 244.144 30.3084 245.323C27.4431 246.502 26.0758 249.781 27.2544 252.647Z" fill="#B2E6CC"/>
<path d="M115.425 374.873C115.425 373.464 115.008 372.086 114.225 370.914C113.442 369.742 112.329 368.828 111.028 368.289C109.726 367.749 108.293 367.608 106.911 367.883C105.529 368.157 104.259 368.836 103.263 369.832C102.266 370.828 101.587 372.098 101.312 373.48C101.036 374.862 101.177 376.295 101.715 377.597C102.254 378.9 103.166 380.013 104.338 380.797C105.509 381.58 106.886 381.999 108.295 382C109.232 382.001 110.159 381.818 111.024 381.46C111.889 381.102 112.676 380.577 113.338 379.915C114 379.253 114.526 378.467 114.884 377.602C115.242 376.737 115.426 375.809 115.425 374.873Z" fill="#B2E6CC"/>
<path d="M59.6666 377.022C59.672 376.032 59.3831 375.061 58.8366 374.235C58.29 373.408 57.5105 372.762 56.5966 372.379C55.6828 371.996 54.6759 371.893 53.7034 372.083C52.731 372.274 51.8369 372.748 51.1344 373.447C50.4319 374.146 49.9526 375.037 49.7573 376.009C49.562 376.98 49.6596 377.988 50.0375 378.904C50.4154 379.82 51.0567 380.604 51.8801 381.155C52.7036 381.706 53.6721 382 54.6629 382C55.9853 382 57.2539 381.477 58.1915 380.544C59.1291 379.611 59.6595 378.345 59.6666 377.022Z" fill="#B2E6CC"/>
</g>
<defs>
<clipPath id="clip0_21_1623">
<rect width="382" height="308" fill="white" transform="translate(188) rotate(90)"/>
</clipPath>
</defs>
</svg>
