<svg width="100%" height="100%" viewBox="0 0 188 382" fill="none" xmlns="http://www.w3.org/2000/svg">
<g opacity="0.5" clip-path="url(#clip0_21_1239)">
<path d="M-356.631 -636.944L-333.222 -678.349L-333.946 -680.064L-357.753 -637.981L-405.049 -637.981L-405.049 -636.505L-358.264 -636.505L-348.817 -620.473L-333.887 -594.612L-358.074 -552.737L-405.058 -552.737L-405.058 -551.262L-358.169 -551.262L-333.847 -509.102L-358.25 -466.837L-358.463 -466.471L-333.924 -423.935L-358.481 -380.494L-333.874 -338.732L-334.272 -338.732L-334.467 -338.393L-333.598 -336.931L-333.408 -337.266L-285.058 -337.719L-272.137 -315.768L-260.623 -295.812L-284.307 -253.928L-283.438 -252.462L-259.415 -294.952L-211.006 -294.952L-186.693 -252.778L-211.096 -210.537L-211.304 -210.166L-186.516 -167.177L-210.313 -125.094L-259.532 -124.642L-258.668 -123.176L-210.617 -123.628L-186.068 -81.9656L-209.694 -40.1901L-208.829 -38.7239L-184.829 -81.1737L-136.994 -81.6263L-112.224 -38.6516L-63.114 -38.6516L-38.7919 3.5222L-63.1909 45.7865L-63.4035 46.153L-39 88.458L-39.2036 88.458L-63.3764 131.215L-112.894 131.668L-113.346 132.455L-112.478 133.903L-112.025 133.134L-63.675 132.682L-39.1222 174.349L-62.9104 216.432L-62.0372 217.884L-37.887 175.168L10.1735 174.738L34.939 217.649L84.0492 217.649L108.371 259.823L83.9723 302.069L83.7596 302.44L108.779 345.799L157.889 345.799L177.166 379.231L178.442 378.493L159.318 345.347L183.505 303.467L231.859 303.467L251.037 336.708L252.313 335.975L232.71 301.992L183.6 301.992L159.278 259.823L183.677 217.577L183.889 217.21L159.35 174.674L183.903 131.234L182.206 131.234L158.409 173.317L110.054 173.769L94.672 147.669L85.6915 132.098L110.009 90.0146L157.373 89.5938L158.278 88.1141L110.281 88.5394L85.5648 45.7005L36.4546 45.7005L12.1325 3.5403L36.5315 -38.7059L36.7442 -39.0769L12.1913 -81.6127L36.2601 -124.275L85.7774 -124.728L84.9133 -126.194L36.5632 -125.741L12.0104 -167.404L35.8122 -209.487L35.8484 -209.487L34.9888 -210.953L34.948 -210.953L10.7752 -168.196L-37.6789 -167.743L-61.897 -209.722L-37.3396 -253.163L-62.5394 -295.93L-62.7566 -296.296L-111.491 -295.844L-135.628 -337.678L-135.587 -337.678L-111.396 -380.476L-61.8789 -380.929L-62.7521 -382.39L-111.098 -381.938L-135.66 -423.627L-112.048 -465.394L-112.916 -466.851L-136.895 -424.437L-184.792 -423.985L-209.522 -466.905L-258.632 -466.905L-282.954 -509.065L-258.555 -551.312L-258.342 -551.678L-282.882 -594.214L-258.333 -637.655L-260.025 -637.655L-283.827 -595.571L-332.177 -595.119L-347.56 -621.22L-356.631 -636.944ZM158.002 260.574L182.17 302.463L157.984 344.338L109.629 344.338L85.4608 302.449L109.647 260.569L158.002 260.574ZM158.024 175.335L182.188 217.224L158.002 259.099L109.647 259.099L85.4834 217.21L109.67 175.33L158.024 175.335ZM83.9677 132.424L93.4143 148.452L108.344 174.312L84.1578 216.187L35.8031 216.187L11.757 174.502L22.7463 155.067L35.8077 132.41L83.9677 132.424ZM21.4433 154.343L10.5264 173.24L-37.593 173.67L-62.1413 132.003L-38.3395 89.9196L5.9977 89.5214L10.0197 89.5214L34.5454 131.152L21.4433 154.343ZM84.6962 47.1847L108.57 88.5666L108.444 88.5666L84.4654 130.949L36.3053 130.949L12.1416 89.0598L36.328 47.1847L84.6962 47.1847ZM10.8386 4.27336L35.0023 46.1621L10.8431 87.9919L6.03841 88.0371L-37.5387 88.0371L-61.7024 46.1485L-37.5161 4.27336L10.8386 4.27336ZM-356.789 -380.512L-332.987 -422.596L-284.637 -423.048L-269.255 -396.916L-260.274 -381.381L-284.592 -339.298L-332.241 -338.845L-356.789 -380.512ZM-209.078 -124.298L-185.276 -166.381L-140.939 -166.779L-137.171 -166.779L-112.74 -124.461L-114.943 -120.565L-136.61 -83.0471L-184.503 -82.5946L-209.078 -124.298ZM10.8567 -80.9701L35.025 -39.0814L10.8386 2.7982L-37.5161 2.7982L-61.6843 -39.0905L-37.4844 -80.9792L10.8567 -80.9701ZM-63.019 -40.1132L-111.374 -40.1132L-135.307 -81.5946L-113.676 -119.854L-111.356 -123.877L-63.1728 -123.877L-54.8618 -109.768L-38.8417 -81.9928L-63.019 -40.1132ZM35.043 -125.081L11.2412 -82.9974L-37.1089 -82.5449L-53.5951 -110.523L-61.5758 -124.357L-37.8599 -166.309L10.4902 -166.761L35.043 -125.081ZM-63.2045 -209.12L-39.0407 -167.232L-63.2271 -125.352L-110.786 -125.352L-135.61 -167.481L-111.559 -209.111L-63.2045 -209.12ZM-137.067 -168.3L-140.903 -168.268L-185.439 -168.268L-209.608 -210.157L-185.426 -252.045L-137.275 -252.045L-127.742 -235.868L-112.907 -210.157L-137.067 -168.3ZM-39.0227 -253.19L-62.8245 -211.107L-111.175 -210.654L-126.471 -236.61L-135.628 -252.489L-120.902 -278.54L-111.731 -294.418L-63.5755 -294.871L-39.0227 -253.19ZM-137.044 -337.271L-112.975 -295.554L-122.191 -279.264L-137.062 -253.511L-185.417 -253.511L-209.585 -295.405L-185.399 -337.284L-137.044 -337.271ZM-210.924 -296.418L-259.03 -296.418L-270.874 -316.528L-283.153 -337.796L-283.026 -337.796L-259.048 -380.178L-210.888 -380.178L-186.724 -338.289L-210.924 -296.418ZM-112.631 -381.295L-136.433 -339.212L-184.783 -338.76L-209.336 -380.426L-206.386 -385.644L-185.082 -422.528L-137.184 -422.98L-112.631 -381.295ZM-210.354 -465.421L-186.435 -423.917L-207.676 -386.359L-210.39 -381.657L-258.55 -381.657L-267.979 -397.672L-282.909 -423.564L-258.718 -465.435L-210.354 -465.421ZM-284.212 -508.332L-260.075 -466.453L-284.261 -424.578L-332.612 -424.578L-356.771 -466.453L-332.584 -508.328L-284.212 -508.332ZM-284.189 -593.576L-260.025 -551.683L-284.212 -509.808L-332.566 -509.808L-356.73 -551.696L-332.562 -593.608L-284.189 -593.576Z" fill="#B2E6CC"/>
<path d="M164.112 87.953C163.623 84.4683 160.403 82.04 156.919 82.5291C153.435 83.0182 151.007 86.2396 151.496 89.7242C151.985 93.2088 155.206 95.6372 158.689 95.1481C162.173 94.659 164.601 91.4376 164.112 87.953Z" fill="#B2E6CC"/>
<path d="M178.582 131.265C178.582 132.15 178.845 133.016 179.337 133.752C179.828 134.487 180.527 135.061 181.345 135.4C182.162 135.739 183.062 135.827 183.93 135.654C184.798 135.482 185.595 135.056 186.221 134.43C186.847 133.804 187.273 133.006 187.445 132.138C187.618 131.27 187.529 130.37 187.191 129.553C186.852 128.735 186.279 128.036 185.543 127.544C184.807 127.052 183.942 126.79 183.057 126.79C181.87 126.79 180.732 127.261 179.893 128.101C179.054 128.94 178.582 130.078 178.582 131.265Z" fill="#B2E6CC"/>
<path d="M174.221 378.493C174.22 379.188 174.425 379.867 174.811 380.445C175.196 381.023 175.744 381.474 176.385 381.74C177.027 382.007 177.733 382.077 178.414 381.942C179.095 381.807 179.721 381.473 180.213 380.982C180.704 380.491 181.039 379.866 181.175 379.184C181.311 378.503 181.241 377.797 180.976 377.155C180.71 376.513 180.26 375.964 179.683 375.578C179.105 375.192 178.426 374.986 177.732 374.986C177.271 374.986 176.815 375.076 176.389 375.252C175.963 375.428 175.576 375.686 175.25 376.012C174.924 376.337 174.665 376.724 174.488 377.15C174.312 377.576 174.221 378.032 174.221 378.493Z" fill="#B2E6CC"/>
<path d="M6.03852 174.149C6.03852 175.094 6.31871 176.018 6.84367 176.804C7.36864 177.59 8.1148 178.202 8.98778 178.564C9.86076 178.926 10.8214 179.02 11.7481 178.836C12.6749 178.652 13.5262 178.196 14.1943 177.528C14.8625 176.86 15.3175 176.008 15.5018 175.081C15.6862 174.155 15.5916 173.194 15.23 172.321C14.8684 171.447 14.256 170.701 13.4703 170.176C12.6847 169.651 11.761 169.371 10.8161 169.371C10.1885 169.37 9.56697 169.493 8.98706 169.733C8.40715 169.973 7.88026 170.325 7.43651 170.769C6.99275 171.213 6.64085 171.74 6.40097 172.32C6.16109 172.9 6.03792 173.522 6.03852 174.149Z" fill="#B2E6CC"/>
<path d="M30.0574 216.911C30.0574 217.962 30.3689 218.988 30.9524 219.861C31.536 220.734 32.3653 221.415 33.3356 221.816C34.3058 222.218 35.3733 222.322 36.403 222.117C37.4327 221.911 38.3783 221.405 39.1201 220.661C39.8619 219.918 40.3666 218.972 40.5704 217.941C40.7741 216.911 40.6677 215.844 40.2647 214.874C39.8616 213.904 39.18 213.076 38.3061 212.494C37.4322 211.911 36.4053 211.602 35.3553 211.603C33.9498 211.607 32.6029 212.168 31.6099 213.163C30.6169 214.157 30.0586 215.506 30.0574 216.911Z" fill="#B2E6CC"/>
<path d="M81.3212 302.313C81.3212 303.408 81.6457 304.478 82.2537 305.388C82.8617 306.298 83.7258 307.007 84.7369 307.426C85.7479 307.845 86.8604 307.955 87.9337 307.741C89.0071 307.528 89.993 307 90.7668 306.226C91.5406 305.453 92.0676 304.466 92.2811 303.393C92.4945 302.319 92.385 301.207 91.9662 300.195C91.5474 299.184 90.8382 298.32 89.9283 297.712C89.0184 297.104 87.9486 296.779 86.8543 296.779C85.3868 296.779 83.9795 297.362 82.9418 298.4C81.9041 299.438 81.3212 300.845 81.3212 302.313Z" fill="#B2E6CC"/>
<path d="M104.806 345.062C104.805 345.932 105.063 346.783 105.545 347.507C106.028 348.23 106.714 348.795 107.518 349.128C108.321 349.462 109.206 349.55 110.059 349.381C110.912 349.211 111.696 348.793 112.312 348.178C112.927 347.563 113.346 346.779 113.516 345.926C113.687 345.073 113.6 344.188 113.267 343.384C112.934 342.58 112.371 341.893 111.647 341.409C110.924 340.926 110.074 340.668 109.204 340.668C108.038 340.668 106.92 341.131 106.096 341.954C105.271 342.778 104.808 343.896 104.806 345.062Z" fill="#B2E6CC"/>
<path d="M178.512 302.743C178.512 303.688 178.792 304.612 179.317 305.398C179.842 306.183 180.588 306.796 181.461 307.157C182.334 307.519 183.295 307.614 184.221 307.429C185.148 307.245 185.999 306.79 186.668 306.122C187.336 305.453 187.791 304.602 187.975 303.675C188.16 302.748 188.065 301.787 187.703 300.914C187.342 300.041 186.729 299.295 185.944 298.77C185.158 298.245 184.234 297.964 183.289 297.964C182.022 297.964 180.807 298.468 179.911 299.364C179.015 300.26 178.512 301.475 178.512 302.743Z" fill="#B2E6CC"/>
<path d="M152.799 345.347C152.798 346.638 153.18 347.9 153.897 348.974C154.613 350.047 155.632 350.884 156.824 351.379C158.017 351.873 159.329 352.003 160.595 351.751C161.861 351.5 163.023 350.878 163.936 349.965C164.849 349.052 165.47 347.889 165.722 346.623C165.973 345.357 165.844 344.045 165.349 342.852C164.855 341.66 164.018 340.641 162.945 339.924C161.871 339.207 160.609 338.825 159.318 338.826C157.59 338.827 155.932 339.515 154.71 340.737C153.488 341.96 152.8 343.618 152.799 345.347Z" fill="#B2E6CC"/>
<path d="M104.499 174.475C104.498 175.436 104.782 176.375 105.315 177.174C105.848 177.973 106.605 178.596 107.492 178.964C108.379 179.332 109.356 179.429 110.298 179.242C111.239 179.055 112.105 178.593 112.784 177.914C113.464 177.236 113.926 176.37 114.114 175.428C114.302 174.486 114.206 173.51 113.839 172.622C113.471 171.735 112.849 170.976 112.051 170.443C111.252 169.909 110.314 169.624 109.353 169.624C108.067 169.624 106.832 170.135 105.922 171.045C105.012 171.954 104.5 173.188 104.499 174.475Z" fill="#B2E6CC"/>
<path d="M78.6429 217.015C78.642 218.186 78.9883 219.331 79.638 220.305C80.2877 221.279 81.2116 222.038 82.2928 222.487C83.374 222.936 84.564 223.053 85.7122 222.826C86.8604 222.598 87.9153 222.034 88.7433 221.207C89.5714 220.379 90.1354 219.325 90.3641 218.176C90.5928 217.028 90.4759 215.838 90.0282 214.756C89.5804 213.674 88.8219 212.749 87.8487 212.099C86.8754 211.448 85.7311 211.101 84.5605 211.101C83.7836 211.1 83.0142 211.253 82.2963 211.55C81.5783 211.847 80.9259 212.282 80.3764 212.832C79.8268 213.381 79.3909 214.033 79.0934 214.751C78.796 215.469 78.6429 216.238 78.6429 217.015Z" fill="#B2E6CC"/>
<path d="M104.598 259.823C104.597 260.739 104.868 261.634 105.376 262.396C105.884 263.158 106.607 263.752 107.452 264.103C108.298 264.454 109.229 264.546 110.127 264.368C111.025 264.19 111.85 263.75 112.498 263.102C113.145 262.455 113.587 261.63 113.766 260.732C113.944 259.834 113.853 258.903 113.503 258.057C113.153 257.211 112.559 256.488 111.798 255.979C111.037 255.47 110.142 255.198 109.226 255.198C108 255.198 106.823 255.685 105.955 256.552C105.088 257.42 104.599 258.596 104.598 259.823Z" fill="#B2E6CC"/>
<path d="M153.577 259.823C153.574 260.785 153.856 261.726 154.388 262.527C154.92 263.328 155.678 263.953 156.566 264.323C157.453 264.693 158.431 264.791 159.374 264.604C160.318 264.417 161.184 263.954 161.864 263.274C162.544 262.594 163.007 261.727 163.194 260.784C163.38 259.84 163.283 258.862 162.913 257.974C162.543 257.086 161.918 256.328 161.117 255.796C160.316 255.264 159.375 254.982 158.414 254.985C157.132 254.989 155.904 255.5 154.998 256.406C154.092 257.313 153.581 258.541 153.577 259.823Z" fill="#B2E6CC"/>
<path d="M178.551 217.346C178.551 218.276 178.826 219.185 179.343 219.958C179.859 220.731 180.594 221.334 181.453 221.689C182.312 222.045 183.257 222.138 184.168 221.957C185.08 221.776 185.918 221.328 186.575 220.67C187.233 220.013 187.68 219.175 187.862 218.263C188.043 217.351 187.95 216.406 187.594 215.547C187.238 214.688 186.636 213.953 185.863 213.437C185.09 212.92 184.181 212.644 183.251 212.644C182.005 212.644 180.809 213.14 179.928 214.021C179.046 214.903 178.551 216.099 178.551 217.346Z" fill="#B2E6CC"/>
<path d="M163.794 169.258C160.922 166.385 156.264 166.385 153.391 169.258C150.518 172.132 150.518 176.791 153.391 179.664C156.264 182.537 160.922 182.537 163.794 179.664C166.667 176.791 166.667 172.132 163.794 169.258Z" fill="#B2E6CC"/>
<path d="M28.7229 46.3384C28.722 47.7632 29.1435 49.1563 29.9342 50.3415C30.7249 51.5266 31.8492 52.4507 33.165 52.9968C34.4807 53.5428 35.9288 53.6864 37.3261 53.4093C38.7235 53.1322 40.0073 52.4469 41.0152 51.4401C42.0231 50.4332 42.7099 49.15 42.9887 47.7528C43.2675 46.3555 43.1257 44.907 42.5814 43.5903C42.0371 42.2736 41.1146 41.1479 39.9307 40.3556C38.7467 39.5633 37.3545 39.1399 35.93 39.139C34.0201 39.139 32.1883 39.8972 30.837 41.2471C29.4857 42.597 28.7253 44.4282 28.7229 46.3384Z" fill="#B2E6CC"/>
<path d="M5.1789 88.8198C5.17891 89.8702 5.49051 90.8969 6.07424 91.7701C6.65797 92.6433 7.48759 93.3236 8.45808 93.7249C9.42858 94.1263 10.4963 94.2306 11.5261 94.0247C12.5559 93.8188 13.5015 93.3119 14.2431 92.5682C14.9847 91.8245 15.4891 90.8775 15.6923 89.8469C15.8956 88.8164 15.7885 87.7487 15.3848 86.7791C14.981 85.8094 14.2987 84.9814 13.4242 84.3998C12.5497 83.8182 11.5224 83.5092 10.4722 83.5119C9.7761 83.5125 9.08694 83.6503 8.44411 83.9174C7.80128 84.1845 7.21739 84.5757 6.72581 85.0687C6.23422 85.5616 5.84458 86.1466 5.57916 86.7903C5.31373 87.4339 5.17771 88.1235 5.1789 88.8198Z" fill="#B2E6CC"/>
<path d="M40.7456 129.353C39.5669 126.487 36.2886 125.12 33.4233 126.299C30.5579 127.478 29.1905 130.757 30.3692 133.623C31.5479 136.488 34.8263 137.856 37.6916 136.677C40.557 135.498 41.9243 132.219 40.7456 129.353Z" fill="#B2E6CC"/>
<path d="M77.738 131.831C77.7371 133.211 78.1455 134.561 78.9116 135.709C79.6776 136.857 80.7668 137.752 82.0415 138.281C83.3162 138.809 84.719 138.948 86.0726 138.679C87.4261 138.411 88.6696 137.747 89.6457 136.771C90.6218 135.795 91.2867 134.552 91.5563 133.198C91.8258 131.845 91.6879 130.441 91.16 129.166C90.6321 127.891 89.738 126.801 88.5906 126.034C87.4433 125.267 86.0943 124.858 84.7143 124.858C82.8649 124.858 81.0911 125.592 79.7829 126.9C78.4747 128.207 77.7392 129.981 77.738 131.831Z" fill="#B2E6CC"/>
<path d="M104.015 88.924C104.015 89.9738 104.326 91.0001 104.909 91.873C105.492 92.7458 106.321 93.4262 107.291 93.8279C108.26 94.2296 109.327 94.3347 110.357 94.1299C111.386 93.9251 112.332 93.4196 113.074 92.6773C113.816 91.935 114.322 90.9892 114.526 89.9595C114.731 88.9299 114.626 87.8627 114.224 86.8928C113.823 85.9229 113.143 85.0939 112.27 84.5106C111.397 83.9274 110.371 83.6161 109.321 83.6161C107.914 83.6173 106.565 84.1769 105.57 85.1721C104.575 86.1672 104.016 87.5166 104.015 88.924Z" fill="#B2E6CC"/>
<path d="M77.9959 46.4424C77.9959 47.8519 78.4138 49.2299 79.1968 50.4019C79.9798 51.5739 81.0927 52.4874 82.3947 53.0268C83.6968 53.5663 85.1294 53.7074 86.5117 53.4324C87.8939 53.1574 89.1636 52.4786 90.1601 51.4819C91.1567 50.4852 91.8353 49.2152 92.1103 47.8327C92.3852 46.4502 92.2441 45.0173 91.7048 43.715C91.1655 42.4127 90.2521 41.2996 89.0803 40.5165C87.9085 39.7334 86.5309 39.3154 85.1216 39.3154C84.1856 39.3148 83.2588 39.4987 82.394 39.8567C81.5292 40.2146 80.7434 40.7396 80.0816 41.4015C79.4199 42.0634 78.895 42.8493 78.5371 43.7143C78.1792 44.5792 77.9953 45.5063 77.9959 46.4424Z" fill="#B2E6CC"/>
<path d="M8.33339 4.97763C8.32801 5.96861 8.61691 6.93889 9.16345 7.76548C9.70999 8.59207 10.4896 9.23776 11.4034 9.62073C12.3172 10.0037 13.3242 10.1067 14.2966 9.91664C15.269 9.72661 16.1631 9.25212 16.8656 8.55328C17.5681 7.85445 18.0474 6.96275 18.2427 5.99119C18.438 5.01963 18.3405 4.01195 17.9626 3.09586C17.5846 2.17978 16.9434 1.39656 16.1199 0.845419C15.2965 0.29428 14.328 4.45607e-05 13.3372 3.02989e-05C12.0148 1.12832e-05 10.7461 0.523559 9.80853 1.45627C8.87092 2.38897 8.34056 3.655 8.33339 4.97763Z" fill="#B2E6CC"/>
</g>
<defs>
<radialGradient id="paint0_radial_21_1239" cx="0" cy="0" r="1" gradientUnits="userSpaceOnUse" gradientTransform="translate(168.148 156.789) rotate(45.3755) scale(7.55147)">
<stop offset="0.7"/>
<stop offset="0.79" stop-color="#000304"/>
<stop offset="0.89" stop-color="#000B11"/>
<stop offset="0.99" stop-color="#011827"/>
<stop offset="1" stop-color="#011A29"/>
</radialGradient>
<clipPath id="clip0_21_1239">
<rect width="382" height="308" fill="white" transform="translate(-120 382) rotate(-90)"/>
</clipPath>
</defs>
</svg>
