<svg width="100%" height="100%" viewBox="0 0 268 382" fill="none" xmlns="http://www.w3.org/2000/svg">
<g opacity="0.5" clip-path="url(#clip0_21_1527)">
<path d="M544.631 1018.94L521.222 1060.35L521.946 1062.06L545.753 1019.98L593.049 1019.98L593.049 1018.51L546.264 1018.51L536.817 1002.47L521.887 976.612L546.074 934.737L593.058 934.737L593.058 933.262L546.169 933.262L521.847 891.102L546.25 848.837L546.463 848.471L521.924 805.935L546.481 762.494L521.874 720.732L522.272 720.732L522.466 720.393L521.598 718.931L521.408 719.266L473.058 719.719L460.137 697.768L448.622 677.812L472.307 635.928L471.438 634.462L447.415 676.952L399.006 676.952L374.693 634.778L399.096 592.537L399.304 592.166L374.516 549.177L398.313 507.094L447.532 506.642L446.668 505.176L398.616 505.628L374.068 463.966L397.694 422.19L396.829 420.724L372.829 463.174L324.994 463.626L300.224 420.652L251.114 420.652L226.792 378.478L251.191 336.213L251.404 335.847L227 293.542L227.204 293.542L251.376 250.785L300.894 250.332L301.346 249.545L300.478 248.097L300.025 248.866L251.675 249.318L227.122 207.651L250.91 165.568L250.037 164.116L225.887 206.832L177.826 207.262L153.061 164.351L103.951 164.351L79.6287 122.177L104.028 79.931L104.24 79.5599L79.2215 36.2006L30.1113 36.2006L10.8337 2.76926L9.55786 3.50685L28.6816 36.6531L4.4953 78.5327L-43.8594 78.5327L-63.0374 45.2914L-64.3133 46.0245L-44.7099 80.0079L4.40027 80.0079L28.7223 122.177L4.32342 164.423L4.11071 164.79L28.65 207.326L4.09722 250.766L5.79375 250.766L29.5911 208.683L77.9457 208.231L93.328 234.331L102.309 249.902L77.991 291.985L30.6271 292.406L29.7223 293.886L77.7195 293.461L102.435 336.299L151.545 336.299L175.867 378.46L151.468 420.706L151.256 421.077L175.809 463.613L151.74 506.275L102.223 506.728L103.087 508.194L151.437 507.741L175.99 549.404L152.188 591.487L152.152 591.487L153.011 592.953L153.052 592.953L177.225 550.196L225.679 549.743L249.897 591.722L225.34 635.163L250.539 677.93L250.757 678.296L299.491 677.844L323.628 719.678L323.587 719.678L299.396 762.476L249.879 762.929L250.752 764.39L299.098 763.938L323.66 805.627L300.048 847.394L300.916 848.851L324.895 806.437L372.792 805.985L397.522 848.905L446.632 848.905L470.954 891.065L446.555 933.312L446.342 933.678L470.882 976.214L446.333 1019.65L448.025 1019.65L471.827 977.571L520.177 977.119L535.559 1003.22L544.631 1018.94ZM29.9982 121.426L5.82995 79.5373L30.0163 37.6622L78.3709 37.6622L102.539 79.5509L78.3529 121.43L29.9982 121.426ZM29.9756 206.665L5.81182 164.776L29.9982 122.901L78.3529 122.901L102.517 164.79L78.3303 206.669L29.9756 206.665ZM104.032 249.576L94.5857 233.548L79.6558 207.688L103.842 165.812L152.197 165.812L176.243 207.498L165.254 226.933L152.192 249.59L104.032 249.576ZM166.557 227.657L177.474 208.76L225.593 208.33L250.141 249.997L226.339 292.08L182.002 292.479L177.98 292.479L153.455 250.848L166.557 227.657ZM103.304 334.815L79.4296 293.433L79.5563 293.433L103.535 251.051L151.695 251.051L175.858 292.94L151.672 334.815L103.304 334.815ZM177.161 377.727L152.998 335.838L177.157 294.008L181.962 293.963L225.539 293.963L249.702 335.852L225.516 377.727L177.161 377.727ZM544.789 762.512L520.987 804.596L472.637 805.048L457.255 778.916L448.274 763.381L472.592 721.298L520.241 720.845L544.789 762.512ZM397.078 506.298L373.276 548.381L328.939 548.779L325.171 548.779L300.74 506.461L302.943 502.565L324.61 465.047L372.503 464.595L397.078 506.298ZM177.143 462.97L152.975 421.081L177.161 379.202L225.516 379.202L249.684 421.09L225.484 462.979L177.143 462.97ZM251.019 422.113L299.374 422.113L323.307 463.595L301.676 501.854L299.356 505.877L251.173 505.877L242.862 491.768L226.842 463.993L251.019 422.113ZM152.957 507.081L176.759 464.997L225.109 464.545L241.595 492.523L249.576 506.357L225.86 548.309L177.51 548.761L152.957 507.081ZM251.204 591.12L227.041 549.232L251.227 507.352L298.785 507.352L323.61 549.481L299.559 591.111L251.204 591.12ZM325.067 550.3L328.903 550.268L373.439 550.268L397.608 592.157L373.426 634.045L325.275 634.045L315.742 617.868L300.907 592.157L325.067 550.3ZM227.023 635.19L250.824 593.107L299.175 592.654L314.471 618.61L323.628 634.489L308.902 660.54L299.731 676.418L251.575 676.871L227.023 635.19ZM325.044 719.271L300.975 677.554L310.191 661.264L325.062 635.511L373.417 635.511L397.585 677.405L373.399 719.284L325.044 719.271ZM398.924 678.418L447.03 678.418L458.874 698.528L471.153 719.796L471.026 719.796L447.048 762.178L398.888 762.178L374.724 720.289L398.924 678.418ZM300.631 763.295L324.433 721.212L372.783 720.76L397.336 762.426L394.386 767.644L373.082 804.528L325.184 804.98L300.631 763.295ZM398.354 847.421L374.435 805.917L395.676 768.359L398.39 763.657L446.55 763.657L455.979 779.672L470.909 805.564L446.718 847.435L398.354 847.421ZM472.212 890.332L448.075 848.453L472.261 806.578L520.612 806.578L544.771 848.453L520.584 890.328L472.212 890.332ZM472.189 975.576L448.025 933.683L472.212 891.808L520.566 891.808L544.73 933.696L520.562 975.608L472.189 975.576Z" fill="#B2E6CC"/>
<path d="M23.8877 294.047C24.3767 297.532 27.5975 299.96 31.0814 299.471C34.5654 298.982 36.9932 295.76 36.5042 292.276C36.0152 288.791 32.7945 286.363 29.3105 286.852C25.8266 287.341 23.3987 290.562 23.8877 294.047Z" fill="#B2E6CC"/>
<path d="M9.41748 250.735C9.41748 249.85 9.15501 248.984 8.66335 248.248C8.1717 247.513 7.47289 246.939 6.6553 246.6C5.8377 246.261 4.93807 246.173 4.07012 246.346C3.20216 246.518 2.40489 246.944 1.77913 247.57C1.15337 248.196 0.727228 248.994 0.554581 249.862C0.381933 250.73 0.470518 251.63 0.809177 252.447C1.14784 253.265 1.72134 253.964 2.45715 254.456C3.19297 254.948 4.05808 255.21 4.94304 255.21C6.12973 255.21 7.26782 254.739 8.10694 253.899C8.94606 253.06 9.41748 251.922 9.41748 250.735Z" fill="#B2E6CC"/>
<path d="M13.7788 3.50696C13.7797 2.81226 13.5745 2.13291 13.1893 1.55486C12.8041 0.976809 12.2561 0.526032 11.6147 0.259563C10.9733 -0.00690529 10.2672 -0.07709 9.58589 0.0578892C8.90457 0.192868 8.27859 0.526945 7.78715 1.01785C7.29571 1.50876 6.96088 2.13443 6.82505 2.81571C6.68922 3.49699 6.7585 4.20326 7.02409 4.84516C7.28967 5.48706 7.73967 6.03575 8.31711 6.42179C8.89455 6.80784 9.57349 7.0139 10.268 7.0139C10.7289 7.01449 11.1853 6.92422 11.6112 6.74825C12.0371 6.57227 12.4241 6.31405 12.7502 5.98834C13.0763 5.66263 13.335 5.27583 13.5115 4.85005C13.6879 4.42427 13.7788 3.96788 13.7788 3.50696Z" fill="#B2E6CC"/>
<path d="M257 164.143C257.002 162.852 256.621 161.589 255.905 160.515C255.189 159.441 254.171 158.603 252.979 158.108C251.787 157.613 250.475 157.482 249.209 157.733C247.943 157.984 246.779 158.604 245.866 159.517C244.953 160.429 244.331 161.591 244.078 162.857C243.826 164.123 243.954 165.436 244.448 166.629C244.941 167.822 245.778 168.841 246.851 169.559C247.924 170.276 249.185 170.659 250.476 170.659C252.205 170.659 253.863 169.973 255.086 168.751C256.309 167.529 256.997 165.872 257 164.143Z" fill="#B2E6CC"/>
<path d="M256.452 335.987C256.452 334.862 256.119 333.763 255.494 332.827C254.869 331.892 253.981 331.163 252.942 330.732C251.903 330.302 250.759 330.189 249.656 330.409C248.553 330.628 247.54 331.17 246.744 331.965C245.949 332.761 245.407 333.774 245.188 334.878C244.968 335.981 245.081 337.125 245.511 338.164C245.942 339.203 246.671 340.092 247.606 340.717C248.541 341.342 249.641 341.675 250.765 341.675C251.512 341.676 252.252 341.529 252.942 341.244C253.633 340.958 254.26 340.539 254.788 340.011C255.316 339.482 255.735 338.855 256.021 338.165C256.306 337.474 256.453 336.734 256.452 335.987Z" fill="#B2E6CC"/>
<path d="M220.572 295.19C221.629 298.457 225.134 300.248 228.4 299.191C231.667 298.134 233.458 294.629 232.401 291.362C231.344 288.094 227.839 286.303 224.573 287.36C221.307 288.417 219.515 291.923 220.572 295.19Z" fill="#B2E6CC"/>
<path d="M243.766 250.944C244.261 254.977 247.931 257.845 251.964 257.35C255.996 256.855 258.864 253.184 258.369 249.15C257.874 245.117 254.203 242.249 250.171 242.744C246.138 243.239 243.271 246.91 243.766 250.944Z" fill="#B2E6CC"/>
<path d="M222.7 210.581C224.323 212.608 227.281 212.936 229.308 211.313C231.334 209.69 231.662 206.731 230.039 204.704C228.417 202.677 225.459 202.35 223.432 203.973C221.405 205.595 221.078 208.554 222.7 210.581Z" fill="#B2E6CC"/>
<path d="M181.961 207.851C181.961 206.906 181.681 205.982 181.156 205.196C180.631 204.41 179.885 203.798 179.012 203.436C178.139 203.074 177.179 202.98 176.252 203.164C175.325 203.348 174.474 203.804 173.806 204.472C173.137 205.14 172.682 205.992 172.498 206.919C172.314 207.845 172.408 208.806 172.77 209.679C173.132 210.553 173.744 211.299 174.53 211.824C175.315 212.349 176.239 212.629 177.184 212.629C177.811 212.63 178.433 212.507 179.013 212.267C179.593 212.027 180.12 211.675 180.563 211.231C181.007 210.787 181.359 210.26 181.599 209.68C181.839 209.1 181.962 208.478 181.961 207.851Z" fill="#B2E6CC"/>
<path d="M157.943 165.089C157.943 164.038 157.631 163.012 157.047 162.139C156.464 161.266 155.635 160.585 154.664 160.184C153.694 159.782 152.627 159.678 151.597 159.883C150.567 160.089 149.622 160.595 148.88 161.339C148.138 162.082 147.633 163.028 147.43 164.059C147.226 165.089 147.332 166.156 147.735 167.126C148.138 168.096 148.82 168.924 149.694 169.506C150.568 170.089 151.595 170.398 152.645 170.397C154.05 170.393 155.397 169.832 156.39 168.837C157.383 167.843 157.941 166.494 157.943 165.089Z" fill="#B2E6CC"/>
<path d="M106.679 79.6868C106.679 78.5922 106.354 77.5222 105.746 76.6121C105.138 75.7021 104.274 74.9927 103.263 74.5739C102.252 74.155 101.14 74.0454 100.066 74.2589C98.9929 74.4725 98.007 74.9995 97.2332 75.7735C96.4594 76.5475 95.9324 77.5336 95.7189 78.6071C95.5055 79.6806 95.615 80.7934 96.0338 81.8046C96.4526 82.8158 97.1618 83.6802 98.0717 84.2883C98.9816 84.8964 100.051 85.2209 101.146 85.2209C102.613 85.2209 104.021 84.6379 105.058 83.6C106.096 82.5622 106.679 81.1545 106.679 79.6868Z" fill="#B2E6CC"/>
<path d="M83.1936 36.9383C83.1945 36.0682 82.9373 35.2174 82.4547 34.4935C81.972 33.7696 81.2855 33.2051 80.4821 32.8715C79.6786 32.5379 78.7943 32.4502 77.941 32.6194C77.0877 32.7886 76.3037 33.2071 75.6882 33.8221C75.0728 34.437 74.6535 35.2207 74.4835 36.074C74.3134 36.9274 74.4002 37.812 74.7329 38.6159C75.0656 39.4199 75.6292 40.1071 76.3525 40.5906C77.0758 41.0741 77.9262 41.3322 78.7961 41.3322C79.9616 41.3322 81.0794 40.8694 81.904 40.0455C82.7286 39.2216 83.1924 38.104 83.1936 36.9383Z" fill="#B2E6CC"/>
<path d="M9.48816 79.2572C9.48816 78.3122 9.20797 77.3883 8.683 76.6025C8.15803 75.8166 7.4119 75.2042 6.53891 74.8425C5.66592 74.4808 4.70529 74.3862 3.77853 74.5706C2.85177 74.755 2.0005 75.2101 1.33235 75.8783C0.664188 76.5466 0.209126 77.3981 0.024782 78.325C-0.159562 79.2519 -0.0649378 80.2127 0.296667 81.0859C0.658271 81.9591 1.27065 82.7053 2.05632 83.2304C2.84199 83.7555 3.76569 84.0357 4.7106 84.0357C5.9777 84.0357 7.19289 83.5323 8.08886 82.6362C8.98483 81.74 9.48816 80.5246 9.48816 79.2572Z" fill="#B2E6CC"/>
<path d="M35.2009 36.6532C35.2018 35.3623 34.8199 34.1001 34.1033 33.0263C33.3868 31.9526 32.368 31.1155 31.1757 30.6211C29.9834 30.1267 28.6713 29.9971 27.4054 30.2487C26.1394 30.5003 24.9766 31.1219 24.064 32.0347C23.1513 32.9475 22.5298 34.1106 22.2782 35.3768C22.0267 36.643 22.1562 37.9554 22.6506 39.1479C23.1449 40.3404 23.9818 41.3594 25.0553 42.0761C26.1289 42.7927 27.3908 43.1748 28.6815 43.1739C30.4102 43.1727 32.0678 42.4853 33.2901 41.2627C34.5125 40.0401 35.1997 38.3822 35.2009 36.6532Z" fill="#B2E6CC"/>
<path d="M83.5012 207.525C83.5021 206.564 83.2182 205.625 82.6853 204.826C82.1524 204.027 81.3945 203.404 80.5076 203.036C79.6206 202.668 78.6444 202.571 77.7024 202.758C76.7604 202.944 75.8951 203.406 75.2157 204.085C74.5363 204.764 74.0735 205.629 73.8858 206.571C73.6982 207.513 73.7941 208.49 74.1614 209.377C74.5287 210.265 75.1508 211.023 75.9492 211.557C76.7476 212.091 77.6864 212.376 78.6467 212.376C79.9334 212.376 81.1675 211.865 82.0777 210.955C82.988 210.046 83.5 208.812 83.5012 207.525Z" fill="#B2E6CC"/>
<path d="M109.357 164.985C109.358 163.814 109.012 162.669 108.362 161.695C107.712 160.721 106.788 159.962 105.707 159.513C104.626 159.064 103.436 158.947 102.288 159.174C101.14 159.402 100.085 159.966 99.2566 160.793C98.4286 161.621 97.8645 162.675 97.6358 163.824C97.4071 164.972 97.524 166.162 97.9718 167.244C98.4195 168.326 99.178 169.251 100.151 169.901C101.125 170.552 102.269 170.899 103.439 170.899C104.216 170.9 104.986 170.747 105.704 170.45C106.422 170.153 107.074 169.718 107.624 169.168C108.173 168.619 108.609 167.967 108.907 167.249C109.204 166.531 109.357 165.762 109.357 164.985Z" fill="#B2E6CC"/>
<path d="M83.4017 122.177C83.4026 121.261 83.132 120.366 82.624 119.604C82.1159 118.842 81.3934 118.248 80.5478 117.897C79.7022 117.546 78.7714 117.454 77.8733 117.632C76.9752 117.81 76.1501 118.25 75.5024 118.898C74.8547 119.545 74.4134 120.37 74.2344 121.268C74.0555 122.166 74.1469 123.097 74.497 123.943C74.8472 124.789 75.4405 125.512 76.2017 126.021C76.9629 126.53 77.8579 126.802 78.7735 126.802C80.0002 126.802 81.1767 126.315 82.0446 125.448C82.9124 124.58 83.4005 123.404 83.4017 122.177Z" fill="#B2E6CC"/>
<path d="M34.4227 122.177C34.4263 121.215 34.1442 120.274 33.6121 119.473C33.0801 118.672 32.3221 118.047 31.4344 117.677C30.5466 117.307 29.569 117.209 28.6257 117.396C27.6823 117.583 26.8157 118.046 26.1357 118.726C25.4557 119.406 24.993 120.273 24.8062 121.216C24.6195 122.16 24.7171 123.138 25.0868 124.026C25.4565 124.914 26.0815 125.672 26.8826 126.204C27.6836 126.736 28.6247 127.018 29.5864 127.015C30.8679 127.011 32.096 126.5 33.0022 125.594C33.9084 124.687 34.4191 123.459 34.4227 122.177Z" fill="#B2E6CC"/>
<path d="M9.44922 164.654C9.44922 163.724 9.17356 162.815 8.65704 162.042C8.14053 161.269 7.40636 160.666 6.54743 160.311C5.6885 159.955 4.74336 159.862 3.83153 160.043C2.91969 160.224 2.08213 160.672 1.42473 161.33C0.767337 161.987 0.319651 162.825 0.138275 163.737C-0.0431006 164.649 0.0499589 165.594 0.40574 166.453C0.761519 167.312 1.36403 168.047 2.13705 168.563C2.91007 169.08 3.81887 169.356 4.74857 169.356C5.99526 169.356 7.19092 168.86 8.07246 167.979C8.95401 167.097 9.44922 165.901 9.44922 164.654Z" fill="#B2E6CC"/>
<path d="M24.2055 212.742C27.0783 215.615 31.7361 215.615 34.6089 212.742C37.4818 209.868 37.4818 205.209 34.6089 202.336C31.7361 199.463 27.0783 199.463 24.2055 202.336C21.3327 205.209 21.3327 209.868 24.2055 212.742Z" fill="#B2E6CC"/>
<path d="M159.277 335.662C159.278 334.237 158.856 332.844 158.066 331.659C157.275 330.473 156.151 329.549 154.835 329.003C153.519 328.457 152.071 328.314 150.674 328.591C149.277 328.868 147.993 329.553 146.985 330.56C145.977 331.567 145.29 332.85 145.011 334.247C144.733 335.644 144.874 337.093 145.419 338.41C145.963 339.726 146.885 340.852 148.069 341.644C149.253 342.437 150.646 342.86 152.07 342.861C153.98 342.861 155.812 342.103 157.163 340.753C158.514 339.403 159.275 337.572 159.277 335.662Z" fill="#B2E6CC"/>
<path d="M182.821 293.18C182.821 292.13 182.509 291.103 181.926 290.23C181.342 289.357 180.512 288.676 179.542 288.275C178.571 287.874 177.504 287.769 176.474 287.975C175.444 288.181 174.498 288.688 173.757 289.432C173.015 290.175 172.511 291.123 172.308 292.153C172.104 293.184 172.211 294.251 172.615 295.221C173.019 296.191 173.701 297.019 174.576 297.6C175.45 298.182 176.478 298.491 177.528 298.488C178.224 298.488 178.913 298.35 179.556 298.083C180.199 297.815 180.783 297.424 181.274 296.931C181.766 296.438 182.155 295.853 182.421 295.21C182.686 294.566 182.822 293.876 182.821 293.18Z" fill="#B2E6CC"/>
<path d="M147.254 252.647C148.433 255.513 151.711 256.88 154.577 255.701C157.442 254.522 158.809 251.243 157.631 248.377C156.452 245.512 153.174 244.144 150.308 245.323C147.443 246.502 146.076 249.781 147.254 252.647Z" fill="#B2E6CC"/>
<path d="M110.262 250.169C110.263 248.789 109.854 247.439 109.088 246.291C108.322 245.143 107.233 244.248 105.959 243.719C104.684 243.191 103.281 243.052 101.927 243.321C100.574 243.589 99.3304 244.253 98.3543 245.229C97.3782 246.205 96.7133 247.448 96.4437 248.802C96.1742 250.155 96.3121 251.559 96.84 252.834C97.3679 254.109 98.262 255.199 99.4094 255.966C100.557 256.733 101.906 257.142 103.286 257.142C105.135 257.142 106.909 256.408 108.217 255.1C109.525 253.793 110.261 252.019 110.262 250.169Z" fill="#B2E6CC"/>
<path d="M83.9854 293.076C83.9854 292.026 83.6741 291 83.091 290.127C82.5079 289.254 81.679 288.574 80.7093 288.172C79.7396 287.77 78.6725 287.665 77.6431 287.87C76.6137 288.075 75.6681 288.58 74.9259 289.323C74.1837 290.065 73.6783 291.011 73.4735 292.04C73.2687 293.07 73.3738 294.137 73.7755 295.107C74.1771 296.077 74.8574 296.906 75.7301 297.489C76.6028 298.073 77.6288 298.384 78.6784 298.384C80.0856 298.383 81.4347 297.823 82.4297 296.828C83.4246 295.833 83.9842 294.483 83.9854 293.076Z" fill="#B2E6CC"/>
<path d="M110.004 335.557C110.004 334.148 109.586 332.77 108.803 331.598C108.02 330.426 106.907 329.512 105.605 328.973C104.303 328.433 102.871 328.292 101.488 328.567C100.106 328.842 98.8364 329.521 97.8398 330.518C96.8433 331.515 96.1647 332.785 95.8897 334.167C95.6148 335.55 95.7559 336.982 96.2952 338.285C96.8345 339.587 97.7478 340.7 98.9196 341.483C100.091 342.266 101.469 342.684 102.878 342.684C103.814 342.685 104.741 342.501 105.606 342.143C106.471 341.785 107.257 341.26 107.918 340.598C108.58 339.936 109.105 339.15 109.463 338.285C109.821 337.421 110.005 336.493 110.004 335.557Z" fill="#B2E6CC"/>
<path d="M235.425 374.873C235.425 373.464 235.007 372.086 234.225 370.914C233.442 369.742 232.329 368.829 231.028 368.289C229.726 367.749 228.293 367.608 226.911 367.883C225.529 368.157 224.259 368.836 223.263 369.832C222.266 370.828 221.587 372.098 221.312 373.48C221.036 374.862 221.177 376.295 221.715 377.597C222.254 378.9 223.166 380.013 224.338 380.797C225.509 381.58 226.886 381.999 228.295 382C229.231 382.001 230.159 381.818 231.024 381.46C231.889 381.102 232.676 380.578 233.338 379.916C234 379.254 234.525 378.468 234.884 377.602C235.242 376.737 235.426 375.81 235.425 374.873Z" fill="#B2E6CC"/>
<path d="M179.667 377.022C179.672 376.031 179.383 375.061 178.836 374.235C178.29 373.408 177.51 372.762 176.597 372.379C175.683 371.996 174.676 371.893 173.703 372.083C172.731 372.273 171.837 372.748 171.134 373.447C170.432 374.146 169.953 375.037 169.757 376.009C169.562 376.98 169.659 377.988 170.037 378.904C170.415 379.82 171.057 380.603 171.88 381.155C172.703 381.706 173.672 382 174.663 382C175.985 382 177.254 381.476 178.191 380.544C179.129 379.611 179.659 378.345 179.667 377.022Z" fill="#B2E6CC"/>
</g>
<defs>
<radialGradient id="paint0_radial_21_1527" cx="0" cy="0" r="1" gradientUnits="userSpaceOnUse" gradientTransform="translate(19.8517 225.211) rotate(-134.624) scale(7.55147)">
<stop offset="0.7"/>
<stop offset="0.79" stop-color="#000304"/>
<stop offset="0.89" stop-color="#000B11"/>
<stop offset="0.99" stop-color="#011827"/>
<stop offset="1" stop-color="#011A29"/>
</radialGradient>
<clipPath id="clip0_21_1527">
<rect width="382" height="308" fill="white" transform="translate(308) rotate(90)"/>
</clipPath>
</defs>
</svg>
