<svg width="100%" height="100%" viewBox="0 0 268 352" fill="none" xmlns="http://www.w3.org/2000/svg">
<g opacity="0.5" clip-path="url(#clip0_10_986)">
<path d="M-236.631 -666.944L-213.222 -708.349L-213.946 -710.064L-237.753 -667.981L-285.049 -667.981L-285.049 -666.505L-238.264 -666.505L-228.817 -650.473L-213.887 -624.612L-238.074 -582.737L-285.058 -582.737L-285.058 -581.262L-238.169 -581.262L-213.847 -539.102L-238.25 -496.837L-238.463 -496.471L-213.924 -453.935L-238.481 -410.494L-213.874 -368.732L-214.272 -368.732L-214.467 -368.393L-213.598 -366.931L-213.408 -367.266L-165.058 -367.719L-152.137 -345.768L-140.623 -325.812L-164.307 -283.928L-163.438 -282.462L-139.415 -324.952L-91.0056 -324.952L-66.6926 -282.778L-91.0961 -240.537L-91.3042 -240.166L-66.5161 -197.177L-90.3134 -155.094L-139.532 -154.642L-138.668 -153.176L-90.6165 -153.628L-66.0682 -111.966L-89.6936 -70.1901L-88.8295 -68.7239L-64.8286 -111.174L-16.9942 -111.626L7.7758 -68.6516L56.886 -68.6516L81.2081 -26.4778L56.8091 15.7865L56.5965 16.153L81 58.458L80.7964 58.458L56.6236 101.215L7.10622 101.668L6.6538 102.455L7.52245 103.903L7.97487 103.134L56.325 102.682L80.8778 144.349L57.0896 186.432L57.9628 187.884L82.113 145.168L130.174 144.738L154.939 187.649L204.049 187.649L228.371 229.823L203.972 272.069L203.76 272.44L228.779 315.799L277.889 315.799L297.166 349.231L298.442 348.493L279.318 315.347L303.505 273.467L351.859 273.467L371.037 306.708L372.313 305.975L352.71 271.992L303.6 271.992L279.278 229.823L303.677 187.577L303.889 187.21L279.35 144.674L303.903 101.234L302.206 101.234L278.409 143.317L230.054 143.769L214.672 117.669L205.691 102.098L230.009 60.0146L277.373 59.5938L278.278 58.1141L230.281 58.5394L205.565 15.7005L156.455 15.7005L132.132 -26.4597L156.532 -68.7059L156.744 -69.0769L132.191 -111.613L156.26 -154.275L205.777 -154.728L204.913 -156.194L156.563 -155.741L132.01 -197.404L155.812 -239.487L155.848 -239.487L154.989 -240.953L154.948 -240.953L130.775 -198.196L82.3211 -197.743L58.103 -239.722L82.6604 -283.163L57.4606 -325.93L57.2434 -326.296L8.5087 -325.844L-15.6279 -367.678L-15.5872 -367.678L8.60373 -410.476L58.1211 -410.929L57.2479 -412.39L8.90228 -411.938L-15.6596 -453.627L7.95223 -495.394L7.08358 -496.851L-16.8947 -454.437L-64.7924 -453.985L-89.5217 -496.905L-138.632 -496.905L-162.954 -539.065L-138.555 -581.312L-138.342 -581.678L-162.882 -624.214L-138.333 -667.655L-140.025 -667.655L-163.827 -625.571L-212.177 -625.119L-227.56 -651.22L-236.631 -666.944ZM278.002 230.574L302.17 272.463L277.984 314.338L229.629 314.338L205.461 272.449L229.647 230.569L278.002 230.574ZM278.024 145.335L302.188 187.224L278.002 229.099L229.647 229.099L205.483 187.21L229.67 145.331L278.024 145.335ZM203.968 102.424L213.414 118.452L228.344 144.312L204.158 186.187L155.803 186.187L131.757 144.502L142.746 125.067L155.808 102.41L203.968 102.424ZM141.443 124.343L130.526 143.24L82.407 143.67L57.8587 102.003L81.6605 59.9196L125.998 59.5214L130.02 59.5214L154.545 101.152L141.443 124.343ZM204.696 17.1847L228.57 58.5666L228.444 58.5666L204.465 100.949L156.305 100.949L132.142 59.0598L156.328 17.1847L204.696 17.1847ZM130.839 -25.7266L155.002 16.1621L130.843 57.9919L126.038 58.0371L82.4613 58.0371L58.2976 16.1485L82.4839 -25.7266L130.839 -25.7266ZM-236.789 -410.512L-212.987 -452.596L-164.637 -453.048L-149.255 -426.916L-140.274 -411.381L-164.592 -369.298L-212.241 -368.845L-236.789 -410.512ZM-89.0783 -154.298L-65.2765 -196.381L-20.9393 -196.779L-17.1707 -196.779L7.26005 -154.461L5.05674 -150.565L-16.6096 -113.047L-64.5028 -112.595L-89.0783 -154.298ZM130.857 -110.97L155.025 -69.0814L130.839 -27.2018L82.4839 -27.2018L58.3157 -69.0905L82.5156 -110.979L130.857 -110.97ZM56.981 -70.1132L8.62632 -70.1132L-15.3067 -111.595L6.32356 -149.854L8.64442 -153.877L56.8272 -153.877L65.1382 -139.768L81.1583 -111.993L56.981 -70.1132ZM155.043 -155.081L131.241 -112.997L82.8911 -112.545L66.4049 -140.523L58.4242 -154.357L82.1401 -196.309L130.49 -196.761L155.043 -155.081ZM56.7955 -239.12L80.9593 -197.232L56.7729 -155.352L9.21449 -155.352L-15.6098 -197.481L8.44086 -239.111L56.7955 -239.12ZM-17.0666 -198.3L-20.9031 -198.268L-65.4394 -198.268L-89.6076 -240.157L-65.4258 -282.045L-17.2747 -282.045L-7.74221 -265.868L7.09263 -240.157L-17.0666 -198.3ZM80.9773 -283.19L57.1755 -241.107L8.82541 -240.654L-6.47091 -266.61L-15.6279 -282.489L-0.90164 -308.54L8.26892 -324.418L56.4245 -324.871L80.9773 -283.19ZM-17.044 -367.271L7.02478 -325.554L-2.19101 -309.264L-17.0621 -283.511L-65.4168 -283.511L-89.585 -325.405L-65.3987 -367.284L-17.044 -367.271ZM-90.9242 -326.418L-139.03 -326.418L-150.874 -346.528L-163.153 -367.796L-163.026 -367.796L-139.048 -410.178L-90.888 -410.178L-66.7242 -368.289L-90.9242 -326.418ZM7.36862 -411.295L-16.4332 -369.212L-64.7833 -368.76L-89.3362 -410.426L-86.3864 -415.644L-65.0819 -452.528L-17.1842 -452.98L7.36862 -411.295ZM-90.3541 -495.421L-66.4347 -453.917L-87.6758 -416.359L-90.3903 -411.657L-138.55 -411.657L-147.979 -427.672L-162.909 -453.564L-138.718 -495.435L-90.3541 -495.421ZM-164.212 -538.332L-140.075 -496.453L-164.261 -454.578L-212.612 -454.578L-236.771 -496.453L-212.584 -538.328L-164.212 -538.332ZM-164.189 -623.576L-140.025 -581.683L-164.212 -539.808L-212.566 -539.808L-236.73 -581.696L-212.562 -623.608L-164.189 -623.576Z" fill="#B2E6CC"/>
<path d="M51.0001 187.857C50.9983 189.148 51.3794 190.411 52.0952 191.485C52.811 192.559 53.8292 193.397 55.0211 193.892C56.2131 194.387 57.5251 194.518 58.7912 194.267C60.0573 194.016 61.2206 193.396 62.1339 192.483C63.0472 191.571 63.6694 190.409 63.9219 189.143C64.1743 187.877 64.0457 186.564 63.5521 185.371C63.0586 184.178 62.2225 183.159 61.1494 182.441C60.0764 181.724 58.8147 181.341 57.524 181.341C55.7953 181.341 54.1373 182.027 52.9141 183.249C51.6909 184.471 51.0025 186.128 51.0001 187.857Z" fill="#B2E6CC"/>
<path d="M2.01209 102.763C2.01209 103.813 2.32334 104.839 2.90647 105.712C3.4896 106.585 4.31843 107.265 5.28813 107.667C6.25784 108.069 7.32488 108.174 8.35431 107.969C9.38375 107.764 10.3293 107.259 11.0715 106.516C11.8137 105.774 12.3191 104.828 12.5239 103.799C12.7287 102.769 12.6236 101.702 12.2219 100.732C11.8203 99.7619 11.14 98.9329 10.2673 98.3496C9.39461 97.7664 8.36857 97.4551 7.31897 97.4551C6.62172 97.4539 5.93112 97.5904 5.28672 97.8567C4.64233 98.123 4.05681 98.514 3.56378 99.0071C3.07075 99.5002 2.67989 100.086 2.41362 100.73C2.14735 101.375 2.0109 102.066 2.01209 102.763Z" fill="#B2E6CC"/>
<path d="M51.5475 16.0126C51.5475 17.1376 51.881 18.2373 52.5059 19.1727C53.1308 20.1081 54.019 20.8372 55.0581 21.2677C56.0973 21.6982 57.2407 21.8108 58.3438 21.5914C59.447 21.3719 60.4603 20.8301 61.2557 20.0347C62.051 19.2392 62.5926 18.2257 62.812 17.1223C63.0315 16.0189 62.9188 14.8753 62.4884 13.8359C62.058 12.7966 61.3291 11.9082 60.3939 11.2832C59.4587 10.6582 58.3592 10.3246 57.2344 10.3246C56.4874 10.324 55.7476 10.4707 55.0574 10.7564C54.3672 11.042 53.74 11.461 53.2118 11.9893C52.6836 12.5176 52.2648 13.1448 51.9792 13.8352C51.6936 14.5256 51.5469 15.2655 51.5475 16.0126Z" fill="#B2E6CC"/>
<path d="M87.4277 56.8103C86.3708 53.5433 82.8661 51.7517 79.5997 52.8088C76.3332 53.866 74.5421 57.3714 75.599 60.6384C76.6559 63.9055 80.1607 65.697 83.4271 64.6398C86.6935 63.5827 88.4846 60.0773 87.4277 56.8103Z" fill="#B2E6CC"/>
<path d="M64.2341 101.056C63.7389 97.0231 60.0686 94.1549 56.0361 94.6501C52.0036 95.1453 49.1359 98.8164 49.6311 102.85C50.1262 106.883 53.7966 109.751 57.8291 109.256C61.8616 108.761 64.7292 105.09 64.2341 101.056Z" fill="#B2E6CC"/>
<path d="M85.2996 141.419C83.6772 139.392 80.719 139.064 78.6923 140.687C76.6657 142.31 76.3381 145.269 77.9606 147.296C79.583 149.323 82.5412 149.65 84.5679 148.028C86.5945 146.405 86.9221 143.446 85.2996 141.419Z" fill="#B2E6CC"/>
<path d="M126.038 144.149C126.038 145.095 126.319 146.018 126.844 146.804C127.369 147.59 128.115 148.202 128.988 148.564C129.861 148.926 130.821 149.02 131.748 148.836C132.675 148.652 133.526 148.197 134.194 147.528C134.862 146.86 135.317 146.009 135.502 145.082C135.686 144.155 135.592 143.194 135.23 142.321C134.868 141.448 134.256 140.701 133.47 140.176C132.685 139.651 131.761 139.371 130.816 139.371C130.188 139.37 129.567 139.494 128.987 139.733C128.407 139.973 127.88 140.325 127.436 140.769C126.993 141.213 126.641 141.74 126.401 142.32C126.161 142.9 126.038 143.522 126.038 144.149Z" fill="#B2E6CC"/>
<path d="M150.057 186.911C150.057 187.962 150.369 188.988 150.953 189.861C151.536 190.734 152.365 191.415 153.336 191.816C154.306 192.218 155.373 192.322 156.403 192.117C157.433 191.911 158.378 191.405 159.12 190.661C159.862 189.918 160.367 188.972 160.57 187.941C160.774 186.911 160.668 185.844 160.265 184.874C159.862 183.904 159.18 183.076 158.306 182.494C157.432 181.912 156.405 181.602 155.355 181.604C153.95 181.607 152.603 182.168 151.61 183.163C150.617 184.158 150.059 185.506 150.057 186.911Z" fill="#B2E6CC"/>
<path d="M201.321 272.313C201.321 273.408 201.646 274.478 202.254 275.388C202.862 276.298 203.726 277.007 204.737 277.426C205.748 277.845 206.86 277.955 207.934 277.741C209.007 277.528 209.993 277.001 210.767 276.227C211.541 275.453 212.068 274.466 212.281 273.393C212.495 272.319 212.385 271.207 211.966 270.195C211.547 269.184 210.838 268.32 209.928 267.712C209.018 267.104 207.949 266.779 206.854 266.779C205.387 266.779 203.979 267.362 202.942 268.4C201.904 269.438 201.321 270.846 201.321 272.313Z" fill="#B2E6CC"/>
<path d="M224.806 315.062C224.805 315.932 225.063 316.783 225.545 317.507C226.028 318.23 226.714 318.795 227.518 319.129C228.321 319.462 229.206 319.55 230.059 319.381C230.912 319.211 231.696 318.793 232.312 318.178C232.927 317.563 233.346 316.779 233.516 315.926C233.686 315.073 233.6 314.188 233.267 313.384C232.934 312.58 232.371 311.893 231.647 311.409C230.924 310.926 230.074 310.668 229.204 310.668C228.038 310.668 226.92 311.131 226.096 311.955C225.271 312.778 224.807 313.896 224.806 315.062Z" fill="#B2E6CC"/>
<path d="M224.499 144.475C224.498 145.436 224.782 146.375 225.315 147.174C225.847 147.973 226.605 148.596 227.492 148.964C228.379 149.332 229.355 149.429 230.297 149.242C231.239 149.056 232.105 148.593 232.784 147.915C233.464 147.236 233.926 146.371 234.114 145.429C234.302 144.487 234.206 143.51 233.839 142.623C233.471 141.735 232.849 140.977 232.051 140.443C231.252 139.909 230.314 139.624 229.353 139.624C228.066 139.624 226.832 140.135 225.922 141.045C225.012 141.954 224.5 143.188 224.499 144.475Z" fill="#B2E6CC"/>
<path d="M198.643 187.015C198.642 188.186 198.988 189.331 199.638 190.305C200.288 191.279 201.211 192.038 202.293 192.487C203.374 192.936 204.564 193.054 205.712 192.826C206.86 192.598 207.915 192.034 208.743 191.207C209.571 190.379 210.135 189.325 210.364 188.176C210.593 187.028 210.476 185.838 210.028 184.756C209.58 183.674 208.822 182.75 207.849 182.099C206.875 181.448 205.731 181.101 204.56 181.101C203.784 181.101 203.014 181.253 202.296 181.55C201.578 181.847 200.926 182.283 200.376 182.832C199.827 183.381 199.391 184.033 199.093 184.751C198.796 185.469 198.643 186.238 198.643 187.015Z" fill="#B2E6CC"/>
<path d="M224.598 229.823C224.597 230.739 224.868 231.634 225.376 232.396C225.884 233.158 226.606 233.752 227.452 234.103C228.298 234.454 229.228 234.546 230.127 234.368C231.025 234.19 231.85 233.75 232.497 233.102C233.145 232.455 233.586 231.63 233.765 230.732C233.944 229.834 233.853 228.903 233.503 228.057C233.153 227.211 232.559 226.488 231.798 225.979C231.037 225.47 230.142 225.198 229.226 225.198C228 225.198 226.823 225.685 225.955 226.552C225.087 227.42 224.599 228.596 224.598 229.823Z" fill="#B2E6CC"/>
<path d="M148.723 16.3384C148.722 17.7632 149.144 19.1563 149.934 20.3415C150.725 21.5267 151.849 22.4507 153.165 22.9968C154.481 23.5429 155.929 23.6865 157.326 23.4094C158.723 23.1323 160.007 22.447 161.015 21.4401C162.023 20.4333 162.71 19.1501 162.989 17.7528C163.267 16.3556 163.126 14.907 162.581 13.5903C162.037 12.2736 161.115 11.1479 159.931 10.3556C158.747 9.5633 157.354 9.13993 155.93 9.13904C154.02 9.13904 152.188 9.89724 150.837 11.2471C149.486 12.597 148.725 14.4282 148.723 16.3384Z" fill="#B2E6CC"/>
<path d="M125.179 58.8199C125.179 59.8703 125.49 60.8971 126.074 61.7702C126.658 62.6434 127.488 63.3237 128.458 63.7251C129.429 64.1264 130.496 64.2307 131.526 64.0248C132.556 63.8189 133.501 63.312 134.243 62.5683C134.985 61.8246 135.489 60.8776 135.692 59.8471C135.896 58.8165 135.788 57.7489 135.385 56.7792C134.981 55.8096 134.299 54.9815 133.424 54.3999C132.55 53.8183 131.522 53.5093 130.472 53.512C129.776 53.5126 129.087 53.6504 128.444 53.9175C127.801 54.1846 127.217 54.5758 126.726 55.0688C126.234 55.5617 125.845 56.1467 125.579 56.7904C125.314 57.434 125.178 58.1237 125.179 58.8199Z" fill="#B2E6CC"/>
<path d="M160.746 99.3535C159.567 96.4876 156.289 95.12 153.423 96.2989C150.558 97.4778 149.191 100.757 150.369 103.623C151.548 106.489 154.826 107.856 157.692 106.677C160.557 105.498 161.924 102.219 160.746 99.3535Z" fill="#B2E6CC"/>
<path d="M197.738 101.831C197.737 103.211 198.146 104.561 198.912 105.709C199.678 106.857 200.767 107.752 202.041 108.281C203.316 108.809 204.719 108.948 206.073 108.68C207.426 108.411 208.67 107.747 209.646 106.771C210.622 105.795 211.287 104.552 211.556 103.198C211.826 101.845 211.688 100.441 211.16 99.1662C210.632 97.8909 209.738 96.8009 208.591 96.034C207.443 95.2671 206.094 94.8577 204.714 94.8577C202.865 94.8577 201.091 95.5922 199.783 96.8998C198.475 98.2074 197.739 99.9811 197.738 101.831Z" fill="#B2E6CC"/>
<path d="M224.015 58.924C224.015 59.9738 224.326 61.0001 224.909 61.8729C225.492 62.7458 226.321 63.4261 227.291 63.8279C228.26 64.2296 229.327 64.3347 230.357 64.1299C231.386 63.9251 232.332 63.4196 233.074 62.6773C233.816 61.935 234.322 60.9892 234.526 59.9595C234.731 58.9299 234.626 57.8626 234.224 56.8928C233.823 55.9229 233.143 55.0939 232.27 54.5106C231.397 53.9274 230.371 53.6161 229.321 53.6161C227.914 53.6173 226.565 54.1769 225.57 55.1721C224.575 56.1672 224.016 57.5166 224.015 58.924Z" fill="#B2E6CC"/>
<path d="M197.996 16.4425C197.996 17.8521 198.414 19.2301 199.197 20.4021C199.98 21.5741 201.093 22.4876 202.395 23.027C203.697 23.5664 205.129 23.7076 206.512 23.4326C207.894 23.1576 209.164 22.4788 210.16 21.4821C211.157 20.4853 211.835 19.2154 212.11 17.8329C212.385 16.4504 212.244 15.0174 211.705 13.7152C211.165 12.4129 210.252 11.2998 209.08 10.5167C207.909 9.73355 206.531 9.31555 205.122 9.31555C204.186 9.31496 203.259 9.4989 202.394 9.85686C201.529 10.2148 200.743 10.7397 200.082 11.4017C199.42 12.0636 198.895 12.8495 198.537 13.7145C198.179 14.5794 197.995 15.5064 197.996 16.4425Z" fill="#B2E6CC"/>
</g>
<defs>
<radialGradient id="paint0_radial_10_986" cx="0" cy="0" r="1" gradientUnits="userSpaceOnUse" gradientTransform="translate(288.148 126.789) rotate(45.3755) scale(7.55147)">
<stop offset="0.7"/>
<stop offset="0.79" stop-color="#000304"/>
<stop offset="0.89" stop-color="#000B11"/>
<stop offset="0.99" stop-color="#011827"/>
<stop offset="1" stop-color="#011A29"/>
</radialGradient>
<clipPath id="clip0_10_986">
<rect width="382" height="308" fill="white" transform="translate(0 352) rotate(-90)"/>
</clipPath>
</defs>
</svg>
