<svg width="100%" height="100%" viewBox="0 0 268 269" fill="none" xmlns="http://www.w3.org/2000/svg">
<g opacity="0.5" clip-path="url(#clip0_10_1082)">
<path d="M504.631 1018.94L481.222 1060.35L481.946 1062.06L505.753 1019.98L553.049 1019.98L553.049 1018.51L506.264 1018.51L496.817 1002.47L481.887 976.612L506.074 934.737L553.058 934.737L553.058 933.262L506.169 933.262L481.847 891.102L506.25 848.837L506.463 848.471L481.924 805.935L506.481 762.494L481.874 720.732L482.272 720.732L482.466 720.393L481.598 718.931L481.408 719.266L433.058 719.719L420.137 697.768L408.622 677.812L432.307 635.928L431.438 634.462L407.415 676.952L359.006 676.952L334.693 634.778L359.096 592.537L359.304 592.166L334.516 549.177L358.313 507.094L407.532 506.642L406.668 505.176L358.616 505.628L334.068 463.966L357.694 422.19L356.829 420.724L332.829 463.174L284.994 463.626L260.224 420.652L211.114 420.652L186.792 378.478L211.191 336.214L211.404 335.847L187 293.542L187.204 293.542L211.376 250.785L260.894 250.332L261.346 249.545L260.478 248.097L260.025 248.866L211.675 249.318L187.122 207.651L210.91 165.568L210.037 164.116L185.887 206.832L137.826 207.262L113.061 164.351L63.9508 164.351L39.6287 122.177L64.0277 79.931L64.2404 79.5599L39.2215 36.2006L-9.88867 36.2006L-29.1663 2.76928L-30.4421 3.50687L-11.3184 36.6531L-35.5047 78.5327L-83.8594 78.5327L-103.037 45.2915L-104.313 46.0245L-84.7099 80.0079L-35.5997 80.0079L-11.2777 122.177L-35.6766 164.423L-35.8893 164.79L-11.35 207.326L-35.9028 250.766L-34.2062 250.766L-10.4089 208.683L37.9457 208.231L53.328 234.331L62.3085 249.902L37.991 291.985L-9.37288 292.406L-10.2777 293.886L37.7195 293.461L62.4352 336.299L111.545 336.299L135.867 378.46L111.468 420.706L111.256 421.077L135.809 463.613L111.74 506.275L62.2226 506.728L63.0866 508.194L111.437 507.741L135.99 549.404L112.188 591.487L112.152 591.487L113.011 592.953L113.052 592.953L137.225 550.196L185.679 549.743L209.897 591.722L185.34 635.163L210.539 677.93L210.757 678.296L259.491 677.844L283.628 719.678L283.587 719.678L259.396 762.476L209.879 762.929L210.752 764.39L259.098 763.938L283.66 805.627L260.048 847.394L260.916 848.851L284.895 806.437L332.792 805.985L357.522 848.905L406.632 848.905L430.954 891.066L406.555 933.312L406.342 933.678L430.882 976.214L406.333 1019.65L408.025 1019.65L431.827 977.571L480.177 977.119L495.559 1003.22L504.631 1018.94ZM-10.0018 121.426L-34.17 79.5373L-9.98371 37.6622L38.3709 37.6622L62.5392 79.5509L38.3529 121.431L-10.0018 121.426ZM-10.0244 206.665L-34.1882 164.776L-10.0018 122.901L38.3529 122.901L62.5166 164.79L38.3303 206.669L-10.0244 206.665ZM64.0322 249.576L54.5857 233.548L39.6558 207.688L63.8422 165.813L112.197 165.813L136.243 207.498L125.254 226.933L112.192 249.59L64.0322 249.576ZM126.557 227.657L137.474 208.76L185.593 208.33L210.141 249.997L186.339 292.08L142.002 292.479L137.98 292.479L113.455 250.848L126.557 227.657ZM63.3038 334.815L39.4296 293.433L39.5563 293.433L63.5345 251.051L111.695 251.051L135.858 292.94L111.672 334.815L63.3038 334.815ZM137.161 377.727L112.998 335.838L137.157 294.008L141.962 293.963L185.539 293.963L209.702 335.852L185.516 377.727L137.161 377.727ZM504.789 762.512L480.987 804.596L432.637 805.048L417.255 778.916L408.274 763.381L432.592 721.298L480.241 720.845L504.789 762.512ZM357.078 506.298L333.276 548.381L288.939 548.779L285.171 548.779L260.74 506.461L262.943 502.565L284.61 465.047L332.503 464.595L357.078 506.298ZM137.143 462.97L112.975 421.081L137.161 379.202L185.516 379.202L209.684 421.09L185.484 462.979L137.143 462.97ZM211.019 422.113L259.374 422.113L283.307 463.595L261.676 501.854L259.356 505.877L211.173 505.877L202.862 491.768L186.842 463.993L211.019 422.113ZM112.957 507.081L136.759 464.997L185.109 464.545L201.595 492.523L209.576 506.357L185.86 548.309L137.51 548.761L112.957 507.081ZM211.204 591.12L187.041 549.232L211.227 507.352L258.785 507.352L283.61 549.481L259.559 591.111L211.204 591.12ZM285.067 550.3L288.903 550.268L333.439 550.268L357.608 592.157L333.426 634.045L285.275 634.045L275.742 617.868L260.907 592.157L285.067 550.3ZM187.023 635.19L210.824 593.107L259.175 592.654L274.471 618.61L283.628 634.489L268.902 660.54L259.731 676.418L211.575 676.871L187.023 635.19ZM285.044 719.271L260.975 677.554L270.191 661.264L285.062 635.511L333.417 635.511L357.585 677.405L333.399 719.284L285.044 719.271ZM358.924 678.418L407.03 678.418L418.874 698.528L431.153 719.796L431.026 719.796L407.048 762.178L358.888 762.178L334.724 720.289L358.924 678.418ZM260.631 763.295L284.433 721.212L332.783 720.76L357.336 762.426L354.386 767.644L333.082 804.528L285.184 804.98L260.631 763.295ZM358.354 847.421L334.435 805.917L355.676 768.359L358.39 763.657L406.55 763.657L415.979 779.672L430.909 805.564L406.718 847.435L358.354 847.421ZM432.212 890.332L408.075 848.453L432.261 806.578L480.612 806.578L504.771 848.453L480.584 890.328L432.212 890.332ZM432.189 975.576L408.025 933.683L432.212 891.808L480.566 891.808L504.73 933.696L480.562 975.608L432.189 975.576Z" fill="#B2E6CC"/>
<path d="M217 164.143C217.002 162.852 216.621 161.589 215.905 160.515C215.189 159.441 214.171 158.603 212.979 158.108C211.787 157.613 210.475 157.482 209.209 157.733C207.943 157.984 206.779 158.604 205.866 159.517C204.953 160.429 204.331 161.591 204.078 162.857C203.826 164.123 203.954 165.436 204.448 166.629C204.941 167.822 205.778 168.841 206.851 169.559C207.924 170.276 209.185 170.659 210.476 170.659C212.205 170.659 213.863 169.973 215.086 168.751C216.309 167.529 216.998 165.872 217 164.143Z" fill="#B2E6CC"/>
<path d="M265.988 249.237C265.988 248.187 265.677 247.161 265.094 246.288C264.51 245.415 263.682 244.735 262.712 244.333C261.742 243.931 260.675 243.826 259.646 244.031C258.616 244.236 257.671 244.741 256.929 245.484C256.186 246.226 255.681 247.172 255.476 248.201C255.271 249.231 255.376 250.298 255.778 251.268C256.18 252.238 256.86 253.067 257.733 253.65C258.605 254.234 259.631 254.545 260.681 254.545C261.378 254.546 262.069 254.41 262.713 254.143C263.358 253.877 263.943 253.486 264.436 252.993C264.929 252.5 265.32 251.914 265.586 251.27C265.853 250.625 265.989 249.934 265.988 249.237Z" fill="#B2E6CC"/>
<path d="M203.766 250.944C204.261 254.977 207.931 257.845 211.964 257.35C215.996 256.855 218.864 253.184 218.369 249.15C217.874 245.117 214.203 242.249 210.171 242.744C206.138 243.239 203.271 246.91 203.766 250.944Z" fill="#B2E6CC"/>
<path d="M182.7 210.581C184.323 212.608 187.281 212.936 189.308 211.313C191.334 209.69 191.662 206.731 190.039 204.704C188.417 202.677 185.459 202.35 183.432 203.972C181.405 205.595 181.078 208.554 182.7 210.581Z" fill="#B2E6CC"/>
<path d="M141.962 207.851C141.962 206.905 141.681 205.982 141.156 205.196C140.631 204.41 139.885 203.798 139.012 203.436C138.139 203.074 137.179 202.98 136.252 203.164C135.325 203.348 134.474 203.803 133.806 204.472C133.138 205.14 132.683 205.991 132.498 206.918C132.314 207.845 132.408 208.806 132.77 209.679C133.132 210.552 133.744 211.299 134.53 211.824C135.315 212.349 136.239 212.629 137.184 212.629C137.812 212.63 138.433 212.506 139.013 212.267C139.593 212.027 140.12 211.675 140.564 211.231C141.007 210.787 141.359 210.26 141.599 209.68C141.839 209.1 141.962 208.478 141.962 207.851Z" fill="#B2E6CC"/>
<path d="M117.943 165.089C117.943 164.038 117.631 163.012 117.048 162.139C116.464 161.266 115.635 160.585 114.664 160.184C113.694 159.782 112.627 159.678 111.597 159.883C110.567 160.089 109.622 160.595 108.88 161.338C108.138 162.082 107.633 163.028 107.43 164.059C107.226 165.089 107.332 166.156 107.735 167.126C108.138 168.096 108.82 168.924 109.694 169.506C110.568 170.088 111.595 170.398 112.645 170.396C114.05 170.393 115.397 169.832 116.39 168.837C117.383 167.842 117.941 166.494 117.943 165.089Z" fill="#B2E6CC"/>
<path d="M66.6789 79.6867C66.6789 78.5921 66.3543 77.5222 65.7464 76.6121C65.1384 75.702 64.2742 74.9926 63.2632 74.5738C62.2521 74.1549 61.1396 74.0453 60.0663 74.2589C58.993 74.4724 58.0071 74.9995 57.2333 75.7734C56.4594 76.5474 55.9325 77.5335 55.719 78.607C55.5055 79.6806 55.615 80.7933 56.0338 81.8045C56.4526 82.8158 57.1618 83.6801 58.0717 84.2882C58.9816 84.8963 60.0514 85.2209 61.1458 85.2209C62.6132 85.2209 64.0206 84.6378 65.0582 83.5999C66.0959 82.5621 66.6789 81.1545 66.6789 79.6867Z" fill="#B2E6CC"/>
<path d="M43.1937 36.9382C43.1946 36.0681 42.9374 35.2173 42.4547 34.4934C41.9721 33.7695 41.2856 33.205 40.4821 32.8714C39.6787 32.5378 38.7944 32.4501 37.9411 32.6193C37.0877 32.7885 36.3038 33.207 35.6883 33.822C35.0728 34.4369 34.6536 35.2206 34.4835 36.074C34.3135 36.9273 34.4003 37.8119 34.733 38.6158C35.0657 39.4198 35.6293 40.107 36.3526 40.5905C37.0758 41.074 37.9262 41.3321 38.7962 41.3321C39.9617 41.3321 41.0795 40.8693 41.9041 40.0454C42.7286 39.2216 43.1925 38.104 43.1937 36.9382Z" fill="#B2E6CC"/>
<path d="M43.5013 207.525C43.5022 206.564 43.2182 205.625 42.6854 204.826C42.1525 204.027 41.3946 203.404 40.5076 203.036C39.6207 202.668 38.6445 202.571 37.7025 202.758C36.7605 202.944 35.8951 203.407 35.2158 204.085C34.5364 204.764 34.0736 205.629 33.8859 206.571C33.6982 207.513 33.7941 208.49 34.1614 209.377C34.5287 210.265 35.1509 211.023 35.9493 211.557C36.7477 212.091 37.6864 212.376 38.6468 212.376C39.9335 212.376 41.1675 211.865 42.0778 210.955C42.9881 210.046 43.5001 208.812 43.5013 207.525Z" fill="#B2E6CC"/>
<path d="M69.3571 164.984C69.358 163.814 69.0118 162.669 68.3621 161.695C67.7124 160.721 66.7885 159.962 65.7072 159.513C64.626 159.064 63.436 158.946 62.2878 159.174C61.1396 159.402 60.0848 159.966 59.2567 160.793C58.4287 161.621 57.8646 162.675 57.6359 163.824C57.4072 164.972 57.5241 166.162 57.9719 167.244C58.4196 168.326 59.1781 169.25 60.1513 169.901C61.1246 170.552 62.2689 170.899 63.4395 170.899C64.2164 170.899 64.9858 170.747 65.7038 170.45C66.4217 170.153 67.0741 169.717 67.6237 169.168C68.1732 168.619 68.6092 167.967 68.9066 167.249C69.204 166.531 69.3571 165.762 69.3571 164.984Z" fill="#B2E6CC"/>
<path d="M43.4018 122.177C43.4027 121.261 43.132 120.366 42.624 119.604C42.116 118.842 41.3935 118.248 40.5479 117.897C39.7022 117.546 38.7715 117.454 37.8734 117.632C36.9753 117.81 36.1502 118.25 35.5025 118.898C34.8547 119.545 34.4134 120.37 34.2345 121.268C34.0555 122.166 34.1469 123.097 34.4971 123.943C34.8473 124.789 35.4405 125.512 36.2018 126.021C36.963 126.53 37.8579 126.802 38.7735 126.802C40.0002 126.802 41.1768 126.315 42.0446 125.448C42.9125 124.58 43.4006 123.404 43.4018 122.177Z" fill="#B2E6CC"/>
<path d="M107.254 252.647C108.433 255.512 111.711 256.88 114.577 255.701C117.442 254.522 118.809 251.243 117.631 248.377C116.452 245.511 113.174 244.144 110.308 245.323C107.443 246.502 106.076 249.781 107.254 252.647Z" fill="#B2E6CC"/>
<path d="M70.262 250.169C70.2629 248.789 69.8545 247.439 69.0885 246.291C68.3224 245.143 67.2332 244.248 65.9585 243.719C64.6839 243.191 63.281 243.052 61.9275 243.32C60.5739 243.589 59.3304 244.253 58.3543 245.229C57.3782 246.205 56.7133 247.448 56.4437 248.802C56.1742 250.155 56.3121 251.559 56.84 252.834C57.3679 254.109 58.262 255.199 59.4094 255.966C60.5567 256.733 61.9057 257.142 63.2857 257.142C65.1352 257.142 66.9089 256.408 68.2171 255.1C69.5253 253.793 70.2608 252.019 70.262 250.169Z" fill="#B2E6CC"/>
</g>
<defs>
<radialGradient id="paint0_radial_10_1082" cx="0" cy="0" r="1" gradientUnits="userSpaceOnUse" gradientTransform="translate(-20.1483 225.211) rotate(-134.624) scale(7.55147)">
<stop offset="0.7"/>
<stop offset="0.79" stop-color="#000304"/>
<stop offset="0.89" stop-color="#000B11"/>
<stop offset="0.99" stop-color="#011827"/>
<stop offset="1" stop-color="#011A29"/>
</radialGradient>
<clipPath id="clip0_10_1082">
<rect width="382" height="308" fill="white" transform="translate(268) rotate(90)"/>
</clipPath>
</defs>
</svg>
