<svg width="45" height="44" viewBox="0 0 45 44" fill="none" xmlns="http://www.w3.org/2000/svg">
<path d="M28.9554 40.9801C28.6366 40.9801 28.3775 40.7206 28.3775 40.4011V35.9885C28.3775 35.669 28.6366 35.4094 28.9554 35.4094C29.2743 35.4094 29.5334 35.669 29.5334 35.9885V40.4011C29.5334 40.7206 29.2743 40.9801 28.9554 40.9801Z" fill="#339966"/>
<path d="M15.1243 40.9801C14.8054 40.9801 14.5463 40.7206 14.5463 40.4011V35.9885C14.5463 35.669 14.8054 35.4094 15.1243 35.4094C15.4431 35.4094 15.7022 35.669 15.7022 35.9885V40.4011C15.7022 40.7206 15.4431 40.9801 15.1243 40.9801Z" fill="#339966"/>
<path d="M21.9801 26.9634C16.041 26.9634 14.2872 18.5575 14.2274 18.1981C14.1876 18.0383 14.2274 17.8986 14.3071 17.7588C14.3869 17.639 14.5264 17.5392 14.6858 17.5192C15.5228 17.3595 16.3599 17.1598 17.1372 16.9202C19.9273 16.0616 23.0762 16.0217 26.2251 16.7804C27.8992 17.1798 29.2145 17.04 29.2145 17.04C29.3939 17.04 29.5732 17.0799 29.6928 17.2197C29.8124 17.3395 29.8722 17.5192 29.8523 17.6989C29.7925 18.0783 28.3974 26.9634 21.9801 26.9634ZM15.483 18.5375C15.9613 20.3345 17.7749 25.8054 21.9801 25.8054C26.4842 25.8054 28.1383 20.2147 28.5967 18.218C27.9789 18.218 27.0422 18.1581 25.966 17.8986C23.0164 17.1997 20.0668 17.2397 17.476 18.0184C16.8382 18.218 16.1606 18.3778 15.483 18.5175V18.5375Z" fill="#339966"/>
<path d="M35.871 40.98H8.20868C7.88981 40.98 7.63074 40.7205 7.63074 40.401V34.6705C7.63074 32.1947 9.48418 30.1181 11.9156 29.8186L16.1407 29.2995C17.1372 29.1797 18.4525 27.9018 18.6518 26.8436L18.8511 25.6456C18.891 25.4659 19.0106 25.3062 19.17 25.2263C19.3294 25.1464 19.5287 25.1464 19.7081 25.2263C20.4056 25.6256 21.1829 25.8253 21.9801 25.8253C22.8371 25.8253 23.6342 25.6256 24.3716 25.2263C24.5311 25.1464 24.7304 25.1265 24.8898 25.2263C25.0493 25.3062 25.1688 25.4659 25.2087 25.6456L25.408 26.8835C25.6073 27.9218 26.9226 29.1997 27.9191 29.3195L32.1442 29.8386C34.5956 30.1381 36.4291 32.2346 36.4291 34.6905V40.421C36.4291 40.7404 36.17 41 35.8511 41L35.871 40.98ZM8.76671 39.822H35.2931V34.6705C35.2931 32.7737 33.8781 31.1764 32.0047 30.9567L27.7796 30.4376C26.2849 30.2579 24.5908 28.6206 24.272 27.0632L24.1923 26.5641C23.4947 26.8436 22.7374 26.9834 21.9602 26.9834C21.2228 26.9834 20.5252 26.8436 19.8476 26.584L19.7679 27.0632C19.449 28.6406 17.755 30.2779 16.2603 30.4576L12.0352 30.9767C10.1618 31.1963 8.74679 32.7937 8.74679 34.6905V39.8419L8.76671 39.822Z" fill="#339966"/>
<path d="M28.4971 12.8669H15.5228C15.204 12.8669 14.9449 12.6073 14.9449 12.2879V6.95675C14.9449 5.87854 15.8218 5 16.898 5H27.1219C28.1981 5 29.075 5.87854 29.075 6.95675V12.2879C29.075 12.6073 28.8159 12.8669 28.4971 12.8669ZM16.1008 11.7088H27.9191V6.95675C27.9191 6.51748 27.5604 6.15807 27.1219 6.15807H16.898C16.4595 6.15807 16.1008 6.51748 16.1008 6.95675V11.7088Z" fill="#339966"/>
<path d="M14.7855 18.6772C14.5064 18.6772 14.2673 18.4775 14.2274 18.198C14.2075 18.0582 13.7491 14.8835 15.0047 12.0682C15.1043 11.8685 15.3036 11.7288 15.5228 11.7288H28.3775C28.5967 11.7288 28.8159 11.8685 28.8956 12.0682C30.0516 14.7038 29.8523 17.559 29.8523 17.6788C29.8323 17.9983 29.5533 18.2379 29.2344 18.2179C28.9156 18.198 28.6764 17.9184 28.6963 17.599C28.6963 17.579 28.8558 15.1431 27.9789 12.8868H15.8816C14.925 15.3228 15.3236 17.9983 15.3236 18.0382C15.3634 18.3577 15.1641 18.6372 14.8452 18.6971C14.8253 18.6971 14.7855 18.6971 14.7655 18.6971L14.7855 18.6772Z" fill="#339966"/>
<path d="M22.0398 11.1697C20.8042 11.1697 19.7878 10.1714 19.7878 8.91346C19.7878 7.65556 20.7843 6.65723 22.0398 6.65723C23.2954 6.65723 24.2919 7.65556 24.2919 8.91346C24.2919 10.1714 23.2954 11.1697 22.0398 11.1697ZM22.0398 7.83526C21.442 7.83526 20.9437 8.33443 20.9437 8.93343C20.9437 9.53243 21.442 10.0316 22.0398 10.0316C22.6377 10.0316 23.136 9.53243 23.136 8.93343C23.136 8.33443 22.6377 7.83526 22.0398 7.83526Z" fill="#339966"/>
<path d="M20.3658 9.49255H15.5029C15.1841 9.49255 14.925 9.23298 14.925 8.91351C14.925 8.59404 15.1841 8.33447 15.5029 8.33447H20.3658C20.6846 8.33447 20.9437 8.59404 20.9437 8.91351C20.9437 9.23298 20.6846 9.49255 20.3658 9.49255Z" fill="#339966"/>
<path d="M28.4971 9.49255H23.7139C23.3951 9.49255 23.136 9.23298 23.136 8.91351C23.136 8.59404 23.3951 8.33447 23.7139 8.33447H28.4971C28.8159 8.33447 29.075 8.59404 29.075 8.91351C29.075 9.23298 28.8159 9.49255 28.4971 9.49255Z" fill="#339966"/>
<path d="M22.0398 31.8952C20.1266 31.8952 18.3529 31.1364 17.0176 29.7587C16.7983 29.5391 16.7983 29.1598 17.0176 28.9401C17.2368 28.7205 17.6155 28.7205 17.8347 28.9401C18.9308 30.0982 20.4256 30.7172 22.0199 30.7172C23.6143 30.7172 25.109 30.0782 26.2051 28.9401C26.4244 28.7205 26.7831 28.7005 27.0223 28.9401C27.2415 29.1598 27.2614 29.5191 27.0223 29.7587C25.7069 31.1364 23.9132 31.8952 22 31.8952H22.0398Z" fill="#339966"/>
<path d="M38.422 40.9801H5.57798C5.2591 40.9801 5 40.7205 5 40.4011C5 40.0816 5.2591 39.822 5.57798 39.822H38.422C38.7409 39.822 39 40.0816 39 40.4011C39 40.7205 38.7409 40.9801 38.422 40.9801Z" fill="#339966"/>
</svg>
