<svg id="svg" xmlns="http://www.w3.org/2000/svg" xmlns:xlink="http://www.w3.org/1999/xlink" width="100%" height="100%" viewBox="0, 0, 400,142.22222222222223"><g id="svgg"><path id="path0" d="M0.000 71.111 L 0.000 142.222 200.000 142.222 L 400.000 142.222 400.000 71.111 L 400.000 0.000 200.000 0.000 L 0.000 0.000 0.000 71.111 M69.547 13.426 C 69.808 13.967,70.322 14.822,70.688 15.327 L 71.354 16.247 72.399 15.383 C 74.451 13.687,76.084 14.249,77.563 17.161 L 78.217 18.447 77.215 19.764 C 76.017 21.340,73.766 23.174,73.436 22.843 C 72.879 22.286,74.778 19.023,75.713 18.932 C 76.097 18.894,76.505 18.744,76.619 18.598 C 76.943 18.184,75.894 16.033,75.248 15.788 C 74.954 15.676,74.673 15.463,74.624 15.315 C 74.472 14.861,72.939 16.395,72.651 17.289 C 72.506 17.741,72.299 18.223,72.191 18.359 C 71.614 19.089,71.872 21.707,72.611 22.629 C 73.008 23.124,73.333 23.617,73.333 23.725 C 73.333 24.081,74.589 25.333,74.947 25.333 C 75.141 25.333,75.605 25.076,75.978 24.763 C 76.900 23.986,77.805 24.087,78.116 25.000 C 78.748 26.859,79.112 26.980,80.389 25.759 C 81.636 24.566,81.668 24.238,80.680 22.789 C 79.442 20.975,79.665 19.249,81.338 17.684 C 82.950 16.176,85.127 16.398,85.788 18.137 C 85.926 18.500,86.164 18.667,86.545 18.667 C 88.674 18.667,87.598 23.789,85.374 24.244 C 84.427 24.437,83.910 24.926,83.572 25.948 C 83.186 27.114,79.905 28.746,79.444 28.000 C 79.244 27.676,78.667 27.728,78.667 28.069 C 78.667 28.371,79.457 29.008,80.470 29.525 C 81.330 29.963,84.000 28.134,84.000 27.107 C 84.000 26.782,86.021 24.879,86.609 24.651 C 87.642 24.249,88.016 24.760,87.464 25.818 C 87.167 26.388,87.206 26.667,87.584 26.667 C 87.909 26.667,88.858 25.486,88.998 24.907 C 89.074 24.591,89.572 23.383,90.104 22.222 C 91.514 19.143,91.519 19.111,90.613 19.111 C 90.200 19.111,89.669 19.258,89.431 19.437 C 88.882 19.853,88.444 19.866,88.444 19.467 C 88.444 18.929,89.960 17.781,90.730 17.736 C 93.528 17.574,93.488 17.210,91.207 22.045 C 87.895 29.070,87.179 30.493,85.762 32.876 C 84.376 35.206,83.433 37.389,83.763 37.508 C 86.177 38.383,94.214 28.725,98.887 19.333 C 100.122 16.852,100.761 16.509,101.475 17.944 C 102.434 19.874,101.973 25.023,100.217 32.000 C 99.741 33.894,99.085 37.344,98.760 39.667 C 98.031 44.882,98.195 44.667,94.964 44.667 C 90.969 44.667,89.253 46.369,90.906 48.690 C 92.251 50.579,94.851 50.657,97.344 48.882 C 98.448 48.095,98.978 48.587,98.826 50.258 C 98.337 55.660,91.865 58.965,88.869 55.342 C 88.461 54.848,88.009 54.444,87.864 54.444 C 87.572 54.444,87.344 56.103,87.584 56.490 C 87.668 56.626,87.636 56.957,87.514 57.225 C 87.019 58.311,88.831 60.836,90.800 61.805 C 92.338 62.563,93.950 62.589,95.048 61.875 L 95.540 61.555 95.081 60.777 C 94.461 59.725,93.556 59.096,93.092 59.393 C 92.511 59.765,91.223 59.374,90.143 58.499 C 88.750 57.369,89.276 57.107,91.075 58.035 C 92.298 58.665,92.485 58.704,93.100 58.449 C 93.896 58.119,94.930 58.433,95.251 59.102 C 95.461 59.540,96.261 60.603,97.061 61.506 C 97.339 61.820,97.489 62.151,97.395 62.241 C 97.190 62.434,93.372 63.926,92.141 64.294 L 91.282 64.550 90.312 63.442 C 89.779 62.832,89.340 62.422,89.338 62.529 C 89.332 62.762,90.235 64.281,90.481 64.453 C 90.575 64.519,91.020 65.269,91.469 66.120 C 93.149 69.300,94.002 70.222,95.264 70.222 C 96.166 70.222,96.566 70.823,96.200 71.627 C 95.908 72.268,91.361 74.526,90.797 74.310 C 89.602 73.851,90.665 76.297,92.583 78.417 C 94.034 80.019,94.803 80.385,95.982 80.032 C 97.172 79.675,98.210 79.710,98.364 80.112 C 98.667 80.900,97.643 82.601,96.670 82.925 C 96.411 83.011,96.554 83.485,97.368 85.239 C 101.476 94.094,101.459 103.985,97.321 112.260 C 94.920 117.061,91.467 120.717,85.741 124.519 C 82.138 126.912,81.856 127.149,81.387 128.185 C 80.372 130.427,75.945 135.386,74.718 135.655 C 71.685 136.322,72.179 134.519,76.154 130.423 C 78.593 127.909,78.610 127.845,76.657 128.498 C 73.673 129.496,64.677 129.069,61.249 127.766 C 59.238 127.002,59.219 126.972,62.716 130.032 C 67.836 134.513,69.144 137.919,64.906 135.733 C 62.219 134.348,58.233 129.374,58.224 127.397 C 58.223 127.115,58.009 126.791,57.722 126.638 C 41.044 117.754,34.916 100.849,42.761 85.366 L 43.323 84.258 42.384 83.706 C 39.720 82.141,36.667 79.161,36.667 78.127 C 36.667 77.665,37.528 77.672,38.197 78.141 C 39.642 79.152,43.201 78.298,46.677 76.105 C 50.353 73.785,54.444 72.207,54.444 73.109 C 54.444 73.229,53.262 73.918,51.816 74.638 C 48.505 76.289,44.251 78.829,44.232 79.167 C 44.188 79.947,47.336 78.918,51.258 76.870 C 57.104 73.818,58.337 74.960,52.746 78.250 C 49.358 80.243,45.201 81.011,43.324 79.990 C 43.024 79.827,41.957 79.637,40.954 79.568 L 39.130 79.443 39.843 80.182 C 40.868 81.245,42.935 82.575,44.164 82.963 C 47.326 83.961,48.477 84.242,48.876 84.115 C 50.346 83.649,55.789 78.666,56.742 76.915 L 57.350 75.799 56.781 75.426 C 56.101 74.981,54.009 71.862,53.097 69.935 C 52.070 67.763,52.276 67.112,53.750 67.874 C 56.494 69.294,61.106 69.166,64.365 67.581 L 66.694 66.449 66.323 65.821 C 65.246 63.996,65.655 64.127,60.513 63.973 C 54.718 63.800,53.679 63.455,51.165 60.865 C 49.428 59.075,49.371 58.267,51.019 58.791 C 51.729 59.017,53.511 59.195,56.111 59.300 L 60.111 59.461 61.848 60.333 C 63.775 61.300,65.185 62.402,65.653 63.307 C 65.989 63.958,68.344 65.923,68.680 65.833 C 69.198 65.695,68.867 66.908,68.331 67.112 C 67.567 67.403,63.183 71.703,59.951 75.333 C 55.842 79.949,52.531 83.240,50.333 84.894 C 46.823 87.535,44.749 90.006,46.497 89.465 C 48.487 88.848,49.300 88.222,48.111 88.222 C 47.757 88.222,47.556 88.097,47.556 87.877 C 47.556 87.581,47.817 87.554,49.405 87.682 C 55.437 88.172,66.185 80.065,66.729 74.615 L 66.833 73.563 66.185 73.946 C 65.828 74.157,63.698 76.148,61.452 78.370 C 57.074 82.701,56.444 83.213,56.444 82.441 C 56.444 81.914,58.087 80.093,62.911 75.269 C 65.866 72.315,66.301 71.780,67.211 69.975 C 68.512 67.395,69.293 66.260,71.122 64.287 C 74.664 60.468,73.670 58.054,67.000 54.273 C 63.257 52.152,61.200 49.669,60.761 46.745 C 60.577 45.514,60.508 45.479,58.908 45.810 C 57.078 46.187,56.721 45.978,55.713 43.939 C 55.260 43.022,54.889 42.171,54.889 42.048 C 54.889 41.427,44.569 42.240,41.305 43.119 C 38.682 43.825,36.768 46.783,36.322 50.820 C 36.055 53.226,44.828 55.600,53.778 55.543 C 56.200 55.528,57.035 55.609,58.111 55.962 C 58.844 56.202,60.044 56.568,60.778 56.775 C 62.233 57.185,64.274 58.188,65.662 59.175 C 66.790 59.977,66.981 59.569,65.969 58.519 C 64.984 57.496,63.097 56.458,60.150 55.317 C 58.404 54.641,57.695 54.255,57.564 53.911 C 56.860 52.059,52.687 50.186,49.365 50.230 L 48.778 50.238 49.333 50.576 L 49.889 50.914 49.222 50.771 C 48.856 50.692,48.056 50.545,47.444 50.444 C 46.175 50.235,45.478 49.990,42.210 48.606 L 39.865 47.612 39.523 48.208 C 39.097 48.950,37.556 49.921,37.556 49.447 C 37.556 49.019,38.014 47.975,38.411 47.500 C 38.698 47.156,38.689 47.060,38.332 46.665 C 37.656 45.918,40.696 46.620,43.300 47.813 C 45.036 48.609,46.793 49.010,50.000 49.343 C 53.810 49.739,54.938 50.076,57.308 51.531 C 58.549 52.293,60.422 53.187,61.778 53.666 C 66.583 55.362,69.325 57.254,70.072 59.389 C 70.234 59.852,69.136 61.194,68.200 61.678 C 67.503 62.039,66.444 62.109,66.444 61.795 C 66.444 61.682,65.735 61.107,64.867 60.517 C 64.000 59.927,63.075 59.298,62.812 59.120 C 62.549 58.941,62.061 58.575,61.729 58.306 C 60.278 57.134,57.916 56.704,51.556 56.454 C 40.613 56.025,35.550 54.220,32.977 49.829 C 32.027 48.209,33.262 47.588,34.781 48.922 C 35.790 49.807,35.952 49.654,36.371 47.411 C 37.174 43.120,39.489 41.623,46.444 40.897 C 47.728 40.763,49.191 40.602,49.696 40.539 L 50.614 40.425 50.502 39.032 C 50.375 37.451,50.645 36.740,51.893 35.359 L 52.649 34.521 52.135 33.761 C 50.894 31.921,45.347 21.415,44.357 19.028 C 43.814 17.720,43.875 17.556,44.902 17.556 C 46.515 17.556,48.444 18.168,48.444 18.680 C 48.444 19.013,46.467 19.185,46.104 18.883 C 45.484 18.368,45.462 18.892,46.054 20.063 C 46.377 20.700,46.981 21.972,47.397 22.889 C 47.813 23.806,48.845 25.656,49.691 27.000 C 51.038 29.142,52.832 32.638,53.210 33.856 C 53.298 34.143,53.455 34.221,53.724 34.114 C 55.240 33.510,62.622 32.668,67.780 32.511 C 72.343 32.372,72.781 32.415,80.664 33.778 C 83.405 34.252,83.471 34.230,84.535 32.478 C 86.958 28.489,86.683 27.552,83.693 29.604 C 82.130 30.677,80.511 30.694,78.743 29.658 C 77.512 28.937,77.106 27.556,78.124 27.556 C 78.619 27.556,78.503 27.209,77.921 26.944 C 77.333 26.676,77.247 26.713,75.243 28.094 C 73.350 29.400,72.430 29.374,70.692 27.968 C 69.208 26.768,68.880 26.688,68.061 27.333 C 67.750 27.578,67.259 27.778,66.970 27.778 C 66.681 27.778,66.444 27.881,66.444 28.008 C 66.444 28.299,64.574 29.111,63.904 29.111 C 63.627 29.111,62.971 28.786,62.448 28.389 C 60.685 27.052,60.377 26.890,60.074 27.142 C 59.466 27.646,58.111 26.655,58.649 26.100 C 58.762 25.984,58.941 25.547,59.048 25.129 C 59.366 23.880,59.750 23.814,61.477 24.714 C 62.315 25.150,63.326 25.576,63.724 25.661 C 64.545 25.834,64.889 26.326,64.889 27.327 C 64.889 27.955,64.929 27.994,65.351 27.769 C 65.615 27.627,65.760 27.386,65.691 27.205 C 65.549 26.836,65.809 26.787,66.143 27.121 C 66.303 27.281,66.454 27.256,66.635 27.038 C 67.006 26.591,66.732 26.056,66.133 26.056 C 65.561 26.056,64.444 25.398,64.444 25.062 C 64.444 24.748,63.267 23.271,61.453 21.308 C 59.655 19.364,58.996 18.258,59.190 17.514 C 59.878 14.876,63.268 13.645,65.050 15.385 L 65.901 16.215 66.648 15.052 C 68.556 12.085,68.824 11.934,69.547 13.426 M68.455 14.611 C 66.491 15.606,66.370 17.519,68.059 20.872 C 69.037 22.814,69.193 22.786,69.748 20.572 C 70.287 18.426,70.331 17.043,69.913 15.456 C 69.572 14.161,69.466 14.100,68.455 14.611 M62.162 15.298 C 60.052 16.689,59.970 18.394,61.962 19.425 C 62.320 19.610,62.963 20.249,63.391 20.844 C 64.082 21.806,65.949 23.556,66.284 23.556 C 66.354 23.556,66.278 23.031,66.115 22.389 C 65.953 21.747,65.696 20.672,65.546 20.000 C 65.396 19.328,64.952 18.178,64.561 17.444 C 64.170 16.711,63.781 15.836,63.698 15.500 C 63.520 14.780,63.043 14.717,62.162 15.298 M52.738 17.062 C 50.606 18.887,51.684 26.209,54.555 29.403 C 54.970 29.865,55.324 29.820,58.056 28.965 C 59.003 28.668,59.778 28.329,59.778 28.213 C 59.778 28.096,59.874 28.000,59.993 28.000 C 60.442 28.000,59.280 29.530,58.577 29.864 C 56.364 30.914,54.409 30.839,53.556 29.673 C 53.250 29.256,52.798 28.804,52.550 28.669 C 51.844 28.283,51.015 26.590,49.909 23.275 C 48.619 19.407,48.632 19.302,50.444 19.014 C 50.628 18.985,50.999 18.570,51.268 18.092 C 51.831 17.095,52.552 16.442,53.080 16.450 C 53.337 16.455,53.236 16.635,52.738 17.062 M54.930 16.645 C 57.001 17.452,57.682 19.942,56.583 22.689 C 55.819 24.598,55.815 24.577,57.148 25.926 C 58.633 27.430,58.430 27.899,56.375 27.712 C 54.295 27.524,52.229 24.709,53.565 23.883 C 54.554 23.272,56.336 18.984,55.886 18.297 C 55.503 17.713,55.461 17.471,55.778 17.667 C 55.900 17.742,56.000 17.755,56.000 17.696 C 56.000 17.533,54.642 16.889,54.299 16.889 C 54.135 16.889,54.000 16.789,54.000 16.667 C 54.000 16.391,54.264 16.385,54.930 16.645 M63.458 18.197 C 63.261 18.577,63.002 18.889,62.883 18.889 C 62.547 18.889,62.628 18.155,63.026 17.586 C 63.559 16.826,63.910 17.322,63.458 18.197 M82.575 18.017 C 81.486 19.312,81.568 20.265,82.956 22.423 C 83.819 23.764,83.972 23.744,84.617 22.206 C 85.294 20.588,85.208 18.784,84.423 18.185 C 84.129 17.961,83.768 17.678,83.620 17.556 C 83.243 17.243,83.217 17.254,82.575 18.017 M100.989 19.254 C 100.039 21.452,99.250 23.872,98.754 26.111 C 96.393 36.766,94.112 41.514,91.419 41.378 C 88.179 41.214,87.424 41.718,86.636 44.572 C 86.276 45.880,85.911 46.683,85.456 47.176 C 83.186 49.633,82.635 50.522,83.236 50.752 C 83.427 50.826,83.524 50.982,83.451 51.101 C 83.150 51.587,85.348 55.111,85.952 55.111 C 86.400 55.111,87.552 50.709,87.555 48.987 C 87.556 48.157,87.067 47.710,86.561 48.079 C 86.193 48.349,86.172 48.450,86.424 48.754 C 86.845 49.261,86.351 50.373,85.462 50.914 C 84.237 51.662,83.538 51.351,84.433 50.456 C 84.671 50.218,84.978 49.604,85.117 49.091 C 85.488 47.710,86.602 46.373,87.985 45.648 C 88.649 45.299,89.465 44.785,89.798 44.504 C 90.860 43.611,91.856 43.333,93.996 43.333 L 96.007 43.333 96.447 42.611 C 96.689 42.214,96.888 41.620,96.888 41.292 C 96.889 40.964,97.043 39.964,97.231 39.070 C 97.419 38.176,97.671 36.744,97.791 35.889 C 97.911 35.033,98.345 33.133,98.755 31.667 C 99.165 30.200,99.609 28.500,99.741 27.889 C 99.873 27.278,100.183 25.878,100.430 24.778 C 100.970 22.366,101.579 18.616,101.452 18.489 C 101.401 18.438,101.193 18.782,100.989 19.254 M54.000 20.098 C 54.000 20.274,53.900 20.480,53.778 20.556 C 53.656 20.631,53.556 20.487,53.556 20.235 C 53.556 19.984,53.656 19.778,53.778 19.778 C 53.900 19.778,54.000 19.922,54.000 20.098 M52.832 22.492 C 52.841 23.082,52.808 23.137,52.660 22.778 C 52.414 22.185,52.398 21.500,52.633 21.646 C 52.736 21.710,52.826 22.090,52.832 22.492 M69.751 23.722 C 69.737 23.814,69.738 23.968,69.754 24.065 C 69.813 24.418,69.309 25.111,68.992 25.111 C 68.813 25.111,68.667 25.261,68.667 25.444 C 68.667 25.926,68.984 25.856,69.761 25.202 C 70.491 24.588,70.711 23.556,70.111 23.556 C 69.928 23.556,69.766 23.631,69.751 23.722 M67.333 24.333 C 67.333 24.778,67.444 24.889,67.889 24.889 C 68.511 24.889,68.543 24.821,68.214 24.208 C 67.882 23.586,67.333 23.664,67.333 24.333 M71.611 25.705 C 71.060 26.090,70.973 26.788,71.369 27.656 C 71.794 28.589,72.331 28.364,72.746 27.080 C 73.259 25.491,72.769 24.898,71.611 25.705 M96.655 26.397 C 92.785 32.030,90.821 34.521,88.744 36.432 C 87.907 37.202,86.972 37.994,86.667 38.192 C 83.854 40.017,78.222 44.585,78.222 45.042 C 78.222 45.109,78.920 45.865,79.773 46.724 C 81.573 48.535,81.788 48.513,82.346 46.471 C 83.452 42.421,86.775 39.790,90.795 39.780 C 91.677 39.778,92.023 39.669,92.385 39.278 C 93.600 37.962,96.077 32.298,96.861 29.040 C 97.738 25.394,97.698 24.880,96.655 26.397 M85.803 26.764 C 85.430 26.964,85.354 27.098,85.547 27.217 C 85.701 27.312,85.974 27.232,86.175 27.032 C 86.651 26.555,86.456 26.415,85.803 26.764 M68.778 34.141 C 63.248 34.319,56.298 34.917,54.867 35.338 C 52.645 35.992,50.775 38.145,51.217 39.540 C 51.585 40.699,61.312 39.689,62.605 38.357 C 63.740 37.189,64.298 37.315,64.444 38.773 L 64.556 39.880 66.444 40.387 C 69.677 41.254,70.579 41.259,72.708 40.416 C 73.497 40.104,74.909 34.835,74.353 34.279 C 74.188 34.114,71.606 34.051,68.778 34.141 M78.230 36.120 C 78.378 36.298,78.621 36.444,78.771 36.444 C 79.184 36.444,79.677 37.101,80.218 38.371 L 80.706 39.520 80.200 40.205 C 79.560 41.070,79.531 41.064,79.023 39.965 C 78.792 39.463,78.417 39.004,78.190 38.945 C 77.963 38.886,77.775 38.674,77.771 38.474 C 77.759 37.813,76.042 36.059,75.785 36.444 C 75.133 37.422,75.717 39.333,76.668 39.333 C 76.895 39.333,77.139 39.516,77.210 39.739 C 77.281 39.962,77.857 40.412,78.489 40.738 L 79.640 41.331 80.731 40.198 C 83.169 37.669,83.109 36.648,80.498 36.228 C 79.552 36.076,78.594 35.916,78.369 35.874 C 78.034 35.810,78.009 35.854,78.230 36.120 M176.000 40.300 C 176.979 40.768,177.001 40.802,177.067 41.944 C 177.144 43.274,177.065 43.313,175.729 42.611 C 173.559 41.471,169.982 42.014,168.307 43.739 C 163.164 49.034,168.857 56.940,175.665 53.958 C 177.107 53.326,177.333 53.338,177.333 54.042 C 177.333 57.562,169.785 57.878,166.496 54.495 C 159.883 47.697,167.542 36.257,176.000 40.300 M205.374 40.261 C 211.009 42.685,211.178 53.423,205.624 56.142 C 203.932 56.971,200.766 57.037,199.067 56.279 C 193.325 53.717,193.081 43.256,198.694 40.314 C 200.343 39.450,203.431 39.425,205.374 40.261 M260.247 40.001 C 267.489 42.030,266.937 55.104,259.542 56.690 C 254.258 57.824,250.158 54.167,250.171 48.333 C 250.186 41.910,254.456 38.379,260.247 40.001 M291.209 40.152 C 297.258 42.113,297.379 53.385,291.383 56.366 C 290.093 57.008,286.466 56.951,285.077 56.268 C 278.515 53.039,279.589 41.040,286.556 39.753 C 287.744 39.534,289.860 39.715,291.209 40.152 M329.768 40.239 C 334.369 42.219,335.598 50.532,331.895 54.631 C 327.328 59.686,319.189 56.145,318.924 48.989 C 318.661 41.868,323.839 37.689,329.768 40.239 M373.894 39.786 C 374.183 40.254,372.367 43.025,369.272 46.841 L 367.959 48.460 368.584 49.279 C 368.928 49.730,369.899 50.851,370.743 51.771 C 372.331 53.503,374.667 56.308,374.667 56.482 C 374.667 56.567,373.588 56.561,372.179 56.469 C 371.653 56.435,370.635 55.409,368.180 52.443 C 365.207 48.850,365.334 48.912,365.332 51.028 C 365.331 51.991,365.266 53.603,365.188 54.611 L 365.045 56.444 363.745 56.444 L 362.444 56.444 362.444 48.085 L 362.444 39.726 362.944 39.860 C 363.219 39.934,363.880 39.995,364.412 39.997 L 365.379 40.000 365.284 43.758 L 365.190 47.517 365.663 47.160 C 365.923 46.964,367.030 45.656,368.123 44.254 C 370.914 40.673,371.347 40.196,372.107 39.865 C 372.923 39.510,373.702 39.475,373.894 39.786 M145.636 39.986 C 146.821 40.075,144.518 44.358,139.508 51.381 C 138.312 53.058,137.333 54.458,137.333 54.493 C 137.333 54.527,139.313 54.527,141.733 54.491 L 146.133 54.427 146.011 55.479 L 145.889 56.530 140.222 56.468 C 137.106 56.434,134.521 56.372,134.478 56.329 C 134.029 55.882,134.982 53.995,137.771 49.810 C 140.751 45.338,142.667 42.324,142.667 42.107 C 142.667 42.048,140.867 42.000,138.667 42.000 L 134.667 42.000 134.667 41.037 C 134.667 40.507,134.722 40.019,134.789 39.951 C 134.880 39.860,144.376 39.890,145.636 39.986 M156.984 40.278 C 157.366 40.861,158.676 44.580,160.329 49.778 C 160.970 51.794,161.758 54.013,162.081 54.708 C 162.859 56.386,162.843 56.445,161.611 56.441 C 160.195 56.436,160.123 56.369,159.373 54.328 L 158.721 52.556 155.339 52.556 L 151.956 52.556 151.397 54.333 C 151.089 55.311,150.724 56.185,150.586 56.274 C 150.293 56.464,148.222 56.505,148.222 56.321 C 148.222 56.253,149.113 53.578,150.201 50.377 C 153.853 39.633,153.780 39.778,155.562 39.778 C 156.452 39.778,156.718 39.871,156.984 40.278 M181.722 39.985 C 182.219 40.000,182.222 40.022,182.222 43.522 L 182.222 47.044 184.590 47.188 C 185.892 47.268,187.542 47.333,188.257 47.333 L 189.556 47.333 189.556 43.572 L 189.556 39.810 190.833 39.936 C 191.536 40.005,192.111 40.073,192.111 40.086 C 192.111 40.100,192.081 43.732,192.045 48.159 L 191.979 56.206 191.234 56.346 C 189.628 56.647,189.660 56.722,189.724 52.827 L 189.781 49.333 188.036 49.333 C 187.076 49.333,185.375 49.268,184.256 49.189 L 182.222 49.045 182.222 52.745 L 182.222 56.444 181.000 56.444 L 179.778 56.444 179.778 48.113 L 179.778 39.782 180.500 39.876 C 180.897 39.928,181.447 39.977,181.722 39.985 M219.173 40.105 C 228.014 41.978,228.317 55.088,219.552 56.463 C 217.937 56.716,212.913 56.623,212.441 56.331 C 212.304 56.247,212.222 53.205,212.222 48.219 L 212.222 40.242 213.056 40.103 C 213.514 40.026,213.989 39.930,214.111 39.888 C 214.704 39.687,217.835 39.821,219.173 40.105 M231.463 40.514 C 231.718 40.781,232.908 42.650,234.108 44.667 C 236.003 47.852,238.898 52.447,239.321 52.942 C 239.398 53.032,239.389 52.382,239.300 51.497 C 239.211 50.613,239.132 47.664,239.125 44.944 L 239.111 40.000 240.421 40.000 C 242.052 40.000,241.909 39.110,241.778 48.444 L 241.667 56.333 240.277 56.400 L 238.888 56.466 237.042 53.622 C 236.027 52.058,234.812 50.128,234.342 49.333 C 233.178 47.366,231.066 44.000,230.997 44.000 C 230.966 44.000,230.976 46.800,231.021 50.222 L 231.101 56.444 229.897 56.444 C 228.305 56.444,228.403 57.071,228.580 48.016 L 228.736 40.023 229.312 39.930 C 230.217 39.783,230.960 39.985,231.463 40.514 M275.173 40.223 C 277.117 40.792,278.668 43.032,278.665 45.270 C 278.662 48.771,276.858 50.330,272.503 50.594 L 270.333 50.726 270.401 53.597 L 270.469 56.467 269.179 56.400 L 267.889 56.333 267.889 48.224 L 267.889 40.116 268.556 39.958 C 269.482 39.738,274.154 39.926,275.173 40.223 M302.171 40.056 C 302.507 40.471,303.874 43.830,305.570 48.410 C 307.538 53.725,307.317 53.631,308.555 49.667 C 310.832 42.379,312.173 39.778,313.652 39.778 C 314.879 39.778,314.874 39.762,315.442 46.000 C 315.625 48.017,315.965 51.117,316.198 52.889 C 316.688 56.628,316.792 56.274,315.193 56.307 C 313.598 56.340,313.673 56.596,313.334 50.001 C 313.193 47.252,313.027 44.953,312.966 44.892 C 312.780 44.706,312.399 45.506,310.643 49.778 C 307.854 56.559,307.763 56.712,306.779 56.263 C 306.035 55.924,305.379 54.533,303.824 49.995 C 301.871 44.299,301.612 43.927,301.571 46.760 C 301.563 47.361,301.451 48.461,301.323 49.204 C 301.196 49.947,300.968 51.856,300.817 53.444 L 300.543 56.333 299.596 56.314 C 298.120 56.283,298.143 56.471,298.775 49.533 C 299.508 41.477,299.676 40.201,300.038 39.972 C 300.488 39.686,301.917 39.742,302.171 40.056 M343.946 40.342 C 346.417 41.373,347.655 44.144,346.885 46.917 C 346.662 47.719,344.736 49.778,344.208 49.778 C 343.836 49.778,344.055 50.215,345.545 52.447 C 347.815 55.846,348.140 56.667,347.215 56.667 C 345.706 56.667,344.998 56.046,343.034 53.003 C 341.827 51.131,340.766 50.222,339.791 50.222 L 339.203 50.222 339.213 53.278 L 339.222 56.333 337.889 56.333 L 336.556 56.333 336.517 48.391 C 336.492 43.178,336.557 40.401,336.707 40.309 C 337.644 39.729,342.530 39.752,343.946 40.342 M357.400 40.015 C 358.354 40.280,359.109 41.279,359.110 42.278 C 359.111 43.000,358.953 43.014,357.333 42.444 C 354.852 41.572,352.659 42.192,351.976 43.959 C 351.570 45.013,352.133 45.570,355.182 47.127 C 359.719 49.445,360.926 51.958,358.820 54.702 C 356.719 57.440,350.940 57.653,349.700 55.039 C 348.965 53.490,349.095 53.383,351.000 53.977 C 353.156 54.649,355.004 54.786,355.727 54.327 C 358.408 52.627,358.094 51.616,354.240 49.554 C 349.346 46.935,348.389 45.080,350.339 41.992 C 351.519 40.123,354.641 39.249,357.400 40.015 M247.682 48.173 L 247.697 56.234 247.213 56.356 C 246.946 56.422,246.389 56.445,245.975 56.405 L 245.222 56.333 245.174 48.156 L 245.126 39.978 246.396 40.045 L 247.667 40.111 247.682 48.173 M378.926 40.113 C 379.167 40.206,379.212 41.741,379.168 48.280 L 379.113 56.333 377.945 56.333 L 376.778 56.333 376.719 48.167 L 376.661 40.000 377.646 40.000 C 378.187 40.000,378.763 40.051,378.926 40.113 M60.222 41.180 C 60.222 41.341,60.422 41.886,60.667 42.392 C 60.911 42.898,61.111 43.409,61.111 43.528 C 61.111 43.646,61.425 44.057,61.808 44.441 L 62.505 45.138 62.030 45.470 C 60.455 46.574,63.636 51.303,67.465 53.547 C 69.357 54.657,71.917 56.563,73.362 57.938 L 74.614 59.128 74.722 58.397 C 74.859 57.473,74.790 57.322,73.990 56.778 C 68.336 52.934,63.641 48.390,63.204 46.341 C 63.125 45.970,62.982 45.567,62.887 45.444 C 62.792 45.322,62.593 44.622,62.443 43.889 C 62.160 42.499,61.669 41.338,61.247 41.059 C 60.844 40.793,60.222 40.866,60.222 41.180 M72.362 41.706 C 70.866 42.462,70.838 42.492,70.957 43.220 C 71.128 44.275,70.255 44.943,68.222 45.314 L 67.444 45.456 68.548 46.532 C 69.877 47.829,72.775 50.002,73.165 49.994 C 74.147 49.975,75.326 45.764,74.895 43.817 C 74.192 40.644,74.295 40.730,72.362 41.706 M56.593 41.532 L 55.742 41.667 56.396 42.556 C 57.745 44.387,59.556 45.354,59.556 44.243 C 59.556 43.633,58.980 42.247,58.513 41.730 C 58.140 41.319,58.015 41.306,56.593 41.532 M75.414 42.500 C 76.167 44.262,76.297 44.444,76.800 44.444 C 77.945 44.444,77.725 43.142,76.445 42.333 C 75.259 41.585,75.038 41.621,75.414 42.500 M200.278 42.245 C 196.101 44.313,195.960 51.939,200.059 54.030 C 204.421 56.256,208.357 51.158,206.669 45.468 C 205.822 42.612,202.709 41.042,200.278 42.245 M255.889 42.146 C 252.277 44.047,251.574 50.746,254.706 53.426 C 257.430 55.758,261.431 54.397,262.439 50.796 C 263.923 45.498,259.818 40.079,255.889 42.146 M270.806 42.063 C 270.270 42.455,270.153 48.124,270.676 48.455 C 272.337 49.505,276.115 47.779,276.374 45.850 C 276.715 43.311,272.769 40.627,270.806 42.063 M286.724 42.026 C 284.391 42.700,282.794 46.464,283.350 49.978 C 284.268 55.780,291.942 56.177,293.127 50.484 C 294.251 45.083,291.001 40.791,286.724 42.026 M324.765 42.183 C 320.112 44.368,320.481 52.964,325.290 54.405 C 327.645 55.111,330.470 53.492,331.125 51.061 C 332.624 45.491,328.874 40.254,324.765 42.183 M340.056 41.924 C 339.337 42.078,338.748 47.261,339.377 47.895 C 339.673 48.193,342.323 48.102,342.992 47.771 C 346.460 46.053,343.965 41.084,340.056 41.924 M215.260 42.327 C 214.839 42.749,214.695 53.349,215.102 53.993 C 215.360 54.402,217.297 54.617,218.763 54.399 C 224.136 53.601,225.090 45.189,220.093 42.672 C 218.667 41.953,215.836 41.751,215.260 42.327 M68.667 43.457 C 68.239 43.615,67.589 43.753,67.222 43.764 C 65.498 43.815,65.180 44.172,66.315 44.783 C 67.358 45.345,68.723 44.965,69.237 43.971 C 69.671 43.133,69.634 43.100,68.667 43.457 M153.939 46.835 C 153.361 48.517,152.889 50.011,152.889 50.155 C 152.889 50.336,153.644 50.438,155.334 50.486 C 156.678 50.524,157.778 50.479,157.778 50.386 C 157.777 50.003,156.199 45.044,155.885 44.436 C 155.305 43.315,155.032 43.652,153.939 46.835 M64.000 45.531 C 64.000 46.603,66.102 48.836,71.969 53.999 C 74.587 56.302,74.569 56.298,74.207 54.456 C 73.859 52.690,72.994 51.715,68.811 48.374 C 64.387 44.840,64.000 44.612,64.000 45.531 M76.222 46.876 C 76.222 47.113,76.133 47.362,76.023 47.430 C 75.391 47.821,75.283 51.294,75.864 52.563 L 76.436 53.814 77.328 52.784 C 78.805 51.077,78.808 49.950,77.341 47.789 C 76.349 46.328,76.222 46.225,76.222 46.876 M89.440 50.164 C 88.050 51.200,89.268 53.977,91.280 54.358 C 91.679 54.433,92.060 54.583,92.127 54.692 C 92.830 55.829,96.603 53.714,97.439 51.714 C 97.920 50.562,97.565 50.467,95.384 51.166 C 93.507 51.767,92.753 51.678,91.361 50.686 C 90.634 50.169,89.755 49.930,89.440 50.164 M44.333 51.524 C 50.528 52.593,56.521 54.030,56.823 54.517 C 56.903 54.647,56.729 54.675,56.383 54.588 C 56.068 54.509,54.928 54.352,53.850 54.239 C 51.541 53.997,42.283 52.529,41.000 52.201 C 34.604 50.567,36.527 50.176,44.333 51.524 M80.361 51.551 C 79.885 52.742,79.890 52.832,80.606 55.619 C 81.044 57.321,81.150 58.062,80.973 58.174 C 80.835 58.263,80.673 59.224,80.609 60.333 C 80.477 62.642,80.837 65.919,81.184 65.571 C 81.448 65.308,81.500 60.512,81.253 59.222 C 81.095 58.392,81.107 58.362,81.431 58.765 C 81.622 59.002,81.778 59.442,81.778 59.744 C 81.778 60.461,82.280 60.039,83.454 58.333 L 84.260 57.164 83.507 56.178 C 82.717 55.143,82.509 54.681,81.916 52.645 C 81.370 50.768,80.827 50.386,80.361 51.551 M51.222 51.333 C 51.298 51.456,51.160 51.556,50.915 51.556 C 50.671 51.556,50.409 51.456,50.333 51.333 C 50.258 51.211,50.396 51.111,50.640 51.111 C 50.885 51.111,51.147 51.211,51.222 51.333 M53.667 52.770 C 54.525 53.163,54.126 53.168,53.111 52.778 C 52.683 52.613,52.483 52.475,52.667 52.471 C 52.850 52.468,53.300 52.602,53.667 52.770 M78.082 54.838 C 76.629 57.383,75.461 60.959,75.527 62.667 C 75.629 65.339,77.027 71.111,77.572 71.111 C 77.768 71.111,78.988 69.348,79.526 68.287 C 80.115 67.124,80.119 66.133,79.542 64.000 C 79.263 62.968,79.048 61.317,78.979 59.667 C 78.918 58.200,78.797 56.327,78.711 55.505 L 78.556 54.010 78.082 54.838 M84.331 58.371 C 83.619 59.869,83.339 61.406,83.336 63.814 C 83.333 66.456,83.535 66.009,81.097 68.778 C 78.554 71.668,78.144 72.477,78.284 74.332 C 78.458 76.634,80.874 83.330,81.719 83.853 C 81.841 83.928,82.404 83.552,82.970 83.017 C 83.907 82.132,84.325 81.551,83.784 81.885 C 83.666 81.958,83.507 81.739,83.431 81.398 C 83.092 79.870,81.843 76.926,81.753 77.444 C 81.630 78.164,81.376 74.780,81.371 72.333 C 81.361 67.649,81.777 67.621,82.098 72.285 C 82.185 73.535,82.526 74.939,83.331 77.348 C 83.943 79.182,84.444 80.829,84.444 81.008 C 84.444 81.187,84.544 81.333,84.667 81.333 C 85.041 81.333,84.916 78.404,84.444 76.111 C 84.200 74.923,83.995 73.437,83.989 72.809 C 83.984 72.181,83.851 70.644,83.695 69.394 C 83.370 66.788,83.501 66.273,84.193 67.445 C 84.631 68.187,84.733 68.243,85.391 68.103 C 87.134 67.733,87.593 65.791,86.308 64.222 C 86.157 64.039,85.888 63.464,85.710 62.944 C 85.244 61.587,85.816 61.663,86.546 63.056 C 87.548 64.963,88.225 65.458,88.219 64.278 C 88.216 63.619,85.338 57.742,84.956 57.615 C 84.829 57.573,84.548 57.913,84.331 58.371 M54.759 61.278 C 54.851 61.369,54.993 61.448,55.074 61.452 C 55.156 61.457,55.472 61.603,55.778 61.778 C 56.152 61.992,57.169 62.113,58.889 62.150 C 60.531 62.185,61.246 62.136,60.889 62.013 C 60.583 61.908,59.783 61.811,59.111 61.797 C 58.439 61.784,57.339 61.625,56.667 61.444 C 55.337 61.088,54.496 61.014,54.759 61.278 M72.033 65.167 C 69.001 68.650,67.591 72.015,67.484 76.022 C 67.395 79.348,68.026 79.343,71.096 75.993 C 74.225 72.578,75.227 70.359,74.760 67.870 C 74.580 66.911,74.440 67.070,73.084 69.779 C 72.182 71.581,71.933 71.836,71.690 71.204 C 71.451 70.581,71.538 70.343,72.638 68.601 C 73.577 67.113,73.741 66.678,73.876 65.309 C 73.961 64.442,74.085 63.593,74.151 63.422 C 74.450 62.641,73.677 63.278,72.033 65.167 M88.771 65.706 C 88.907 66.714,88.852 66.984,88.329 67.877 C 86.876 70.356,90.440 73.585,93.120 72.218 C 94.137 71.699,94.191 71.517,93.488 70.961 C 92.718 70.351,89.834 66.751,89.653 66.172 C 89.566 65.894,89.297 65.417,89.055 65.111 L 88.616 64.556 88.771 65.706 M231.008 68.679 C 231.399 69.312,230.171 71.334,227.063 75.178 L 225.302 77.356 226.589 78.956 C 227.297 79.836,228.288 81.006,228.791 81.556 C 231.927 84.981,232.161 85.556,230.417 85.556 C 228.879 85.556,228.774 85.475,226.156 82.279 C 224.878 80.720,223.520 79.151,223.139 78.792 L 222.444 78.139 222.444 81.732 L 222.444 85.325 221.916 85.458 C 221.625 85.531,221.100 85.557,220.749 85.517 L 220.111 85.444 220.117 77.180 C 220.120 72.634,220.170 68.877,220.228 68.830 C 220.286 68.783,220.813 68.788,221.399 68.840 L 222.465 68.935 222.444 71.968 C 222.432 73.635,222.427 75.327,222.433 75.727 L 222.444 76.455 223.014 76.082 C 223.327 75.877,224.563 74.399,225.762 72.799 C 228.675 68.909,230.341 67.601,231.008 68.679 M142.722 68.888 L 145.778 68.889 145.778 69.745 C 145.778 71.026,143.296 75.155,139.146 80.778 C 138.154 82.122,137.340 83.272,137.337 83.333 C 137.335 83.394,139.308 83.444,141.722 83.444 L 146.111 83.444 146.179 84.500 L 146.247 85.556 140.623 85.552 C 134.412 85.548,134.318 85.530,134.511 84.345 C 134.661 83.416,134.729 83.305,139.278 76.553 C 141.142 73.786,142.667 71.430,142.667 71.317 C 142.667 71.198,140.972 71.111,138.667 71.111 L 134.667 71.111 134.667 69.855 L 134.667 68.599 137.167 68.743 C 138.542 68.822,141.042 68.887,142.722 68.888 M150.773 69.633 C 151.078 70.376,152.038 74.192,153.000 78.484 C 153.724 81.712,154.057 82.098,154.564 80.296 C 158.733 65.493,159.062 65.381,162.640 77.556 C 163.714 81.210,163.926 81.778,164.212 81.778 C 164.474 81.778,164.417 82.002,165.561 76.444 C 166.798 70.438,167.225 68.774,167.522 68.800 C 167.663 68.812,168.178 68.837,168.667 68.856 C 169.705 68.895,169.760 69.119,169.217 71.111 C 169.034 71.783,168.531 73.933,168.098 75.889 C 166.132 84.773,165.828 85.558,164.354 85.552 C 162.881 85.547,162.708 85.204,160.252 77.415 C 158.846 72.958,158.833 72.961,157.575 78.023 C 156.005 84.345,155.399 85.556,153.800 85.556 C 152.347 85.556,152.363 85.585,151.002 80.400 C 150.351 77.919,149.409 74.352,148.909 72.474 C 148.409 70.595,148.000 68.995,148.000 68.918 C 147.998 68.336,150.506 68.982,150.773 69.633 M185.410 68.948 C 186.044 69.411,190.889 83.773,190.889 85.188 C 190.889 85.789,190.711 86.038,189.787 86.728 C 187.601 88.360,188.045 89.672,190.734 89.522 C 192.367 89.430,192.869 90.233,191.669 91.019 C 189.751 92.275,186.624 91.001,186.443 88.889 C 186.350 87.810,186.455 87.559,187.471 86.415 C 188.603 85.140,188.701 84.243,187.914 82.358 L 187.578 81.556 184.026 81.556 C 180.832 81.556,180.464 81.595,180.370 81.944 C 180.312 82.158,180.093 83.001,179.882 83.816 C 179.482 85.365,179.056 85.743,178.073 85.423 C 177.850 85.350,177.550 85.257,177.408 85.215 C 177.029 85.104,177.705 82.660,179.530 77.547 C 182.011 70.597,182.712 68.971,183.296 68.816 C 184.057 68.615,185.039 68.676,185.410 68.948 M204.309 69.833 C 204.069 71.699,203.169 73.269,198.671 79.667 C 197.726 81.011,196.772 82.394,196.551 82.739 L 196.149 83.367 200.130 83.332 C 202.320 83.313,204.236 83.306,204.389 83.315 C 204.572 83.327,204.667 83.713,204.667 84.444 L 204.667 85.556 199.319 85.556 C 191.478 85.556,191.553 85.953,197.679 76.891 C 199.566 74.100,201.171 71.658,201.246 71.464 C 201.366 71.150,200.940 71.111,197.357 71.111 L 193.333 71.111 193.333 69.889 L 193.333 68.667 198.897 68.667 L 204.460 68.667 204.309 69.833 M217.111 69.889 L 217.111 71.111 213.667 71.111 L 210.222 71.111 210.222 73.556 L 210.222 76.000 213.333 76.000 L 216.444 76.000 216.444 77.247 L 216.444 78.495 213.333 78.409 L 210.222 78.324 210.222 80.855 L 210.222 83.386 213.611 83.304 L 217.000 83.222 217.067 84.389 L 217.134 85.556 212.581 85.556 L 208.027 85.556 207.893 84.611 C 207.819 84.092,207.787 80.367,207.823 76.333 L 207.889 69.000 212.000 68.881 C 214.261 68.816,216.336 68.741,216.611 68.715 C 217.075 68.670,217.111 68.755,217.111 69.889 M255.845 77.149 L 255.889 85.298 255.222 85.371 C 254.856 85.411,254.281 85.413,253.944 85.374 L 253.333 85.304 253.333 77.038 L 253.333 68.772 254.567 68.886 L 255.801 69.000 255.845 77.149 M282.444 69.064 C 282.444 69.913,280.708 72.459,277.620 76.135 C 276.396 77.592,276.305 77.312,278.944 80.213 C 283.324 85.029,283.615 85.567,281.820 85.540 C 280.244 85.516,280.121 85.422,277.353 82.113 C 275.937 80.420,274.536 78.879,274.241 78.688 L 273.704 78.341 273.854 81.821 L 274.004 85.301 272.770 85.455 C 272.091 85.540,271.499 85.572,271.455 85.527 C 271.410 85.482,271.340 81.715,271.298 77.157 L 271.222 68.870 272.556 68.935 L 273.889 69.000 273.805 72.758 L 273.721 76.515 274.418 76.019 C 274.801 75.746,275.825 74.527,276.695 73.309 C 279.214 69.780,280.369 68.667,281.508 68.667 C 282.259 68.667,282.444 68.745,282.444 69.064 M320.143 69.500 C 320.067 69.958,320.004 70.508,320.002 70.722 C 320.000 71.076,319.687 71.111,316.548 71.111 L 313.097 71.111 313.159 73.611 L 313.222 76.111 316.194 76.111 L 319.167 76.111 319.190 77.222 L 319.214 78.333 316.163 78.395 L 313.111 78.457 313.113 79.840 C 313.114 80.600,313.179 81.756,313.257 82.408 L 313.400 83.594 315.755 83.457 C 317.051 83.381,318.536 83.266,319.056 83.202 C 320.692 82.998,320.977 84.813,319.385 85.294 C 318.159 85.664,315.852 87.097,315.609 87.639 C 315.058 88.868,316.540 90.069,317.946 89.534 C 318.823 89.201,319.153 89.416,318.878 90.141 C 318.056 92.303,313.333 91.404,313.333 89.085 C 313.333 88.740,313.585 87.889,313.892 87.194 C 314.564 85.675,314.647 85.776,312.603 85.621 L 310.941 85.495 310.804 84.494 C 310.728 83.944,310.667 80.210,310.667 76.196 L 310.667 68.898 315.056 68.833 C 317.469 68.797,319.633 68.745,319.862 68.717 C 320.227 68.673,320.263 68.773,320.143 69.500 M334.579 69.556 C 334.715 69.983,334.890 70.670,334.968 71.081 C 335.130 71.935,335.369 71.925,332.111 71.205 C 329.816 70.697,328.223 71.100,326.812 72.544 C 321.676 77.799,327.131 86.033,333.582 82.764 C 334.959 82.067,335.199 82.196,334.999 83.526 C 334.692 85.573,334.056 85.883,330.468 85.735 C 324.447 85.487,320.872 80.537,322.549 74.769 C 323.824 70.381,326.374 68.675,331.555 68.742 L 334.332 68.778 334.579 69.556 M348.624 69.166 C 348.880 70.495,346.474 74.704,341.923 80.889 L 340.206 83.222 344.547 83.282 L 348.889 83.343 348.889 84.449 L 348.889 85.556 343.215 85.556 C 335.779 85.556,335.873 85.942,341.323 77.786 C 344.342 73.268,345.555 71.342,345.556 71.067 C 345.556 71.030,343.785 71.000,341.621 71.000 L 337.686 71.000 337.614 69.829 L 337.541 68.659 343.046 68.718 C 348.078 68.773,348.556 68.811,348.624 69.166 M377.644 69.093 C 377.632 69.225,377.607 69.740,377.589 70.237 L 377.556 71.140 374.278 71.110 C 372.475 71.093,370.875 71.087,370.722 71.096 C 370.518 71.107,370.444 71.751,370.444 73.530 C 370.444 76.407,370.170 76.209,373.979 76.075 L 376.667 75.980 376.667 77.223 L 376.667 78.466 373.611 78.431 L 370.556 78.397 370.556 80.809 L 370.556 83.222 374.056 83.283 L 377.556 83.345 377.556 84.099 C 377.556 84.513,377.616 85.011,377.690 85.204 C 377.811 85.518,377.311 85.556,373.024 85.556 L 368.222 85.556 368.222 77.167 L 368.222 68.778 372.944 68.815 C 376.176 68.841,377.660 68.928,377.644 69.093 M174.612 73.778 C 174.643 76.406,174.593 80.106,174.501 82.000 L 174.333 85.444 173.388 85.425 C 172.868 85.415,172.391 85.354,172.328 85.291 C 172.265 85.228,172.281 81.506,172.365 77.022 L 172.516 68.867 173.536 68.934 L 174.556 69.000 174.612 73.778 M247.667 69.489 C 251.093 71.344,251.760 75.655,249.012 78.188 C 247.818 79.288,246.902 79.553,244.284 79.554 L 242.235 79.556 242.173 82.500 L 242.111 85.444 241.000 85.444 L 239.889 85.444 239.830 77.446 C 239.798 73.046,239.824 69.312,239.887 69.148 C 240.096 68.602,246.551 68.885,247.667 69.489 M261.964 72.297 L 261.889 75.705 263.518 74.741 C 265.498 73.571,265.779 73.541,265.774 74.500 C 265.770 75.421,265.785 75.401,263.611 77.307 L 261.778 78.913 261.778 80.429 C 261.778 81.262,261.843 82.269,261.922 82.666 L 262.066 83.387 265.311 83.305 L 268.556 83.222 268.623 84.389 L 268.690 85.556 264.154 85.556 L 259.617 85.556 259.477 84.389 C 259.400 83.747,259.336 82.703,259.335 82.068 C 259.334 81.202,259.231 80.842,258.924 80.624 C 258.699 80.464,258.406 80.127,258.272 79.875 C 258.014 79.388,258.060 79.264,259.062 77.760 C 259.551 77.025,259.565 76.864,259.485 72.944 L 259.402 68.889 260.721 68.889 L 262.040 68.889 261.964 72.297 M288.111 69.188 C 288.111 69.207,288.084 72.852,288.050 77.289 L 287.989 85.355 286.717 85.289 L 285.444 85.222 285.451 83.500 C 285.454 82.553,285.479 78.866,285.506 75.308 L 285.556 68.838 286.833 68.996 C 287.536 69.083,288.111 69.169,288.111 69.188 M304.791 69.376 C 308.312 71.290,308.733 75.355,305.712 78.262 L 304.631 79.301 305.734 80.935 C 306.340 81.833,307.014 82.716,307.231 82.895 C 307.641 83.235,308.431 84.792,308.440 85.278 C 308.446 85.653,307.071 85.638,306.150 85.253 C 305.572 85.011,305.117 84.422,303.901 82.345 C 302.304 79.618,301.986 79.333,300.541 79.333 C 299.668 79.333,299.678 79.285,299.771 83.245 L 299.819 85.267 298.776 85.410 C 298.201 85.489,297.656 85.507,297.564 85.450 C 297.349 85.317,297.022 69.435,297.228 69.102 C 297.488 68.681,303.943 68.915,304.791 69.376 M354.960 69.911 C 355.367 70.473,356.638 72.498,357.783 74.411 C 358.928 76.324,360.439 78.780,361.141 79.869 L 362.417 81.849 362.285 75.358 L 362.152 68.866 363.537 68.933 L 364.923 69.000 364.898 77.089 C 364.870 86.204,364.965 85.556,363.664 85.556 C 361.910 85.556,361.776 85.409,358.398 79.797 C 356.663 76.914,354.972 74.123,354.639 73.595 L 354.034 72.634 354.163 78.983 L 354.291 85.333 352.923 85.333 L 351.556 85.333 351.556 77.463 C 351.556 68.308,351.456 68.889,353.022 68.889 C 354.188 68.889,354.237 68.915,354.960 69.911 M386.008 75.467 C 385.980 84.600,385.673 85.302,381.620 85.515 C 379.586 85.621,379.592 85.625,379.499 84.119 L 379.444 83.237 381.148 83.230 C 383.386 83.220,383.222 83.803,383.222 75.861 L 383.222 68.871 384.625 68.935 L 386.028 69.000 386.008 75.467 M54.743 69.732 C 54.716 70.178,55.039 70.640,56.112 71.692 C 57.891 73.437,58.305 73.582,59.116 72.746 C 60.543 71.276,60.177 70.774,57.111 69.997 C 56.072 69.733,55.122 69.435,55.000 69.333 C 54.862 69.219,54.764 69.371,54.743 69.732 M85.912 70.131 C 85.721 70.628,86.609 76.578,87.136 78.333 C 87.393 79.189,87.716 80.289,87.855 80.778 C 87.993 81.267,88.208 81.767,88.331 81.889 C 88.920 82.472,91.310 83.966,92.023 84.198 C 95.226 85.236,98.292 96.650,97.215 103.527 C 95.761 112.810,87.388 122.458,78.464 125.131 C 77.963 125.282,77.590 125.442,77.636 125.487 C 77.838 125.690,80.444 125.725,80.444 125.525 C 80.444 125.405,80.539 125.365,80.654 125.437 C 80.884 125.579,85.704 122.589,88.000 120.881 C 95.279 115.466,99.225 106.126,98.114 96.944 C 97.315 90.341,95.684 85.793,93.867 85.103 C 93.144 84.828,93.194 84.314,93.971 84.043 C 94.857 83.734,95.556 82.920,95.556 82.195 C 95.556 81.463,95.216 81.323,93.539 81.361 C 91.462 81.409,91.076 81.236,90.363 79.938 C 89.101 77.641,88.441 76.200,88.227 75.275 C 87.972 74.169,87.000 71.370,86.803 71.173 C 86.728 71.098,86.667 70.814,86.667 70.542 C 86.667 69.966,86.095 69.654,85.912 70.131 M243.078 71.038 C 242.420 71.212,242.204 72.242,242.270 74.898 L 242.333 77.444 243.222 77.520 C 246.260 77.777,248.790 75.888,248.224 73.785 C 247.658 71.684,245.328 70.440,243.078 71.038 M300.191 71.313 C 299.387 71.963,299.246 76.486,300.017 76.898 C 301.401 77.639,304.191 76.871,304.804 75.581 C 306.127 72.791,302.506 69.441,300.191 71.313 M183.804 72.264 C 183.697 72.547,183.101 74.253,182.478 76.056 L 181.346 79.333 184.011 79.333 L 186.675 79.333 186.530 78.722 C 186.324 77.852,184.964 73.336,184.696 72.633 C 184.382 71.806,184.033 71.662,183.804 72.264 M75.359 73.931 C 74.409 74.925,72.395 77.172,70.884 78.925 C 65.429 85.253,61.739 88.914,62.306 87.435 C 62.382 87.237,62.444 86.922,62.444 86.735 C 62.444 86.548,63.494 85.317,64.778 84.000 C 66.974 81.746,67.111 81.551,67.111 80.691 C 67.111 79.029,66.319 79.466,62.333 83.326 C 59.937 85.647,58.672 86.626,55.611 88.529 C 53.305 89.963,55.792 90.714,59.125 89.590 C 60.156 89.242,61.967 88.729,63.149 88.449 C 65.786 87.824,66.832 87.074,69.734 83.729 C 74.150 78.638,76.293 75.619,77.034 73.444 C 77.570 71.871,77.237 71.968,75.359 73.931 M77.249 78.905 C 77.075 79.324,76.717 80.417,76.453 81.333 C 76.189 82.250,75.879 83.174,75.764 83.386 C 75.183 84.460,75.655 84.462,76.761 83.389 C 78.390 81.807,78.688 81.122,78.331 79.770 C 77.910 78.174,77.642 77.959,77.249 78.905 M73.136 81.697 C 72.111 82.837,70.611 84.559,69.803 85.522 C 68.995 86.486,67.518 88.176,66.522 89.278 C 64.910 91.060,64.032 92.222,64.298 92.222 C 65.363 92.222,70.531 88.901,72.952 86.661 C 75.001 84.765,75.275 84.273,75.117 82.778 C 75.053 82.167,75.060 81.238,75.133 80.714 C 75.324 79.341,75.199 79.403,73.136 81.697 M86.456 82.357 C 86.157 82.796,85.557 83.417,85.123 83.736 C 83.231 85.127,82.360 86.646,82.082 89.043 L 81.974 89.975 83.297 89.334 C 84.427 88.786,84.884 88.358,86.426 86.402 L 88.233 84.111 88.089 83.000 C 87.874 81.331,87.307 81.108,86.456 82.357 M79.333 82.394 C 79.333 82.489,78.483 83.614,77.443 84.894 C 75.661 87.089,75.386 87.609,74.993 89.533 L 74.839 90.288 75.586 89.757 C 75.997 89.465,77.270 88.285,78.414 87.133 L 80.495 85.041 80.362 84.067 C 80.186 82.785,79.333 81.398,79.333 82.394 M108.730 85.151 C 109.752 87.224,109.274 94.821,108.029 96.288 C 105.946 98.743,104.853 88.881,106.677 84.083 L 106.893 83.517 107.613 83.931 C 108.009 84.159,108.512 84.708,108.730 85.151 M33.591 86.500 C 34.035 88.904,33.991 94.592,33.521 95.444 C 32.995 96.399,32.107 97.164,31.631 97.073 C 30.368 96.831,30.062 87.148,31.244 84.849 C 32.022 83.338,33.154 84.134,33.591 86.500 M47.201 84.921 C 46.781 85.395,46.781 85.396,47.265 85.142 C 47.806 84.859,48.138 84.444,47.825 84.444 C 47.715 84.444,47.434 84.659,47.201 84.921 M44.062 85.831 C 43.765 86.944,43.799 87.009,44.481 86.656 C 45.810 85.968,46.028 85.519,45.212 85.147 C 44.386 84.770,44.338 84.799,44.062 85.831 M89.412 85.205 C 86.462 86.510,86.396 87.301,88.787 92.667 C 91.242 98.177,90.909 97.861,95.722 99.222 C 96.374 99.406,96.384 98.749,95.782 95.428 C 94.456 88.110,91.947 84.084,89.412 85.205 M72.412 88.725 C 67.441 92.284,61.333 94.942,61.333 93.547 C 61.333 93.139,62.407 91.617,63.041 91.127 C 63.691 90.624,64.889 89.157,64.889 88.864 C 64.889 88.772,64.014 89.052,62.944 89.485 C 61.875 89.919,60.206 90.514,59.236 90.808 C 57.182 91.431,57.275 91.372,57.496 91.912 C 58.243 93.739,60.521 96.667,61.195 96.667 C 62.571 96.667,67.383 95.985,68.075 95.692 C 69.099 95.259,73.365 90.517,73.896 89.222 C 74.727 87.194,74.607 87.154,72.412 88.725 M43.516 89.094 C 41.404 90.756,40.365 96.335,41.101 102.060 C 42.322 111.552,50.374 122.074,58.575 124.895 C 59.892 125.349,62.635 125.522,62.000 125.111 C 61.817 124.993,61.458 124.894,61.203 124.892 C 60.422 124.887,56.262 122.725,54.242 121.276 C 44.155 114.037,39.139 100.325,43.330 91.444 C 44.664 88.618,44.700 88.163,43.516 89.094 M76.978 90.035 C 74.183 92.264,70.444 96.054,70.444 96.657 C 70.444 97.535,74.464 105.796,74.986 105.992 C 75.814 106.302,80.963 106.955,82.764 106.978 L 84.527 107.000 85.365 105.899 C 86.328 104.632,89.333 99.295,89.333 98.852 C 89.333 98.475,85.918 90.642,85.427 89.893 C 84.904 89.095,84.828 89.141,83.425 91.100 C 81.433 93.882,79.408 94.212,80.697 91.545 C 81.780 89.304,81.698 89.032,79.867 88.786 L 78.733 88.634 76.978 90.035 M27.093 90.792 C 28.089 91.926,30.566 96.987,31.245 99.275 C 31.562 100.346,31.869 101.380,31.927 101.573 C 32.007 101.841,31.858 101.928,31.294 101.941 C 30.888 101.951,30.281 101.981,29.945 102.007 C 29.037 102.079,28.818 101.788,27.546 98.824 C 25.696 94.515,25.106 91.700,25.786 90.430 C 26.106 89.832,26.297 89.885,27.093 90.792 M114.236 90.350 C 115.507 91.881,110.055 103.476,108.705 102.111 C 108.299 101.700,108.619 98.519,109.219 97.000 C 111.380 91.539,113.210 89.113,114.236 90.350 M47.778 90.981 C 44.629 91.931,43.789 93.430,43.783 98.111 C 43.780 100.240,43.669 100.045,47.209 104.111 C 50.231 107.580,49.460 107.278,53.435 106.554 C 56.081 106.072,55.944 106.234,57.952 101.213 C 59.367 97.675,59.383 98.174,57.763 95.455 C 55.564 91.763,55.107 91.334,53.111 91.086 C 49.996 90.698,48.795 90.675,47.778 90.981 M103.808 95.117 C 105.414 96.804,107.889 102.202,107.889 104.016 C 107.889 106.030,107.295 106.796,106.216 106.177 C 105.430 105.727,105.441 105.667,106.014 107.323 L 106.472 108.647 105.991 111.601 C 105.428 115.064,105.007 116.162,103.930 116.984 C 102.504 118.072,101.769 117.127,102.206 114.766 C 102.337 114.056,102.444 112.755,102.444 111.876 C 102.444 109.234,103.908 104.889,104.798 104.889 C 105.222 104.889,105.092 104.410,104.167 102.566 C 103.256 100.749,101.778 96.117,101.778 95.076 C 101.778 93.857,102.626 93.874,103.808 95.117 M37.648 94.802 C 38.378 95.082,37.320 99.422,35.765 102.527 C 34.755 104.543,34.732 104.711,35.341 105.566 C 36.375 107.019,36.896 108.601,37.197 111.199 L 37.495 113.782 39.423 115.586 C 43.491 119.392,46.792 126.472,45.035 127.623 C 44.265 128.128,44.056 128.002,42.811 126.273 C 40.586 123.187,38.328 118.990,37.762 116.889 L 37.373 115.444 37.353 116.476 C 37.323 118.017,36.499 118.015,34.581 116.473 C 34.105 116.090,33.605 115.767,33.469 115.755 C 33.333 115.742,32.860 115.708,32.416 115.680 C 29.232 115.478,22.751 109.297,23.441 107.121 C 23.733 106.203,27.686 108.716,31.380 112.167 C 34.026 114.638,34.122 114.664,33.879 112.833 C 33.777 112.069,33.683 110.458,33.669 109.253 L 33.644 107.061 32.886 106.442 C 32.178 105.864,32.122 105.722,32.041 104.279 C 31.947 102.613,31.813 102.995,34.359 97.633 C 35.397 95.446,36.610 94.403,37.648 94.802 M65.111 97.897 C 64.072 98.059,62.746 98.255,62.163 98.332 C 60.969 98.491,60.719 98.844,59.327 102.350 C 58.953 103.291,58.402 104.500,58.101 105.038 C 57.373 106.342,57.322 106.236,59.278 107.439 C 60.225 108.021,61.718 109.036,62.595 109.693 C 64.602 111.198,64.614 111.197,67.494 109.365 C 68.811 108.526,70.464 107.517,71.167 107.121 C 72.826 106.187,72.804 106.263,71.926 104.509 C 71.510 103.679,70.736 102.000,70.207 100.778 C 68.628 97.134,68.924 97.302,65.111 97.897 M135.975 97.917 C 136.440 98.010,136.707 98.214,136.777 98.528 C 137.361 101.164,139.659 110.206,139.825 110.524 C 140.190 111.222,140.430 110.665,141.219 107.282 C 142.870 100.212,143.602 98.327,144.781 98.110 C 145.997 97.886,146.859 99.817,148.674 106.832 C 149.172 108.758,149.632 110.483,149.695 110.667 C 149.933 111.360,150.377 110.225,150.975 107.393 C 151.304 105.833,151.938 103.025,152.382 101.154 L 153.190 97.752 154.095 97.892 C 155.605 98.126,155.823 98.229,155.667 98.631 C 155.588 98.834,155.174 100.450,154.746 102.222 C 151.788 114.485,151.803 114.444,150.222 114.444 C 148.725 114.444,148.350 113.654,146.224 106.026 C 144.966 101.513,144.998 101.515,143.789 105.833 C 141.528 113.911,141.294 114.444,140.019 114.444 C 138.280 114.444,138.462 114.878,135.667 104.092 C 133.856 97.103,133.837 97.490,135.975 97.917 M171.642 97.989 C 172.815 98.261,173.099 98.606,173.259 99.958 C 173.417 101.296,173.420 101.295,171.847 100.525 C 168.482 98.879,164.297 101.612,166.968 103.713 C 167.274 103.953,168.356 104.572,169.373 105.088 C 173.884 107.377,174.915 109.188,173.417 112.194 C 172.558 113.918,171.558 114.501,169.261 114.620 C 165.414 114.818,163.854 114.113,164.062 112.269 C 164.204 111.008,164.257 110.981,165.263 111.646 C 167.078 112.847,169.678 112.894,170.852 111.746 C 172.403 110.230,171.877 109.242,168.610 107.529 C 165.026 105.649,164.000 104.493,164.000 102.333 C 164.000 98.997,167.474 97.022,171.642 97.989 M187.350 98.150 C 187.898 98.698,186.323 101.808,183.545 105.667 C 183.105 106.278,181.868 108.065,180.796 109.639 L 178.847 112.501 183.257 112.417 L 187.667 112.333 187.667 113.333 L 187.667 114.333 181.889 114.333 L 176.111 114.333 176.041 113.839 C 175.918 112.973,177.916 109.658,182.241 103.556 C 182.977 102.517,183.776 101.292,184.017 100.833 L 184.453 100.000 180.338 100.000 L 176.222 100.000 176.222 99.037 C 176.222 98.507,176.297 97.997,176.389 97.903 C 176.662 97.624,187.058 97.858,187.350 98.150 M202.379 98.742 C 204.197 100.459,203.510 101.308,201.000 100.444 C 196.502 98.897,192.667 101.507,192.667 106.116 C 192.667 111.068,196.383 113.733,200.896 112.017 C 202.691 111.335,203.111 111.387,203.111 112.292 C 203.111 114.446,198.925 115.542,195.254 114.348 C 188.795 112.247,188.130 101.778,194.257 98.648 C 195.736 97.893,196.142 97.817,198.846 97.797 L 201.359 97.778 202.379 98.742 M216.173 97.969 C 216.970 98.462,216.249 99.868,212.000 106.100 C 210.079 108.917,208.345 111.476,208.148 111.786 L 207.788 112.350 212.018 112.259 L 216.247 112.168 216.179 113.362 C 216.118 114.437,216.061 114.554,215.611 114.540 C 215.336 114.531,212.808 114.506,209.993 114.484 C 205.846 114.452,204.852 114.386,204.756 114.134 C 204.460 113.364,205.350 111.693,208.726 106.676 C 210.710 103.727,212.526 101.005,212.760 100.627 L 213.187 99.939 209.829 100.101 C 205.295 100.320,205.111 100.272,205.111 98.863 L 205.111 97.762 210.519 97.790 C 213.493 97.805,216.037 97.886,216.173 97.969 M228.623 98.944 L 228.556 100.111 225.222 100.111 L 221.889 100.111 221.889 102.556 L 221.889 105.000 224.944 105.062 L 228.000 105.124 228.000 106.228 L 228.000 107.333 224.889 107.333 L 221.778 107.333 221.778 109.459 C 221.778 112.629,221.628 112.511,225.430 112.323 L 228.602 112.166 228.725 113.249 C 228.878 114.610,228.720 114.724,226.889 114.569 C 226.094 114.502,224.069 114.447,222.389 114.446 L 219.333 114.444 219.333 106.232 L 219.333 98.020 220.833 97.943 C 221.658 97.900,223.764 97.845,225.512 97.821 L 228.690 97.778 228.623 98.944 M242.305 98.019 C 243.508 98.353,244.222 99.186,244.222 100.255 C 244.222 100.726,244.174 101.111,244.116 101.111 C 244.057 101.111,243.265 100.861,242.354 100.556 C 237.205 98.827,233.547 101.268,233.560 106.424 C 233.573 111.390,238.377 114.101,242.849 111.667 C 244.229 110.916,244.398 111.020,244.031 112.393 C 243.501 114.376,242.634 114.761,238.976 114.635 C 233.311 114.440,230.169 110.419,231.109 104.565 C 231.928 99.461,236.941 96.530,242.305 98.019 M264.574 98.000 L 265.556 98.000 265.553 105.722 C 265.549 114.949,265.630 114.447,264.141 114.437 C 262.378 114.426,260.995 112.606,256.674 104.611 C 255.898 103.175,255.176 102.000,255.069 102.000 C 254.963 102.000,254.885 104.775,254.897 108.167 C 254.921 115.102,255.056 114.620,253.169 114.337 L 252.169 114.187 252.263 106.149 L 252.357 98.111 253.642 98.044 C 255.411 97.951,255.629 98.204,259.334 104.667 C 260.350 106.439,261.590 108.501,262.090 109.248 L 263.000 110.608 262.922 104.160 C 262.849 98.187,262.871 97.723,263.218 97.856 C 263.423 97.935,264.034 98.000,264.574 98.000 M284.222 98.870 L 284.222 100.000 282.944 100.027 C 282.242 100.042,280.767 100.090,279.667 100.134 C 278.567 100.177,277.549 100.215,277.405 100.218 C 277.219 100.221,277.155 100.909,277.183 102.611 L 277.222 105.000 280.413 105.062 C 283.589 105.123,283.603 105.126,283.472 105.617 C 283.399 105.889,283.338 106.386,283.336 106.722 L 283.333 107.333 280.222 107.333 L 277.111 107.333 277.111 109.778 L 277.111 112.222 280.678 112.222 L 284.245 112.222 284.178 113.389 L 284.111 114.556 279.444 114.476 C 276.264 114.423,274.726 114.316,274.615 114.143 C 274.413 113.830,274.392 103.370,274.586 100.196 L 274.728 97.878 279.475 97.809 L 284.222 97.740 284.222 98.870 M248.889 106.234 L 248.889 114.468 247.722 114.401 L 246.556 114.333 246.497 106.167 L 246.439 98.000 247.664 98.000 L 248.889 98.000 248.889 106.234 M271.556 106.233 L 271.556 114.467 270.278 114.400 L 269.000 114.333 268.942 106.167 L 268.883 98.000 270.219 98.000 L 271.556 98.000 271.556 106.233 M114.370 99.016 C 115.174 101.109,110.048 110.444,108.096 110.444 C 107.150 110.444,107.946 106.157,109.271 104.111 C 112.802 98.660,113.837 97.626,114.370 99.016 M27.014 99.820 C 27.458 100.209,28.324 101.284,28.940 102.209 C 29.555 103.133,30.379 104.239,30.771 104.667 C 31.876 105.873,32.587 110.667,31.662 110.667 C 30.344 110.667,26.584 105.327,25.715 102.222 C 24.803 98.963,25.200 98.227,27.014 99.820 M90.958 100.046 C 90.835 100.204,90.307 101.133,89.786 102.111 C 89.265 103.089,88.199 104.867,87.419 106.063 C 85.761 108.604,85.779 108.471,86.763 110.978 C 87.897 113.866,88.476 114.437,90.276 114.443 C 91.715 114.448,96.218 104.561,95.958 101.967 C 95.861 101.002,91.514 99.332,90.958 100.046 M43.892 104.276 C 44.388 105.984,48.173 113.474,48.230 112.861 C 48.234 112.815,48.379 111.987,48.551 111.020 C 48.814 109.541,48.817 109.172,48.564 108.687 C 48.030 107.660,45.405 104.753,44.565 104.257 L 43.747 103.774 43.892 104.276 M116.774 106.882 C 117.349 107.813,113.498 112.131,110.336 114.102 C 105.899 116.868,104.463 116.034,107.756 112.606 C 111.656 108.546,116.070 105.744,116.774 106.882 M54.333 108.027 C 52.442 108.461,50.653 109.166,50.442 109.560 C 50.151 110.103,50.159 114.693,50.452 115.465 C 51.001 116.908,55.683 120.628,58.542 121.892 L 59.825 122.460 62.079 121.583 C 63.319 121.100,64.754 120.594,65.268 120.458 C 66.545 120.120,66.537 120.213,65.574 116.842 C 64.392 112.705,64.155 112.445,58.467 109.031 C 56.328 107.748,55.948 107.656,54.333 108.027 M72.889 108.210 C 70.676 109.383,66.324 112.224,66.261 112.538 C 66.138 113.143,68.446 119.764,68.853 119.973 C 69.218 120.161,70.889 120.422,74.778 120.900 C 75.878 121.035,76.938 121.190,77.135 121.244 C 77.358 121.306,78.400 120.528,79.914 119.169 C 81.246 117.973,83.035 116.436,83.890 115.754 C 86.230 113.887,86.151 114.147,85.110 111.748 C 83.922 109.008,84.084 109.119,80.736 108.769 C 79.156 108.603,77.119 108.313,76.209 108.123 C 74.143 107.692,73.851 107.700,72.889 108.210 M101.723 116.323 C 101.537 119.309,97.045 127.111,95.512 127.111 C 93.123 127.111,94.674 122.053,98.614 117.001 C 100.164 115.013,100.689 114.573,101.642 114.467 C 101.753 114.454,101.788 115.278,101.723 116.323 M86.382 115.949 C 86.043 116.268,84.443 117.641,82.827 118.999 C 79.359 121.913,78.128 123.684,79.875 123.246 C 81.435 122.854,88.889 117.308,88.889 116.539 C 88.889 115.509,87.258 115.124,86.382 115.949 M111.300 115.577 C 111.685 115.711,112.000 115.944,112.000 116.093 C 112.000 116.515,108.594 119.686,105.944 121.733 C 103.057 123.962,103.036 124.046,105.500 123.528 C 110.252 122.528,112.408 123.299,110.184 125.203 C 108.416 126.717,105.293 127.464,99.727 127.705 C 95.915 127.870,95.960 127.910,97.775 125.985 C 98.507 125.209,99.378 124.020,99.711 123.342 C 101.202 120.311,106.451 116.446,110.578 115.339 C 110.590 115.336,110.915 115.443,111.300 115.577 M31.609 116.568 C 35.425 118.481,38.528 121.045,39.933 123.444 C 40.362 124.178,41.216 125.459,41.832 126.291 C 42.602 127.333,42.879 127.876,42.721 128.034 C 42.288 128.468,34.363 127.685,32.464 127.022 C 26.158 124.819,27.666 122.844,34.833 123.917 C 36.274 124.133,36.028 123.739,33.611 121.958 C 27.378 117.366,26.046 113.780,31.609 116.568 M67.000 121.786 C 66.150 121.968,63.111 123.501,63.111 123.748 C 63.111 124.303,75.214 125.026,75.910 124.513 C 76.830 123.835,76.457 123.170,75.068 123.013 C 74.314 122.927,72.340 122.584,70.682 122.251 C 68.879 121.888,67.399 121.701,67.000 121.786 M47.315 122.993 C 50.828 124.370,55.627 128.010,56.986 130.330 C 57.604 131.384,57.783 133.111,57.274 133.111 C 57.007 133.111,53.579 131.188,51.661 129.962 C 49.220 128.403,45.171 123.468,45.670 122.661 C 45.840 122.386,45.691 122.356,47.315 122.993 M94.444 122.725 C 94.444 124.508,85.651 132.037,82.934 132.580 C 80.362 133.094,83.836 127.935,87.928 125.162 C 90.651 123.317,94.444 121.898,94.444 122.725 M101.485 128.999 C 104.513 129.688,104.972 131.146,102.371 131.816 C 100.290 132.351,92.565 132.222,91.333 131.631 C 88.463 130.254,88.534 129.310,91.556 128.671 C 93.033 128.359,99.628 128.577,101.485 128.999 M49.209 129.382 C 51.990 130.399,50.130 132.041,45.741 132.443 C 39.421 133.023,34.626 131.988,35.994 130.341 C 36.993 129.137,46.630 128.438,49.209 129.382 M90.944 134.159 C 92.702 134.963,92.265 135.586,89.222 136.613 C 86.218 137.627,77.153 137.366,77.244 136.268 C 77.257 136.121,77.284 135.775,77.305 135.500 C 77.435 133.806,78.387 133.575,85.000 133.634 C 89.492 133.674,89.975 133.716,90.944 134.159 M61.416 134.557 C 62.409 135.028,63.130 136.303,62.661 136.759 C 60.860 138.508,47.667 137.254,47.667 135.333 C 47.667 133.947,58.805 133.318,61.416 134.557 M71.679 135.684 C 72.742 135.970,72.726 137.582,71.646 139.141 C 70.581 140.678,68.968 140.334,68.016 138.366 C 67.561 137.427,67.346 135.992,67.757 136.640 C 67.911 136.884,67.980 136.857,68.092 136.506 C 68.341 135.719,70.214 135.291,71.679 135.684 " stroke="none" fill="#000000" fill-rule="evenodd"></path></g></svg>