<svg width="65" height="64" viewBox="0 0 65 64" fill="none" xmlns="http://www.w3.org/2000/svg">
<path d="M38.3333 23C38.0681 23 37.8137 23.1054 37.6262 23.2929C37.4387 23.4804 37.3333 23.7348 37.3333 24V26C37.3333 26.2652 37.4387 26.5196 37.6262 26.7071C37.8137 26.8946 38.0681 27 38.3333 27C38.5985 27 38.8529 26.8946 39.0404 26.7071C39.228 26.5196 39.3333 26.2652 39.3333 26V24C39.3333 23.7348 39.228 23.4804 39.0404 23.2929C38.8529 23.1054 38.5985 23 38.3333 23Z" fill="#C0C0C0"/>
<path d="M32.3333 35C29.6233 35 27.3333 33.63 27.3333 32H25.3333C25.3333 34.8 28.4033 37 32.3333 37C36.2633 37 39.3333 34.8 39.3333 32H37.3333C37.3333 33.63 35.0433 35 32.3333 35Z" fill="#C0C0C0"/>
<path d="M26.3333 27C26.5985 27 26.8529 26.8946 27.0404 26.7071C27.228 26.5196 27.3333 26.2652 27.3333 26V24C27.3333 23.7348 27.228 23.4804 27.0404 23.2929C26.8529 23.1054 26.5985 23 26.3333 23C26.0681 23 25.8137 23.1054 25.6262 23.2929C25.4387 23.4804 25.3333 23.7348 25.3333 24V26C25.3333 26.2652 25.4387 26.5196 25.6262 26.7071C25.8137 26.8946 26.0681 27 26.3333 27Z" fill="#C0C0C0"/>
<path d="M57.3233 19.8799C57.306 19.7304 57.2547 19.5868 57.1732 19.4602C57.0917 19.3337 56.9823 19.2275 56.8533 19.1499L47.6833 13.5099C46.5982 9.81982 44.22 6.64416 40.9844 4.56447C37.7488 2.48479 33.8724 1.64027 30.0649 2.18558C26.2574 2.73089 22.7738 4.62953 20.2521 7.5338C17.7303 10.4381 16.3391 14.1536 16.3333 17.9999C16.3333 18.2651 16.4387 18.5195 16.6262 18.707C16.8137 18.8945 17.0681 18.9999 17.3333 18.9999V21.9999H16.8333C15.6418 22.0062 14.5008 22.4823 13.6583 23.3249C12.8157 24.1674 12.3396 25.3084 12.3333 26.4999C12.3352 27.6928 12.8099 28.8363 13.6534 29.6798C14.4969 30.5233 15.6404 30.998 16.8333 30.9999H17.6333C18.415 34.7949 20.6328 38.1412 23.8233 40.3399C21.0727 40.9836 18.6051 42.5022 16.7912 44.6678C14.9772 46.8334 13.9147 49.529 13.7633 52.3499L13.3333 60.9499C13.3286 61.0856 13.351 61.221 13.399 61.348C13.4471 61.475 13.5199 61.5912 13.6133 61.6899C13.7053 61.7886 13.8169 61.8671 13.9408 61.9204C14.0647 61.9738 14.1984 62.0008 14.3333 61.9999H50.3333C50.4682 62.0008 50.6019 61.9738 50.7258 61.9204C50.8498 61.8671 50.9613 61.7886 51.0533 61.6899C51.1467 61.5912 51.2195 61.475 51.2676 61.348C51.3157 61.221 51.338 61.0856 51.3333 60.9499L50.9033 52.3499C50.7519 49.529 49.6894 46.8334 47.8755 44.6678C46.0615 42.5022 43.5939 40.9836 40.8433 40.3399C44.0339 38.1412 46.2516 34.7949 47.0333 30.9999H47.8333C49.0262 30.998 50.1697 30.5233 51.0132 29.6798C51.8568 28.8363 52.3315 27.6928 52.3333 26.4999C52.3324 26.1735 52.2955 25.8482 52.2233 25.5299L57.0433 20.7099C57.1491 20.6013 57.2292 20.4704 57.2777 20.3267C57.3261 20.1831 57.3417 20.0304 57.3233 19.8799ZM16.8333 28.9999C16.1703 28.9999 15.5344 28.7365 15.0655 28.2676C14.5967 27.7988 14.3333 27.1629 14.3333 26.4999C14.3357 25.8376 14.5998 25.2031 15.0682 24.7347C15.5365 24.2664 16.171 24.0023 16.8333 23.9999H17.3333V27.9999C17.3333 28.3399 17.3633 28.6699 17.3833 28.9999H16.8333ZM26.0133 15.9999L27.1833 12.9999H37.4833L38.6533 15.9999H26.0133ZM26.0233 5.50988C23.6591 8.8765 22.3819 12.8861 22.3633 16.9999H18.3733C18.547 14.5869 19.3431 12.2602 20.6838 10.2465C22.0245 8.23282 23.8641 6.60091 26.0233 5.50988ZM32.3333 44.9999C31.4267 45.0016 30.5371 44.7544 29.7612 44.2854C28.9854 43.8164 28.3531 43.1434 27.9333 42.3399C30.8041 43.2199 33.8726 43.2199 36.7433 42.3399C36.3204 43.143 35.686 43.8153 34.9088 44.2841C34.1315 44.7529 33.241 45.0004 32.3333 44.9999ZM20.4433 59.9999H15.3833L15.7333 52.9999H21.2133L20.4433 59.9999ZM49.2833 59.9999H44.2233L43.4533 52.9999H48.9333L49.2833 59.9999ZM45.3333 27.9999C45.3333 31.4477 43.9637 34.7543 41.5257 37.1923C39.0877 39.6302 35.7811 40.9999 32.3333 40.9999C28.8855 40.9999 25.5789 39.6302 23.1409 37.1923C20.703 34.7543 19.3333 31.4477 19.3333 27.9999V23.5399L21.8833 21.8299C21.9956 21.7576 22.091 21.6621 22.1633 21.5499L23.8733 18.9999H40.7933L42.5033 21.5499C42.5756 21.6621 42.6711 21.7576 42.7833 21.8299L45.3333 23.5399V27.9999ZM42.3033 16.9999C42.2848 12.8861 41.0076 8.8765 38.6433 5.50988C40.8025 6.60091 42.6421 8.23282 43.9828 10.2465C45.3236 12.2602 46.1196 14.5869 46.2933 16.9999H42.3033ZM47.8333 28.9999H47.2833C47.3033 28.6699 47.3333 28.3399 47.3333 27.9999V23.9999H47.8333C48.4956 24.0023 49.1301 24.2664 49.5985 24.7347C50.0668 25.2031 50.3309 25.8376 50.3333 26.4999C50.3333 27.1629 50.0699 27.7988 49.6011 28.2676C49.1322 28.7365 48.4964 28.9999 47.8333 28.9999Z" fill="#C0C0C0"/>
</svg>
