<svg width="65" height="64" viewBox="0 0 65 64" fill="none" xmlns="http://www.w3.org/2000/svg">
<path d="M38.6667 25C38.4015 25 38.1471 25.1054 37.9596 25.2929C37.772 25.4804 37.6667 25.7348 37.6667 26V28C37.6667 28.2652 37.772 28.5196 37.9596 28.7071C38.1471 28.8946 38.4015 29 38.6667 29C38.9319 29 39.1863 28.8946 39.3738 28.7071C39.5613 28.5196 39.6667 28.2652 39.6667 28V26C39.6667 25.7348 39.5613 25.4804 39.3738 25.2929C39.1863 25.1054 38.9319 25 38.6667 25Z" fill="#C0C0C0"/>
<path d="M32.6667 37C29.9567 37 27.6667 35.63 27.6667 34H25.6667C25.6667 36.8 28.7467 39 32.6667 39C36.5867 39 39.6667 36.8 39.6667 34H37.6667C37.6667 35.63 35.3767 37 32.6667 37Z" fill="#C0C0C0"/>
<path d="M26.6667 29C26.9319 29 27.1863 28.8946 27.3738 28.7071C27.5613 28.5196 27.6667 28.2652 27.6667 28V26C27.6667 25.7348 27.5613 25.4804 27.3738 25.2929C27.1863 25.1054 26.9319 25 26.6667 25C26.4015 25 26.1471 25.1054 25.9596 25.2929C25.772 25.4804 25.6667 25.7348 25.6667 26V28C25.6667 28.2652 25.772 28.5196 25.9596 28.7071C26.1471 28.8946 26.4015 29 26.6667 29Z" fill="#C0C0C0"/>
<path d="M45.3067 38.07L47.2367 43.84C47.2923 44.0029 47.3885 44.149 47.5163 44.2645C47.644 44.38 47.799 44.461 47.9667 44.5C48.0395 44.5116 48.113 44.5183 48.1867 44.52C48.3215 44.52 48.4548 44.4924 48.5786 44.4391C48.7024 44.3858 48.814 44.3079 48.9067 44.21L54.6467 38.19C54.74 38.0934 54.8129 37.9789 54.861 37.8535C54.9091 37.7281 54.9314 37.5942 54.9267 37.46C54.9144 37.1891 54.7959 36.934 54.5967 36.75L49.1567 31.88C50.1515 31.6557 51.0406 31.1001 51.6783 30.3043C52.316 29.5085 52.6645 28.5198 52.6667 27.5C52.6637 26.4827 52.3106 25.4975 51.6667 24.71V19C51.6603 14.4933 49.8672 10.1729 46.6805 6.9862C43.4938 3.79945 39.1734 2.00635 34.6667 2H30.6667C26.16 2.00635 21.8396 3.79945 18.6529 6.9862C15.4661 10.1729 13.673 14.4933 13.6667 19V24.73C13.0247 25.5108 12.6715 26.4891 12.6667 27.5C12.6689 28.5198 13.0174 29.5085 13.6551 30.3043C14.2928 31.1001 15.1819 31.6557 16.1767 31.88L10.7367 36.75C10.5375 36.934 10.4189 37.1891 10.4067 37.46C10.4019 37.5942 10.4243 37.7281 10.4724 37.8535C10.5205 37.9789 10.5934 38.0934 10.6867 38.19L16.4267 44.21C16.5194 44.3079 16.631 44.3858 16.7548 44.4391C16.8786 44.4924 17.0119 44.52 17.1467 44.52C17.2204 44.5183 17.2939 44.5116 17.3667 44.5C17.5344 44.461 17.6894 44.38 17.8171 44.2645C17.9448 44.149 18.0411 44.0029 18.0967 43.84L20.0367 38.05C21.1135 39.7378 22.5138 41.1958 24.1567 42.34C21.4089 42.9821 18.9433 44.4976 17.1296 46.6593C15.3158 48.821 14.2517 51.5124 14.0967 54.33L13.6667 60.94C13.6597 61.076 13.6803 61.212 13.7273 61.3399C13.7743 61.4677 13.8467 61.5847 13.9401 61.6837C14.0336 61.7828 14.1462 61.8619 14.271 61.9163C14.3959 61.9706 14.5305 61.9991 14.6667 62H50.6667C50.8029 61.9991 50.9375 61.9706 51.0624 61.9163C51.1872 61.8619 51.2998 61.7828 51.3932 61.6837C51.4867 61.5847 51.5591 61.4677 51.6061 61.3399C51.6531 61.212 51.6737 61.076 51.6667 60.94L51.2367 54.35C51.085 51.5288 50.021 48.8332 48.2049 46.669C46.3887 44.5048 43.9187 42.9891 41.1667 42.35C42.8175 41.2127 44.2249 39.7577 45.3067 38.07ZM50.6667 27.5C50.6667 28.163 50.4033 28.7989 49.9345 29.2678C49.4656 29.7366 48.8297 30 48.1667 30H47.6667V25H48.1667C48.829 25.0024 49.4635 25.2665 49.9318 25.7349C50.4002 26.2032 50.6643 26.8377 50.6667 27.5ZM14.6667 27.5C14.6691 26.8377 14.9332 26.2032 15.4015 25.7349C15.8699 25.2665 16.5044 25.0024 17.1667 25H17.6667V30H17.1667C16.5037 30 15.8678 29.7366 15.3989 29.2678C14.9301 28.7989 14.6667 28.163 14.6667 27.5ZM32.6667 47C31.7561 47.0025 30.8623 46.7548 30.0828 46.284C29.3033 45.8131 28.6682 45.1372 28.2467 44.33C29.6771 44.7782 31.1678 45.0042 32.6667 45C34.1687 45.0019 35.6624 44.776 37.0967 44.33C36.6719 45.1366 36.0346 45.8117 35.2538 46.2823C34.473 46.7529 33.5784 47.0011 32.6667 47ZM20.7967 60H15.7367L16.0567 55H21.5167L20.7967 60ZM49.5967 60H44.5367L43.8167 55H49.2767L49.5967 60ZM49.0567 53H42.6667C42.5234 53.0011 42.3819 53.0319 42.2511 53.0904C42.1203 53.1489 42.003 53.2339 41.9067 53.34C41.8135 53.4492 41.7447 53.5771 41.7051 53.7151C41.6654 53.8531 41.6557 53.998 41.6767 54.14L42.5167 60H22.8167L23.6567 54.14C23.6777 53.998 23.668 53.8531 23.6283 53.7151C23.5886 53.5771 23.5199 53.4492 23.4267 53.34C23.3304 53.2339 23.2131 53.1489 23.0823 53.0904C22.9515 53.0319 22.81 53.0011 22.6667 53H16.2767C16.5909 51.3353 17.2837 49.7652 18.3016 48.4109C19.3194 47.0567 20.635 45.9547 22.1467 45.19C22.6534 46.8596 23.5496 48.3848 24.7614 49.6401C25.9733 50.8954 27.466 51.8448 29.1167 52.41C29.2204 52.442 29.3282 52.4588 29.4367 52.46C29.6214 52.4594 29.8023 52.4078 29.9594 52.3107C30.1165 52.2136 30.2436 52.0749 30.3267 51.91L31.8167 48.94C32.3805 49.02 32.9528 49.02 33.5167 48.94L35.0067 51.91C35.0898 52.0749 35.2169 52.2136 35.374 52.3107C35.5311 52.4078 35.712 52.4594 35.8967 52.46C36.0052 52.4588 36.113 52.442 36.2167 52.41C37.8674 51.8448 39.3601 50.8954 40.572 49.6401C41.7838 48.3848 42.68 46.8596 43.1867 45.19C44.6972 45.9563 46.0118 47.0588 47.0294 48.4127C48.0471 49.7667 48.7406 51.336 49.0567 53ZM39.8067 40.86C37.8467 42.1482 35.5747 42.8821 33.2314 42.984C30.8882 43.0859 28.5611 42.552 26.4966 41.4388C24.4322 40.3256 22.7074 38.6746 21.505 36.6608C20.3026 34.647 19.6674 32.3454 19.6667 30V25H21.6667C24.9429 25.0031 28.1741 24.2375 31.1006 22.7647C34.0271 21.2919 36.5672 19.153 38.5167 16.52C41.4849 17.3839 44.0018 19.3666 45.5367 22.05L45.6667 22.27V30C45.6667 30.32 45.6567 30.64 45.6267 30.96C45.5469 32.0458 45.3319 33.1174 44.9867 34.15C44.8667 34.49 44.7467 34.82 44.5967 35.15C43.5966 37.4832 41.9304 39.4694 39.8067 40.86Z" fill="#C0C0C0"/>
</svg>
