<svg width="65" height="64" viewBox="0 0 65 64" fill="none" xmlns="http://www.w3.org/2000/svg">
<path d="M38.6667 27C38.932 27 39.1863 26.8946 39.3739 26.7071C39.5614 26.5196 39.6667 26.2652 39.6667 26V24C39.6667 23.7348 39.5614 23.4804 39.3739 23.2929C39.1863 23.1054 38.932 23 38.6667 23C38.4015 23 38.1472 23.1054 37.9596 23.2929C37.7721 23.4804 37.6667 23.7348 37.6667 24V26C37.6667 26.2652 37.7721 26.5196 37.9596 26.7071C38.1472 26.8946 38.4015 27 38.6667 27Z" fill="#C0C0C0"/>
<path d="M39.6667 32H37.6667C37.6667 33.63 35.3767 35 32.6667 35C29.9567 35 27.6667 33.63 27.6667 32H25.6667C25.6667 34.8 28.7367 37 32.6667 37C36.5967 37 39.6667 34.8 39.6667 32Z" fill="#C0C0C0"/>
<path d="M26.6667 27C26.932 27 27.1863 26.8946 27.3739 26.7071C27.5614 26.5196 27.6667 26.2652 27.6667 26V24C27.6667 23.7348 27.5614 23.4804 27.3739 23.2929C27.1863 23.1054 26.932 23 26.6667 23C26.4015 23 26.1472 23.1054 25.9596 23.2929C25.7721 23.4804 25.6667 23.7348 25.6667 24V26C25.6667 26.2652 25.7721 26.5196 25.9596 26.7071C26.1472 26.8946 26.4015 27 26.6667 27Z" fill="#C0C0C0"/>
<path d="M41.1767 40.34C44.3652 38.1393 46.5823 34.7939 47.3667 31H48.1667C49.3596 30.9981 50.5031 30.5234 51.3466 29.6799C52.1901 28.8364 52.6648 27.6929 52.6667 26.5C52.6704 25.9101 52.5555 25.3254 52.3287 24.7809C52.1019 24.2363 51.768 23.7429 51.3467 23.33C50.6314 22.6017 49.6826 22.1486 48.6667 22.05V14.31C48.6688 13.128 48.4366 11.9573 47.9835 10.8656C47.5303 9.77397 46.8652 8.78297 46.0267 7.94995C45.9666 7.88888 45.8995 7.83517 45.8267 7.78996L36.1767 2.13996C36.0249 2.04994 35.8519 2.00171 35.6754 2.00017C35.4989 1.99863 35.3252 2.04383 35.1718 2.13118C35.0184 2.21853 34.8909 2.34492 34.8022 2.49751C34.7135 2.6501 34.6667 2.82345 34.6667 2.99996V4.75996L21.8767 2.01996C21.7098 1.98558 21.5369 1.99415 21.3743 2.04488C21.2116 2.0956 21.0645 2.18681 20.9467 2.30996C20.8295 2.43098 20.745 2.57987 20.7013 2.74258C20.6575 2.9053 20.656 3.07647 20.6967 3.23996L21.3867 5.99996H18.6667C18.5078 5.99928 18.3511 6.03714 18.21 6.11028C18.0689 6.18343 17.9477 6.28969 17.8567 6.41996C17.7638 6.54817 17.7026 6.69662 17.6783 6.85309C17.6539 7.00956 17.6671 7.16957 17.7167 7.31996L18.4567 9.51996C17.9045 9.88191 17.4515 10.3761 17.1389 10.9577C16.8263 11.5392 16.664 12.1897 16.6667 12.85V22.05C15.6553 22.1472 14.7103 22.5967 13.9967 23.32C13.5727 23.7334 13.2363 24.2281 13.0078 24.7745C12.7793 25.3209 12.6633 25.9077 12.6667 26.5C12.6686 27.6929 13.1433 28.8364 13.9868 29.6799C14.8303 30.5234 15.9738 30.9981 17.1667 31H17.9667C18.7511 34.7939 20.9682 38.1393 24.1567 40.34C21.4077 40.9868 18.942 42.5063 17.1286 44.6712C15.3151 46.8362 14.2515 49.5301 14.0967 52.35L13.6667 60.95C13.662 61.0857 13.6844 61.221 13.7324 61.3481C13.7805 61.4751 13.8533 61.5913 13.9467 61.69C14.0387 61.7886 14.1502 61.8671 14.2742 61.9205C14.3981 61.9739 14.5318 62.0009 14.6667 62H50.6667C50.8016 62.0009 50.9353 61.9739 51.0592 61.9205C51.1832 61.8671 51.2947 61.7886 51.3867 61.69C51.4801 61.5913 51.5529 61.4751 51.601 61.3481C51.649 61.221 51.6714 61.0857 51.6667 60.95L51.2367 52.35C51.0819 49.5301 50.0183 46.8362 48.2048 44.6712C46.3914 42.5063 43.9257 40.9868 41.1767 40.34ZM47.6667 28V24H48.1667C48.829 24.0023 49.4635 24.2665 49.9318 24.7348C50.4002 25.2031 50.6643 25.8376 50.6667 26.5C50.6667 27.163 50.4033 27.7989 49.9345 28.2677C49.4656 28.7366 48.8297 29 48.1667 29H47.6167C47.6367 28.67 47.6667 28.34 47.6667 28ZM17.1667 29C16.5037 29 15.8678 28.7366 15.3989 28.2677C14.9301 27.7989 14.6667 27.163 14.6667 26.5C14.6691 25.8376 14.9332 25.2031 15.4016 24.7348C15.8699 24.2665 16.5044 24.0023 17.1667 24H17.6667V28C17.6667 28.34 17.6967 28.67 17.7167 29H17.1667ZM32.6667 48.46C31.0559 46.5887 29.6449 44.5543 28.4567 42.39C29.824 42.7918 31.2415 42.9972 32.6667 43C34.096 42.9995 35.5177 42.7907 36.8867 42.38C35.6973 44.5491 34.2828 46.587 32.6667 48.46ZM19.6667 28V24C19.8616 23.9992 20.0521 23.9422 20.2153 23.8358C20.3785 23.7293 20.5075 23.578 20.5867 23.4L22.7867 18.29C23.2384 17.5842 23.8613 17.0042 24.5974 16.6039C25.3334 16.2035 26.1588 15.9957 26.9967 16H37.9567C38.8853 15.9963 39.7963 16.2529 40.5864 16.7408C41.3765 17.2286 42.014 17.9281 42.4267 18.76L44.7767 23.45C44.8576 23.6166 44.9843 23.7567 45.1419 23.8541C45.2994 23.9515 45.4815 24.0021 45.6667 24V28C45.6667 31.4478 44.2971 34.7544 41.8591 37.1923C39.4211 39.6303 36.1145 41 32.6667 41C29.2189 41 25.9123 39.6303 23.4743 37.1923C21.0363 34.7544 19.6667 31.4478 19.6667 28Z" fill="#C0C0C0"/>
</svg>
