<svg width="64" height="64" viewBox="0 0 64 64" fill="none" xmlns="http://www.w3.org/2000/svg">
<path d="M51 39.8899V31.2899C51.6465 30.5038 52 29.5177 52 28.4999C52 27.4821 51.6465 26.4959 51 25.7099V20.9999C50.9972 19.3551 50.7786 17.7178 50.35 16.1299C51.2246 15.6527 51.9871 14.9942 52.5864 14.1983C53.1857 13.4025 53.608 12.4878 53.825 11.5154C54.0419 10.5431 54.0486 9.53561 53.8445 8.56048C53.6404 7.58536 53.2302 6.66512 52.6414 5.86144C52.0527 5.05775 51.299 4.38919 50.4308 3.90053C49.5626 3.41188 48.6 3.11443 47.6075 3.02811C46.615 2.94179 45.6155 3.0686 44.676 3.40004C43.7365 3.73148 42.8786 4.2599 42.16 4.94988C39.2873 3.12928 35.9783 2.11347 32.5789 2.00855C29.1795 1.90364 25.8142 2.71346 22.8347 4.35344C19.8551 5.99341 17.3706 8.40337 15.6406 11.3316C13.9106 14.2598 12.9987 17.5988 13 20.9999V25.7099C12.3549 26.4967 12.0016 27.4824 12 28.4999C12.0019 29.6928 12.4766 30.8363 13.3201 31.6798C14.1636 32.5233 15.3071 32.998 16.5 32.9999H17.3C18.0844 36.7938 20.3015 40.1392 23.49 42.3399C20.7438 42.9851 18.2801 44.5015 16.4669 46.6626C14.6537 48.8236 13.5883 51.5134 13.43 54.3299L13 60.9399C12.993 61.0759 13.0136 61.2119 13.0606 61.3397C13.1076 61.4676 13.18 61.5845 13.2734 61.6836C13.3669 61.7827 13.4795 61.8618 13.6043 61.9161C13.7292 61.9705 13.8638 61.999 14 61.9999H50C50.1362 61.999 50.2708 61.9705 50.3957 61.9161C50.5205 61.8618 50.6331 61.7827 50.7266 61.6836C50.82 61.5845 50.8924 61.4676 50.9394 61.3397C50.9864 61.2119 51.007 61.0759 51 60.9399L50.57 54.3499C50.5509 53.968 50.5108 53.5874 50.45 53.2099L52.68 53.9499C52.7839 53.9811 52.8915 53.9979 53 53.9999C53.1506 53.9994 53.2992 53.9649 53.4346 53.899C53.57 53.833 53.6888 53.7374 53.782 53.6191C53.8753 53.5009 53.9406 53.3631 53.9732 53.216C54.0057 53.069 54.0046 52.9165 53.97 52.7699L51 39.8899ZM32 50.4599C30.3892 48.5886 28.9782 46.5543 27.79 44.3899C29.1573 44.7917 30.5748 44.9971 32 44.9999C33.4293 44.9995 34.851 44.7906 36.22 44.3799C35.0306 46.549 33.6161 48.5869 32 50.4599ZM47.5 30.9999H46.95C46.97 30.6699 47 30.3399 47 29.9999V25.9999H47.5C48.1623 26.0022 48.7968 26.2664 49.2651 26.7347C49.7335 27.2031 49.9976 27.8376 50 28.4999C50 29.1629 49.7366 29.7988 49.2678 30.2676C48.7989 30.7365 48.163 30.9999 47.5 30.9999ZM16.5 30.9999C15.837 30.9999 15.2011 30.7365 14.7322 30.2676C14.2634 29.7988 14 29.1629 14 28.4999C14.0024 27.8376 14.2665 27.2031 14.7349 26.7347C15.2032 26.2664 15.8377 26.0022 16.5 25.9999H17V29.9999C17 30.3399 17.03 30.6699 17.05 30.9999H16.5ZM19 29.9999V22.9999H27C28.9005 22.9984 30.7518 22.396 32.2892 21.2788C33.8267 20.1616 34.9715 18.5869 35.56 16.7799L39.15 22.5299C39.2484 22.687 39.3882 22.814 39.554 22.8969C39.7198 22.9798 39.9053 23.0155 40.09 22.9999C40.2738 22.9805 40.449 22.9117 40.5969 22.8007C40.7448 22.6898 40.8599 22.5409 40.93 22.3699L42 19.6899L42.57 21.1099C42.7668 21.613 43.0971 22.053 43.5252 22.3825C43.9534 22.7119 44.4632 22.9185 45 22.9799V29.9999C45 33.4477 43.6304 36.7543 41.1924 39.1923C38.7544 41.6302 35.4478 42.9999 32 42.9999C28.5522 42.9999 25.2456 41.6302 22.8076 39.1923C20.3696 36.7543 19 33.4477 19 29.9999ZM32 59.9999H15.07L15.43 54.4499C15.538 52.4922 16.1644 50.5985 17.2451 48.9626C18.3257 47.3267 19.8218 46.0074 21.58 45.1399C23.08 49.3999 27.38 54.3399 28.28 55.3399L31.26 58.6599C31.3533 58.7637 31.4674 58.8467 31.5949 58.9035C31.7224 58.9604 31.8604 58.9897 32 58.9897C32.1396 58.9897 32.2776 58.9604 32.4051 58.9035C32.5326 58.8467 32.6467 58.7637 32.74 58.6599L35.72 55.3399C36.62 54.3399 40.92 49.3999 42.42 45.1399C44.1808 46.0067 45.6788 47.3272 46.7598 48.9653C47.8407 50.6034 48.4656 52.5 48.57 54.4599L48.93 59.9999H32Z" fill="#C0C0C0"/>
<path d="M38 29C38.2652 29 38.5196 28.8946 38.7071 28.7071C38.8946 28.5196 39 28.2652 39 28V26C39 25.7348 38.8946 25.4804 38.7071 25.2929C38.5196 25.1054 38.2652 25 38 25C37.7348 25 37.4804 25.1054 37.2929 25.2929C37.1054 25.4804 37 25.7348 37 26V28C37 28.2652 37.1054 28.5196 37.2929 28.7071C37.4804 28.8946 37.7348 29 38 29Z" fill="#C0C0C0"/>
<path d="M39 34H37C37 35.63 34.71 37 32 37C29.29 37 27 35.63 27 34H25C25 36.8 28.07 39 32 39C35.93 39 39 36.8 39 34Z" fill="#C0C0C0"/>
<path d="M26 29C26.2652 29 26.5196 28.8946 26.7071 28.7071C26.8946 28.5196 27 28.2652 27 28V26C27 25.7348 26.8946 25.4804 26.7071 25.2929C26.5196 25.1054 26.2652 25 26 25C25.7348 25 25.4804 25.1054 25.2929 25.2929C25.1054 25.4804 25 25.7348 25 26V28C25 28.2652 25.1054 28.5196 25.2929 28.7071C25.4804 28.8946 25.7348 29 26 29Z" fill="#C0C0C0"/>
</svg>
