<?xml version="1.0" standalone="no"?>
<!DOCTYPE svg PUBLIC "-//W3C//DTD SVG 20010904//EN"
 "http://www.w3.org/TR/2001/REC-SVG-20010904/DTD/svg10.dtd">
<svg version="1.0" xmlns="http://www.w3.org/2000/svg"
 width="100%" height="100%" viewBox="0 0 1800.000000 640.000000"
 preserveAspectRatio="xMidYMid meet">
<metadata>
Created by potrace 1.16, written by Peter Selinger 2001-2019
</metadata>
<g transform="translate(0.000000,640.000000) scale(0.100000,-0.100000)"
fill="#000000" stroke="none">
<path d="M0 3200 l0 -3200 9000 0 9000 0 0 3200 0 3200 -9000 0 -9000 0 0
-3200z m3130 2596 c11 -24 34 -63 51 -86 l30 -41 47 39 c61 50 74 54 119 36
53 -22 79 -49 113 -116 l30 -58 -45 -59 c-54 -71 -156 -154 -170 -139 -8 8 27
108 48 140 16 24 32 34 54 36 17 2 36 9 41 15 14 19 -33 116 -62 127 -13 5
-26 14 -28 21 -7 20 -76 -49 -89 -89 -6 -20 -16 -42 -20 -48 -5 -6 -10 -43
-12 -82 -2 -65 0 -72 31 -110 17 -23 32 -45 32 -49 0 -15 58 -73 74 -73 8 0
28 12 45 26 42 35 82 30 96 -11 14 -39 37 -75 50 -75 14 0 95 79 96 93 3 25
-4 42 -30 82 -56 81 -46 159 29 229 42 39 55 46 91 46 47 0 95 -29 109 -66 7
-17 17 -24 35 -24 31 0 57 -38 57 -85 0 -24 -13 -56 -39 -97 -31 -50 -45 -64
-71 -69 -43 -9 -66 -31 -81 -77 -11 -32 -22 -41 -80 -69 -71 -34 -96 -40 -106
-23 -9 15 -35 12 -35 -3 0 -14 36 -42 81 -66 22 -11 31 -11 56 2 32 17 103 91
103 107 0 15 91 100 117 111 26 10 53 2 53 -15 0 -6 -6 -23 -14 -38 -13 -25
-12 -38 5 -38 15 0 58 53 64 79 3 14 26 69 50 121 63 139 63 140 23 140 -19 0
-43 -7 -54 -15 -24 -18 -44 -19 -44 -1 0 24 68 76 103 78 86 5 98 4 103 -3 4
-7 -81 -195 -216 -474 -27 -55 -77 -147 -111 -204 -62 -105 -104 -204 -90
-209 5 -1 35 7 67 19 47 17 75 38 139 103 134 135 363 471 475 696 55 112 84
127 116 63 16 -32 19 -60 18 -168 -1 -143 -13 -223 -74 -465 -22 -85 -51 -240
-66 -345 -33 -235 -25 -225 -171 -225 -116 0 -144 -9 -188 -61 -20 -25 -25
-39 -21 -62 14 -68 89 -127 163 -127 40 0 105 26 153 60 24 17 33 19 51 9 19
-10 21 -17 16 -71 -7 -79 -46 -157 -107 -211 -65 -59 -112 -80 -186 -85 -73
-5 -107 10 -155 68 -18 22 -39 40 -45 40 -13 0 -24 -75 -13 -92 4 -6 3 -21 -3
-33 -8 -17 -5 -32 12 -66 39 -76 70 -108 136 -140 56 -28 70 -31 116 -25 29 4
63 14 75 22 l22 14 -20 35 c-28 47 -69 76 -90 62 -26 -16 -84 1 -133 41 -62
50 -39 62 42 20 55 -28 64 -30 92 -18 35 15 82 1 96 -30 10 -19 46 -67 82
-108 12 -14 19 -29 15 -33 -9 -9 -181 -76 -237 -92 l-38 -12 -44 50 c-24 28
-44 46 -44 41 0 -10 41 -79 52 -86 4 -3 24 -37 44 -75 76 -144 114 -185 171
-185 40 0 58 -27 42 -63 -13 -29 -218 -131 -243 -121 -54 21 -6 -89 80 -185
66 -72 100 -88 153 -72 54 16 100 14 107 -4 14 -36 -32 -112 -76 -127 -12 -4
-5 -25 32 -104 101 -219 132 -366 132 -629 0 -167 -2 -201 -23 -280 -100 -384
-275 -621 -633 -858 -162 -108 -174 -119 -196 -165 -45 -101 -244 -324 -300
-336 -45 -10 -92 1 -92 23 0 31 59 111 157 212 53 55 94 101 92 104 -3 2 -34
-6 -69 -17 -58 -20 -87 -22 -260 -22 -199 0 -329 15 -424 50 -79 29 -84 30
-56 3 14 -13 66 -60 115 -103 50 -43 108 -101 131 -128 47 -57 88 -133 79
-148 -21 -34 -152 28 -230 109 -109 113 -185 231 -185 288 0 13 -10 27 -22 34
-123 66 -323 214 -435 322 -108 104 -182 210 -258 369 -112 234 -142 381 -131
633 10 200 45 326 150 534 l26 49 -43 25 c-120 71 -257 205 -257 251 0 21 39
21 69 0 19 -14 40 -16 113 -12 99 6 136 21 313 129 50 30 123 69 164 87 72 31
141 42 141 22 0 -5 -53 -36 -118 -69 -65 -32 -153 -79 -195 -105 -161 -98
-170 -106 -119 -106 54 0 138 32 289 111 107 56 162 79 187 79 24 0 36 -5 36
-14 0 -33 -176 -151 -295 -197 -49 -19 -78 -23 -160 -22 -64 0 -110 5 -125 13
-14 8 -62 16 -107 19 l-82 6 32 -33 c46 -48 139 -108 194 -125 143 -45 194
-58 212 -52 67 21 311 245 354 324 l28 50 -26 17 c-30 20 -125 160 -166 247
-46 98 -37 127 30 93 50 -27 200 -49 289 -43 75 4 95 10 188 56 l105 51 -16
28 c-49 82 -30 76 -262 83 -225 7 -256 13 -336 68 -79 54 -164 157 -145 176 3
3 27 -2 54 -11 32 -10 112 -18 231 -22 l181 -8 77 -39 c87 -45 149 -94 169
-134 16 -29 122 -118 137 -113 5 1 9 -9 9 -23 0 -18 -7 -28 -25 -35 -34 -13
-232 -207 -377 -370 -185 -208 -334 -356 -433 -430 -91 -69 -182 -157 -204
-197 -11 -22 -11 -22 31 -9 90 28 126 56 73 56 -16 0 -25 6 -25 16 0 13 12 14
83 8 102 -8 152 5 289 75 119 60 237 148 346 258 91 92 136 171 145 255 l5 48
-30 -18 c-16 -9 -112 -99 -213 -199 -101 -100 -193 -186 -204 -193 -18 -9 -21
-8 -21 10 0 24 74 106 291 323 133 133 153 157 194 238 58 116 93 167 175 256
106 114 122 168 73 240 -43 63 -148 148 -258 211 -130 74 -198 137 -241 226
-18 38 -36 88 -40 112 -3 25 -10 47 -15 50 -5 2 -35 -1 -68 -7 -82 -17 -99 -8
-144 84 -20 41 -37 79 -37 85 0 21 -37 21 -228 2 -363 -37 -396 -44 -467 -93
-57 -38 -84 -84 -114 -192 -36 -126 -36 -139 4 -174 70 -61 163 -88 440 -126
125 -18 221 -25 315 -24 109 0 147 -3 195 -19 33 -11 87 -28 120 -37 65 -18
157 -63 220 -108 51 -36 59 -18 14 30 -45 46 -134 95 -260 142 -72 27 -108 46
-115 61 -16 30 -73 88 -109 110 -30 19 -214 60 -264 60 l-26 -1 25 -15 25 -15
-30 6 c-16 4 -52 10 -80 15 -57 9 -88 20 -236 83 l-105 44 -15 -26 c-20 -34
-89 -77 -89 -56 0 19 21 66 38 88 13 15 13 19 -3 37 -18 20 -18 20 16 14 66
-11 142 -35 207 -66 79 -35 158 -53 302 -68 171 -18 222 -33 329 -99 56 -34
140 -74 201 -96 120 -42 231 -96 275 -132 34 -29 89 -99 98 -126 8 -20 -42
-81 -84 -103 -31 -16 -79 -19 -79 -5 0 5 -32 31 -71 58 -39 26 -81 55 -92 63
-12 8 -34 24 -49 36 -65 53 -172 72 -458 84 -220 8 -370 27 -528 67 -107 27
-252 136 -308 231 -26 43 -26 46 -8 59 28 20 50 16 89 -18 25 -22 39 -29 47
-21 5 5 17 45 25 89 36 193 140 260 453 293 58 6 123 13 145 16 l41 5 -4 63
c-5 71 8 104 63 165 l34 38 -23 34 c-56 83 -305 555 -350 663 -24 59 -22 66
25 66 72 0 159 -28 159 -51 0 -15 -89 -22 -105 -9 -28 23 -29 0 -3 -53 15 -29
42 -86 61 -127 19 -41 65 -124 103 -185 61 -96 141 -254 158 -309 4 -12 11
-16 24 -11 68 27 400 65 632 72 205 6 225 4 580 -57 67 -12 111 -15 122 -9 30
16 127 191 128 230 0 26 -60 8 -118 -35 -54 -39 -79 -43 -160 -26 -82 18 -149
102 -92 117 26 7 25 17 -4 31 -26 12 -30 10 -120 -52 -85 -59 -127 -58 -205 5
-67 54 -81 58 -118 29 -14 -11 -36 -20 -49 -20 -13 0 -24 -5 -24 -10 0 -13
-84 -50 -114 -50 -13 0 -42 15 -66 33 -79 60 -93 67 -107 56 -9 -8 -21 -7 -43
2 -31 14 -37 28 -21 45 5 5 13 24 18 43 14 56 32 59 109 19 38 -20 84 -39 102
-43 37 -8 52 -30 52 -75 0 -28 2 -30 21 -20 12 7 18 18 15 26 -6 16 5 19 20 4
8 -8 14 -7 23 3 16 20 4 45 -23 45 -26 0 -76 29 -76 44 0 14 -53 81 -135 169
-81 88 -110 137 -101 171 19 75 94 131 178 132 41 1 52 -4 85 -36 l39 -38 33
53 c55 84 81 117 96 117 7 0 23 -20 35 -44z m-757 -164 c-49 -42 -59 -92 -44
-218 14 -124 40 -212 80 -274 49 -75 58 -82 94 -74 68 14 187 55 187 64 0 6 4
10 10 10 5 0 0 -15 -11 -34 -22 -38 -62 -60 -138 -77 -73 -15 -111 -6 -141 36
-14 18 -34 39 -45 45 -11 6 -32 32 -47 58 -33 59 -122 326 -115 344 3 8 24 20
47 28 31 10 46 23 61 51 20 40 54 69 79 69 10 0 4 -10 -17 -28z m99 19 c13 -5
37 -22 55 -38 28 -25 33 -38 39 -95 6 -58 3 -77 -22 -147 l-29 -81 54 -54 c48
-49 53 -57 40 -72 -21 -25 -122 -14 -156 18 -46 43 -71 126 -43 143 18 11 56
77 88 155 29 68 30 76 17 97 -17 26 -19 37 -5 28 6 -3 10 -4 10 -1 0 7 -61 36
-77 36 -7 0 -13 5 -13 10 0 12 12 13 42 1z m5448 -1064 c44 -22 45 -23 48 -74
2 -32 -1 -53 -7 -53 -6 0 -30 10 -53 23 -58 30 -203 32 -262 3 -53 -26 -101
-79 -133 -144 -35 -72 -37 -176 -5 -239 30 -57 86 -111 140 -135 70 -31 181
-29 257 4 33 14 63 24 67 21 14 -8 8 -45 -12 -78 -34 -54 -79 -70 -200 -70
-92 1 -112 4 -163 27 -111 52 -199 171 -216 292 -31 215 111 416 313 446 76
11 175 1 226 -23z m1322 1 c94 -40 170 -154 188 -279 28 -197 -42 -369 -177
-435 -52 -26 -68 -29 -153 -28 -74 0 -105 5 -142 21 -62 28 -128 96 -164 169
-28 57 -29 65 -29 199 0 133 1 143 27 191 49 93 136 167 218 185 55 12 179 0
232 -23z m2469 12 c90 -25 186 -127 215 -228 26 -88 15 -259 -20 -334 -29 -61
-99 -139 -147 -163 -90 -47 -244 -43 -330 8 -63 38 -121 110 -150 187 -30 77
-30 230 0 313 42 118 131 207 231 228 42 9 150 3 201 -11z m1393 -7 c64 -20
138 -93 174 -171 25 -53 27 -66 27 -192 0 -133 -1 -137 -33 -202 -35 -71 -94
-132 -160 -164 -58 -29 -221 -27 -284 4 -60 30 -132 108 -166 180 -24 51 -27
68 -27 172 0 97 4 125 24 178 41 109 136 195 236 213 53 10 149 2 209 -18z
m1736 -4 c59 -25 132 -100 163 -166 19 -42 21 -66 22 -188 0 -131 -2 -144 -26
-196 -57 -122 -150 -186 -281 -196 -109 -8 -171 13 -247 83 -88 81 -115 142
-119 269 -3 72 1 120 12 166 30 118 120 216 226 246 63 18 187 9 250 -18z
m1985 21 c13 -21 -68 -146 -208 -318 l-59 -73 28 -37 c16 -20 59 -70 97 -112
72 -78 177 -204 177 -212 0 -3 -49 -3 -112 1 -24 1 -69 48 -180 181 -134 162
-128 159 -128 64 0 -44 -3 -116 -7 -161 l-6 -83 -58 0 -59 0 0 376 0 376 23
-6 c12 -3 42 -6 65 -6 l44 0 -4 -169 -4 -169 21 16 c12 9 61 67 111 131 125
161 145 182 179 197 37 16 72 18 80 4z m-10271 -9 c12 -1 -3 -90 -21 -126 -27
-52 -154 -245 -255 -387 -54 -76 -98 -139 -98 -140 0 -2 89 -2 198 0 l198 3
-5 -48 -6 -47 -255 3 c-140 1 -257 4 -258 6 -2 2 -1 22 3 45 5 31 45 99 145
249 134 201 220 336 220 346 0 3 -81 5 -180 5 l-180 0 0 43 c0 24 2 46 6 49 4
4 431 3 488 -1z m510 -14 c17 -26 76 -193 151 -427 29 -91 64 -191 79 -222 14
-31 26 -62 26 -67 0 -13 -89 -15 -107 -3 -7 4 -25 43 -41 87 l-30 80 -152 0
-152 0 -25 -80 c-14 -44 -30 -83 -37 -87 -13 -9 -106 -11 -106 -2 0 6 167 498
205 604 15 41 38 90 52 108 21 28 29 32 73 32 40 0 52 -4 64 -23z m1114 14
c22 -1 22 -2 22 -159 l0 -159 107 -6 c58 -4 132 -7 165 -7 l58 0 0 169 0 170
58 -6 c31 -3 57 -6 57 -7 0 0 -1 -164 -3 -363 l-3 -362 -33 -7 c-73 -13 -71
-17 -68 159 l2 157 -78 0 c-44 0 -120 3 -170 6 l-92 7 0 -167 0 -166 -55 0
-55 0 0 375 0 375 33 -4 c17 -3 42 -5 55 -5z m1685 -6 c125 -26 215 -94 274
-207 25 -48 28 -62 27 -153 -1 -115 -19 -173 -78 -254 -78 -106 -180 -139
-399 -128 -64 3 -122 9 -127 12 -6 4 -10 141 -10 365 l0 359 38 6 c20 4 42 8
47 10 27 9 168 3 228 -10z m553 -18 c11 -12 65 -96 119 -187 85 -143 215 -350
234 -372 4 -4 3 25 -1 65 -3 39 -7 172 -7 295 l-1 222 59 0 c39 0 60 -4 62
-12 2 -7 2 -173 -1 -368 l-5 -355 -63 -3 -62 -3 -83 128 c-46 70 -100 157
-122 193 -52 89 -147 240 -150 240 -2 0 -1 -126 1 -280 l4 -280 -54 0 c-30 0
-58 4 -61 10 -3 5 -3 171 1 369 l7 360 26 4 c41 7 74 -2 97 -26z m1967 13 c87
-26 157 -126 157 -227 0 -80 -14 -124 -52 -160 -53 -51 -115 -73 -225 -80
l-98 -6 3 -129 3 -129 -58 3 -58 3 0 365 0 365 30 7 c42 10 252 1 298 -12z
m1215 8 c15 -19 76 -170 153 -376 37 -101 70 -187 73 -190 12 -11 24 15 61
133 60 191 143 397 171 423 28 24 85 30 102 10 12 -16 18 -59 37 -268 8 -91
23 -230 34 -310 10 -80 17 -147 15 -149 -2 -2 -29 -4 -60 -5 -56 -1 -58 0 -65
29 -4 17 -13 131 -19 255 -6 124 -14 227 -17 230 -8 8 -25 -28 -104 -220 -126
-305 -130 -312 -174 -292 -33 15 -63 78 -133 282 -33 96 -66 188 -73 203 -12
26 -14 27 -20 10 -4 -10 -8 -40 -8 -67 -1 -27 -6 -77 -11 -110 -6 -34 -16
-119 -23 -191 l-13 -130 -42 1 c-24 0 -47 5 -53 11 -7 7 -2 103 16 294 33 363
40 420 57 430 20 13 84 11 96 -3z m1880 -13 c111 -47 166 -171 132 -296 -10
-36 -97 -129 -121 -129 -16 0 -7 -20 61 -120 62 -93 100 -162 100 -180 0 -14
-45 -13 -84 4 -37 15 -57 39 -129 151 -55 84 -103 125 -146 125 l-27 0 1 -137
0 -138 -60 0 -60 0 -2 357 c-1 235 2 360 9 364 42 26 262 25 326 -1z m605 14
c43 -12 77 -57 77 -101 0 -33 -7 -34 -80 -8 -90 32 -158 24 -209 -23 -33 -31
-44 -64 -29 -90 16 -31 31 -41 141 -98 165 -84 218 -150 203 -253 -8 -48 -50
-114 -96 -147 -40 -30 -123 -41 -215 -28 -44 5 -89 16 -101 24 -33 21 -71 115
-46 115 4 0 34 -9 67 -19 97 -30 180 -36 213 -16 45 29 82 68 82 86 0 33 -49
75 -149 129 -182 97 -240 169 -212 262 26 85 82 145 159 168 39 12 151 12 195
-1z m-4937 -367 l0 -363 -21 -5 c-12 -3 -37 -4 -56 -2 l-34 3 -2 368 -2 368
57 -3 57 -3 1 -363z m5906 363 c10 -4 13 -73 11 -368 l-3 -362 -52 0 -53 0 -3
368 -2 367 44 0 c24 0 50 -2 58 -5z m-15032 -518 c113 -20 240 -46 282 -57 42
-11 94 -22 115 -25 21 -3 58 -13 83 -22 53 -18 79 -39 38 -29 -14 3 -66 10
-115 15 -118 13 -523 78 -598 97 -88 22 -155 47 -155 57 0 15 134 1 350 -36z
m8375 -768 c18 -28 -37 -119 -177 -292 l-79 -98 58 -72 c31 -40 76 -92 99
-117 75 -82 134 -161 129 -171 -8 -12 -101 -12 -125 1 -10 5 -66 67 -123 137
-57 71 -119 141 -136 157 l-31 30 0 -162 0 -162 -24 -6 c-13 -3 -37 -4 -52 -2
l-29 3 0 372 c0 204 3 374 5 376 3 2 27 2 53 -1 l48 -4 -1 -137 c-1 -75 -1
-151 0 -169 l0 -32 26 16 c14 10 69 76 123 148 110 146 135 173 177 186 40 12
52 12 59 -1z m-3972 -9 l137 0 0 -39 c0 -21 -11 -58 -23 -82 -37 -69 -186
-293 -275 -414 -45 -60 -82 -112 -82 -115 0 -3 89 -5 197 -5 l198 0 3 -47 3
-48 -253 0 c-139 0 -259 4 -267 9 -20 13 -8 73 26 126 15 24 97 146 181 270
83 125 152 231 152 236 0 5 -76 9 -180 9 l-180 0 0 57 0 56 113 -6 c61 -4 174
-7 250 -7z m362 -33 c14 -34 57 -206 100 -399 33 -145 48 -162 70 -81 89 313
140 468 167 501 17 20 56 14 73 -11 18 -27 67 -173 124 -367 48 -164 58 -190
71 -190 11 0 9 -10 60 240 56 270 75 345 88 344 7 -1 30 -2 52 -2 47 -2 49
-12 25 -102 -8 -30 -31 -127 -51 -215 -52 -237 -95 -398 -112 -417 -16 -19
-86 -25 -110 -10 -13 9 -65 151 -131 358 -38 121 -62 168 -74 147 -3 -4 -23
-83 -46 -174 -41 -165 -77 -270 -106 -316 -13 -19 -24 -23 -64 -23 -30 0 -53
5 -61 14 -6 8 -36 106 -65 218 -29 112 -72 272 -94 357 -23 84 -41 156 -41
160 0 3 25 4 56 3 52 -4 57 -6 69 -35z m1558 30 c29 -20 247 -667 247 -730 0
-28 -8 -39 -50 -70 -69 -52 -77 -70 -45 -103 23 -23 32 -26 88 -22 61 3 62 3
65 -24 5 -41 -34 -61 -115 -60 -91 2 -137 38 -143 112 -4 49 0 60 46 111 44
50 46 54 41 100 -3 26 -13 63 -21 83 l-15 36 -160 0 c-144 0 -160 -2 -164 -17
-3 -10 -13 -48 -22 -85 -18 -69 -37 -86 -82 -72 -10 3 -23 7 -30 9 -17 5 14
115 96 345 111 313 143 386 169 393 35 9 79 7 95 -6z m851 -39 c-4 -29 -11
-63 -15 -76 -11 -29 -134 -218 -239 -367 -42 -60 -85 -123 -95 -138 l-18 -29
179 2 c98 1 185 1 192 1 8 -1 12 -18 12 -51 l0 -50 -241 0 c-144 0 -248 4
-259 10 -15 8 -18 17 -13 43 10 52 36 96 199 337 84 125 157 235 160 244 5 14
-14 16 -175 16 l-181 0 0 55 0 55 250 0 251 0 -7 -52z m576 -3 l0 -55 -155 0
-155 0 0 -110 0 -110 140 0 140 0 0 -56 0 -56 -140 4 -140 3 0 -113 0 -114
153 3 152 4 3 -52 3 -53 -205 0 -205 0 -6 43 c-3 23 -5 191 -3 372 l3 330 185
5 c102 3 195 7 208 8 20 2 22 -2 22 -53z m1743 -327 l2 -366 -35 -4 c-19 -3
-44 -2 -57 0 l-23 4 0 372 0 371 56 -5 55 -5 2 -367z m1197 364 c0 -38 -78
-153 -217 -318 -24 -28 -43 -56 -43 -61 0 -5 46 -61 103 -123 125 -137 189
-219 181 -231 -6 -11 -91 -11 -118 0 -11 4 -71 70 -135 146 -64 76 -127 145
-140 154 l-24 16 6 -157 7 -157 -55 -6 c-31 -4 -58 -6 -60 -4 -2 2 -5 172 -7
377 l-3 373 60 -3 60 -3 -4 -169 -4 -169 32 22 c17 12 63 67 102 122 39 55 95
124 123 154 47 50 56 55 94 55 34 0 42 -4 42 -18z m1696 -19 c-3 -21 -6 -46
-6 -55 0 -16 -14 -18 -155 -18 l-156 0 3 -112 3 -113 134 0 133 0 2 -50 1 -50
-138 -3 -137 -3 0 -62 c0 -34 3 -86 7 -115 l6 -54 106 6 c58 4 125 9 149 12
39 5 43 3 52 -22 15 -39 4 -59 -38 -72 -55 -17 -159 -81 -170 -106 -6 -13 -6
-31 0 -48 12 -34 65 -52 106 -37 39 15 54 5 41 -27 -15 -40 -38 -53 -96 -54
-63 0 -96 12 -128 46 -32 34 -32 69 0 140 14 32 23 59 21 61 -2 3 -38 7 -79
10 l-75 6 -6 45 c-3 25 -6 193 -6 373 l0 329 198 3 c108 1 205 3 216 5 16 2
18 -3 12 -35z m650 -3 c6 -19 14 -50 18 -69 7 -38 18 -38 -129 -5 -77 17 -82
17 -139 -1 -72 -23 -127 -75 -164 -153 -21 -47 -24 -64 -20 -140 5 -112 29
-158 110 -212 91 -61 179 -65 279 -14 27 13 55 22 60 18 12 -7 3 -87 -12 -116
-16 -29 -75 -41 -188 -36 -89 4 -116 9 -166 32 -123 56 -192 167 -202 322 -9
130 33 241 121 322 85 79 126 91 296 89 l125 -2 11 -35z m632 18 c12 -60 -97
-250 -301 -528 l-78 -105 196 -3 195 -2 0 -50 0 -50 -255 0 c-287 0 -278 -3
-255 73 6 22 83 147 170 277 135 203 190 290 190 302 0 2 -80 3 -177 3 l-177
0 -3 53 -4 52 248 -2 c226 -3 248 -4 251 -20z m1306 3 c-1 -6 -2 -29 -2 -52
l-2 -40 -147 1 c-82 1 -154 1 -160 1 -10 -1 -13 -30 -13 -110 0 -98 2 -109 19
-114 11 -2 74 -3 140 0 l121 4 0 -56 0 -56 -137 2 -138 1 0 -108 0 -109 158
-3 157 -3 0 -33 c0 -19 3 -41 6 -50 5 -14 -17 -16 -210 -16 l-216 0 0 378 0
377 212 -2 c146 -1 213 -5 212 -12z m-9137 -221 c2 -124 0 -290 -5 -370 l-7
-145 -43 1 c-23 0 -44 3 -47 6 -3 3 -2 170 1 372 l7 367 46 -3 46 -3 2 -225z
m3288 203 c88 -48 125 -104 133 -200 6 -82 -15 -139 -72 -191 -54 -50 -95 -62
-213 -62 l-92 0 -3 -132 -3 -133 -50 0 -50 0 -3 360 c-1 198 0 366 3 373 4 11
37 13 158 10 133 -3 157 -6 192 -25z m643 -126 l-3 -154 73 44 c89 52 102 54
102 11 0 -42 0 -41 -97 -127 l-83 -72 0 -68 c0 -38 3 -83 6 -101 l7 -32 146 3
146 4 3 -52 3 -53 -204 0 -204 0 -7 53 c-3 28 -6 75 -6 104 0 39 -5 55 -18 65
-11 7 -24 22 -30 34 -11 22 -9 27 36 95 22 33 23 40 19 217 l-5 182 60 0 60 0
-4 -153z m1177 140 c0 -1 -1 -165 -3 -365 l-2 -363 -58 3 -57 3 0 78 c0 42 2
208 3 368 l2 291 58 -7 c31 -4 57 -8 57 -8z m751 -9 c16 -9 45 -32 63 -50 101
-101 93 -240 -22 -350 l-49 -47 50 -73 c27 -40 58 -80 67 -88 19 -16 54 -86
55 -107 0 -17 -62 -17 -103 1 -26 10 -47 37 -101 130 -72 123 -87 136 -152
136 -33 0 -34 -1 -35 -42 -1 -24 0 -84 1 -134 l2 -91 -47 -6 c-26 -4 -50 -5
-55 -2 -9 6 -24 720 -15 735 12 19 302 9 341 -12z m2257 -24 c19 -25 76 -116
127 -202 52 -87 120 -197 151 -246 l58 -89 -6 292 -6 292 62 -3 63 -3 -2 -364
c0 -200 -3 -368 -6 -373 -8 -12 -89 -10 -119 4 -17 8 -68 82 -167 247 -78 130
-154 255 -169 279 l-27 43 5 -285 6 -286 -61 0 -62 0 0 354 c0 195 3 361 6
370 5 12 20 16 60 16 52 0 55 -1 87 -46z m1397 -250 c0 -160 -5 -305 -9 -322
-27 -93 -72 -124 -188 -130 -92 -5 -91 -5 -96 63 l-2 39 77 1 c42 0 80 4 85 8
4 5 8 150 8 323 l0 315 63 -3 63 -3 -1 -291z m-12477 -436 c35 -72 33 -306 -5
-443 -24 -85 -69 -98 -102 -30 -40 81 -31 402 14 521 l10 26 33 -19 c17 -10
40 -35 50 -55z m-3381 -60 c20 -109 18 -365 -4 -403 -23 -43 -63 -77 -85 -73
-56 11 -70 446 -17 550 17 33 53 41 76 16 9 -10 22 -51 30 -90z m-293 -194
c45 -51 156 -278 187 -381 14 -49 28 -95 31 -104 3 -12 -3 -16 -29 -16 -18 -1
-45 -2 -60 -3 -16 -2 -34 3 -42 9 -18 15 -114 238 -137 321 -28 97 -23 210 10
210 5 0 23 -16 40 -36z m3922 20 c21 -26 -12 -171 -68 -289 -81 -171 -154
-268 -181 -240 -4 4 -7 41 -6 83 1 59 8 94 29 147 34 87 120 255 146 290 23
28 60 33 80 9z m-470 -214 c23 -24 69 -101 111 -186 69 -139 73 -149 73 -215
0 -58 -3 -72 -23 -91 -22 -22 -24 -22 -52 -6 -17 9 -30 15 -30 13 0 -3 9 -32
21 -65 l20 -59 -21 -133 c-26 -156 -45 -205 -93 -242 -29 -23 -39 -25 -56 -16
-28 15 -34 47 -22 116 6 32 11 90 11 130 0 49 9 101 28 167 31 104 54 147 78
147 19 0 13 22 -28 105 -41 81 -108 290 -108 337 0 34 2 38 27 38 18 0 38 -13
64 -40z m-2977 14 c9 -3 16 -17 16 -31 0 -46 -61 -237 -101 -317 -21 -43 -39
-85 -39 -93 0 -8 9 -28 20 -43 47 -66 70 -137 84 -254 l13 -116 87 -81 c142
-133 252 -325 272 -476 6 -45 4 -51 -19 -66 -14 -9 -32 -14 -39 -12 -28 11
-167 225 -245 378 -14 29 -34 81 -44 117 l-17 65 -1 -46 c-1 -29 -6 -49 -14
-52 -18 -7 -65 15 -111 52 -21 17 -44 31 -50 32 -6 1 -27 2 -47 3 -73 5 -215
101 -328 222 -71 77 -91 118 -76 164 5 16 12 19 28 14 45 -14 235 -153 329
-241 55 -51 104 -93 110 -93 8 0 8 19 3 63 -5 34 -9 106 -10 161 l-1 98 -34
28 c-32 26 -34 33 -38 97 -4 75 -10 58 104 300 33 69 90 133 119 133 7 0 20
-3 29 -6z m4425 -140 c21 -4 33 -14 36 -28 26 -118 130 -525 137 -540 17 -31
27 -6 63 146 41 178 101 379 118 395 16 17 69 26 85 15 19 -13 85 -208 132
-389 23 -87 43 -165 46 -173 11 -31 31 20 58 147 15 71 43 197 63 281 l37 153
40 -6 c68 -11 78 -15 71 -33 -4 -10 -22 -82 -41 -162 -94 -386 -129 -515 -146
-532 -24 -24 -92 -24 -116 0 -19 19 -64 154 -122 361 -33 119 -49 161 -60 161
-4 0 -26 -69 -49 -152 -60 -212 -100 -339 -117 -365 -11 -17 -24 -23 -53 -23
-60 0 -79 23 -107 125 -61 226 -154 593 -154 608 0 18 25 22 79 11z m1605 -4
c21 -4 45 -15 53 -22 15 -15 31 -118 18 -118 -4 0 -32 12 -62 26 -45 23 -63
26 -112 21 -71 -6 -116 -28 -136 -67 -29 -56 -1 -89 137 -159 162 -82 208
-132 208 -223 0 -62 -42 -143 -92 -176 -32 -21 -54 -26 -121 -30 -45 -2 -109
1 -142 7 -77 14 -99 38 -92 99 2 24 7 45 10 48 3 3 23 -6 44 -20 45 -30 133
-49 184 -41 38 7 94 52 104 86 13 40 -30 84 -138 140 -114 60 -173 108 -194
156 -17 42 -17 115 1 156 19 44 73 93 121 111 46 17 151 20 209 6z m707 -7
c24 -24 -46 -164 -171 -338 -20 -27 -76 -108 -124 -179 l-88 -129 199 4 198 4
0 -45 0 -45 -260 0 -260 0 -3 22 c-2 12 7 44 21 70 25 50 153 245 258 393 33
47 69 102 80 123 l19 37 -185 0 -185 0 0 43 c0 24 3 47 8 51 12 13 480 2 493
-11z m676 -26 c39 -37 45 -48 39 -70 -8 -33 -23 -34 -101 -7 -32 11 -83 20
-114 20 -108 -1 -179 -44 -229 -138 -28 -52 -32 -69 -32 -137 0 -100 14 -146
62 -200 77 -87 189 -111 308 -66 81 31 100 29 100 -12 0 -35 -30 -71 -80 -98
-39 -21 -203 -18 -274 5 -79 26 -156 97 -198 184 -31 64 -33 73 -33 182 0 104
3 121 27 172 42 90 134 170 228 199 14 4 76 8 138 8 l113 1 46 -43z m621 34
c12 -7 0 -77 -20 -114 -6 -12 -82 -125 -168 -251 -86 -127 -164 -242 -173
-256 l-17 -26 191 4 190 4 -3 -53 c-3 -49 -5 -54 -25 -53 -13 0 -127 1 -253 2
-187 2 -232 5 -236 16 -13 35 27 110 179 336 89 132 171 255 181 272 l19 30
-150 -7 c-83 -4 -165 -4 -182 0 -30 6 -31 9 -31 56 l0 50 243 -2 c134 0 249
-4 255 -8z m560 -43 l-3 -53 -150 0 -150 0 0 -110 0 -110 138 -3 137 -3 0 -49
0 -50 -140 0 -140 0 0 -96 c0 -142 -7 -137 164 -129 l143 8 6 -49 c3 -32 1
-52 -6 -57 -7 -4 -41 -6 -77 -3 -36 3 -127 6 -202 6 l-138 0 0 370 0 369 68 4
c37 2 131 4 210 5 l143 2 -3 -52z m616 41 c54 -15 86 -52 86 -100 0 -22 -2
-39 -5 -39 -2 0 -38 11 -79 25 -175 59 -297 19 -365 -117 -28 -54 -31 -71 -31
-147 0 -105 19 -150 83 -208 58 -51 115 -67 210 -61 55 4 86 12 125 33 29 16
55 25 59 21 10 -10 -15 -98 -34 -118 -27 -30 -84 -41 -199 -37 -95 4 -117 8
-166 32 -144 71 -218 236 -188 422 23 144 117 255 250 296 38 11 210 10 254
-2z m1002 1 l44 0 0 -354 c0 -195 -3 -361 -6 -370 -8 -20 -101 -22 -125 -3
-33 26 -162 232 -269 430 -35 64 -67 117 -72 117 -5 0 -8 -125 -8 -277 1 -313
8 -291 -77 -278 l-45 7 4 361 4 362 58 3 c33 2 64 -2 72 -9 21 -17 93 -130
184 -289 46 -80 102 -173 124 -206 l41 -61 -4 290 c-3 269 -2 289 14 283 9 -3
37 -6 61 -6z m884 -39 l0 -51 -57 -1 c-32 -1 -98 -3 -148 -5 -49 -2 -95 -4
-102 -4 -8 0 -11 -31 -10 -107 l2 -108 144 -3 c143 -3 143 -3 137 -25 -3 -12
-6 -34 -6 -49 l0 -28 -140 0 -140 0 0 -110 0 -110 161 0 160 0 -3 -52 -3 -53
-210 4 c-143 2 -212 7 -217 15 -9 14 -10 484 -2 627 l7 105 213 3 214 3 0 -51z
m-1590 -332 l0 -370 -52 3 -53 3 -3 368 -2 367 55 0 55 0 0 -371z m1020 1 l0
-371 -57 3 -58 3 -3 368 -2 367 60 0 60 0 0 -370z m-7073 324 c9 -24 -15 -150
-38 -200 -53 -111 -210 -314 -245 -314 -10 0 -14 13 -14 48 0 94 20 164 67
237 82 126 135 204 155 224 22 25 66 28 75 5z m-3931 -36 c20 -17 59 -66 86
-107 28 -42 65 -92 83 -111 37 -41 55 -108 55 -206 0 -51 -3 -64 -15 -64 -39
0 -168 155 -227 275 -27 54 -52 134 -63 203 -6 40 -6 42 19 42 14 0 41 -14 62
-32z m4039 -318 c14 -23 -88 -166 -171 -239 -96 -84 -261 -172 -298 -158 -36
14 -18 56 63 140 176 182 374 309 406 257z m-677 -425 c-5 -78 -10 -92 -58
-181 -96 -181 -186 -304 -222 -304 -27 0 -58 27 -58 50 0 32 51 173 86 240 19
36 69 110 112 165 69 89 93 109 136 114 5 1 6 -37 4 -84z m431 34 c17 -6 31
-16 31 -23 0 -19 -153 -162 -273 -254 -59 -46 -107 -87 -107 -91 0 -5 39 0 88
10 100 21 222 25 240 7 22 -22 13 -46 -30 -82 -51 -44 -122 -71 -236 -91 -110
-19 -382 -32 -382 -18 0 6 27 39 60 74 33 35 72 88 87 119 32 64 151 187 238
245 43 28 205 102 251 115 1 0 15 -5 33 -11z m-3587 -45 c97 -48 236 -144 292
-200 26 -27 64 -76 83 -109 19 -33 58 -91 85 -128 35 -47 48 -71 40 -79 -7 -7
-69 -5 -199 5 -200 16 -285 37 -379 92 -59 35 -71 58 -43 86 21 21 28 21 123
15 56 -3 120 -9 144 -12 28 -5 42 -3 42 5 0 6 -44 43 -97 83 -104 76 -219 186
-242 230 -12 23 -12 30 -1 43 19 22 66 13 152 -31z m707 -289 c158 -62 374
-225 435 -330 28 -47 36 -125 13 -125 -12 0 -166 87 -252 142 -70 45 -218 201
-248 262 -16 31 -25 61 -22 66 8 13 1 14 74 -15z m2121 12 c0 -20 -132 -178
-200 -240 -75 -68 -273 -194 -318 -203 -31 -6 -32 -5 -32 27 0 50 49 126 128
201 114 107 226 177 337 209 74 22 85 22 85 6z m317 -282 c52 -12 78 -24 98
-45 27 -28 28 -30 11 -49 -32 -35 -108 -46 -321 -46 -184 0 -204 2 -245 22
-129 62 -126 104 10 133 66 14 363 4 447 -15z m-2353 -17 c53 -20 64 -39 42
-73 -25 -39 -70 -53 -198 -65 -121 -11 -361 0 -410 19 -31 12 -47 53 -28 76
17 20 106 44 207 54 123 13 339 7 387 -11z m1879 -215 c79 -36 59 -64 -78
-111 -76 -25 -89 -27 -265 -26 -188 1 -276 15 -274 42 1 7 2 22 3 35 3 39 35
70 82 78 24 4 143 7 264 5 202 -1 224 -3 268 -23z m-1329 -18 c18 -9 42 -32
52 -50 28 -53 13 -61 -152 -80 -138 -16 -145 -16 -275 4 -140 23 -244 61 -244
91 0 8 18 24 39 34 33 16 70 21 210 25 197 7 322 -1 370 -24z m462 -51 c26 -7
43 -51 33 -88 -12 -43 -59 -106 -85 -112 -35 -9 -89 29 -113 80 -21 42 -30
106 -12 77 7 -11 10 -10 15 6 4 11 16 25 29 31 24 12 99 15 133 6z"/>
<path d="M3080 5742 c-23 -11 -42 -33 -58 -65 -23 -46 -23 -49 -7 -100 19 -64
76 -179 91 -184 15 -5 54 152 54 214 -1 55 -22 146 -36 150 -5 2 -25 -5 -44
-15z"/>
<path d="M2797 5712 c-37 -25 -77 -81 -77 -109 0 -26 25 -55 68 -77 16 -8 45
-37 65 -64 31 -43 115 -122 130 -122 3 0 0 24 -8 53 -7 28 -19 77 -25 107 -7
30 -27 82 -45 115 -17 33 -35 72 -39 88 -8 32 -29 35 -69 9z"/>
<path d="M3716 5589 c-34 -40 -42 -74 -27 -115 17 -47 74 -133 86 -130 6 1 20
27 33 57 30 73 26 154 -9 181 -13 10 -29 22 -36 28 -17 14 -18 14 -47 -21z"/>
<path d="M4545 5534 c-43 -99 -79 -208 -101 -309 -80 -362 -146 -540 -237
-640 -43 -48 -46 -49 -93 -47 -85 4 -145 -8 -169 -34 -13 -14 -33 -62 -46
-110 -17 -59 -33 -95 -53 -117 -53 -56 -116 -136 -116 -146 0 -5 7 -12 16 -15
8 -3 13 -10 9 -16 -13 -21 86 -180 113 -180 16 0 32 45 52 150 23 123 24 140
7 163 -11 16 -15 16 -32 3 -16 -12 -17 -16 -6 -30 19 -23 -3 -73 -43 -97 -55
-34 -87 -20 -47 20 11 11 25 39 31 62 17 62 67 122 129 155 30 16 67 39 82 51
48 40 93 53 188 53 84 0 92 2 106 23 14 22 29 91 56 262 13 80 38 188 67 290
10 39 24 93 30 120 6 28 20 91 31 140 25 109 52 277 46 283 -2 2 -11 -13 -20
-34z"/>
<path d="M4349 5212 c-174 -253 -262 -365 -356 -451 -37 -35 -79 -71 -93 -80
-127 -82 -380 -287 -380 -308 0 -3 31 -37 70 -76 81 -81 90 -80 116 12 22 81
39 115 79 159 81 90 191 142 301 142 39 0 55 5 71 23 55 59 166 314 202 460
39 164 37 187 -10 119z"/>
<path d="M3095 4864 c-55 -2 -203 -11 -330 -19 -289 -20 -342 -33 -408 -104
-48 -52 -63 -86 -52 -120 6 -19 14 -21 98 -21 51 1 156 9 235 19 143 18 143
18 179 55 51 53 76 47 83 -19 l5 -50 85 -22 c123 -33 154 -37 207 -24 91 22
100 29 117 84 19 62 40 206 32 214 -8 8 -124 11 -251 7z"/>
<path d="M3520 4775 c7 -8 18 -15 25 -15 18 0 40 -30 65 -87 l22 -51 -23 -31
c-13 -17 -25 -31 -28 -31 -3 0 -15 19 -25 42 -10 22 -27 43 -37 45 -11 3 -19
13 -19 22 0 9 -18 36 -40 61 -46 52 -60 45 -60 -27 0 -45 19 -73 50 -73 10 0
21 -8 24 -18 4 -10 30 -31 58 -45 l52 -27 49 51 c57 59 94 133 78 153 -6 7
-46 19 -89 26 -42 7 -85 14 -95 16 -15 3 -17 1 -7 -11z"/>
<path d="M2710 4547 c0 -7 9 -32 20 -55 11 -22 20 -45 20 -51 0 -5 14 -24 31
-41 l32 -31 -22 -15 c-50 -36 -4 -143 109 -254 42 -41 103 -91 136 -110 85
-50 200 -135 265 -197 l57 -54 4 33 c7 42 4 49 -32 73 -17 11 -92 68 -167 127
-205 159 -302 262 -319 343 -3 16 -10 35 -14 40 -4 6 -13 37 -20 70 -13 63
-35 115 -54 127 -18 12 -46 9 -46 -5z"/>
<path d="M3256 4523 c-67 -34 -68 -35 -63 -68 8 -47 -32 -77 -123 -94 l-35 -7
50 -48 c59 -58 190 -156 207 -156 18 1 79 130 85 180 7 50 -26 212 -45 224 -4
2 -38 -12 -76 -31z"/>
<path d="M2880 4351 c0 -30 80 -130 171 -213 163 -148 291 -259 296 -255 2 3
-1 33 -8 66 -15 80 -54 124 -243 274 -199 159 -216 169 -216 128z"/>
<path d="M3430 4291 c0 -11 -4 -22 -9 -25 -5 -3 -14 -44 -21 -90 -12 -83 -11
-87 14 -141 l26 -57 40 47 c66 77 66 127 0 225 -22 33 -43 60 -45 60 -3 0 -5
-9 -5 -19z"/>
<path d="M4025 4143 c-6 -5 -15 -19 -22 -34 -24 -56 33 -142 105 -155 18 -3
35 -10 38 -15 11 -19 80 -8 129 20 61 35 89 64 110 114 14 34 14 38 0 43 -8 4
-50 -5 -93 -18 -70 -23 -81 -24 -115 -12 -21 8 -51 22 -66 33 -32 23 -72 34
-86 24z"/>
<path d="M3616 4080 c-21 -53 -21 -57 11 -183 20 -76 25 -110 17 -115 -6 -4
-14 -47 -17 -97 -6 -104 11 -251 26 -236 12 12 14 228 3 286 -7 37 -6 39 8 21
9 -11 16 -31 16 -44 0 -24 1 -25 20 -7 10 9 36 41 55 70 l37 53 -34 44 c-36
47 -45 67 -72 159 -9 31 -24 64 -35 73 -18 16 -19 15 -35 -24z"/>
<path d="M3514 3932 c-28 -48 -88 -194 -105 -252 -15 -54 -13 -128 7 -235 22
-124 60 -245 75 -245 9 0 63 79 88 127 26 52 26 97 0 193 -12 46 -22 121 -25
195 -3 66 -8 150 -12 187 l-7 68 -21 -38z"/>
<path d="M3795 3773 c-32 -67 -45 -136 -45 -245 0 -119 9 -98 -101 -223 -34
-38 -77 -94 -96 -124 -34 -52 -35 -57 -30 -126 3 -40 19 -113 37 -166 34 -102
101 -253 117 -262 6 -4 31 13 57 37 42 40 61 66 36 51 -5 -3 -12 7 -16 22 -15
69 -71 201 -75 178 -6 -32 -17 120 -17 230 -1 211 18 212 32 2 4 -56 20 -119
56 -228 27 -82 50 -156 50 -164 0 -8 5 -15 10 -15 17 0 11 132 -10 235 -11 53
-20 120 -20 149 -1 28 -7 97 -14 153 -7 56 -9 107 -6 114 4 6 16 -4 29 -26 19
-33 24 -36 54 -30 17 4 39 14 49 22 34 30 30 106 -8 153 -7 8 -19 34 -27 58
-21 61 5 57 38 -5 45 -86 75 -109 75 -55 0 28 -131 294 -148 300 -5 1 -17 -14
-27 -35z"/>
<path d="M3242 3468 c-137 -157 -200 -309 -205 -489 -2 -71 16 -122 42 -117
27 5 225 231 252 288 29 61 43 143 33 196 -6 34 -7 34 -21 14 -8 -11 -32 -56
-54 -100 -41 -81 -52 -93 -63 -64 -11 28 -7 39 43 117 42 67 49 87 55 148 4
39 10 77 13 85 13 35 -22 6 -95 -78z"/>
<path d="M3995 3443 c6 -45 3 -57 -20 -97 -35 -60 -30 -79 43 -155 50 -54 62
-61 95 -61 39 0 117 33 117 49 0 5 -10 18 -23 28 -35 27 -164 189 -173 215 -4
13 -16 34 -27 48 l-19 25 7 -52z"/>
<path d="M2463 3262 c-1 -20 14 -41 62 -88 80 -79 99 -85 135 -48 64 67 48 89
-90 124 -47 12 -89 25 -95 30 -6 5 -11 -2 -12 -18z"/>
<path d="M3866 3244 c-9 -22 31 -290 55 -369 12 -38 26 -88 32 -110 7 -22 16
-44 22 -50 26 -26 134 -93 166 -104 43 -14 67 -38 107 -111 61 -108 101 -271
127 -506 15 -136 15 -154 0 -253 -27 -169 -114 -370 -225 -519 -140 -187 -423
-394 -619 -453 -23 -7 -39 -14 -37 -16 9 -9 126 -11 126 -2 0 6 4 8 9 4 11 -6
228 128 331 205 257 191 424 495 461 835 9 87 8 128 -6 243 -36 297 -109 501
-191 532 -33 13 -30 36 5 48 40 14 71 51 71 83 0 33 -15 39 -91 38 -93 -2
-111 5 -143 64 -56 103 -86 168 -96 210 -11 49 -55 175 -64 184 -3 4 -6 16 -6
29 0 26 -26 40 -34 18z"/>
<path d="M3391 3073 c-43 -45 -133 -146 -201 -225 -185 -214 -318 -355 -357
-378 -29 -17 -34 -18 -29 -5 3 9 6 24 6 32 0 8 47 64 105 123 99 101 105 110
105 149 0 75 -36 55 -215 -119 -108 -104 -165 -148 -302 -234 -24 -14 -43 -31
-43 -36 0 -15 55 -40 88 -40 15 0 66 13 113 28 46 16 128 39 181 52 81 19 105
30 152 66 90 71 334 361 413 491 46 76 80 160 69 171 -4 3 -42 -30 -85 -75z"/>
<path d="M3476 2849 c-8 -19 -24 -68 -36 -109 -11 -41 -25 -83 -31 -92 -11
-21 -12 -38 -1 -38 13 0 83 73 108 111 22 35 22 39 9 89 -19 72 -31 82 -49 39z"/>
<path d="M3291 2724 c-46 -52 -114 -129 -150 -173 -36 -43 -103 -119 -148
-168 -72 -81 -112 -133 -100 -133 3 0 31 12 63 26 131 57 385 254 417 323 8
16 10 46 7 76 -3 28 -2 69 1 93 3 23 3 44 0 46 -3 2 -44 -39 -90 -90z"/>
<path d="M3891 2694 c-14 -20 -41 -48 -60 -62 -86 -63 -125 -131 -137 -239
l-5 -42 59 29 c51 25 72 44 141 132 l81 103 -6 50 c-10 75 -35 85 -73 29z"/>
<path d="M3570 2692 c0 -4 -38 -55 -85 -112 -80 -99 -93 -122 -110 -209 l-7
-34 33 24 c19 13 76 66 128 118 l93 94 -6 44 c-6 49 -22 83 -36 83 -6 0 -10
-3 -10 -8z"/>
<path d="M4024 2566 c-18 -8 -51 -31 -74 -52 -37 -34 -42 -42 -37 -74 5 -42
151 -372 183 -416 18 -25 40 -37 106 -57 140 -43 128 -43 128 -4 0 18 -9 83
-20 143 -40 221 -83 332 -162 417 -49 53 -79 63 -124 43z"/>
<path d="M3259 2407 c-125 -88 -199 -131 -326 -186 -89 -39 -129 -52 -147 -47
-14 3 -26 11 -26 16 0 19 48 87 77 109 29 23 83 89 83 102 0 4 -39 -8 -87 -28
-49 -19 -124 -46 -167 -59 -44 -14 -81 -26 -83 -28 -7 -6 13 -43 76 -138 58
-90 66 -98 95 -98 62 0 278 31 309 44 46 19 238 233 262 291 22 52 27 75 17
75 -6 0 -43 -24 -83 -53z"/>
<path d="M1958 2391 c-32 -26 -84 -130 -104 -211 -23 -92 -14 -370 16 -485 38
-146 127 -342 213 -470 112 -165 389 -389 553 -445 59 -21 183 -28 154 -10 -8
5 -24 10 -36 10 -35 0 -222 97 -313 163 -164 117 -334 317 -427 500 -86 168
-140 414 -130 582 7 119 16 154 66 260 60 127 61 148 8 106z"/>
<path d="M3464 2348 c-126 -100 -294 -270 -294 -298 0 -39 181 -411 204 -420
38 -14 269 -43 350 -44 l80 -1 37 50 c44 57 179 297 179 317 0 17 -154 369
-176 403 -9 14 -20 25 -25 25 -4 0 -34 -36 -65 -80 -56 -78 -95 -107 -129 -94
-20 8 -19 22 6 74 32 66 39 97 26 108 -7 6 -35 13 -63 17 l-51 6 -79 -63z"/>
<path d="M2150 2306 c-80 -24 -115 -44 -133 -75 -45 -76 -63 -301 -29 -352 9
-15 71 -88 137 -164 118 -135 120 -137 155 -132 75 12 215 39 221 43 22 13
159 327 159 363 0 21 -116 211 -158 260 -35 41 -41 43 -112 52 -140 18 -194
19 -240 5z"/>
<path d="M2930 1995 c-47 -8 -106 -16 -133 -20 -45 -6 -49 -9 -72 -55 -14 -27
-38 -83 -55 -126 -17 -42 -42 -97 -55 -121 -14 -24 -25 -47 -25 -52 0 -4 35
-30 78 -56 42 -26 109 -72 149 -101 39 -30 81 -54 92 -54 11 0 69 31 128 69
60 37 134 83 165 101 32 17 60 36 63 41 3 4 -10 39 -28 76 -19 37 -54 113 -78
168 -24 55 -49 110 -57 123 -17 26 -42 27 -172 7z"/>
<path d="M4093 1898 c-5 -7 -29 -49 -53 -93 -23 -44 -71 -124 -106 -178 -35
-54 -64 -106 -64 -116 0 -22 63 -184 84 -216 15 -22 69 -45 108 -45 65 0 268
445 256 561 -3 29 -8 34 -78 59 -103 38 -135 44 -147 28z"/>
<path d="M1975 1708 c22 -77 193 -414 195 -387 1 2 7 40 15 83 12 67 12 83 0
105 -24 46 -142 177 -180 199 l-36 22 6 -22z"/>
<path d="M2445 1539 c-85 -20 -166 -51 -175 -69 -13 -25 -13 -231 0 -266 25
-65 236 -232 364 -289 l58 -26 102 40 c55 21 120 44 143 50 23 7 44 15 47 20
6 9 -66 267 -83 299 -25 47 -345 253 -390 251 -14 -1 -44 -5 -66 -10z"/>
<path d="M3280 1531 c-100 -53 -295 -181 -298 -195 -6 -27 98 -325 116 -335
17 -8 92 -20 267 -41 50 -7 97 -14 106 -16 10 -3 57 32 125 93 60 54 141 123
179 154 105 84 102 72 55 180 -22 52 -47 100 -54 107 -8 9 -64 19 -143 27 -71
8 -163 21 -204 29 -93 20 -106 20 -149 -3z"/>
<path d="M3908 1202 c-1 -4 -48 -45 -103 -91 -179 -151 -223 -192 -235 -222
-28 -66 16 -51 187 63 139 93 243 180 243 204 0 29 -81 70 -92 46z"/>
<path d="M3015 920 c-38 -9 -175 -78 -175 -89 0 -17 143 -32 350 -37 118 -3
220 -2 226 3 6 4 14 20 17 34 7 26 5 27 -55 33 -34 4 -123 20 -197 35 -81 16
-148 24 -166 21z"/>
<path d="M9013 4499 c-90 -45 -143 -150 -143 -285 0 -94 10 -126 61 -187 96
-116 272 -105 346 21 25 42 28 59 32 156 4 127 -7 174 -55 233 -64 78 -159
103 -241 62z"/>
<path d="M11515 4503 c-50 -26 -82 -62 -111 -126 -24 -54 -28 -74 -27 -158 0
-114 21 -168 85 -223 122 -105 302 -44 348 118 8 28 11 81 8 139 -4 101 -25
152 -85 209 -58 56 -156 74 -218 41z"/>
<path d="M12903 4509 c-73 -21 -137 -118 -154 -232 -27 -190 69 -327 231 -330
146 -2 232 120 217 313 -7 94 -25 138 -80 194 -58 60 -131 79 -214 55z"/>
<path d="M14614 4502 c-53 -25 -109 -92 -130 -155 -25 -74 -22 -205 6 -262 39
-80 134 -145 211 -145 39 0 122 44 156 83 44 50 56 102 51 228 -3 97 -6 110
-33 155 -61 98 -170 138 -261 96z"/>
<path d="M6927 4292 c-26 -75 -47 -142 -47 -149 0 -8 34 -13 110 -15 61 -2
110 0 110 5 0 17 -71 240 -85 267 -9 17 -21 30 -28 30 -7 0 -33 -59 -60 -138z"/>
<path d="M9687 4495 c-15 -14 -17 -46 -17 -263 0 -136 4 -254 10 -262 5 -8 31
-17 62 -20 181 -18 293 72 305 247 7 98 -7 148 -56 210 -52 66 -115 97 -212
101 -61 3 -79 1 -92 -13z"/>
<path d="M12186 4507 c-15 -11 -17 -31 -19 -145 -1 -149 0 -152 69 -152 61 0
137 26 168 59 54 56 42 153 -25 204 -57 43 -157 60 -193 34z"/>
<path d="M15303 4513 c-14 -3 -26 -15 -30 -31 -9 -35 -10 -228 -1 -237 13 -14
133 -10 163 5 47 24 78 77 72 127 -5 44 -42 105 -77 123 -23 12 -96 20 -127
13z"/>
<path d="M8271 3148 c-5 -13 -31 -89 -59 -170 l-51 -148 119 0 120 0 -6 28
c-9 39 -71 242 -83 274 -14 37 -30 43 -40 16z"/>
<path d="M10938 3203 c-29 -8 -39 -54 -36 -173 l3 -115 40 -3 c95 -8 202 41
226 106 12 30 -4 90 -33 127 -39 50 -131 77 -200 58z"/>
<path d="M13509 3191 c-22 -18 -24 -28 -27 -129 -4 -106 -3 -111 19 -122 28
-16 146 -8 177 11 52 33 66 136 26 196 -39 60 -146 84 -195 44z"/>
</g>
</svg>
