<svg width="22" height="22" viewBox="0 0 22 22" fill="none" xmlns="http://www.w3.org/2000/svg">
<path d="M11 0C8.82441 0 6.69767 0.645139 4.88873 1.85383C3.07979 3.06253 1.66989 4.78049 0.83733 6.79048C0.00476617 8.80047 -0.213071 11.0122 0.211367 13.146C0.635804 15.2798 1.68345 17.2398 3.22183 18.7782C4.76021 20.3165 6.72022 21.3642 8.85401 21.7886C10.9878 22.2131 13.1995 21.9952 15.2095 21.1627C17.2195 20.3301 18.9375 18.9202 20.1462 17.1113C21.3549 15.3023 22 13.1756 22 11C22 8.08262 20.8411 5.28472 18.7782 3.22182C16.7153 1.15893 13.9174 0 11 0V0ZM5.6452 7.9574C5.77567 7.6429 5.99929 7.37587 6.286 7.1922C6.5727 7.00854 6.90876 6.91704 7.249 6.93C8.4942 6.93 9.7394 6.93 10.989 6.93C12.2386 6.93 13.4882 6.93 14.729 6.93C15.0655 6.91569 15.3987 7.0023 15.6856 7.17871C15.9726 7.35511 16.2002 7.61326 16.3394 7.92C16.3674 7.95881 16.3856 8.00376 16.3926 8.05108C16.3996 8.0984 16.3952 8.14672 16.3797 8.19197C16.3642 8.23722 16.338 8.27809 16.3035 8.31116C16.2689 8.34422 16.2269 8.36851 16.181 8.382L11.22 10.967C11.1574 11.0029 11.0865 11.0218 11.0143 11.0218C10.9421 11.0218 10.8712 11.0029 10.8086 10.967L5.7838 8.36C5.74391 8.34811 5.70742 8.32688 5.67737 8.29806C5.64732 8.26925 5.62458 8.23368 5.61103 8.19432C5.59748 8.15496 5.59351 8.11293 5.59945 8.07172C5.6054 8.03052 5.62108 7.99133 5.6452 7.9574ZM16.4692 13.6532C16.4067 14.0522 16.2023 14.4152 15.8934 14.6756C15.5846 14.9359 15.1922 15.0759 14.7884 15.07C13.7676 15.07 12.7468 15.07 11.7282 15.07H7.2446C6.86401 15.0784 6.49163 14.9587 6.18722 14.7301C5.88282 14.5015 5.66404 14.1772 5.566 13.8094C5.52659 13.666 5.50588 13.5181 5.5044 13.3694C5.5044 12.1726 5.5044 10.9758 5.5044 9.7768C5.5044 9.4666 5.698 9.3522 5.9774 9.4952C7.5394 10.3077 9.09994 11.1217 10.659 11.9372C10.7639 11.9993 10.8836 12.0321 11.0055 12.0321C11.1274 12.0321 11.2471 11.9993 11.352 11.9372C12.9037 11.1232 14.4577 10.3165 16.0138 9.5172C16.0578 9.49155 16.1052 9.47229 16.1546 9.46C16.1966 9.44547 16.2416 9.44188 16.2854 9.44956C16.3292 9.45724 16.3703 9.47593 16.4048 9.50388C16.4394 9.53183 16.4662 9.56812 16.4829 9.60932C16.4995 9.65052 16.5054 9.69529 16.5 9.7394C16.5 10.7763 16.5 11.8125 16.5 12.848C16.5119 13.1168 16.5016 13.3861 16.4692 13.6532V13.6532Z" fill="#3FC07F"/>
</svg>
