<svg width="46" height="44" viewBox="0 0 46 44" fill="none" xmlns="http://www.w3.org/2000/svg">
<path d="M15.3718 24.3153C13.8442 24.3153 12.6887 23.9073 12.6104 23.8665C12.4145 23.8054 12.2774 23.6218 12.2383 23.4178C12.1991 23.2138 12.2774 22.9895 12.4341 22.8671C12.6691 22.6631 12.9237 22.3164 13.1783 21.8676C13.8442 20.6846 14.2163 19.2976 14.2163 17.8291V15.6262C14.373 12.0975 15.548 10.527 16.8602 9.07879C17.0756 8.83402 17.4282 8.83402 17.6632 9.05838C17.8982 9.28275 17.8982 9.64989 17.6828 9.89466C16.4881 11.2205 15.4697 12.5463 15.3522 15.6466V17.8087C15.3522 19.5016 14.9409 21.0926 14.1576 22.4592C14.0596 22.6427 13.9421 22.8059 13.8442 22.9487C15.176 23.2138 17.8003 23.3566 19.7 21.3169C19.9154 21.0926 20.2679 21.0722 20.5029 21.3169C20.7184 21.5413 20.738 21.9084 20.5029 22.1532C18.897 23.8665 16.9386 24.3153 15.3718 24.3153Z" fill="#339966"/>
<path d="M28.9439 41C28.6305 41 28.3759 40.7348 28.3759 40.4084V36.5534C28.3759 36.2271 28.6305 35.9619 28.9439 35.9619C29.2572 35.9619 29.5119 36.2271 29.5119 36.5534V40.4084C29.5119 40.7348 29.2572 41 28.9439 41Z" fill="#339966"/>
<path d="M17.3303 41C17.0169 41 16.7623 40.7348 16.7623 40.4084V36.5534C16.7623 36.2271 17.0169 35.9619 17.3303 35.9619C17.6436 35.9619 17.8982 36.2271 17.8982 36.5534V40.4084C17.8982 40.7348 17.6436 41 17.3303 41Z" fill="#339966"/>
<path d="M23.186 23.7645C21.4039 23.7645 19.8175 22.7855 18.9754 21.1129C18.8383 20.8274 18.7012 20.5418 18.5641 20.2359C18.5445 20.1951 18.5249 20.1339 18.5249 20.0727C18.3095 18.7469 18.2507 17.6455 18.3291 16.85C18.3486 16.5848 18.5641 16.3605 18.8187 16.3197C18.8774 16.3197 20.5617 16.0545 21.6976 14.2392C21.8151 14.0556 21.9914 13.9536 22.2068 13.974C22.4027 13.974 22.5985 14.1168 22.6768 14.3004C22.6768 14.3004 23.519 15.8505 27.4163 15.7078C27.7101 15.7078 27.9843 15.9525 28.0038 16.2585C28.0038 16.3197 28.0822 17.9718 27.808 20.0319C27.808 20.0727 27.808 20.0931 27.7884 20.1339C27.7884 20.1339 27.7688 20.2155 27.7297 20.3582C27.1225 22.2552 25.5558 23.5402 23.6365 23.7033C23.4994 23.7033 23.3623 23.7033 23.2252 23.7033L23.186 23.7645ZM19.6216 19.8075C19.7392 20.0727 19.8567 20.3174 19.9742 20.5622C20.6792 21.9288 22.0306 22.7039 23.519 22.5815C24.9878 22.4591 26.1825 21.4801 26.6329 20.0319C26.6525 19.9503 26.6721 19.9095 26.6721 19.8687C26.8288 18.6245 26.8679 17.5435 26.8679 16.9112C24.1848 16.9112 22.8139 16.1157 22.1676 15.5038C21.1884 16.7072 20.0329 17.1967 19.4062 17.3803C19.4062 18.0126 19.465 18.8285 19.6216 19.8075Z" fill="#339966"/>
<path d="M34.7409 40.9999H11.5332C11.2199 40.9999 10.9653 40.7347 10.9653 40.4084V32.1476C10.9653 29.2309 13.0608 26.7629 15.8418 26.3957L18.1724 26.0898C19.0341 25.9878 20.0525 25.3147 20.2092 24.4784L20.5421 22.4795C20.5813 22.2959 20.6988 22.1328 20.8555 22.0512C21.0317 21.9696 21.208 21.9696 21.3843 22.0512C22.4614 22.6835 23.8128 22.7039 24.9291 22.1124C25.0857 22.0308 25.2816 22.0308 25.4383 22.1124C25.5949 22.194 25.7125 22.3571 25.7516 22.5407L26.065 24.4988C26.2217 25.3147 27.24 25.9674 28.1018 26.0898L30.4323 26.3957C33.2133 26.7425 35.3089 29.2309 35.3089 32.1476V40.4084C35.3089 40.7347 35.0543 40.9999 34.7409 40.9999ZM12.1012 39.8169H34.173V32.1476C34.173 29.8224 32.5083 27.8439 30.2757 27.5583L27.9451 27.2524C26.6721 27.0892 25.2033 26.0898 24.9291 24.7028L24.7332 23.4586C23.6952 23.8257 22.5593 23.8053 21.5213 23.4178L21.3255 24.6824C21.0513 26.0898 19.5825 27.0892 18.3095 27.232L15.9789 27.5379C13.7659 27.8235 12.0816 29.7816 12.0816 32.1273V39.7965L12.1012 39.8169Z" fill="#339966"/>
<path d="M28.0039 11.6488C27.8864 11.6488 27.7884 11.6488 27.6709 11.5877C25.9279 10.9553 23.0294 10.9146 22.9902 10.9146C22.9902 10.9146 20.0721 10.9757 18.3291 11.5877C18.0745 11.6896 17.7807 11.6488 17.5261 11.5265C17.2715 11.3837 17.0953 11.1593 17.0169 10.8738L15.9594 7.03914C15.7635 6.30485 16.0965 5.55017 16.7623 5.22382C17.7416 4.75469 19.8371 4 22.9902 4C26.1433 4 28.2389 4.77509 29.2181 5.22382C29.884 5.52977 30.2169 6.30485 30.0211 7.03914L28.9635 10.8738C28.8852 11.1593 28.7089 11.3837 28.4543 11.5265C28.3172 11.608 28.141 11.6488 27.9843 11.6488H28.0039ZM23.0098 5.18302C20.0721 5.18302 18.1528 5.89691 17.252 6.30485C17.0953 6.38644 17.0169 6.54961 17.0757 6.73319L18.0941 10.4454C20.0134 9.79272 22.8727 9.75193 23.0098 9.75193C23.1469 9.75193 26.0258 9.81312 27.9255 10.4454L28.9439 6.73319C28.9831 6.57001 28.9048 6.38644 28.7677 6.30485C27.8864 5.87652 25.9475 5.18302 23.0098 5.18302Z" fill="#339966"/>
<path d="M30.6478 24.3153C29.1593 24.3153 27.2988 23.9277 25.732 22.3776C25.497 22.1532 25.497 21.7861 25.7124 21.5413C25.9279 21.2965 26.2804 21.2965 26.5154 21.5209C28.4151 23.377 30.9023 23.2342 32.1949 22.9691C32.097 22.8059 31.9795 22.6427 31.8816 22.4796C31.0982 21.113 30.6869 19.5016 30.6869 17.8291V15.6262C30.5498 12.5463 29.551 11.2001 28.3564 9.89466C28.1409 9.64989 28.1605 9.28275 28.3759 9.05838C28.6109 8.83402 28.9635 8.83402 29.1789 9.07879C30.4911 10.5066 31.6857 12.0975 31.8228 15.6058V17.8291C31.8228 19.2976 32.1753 20.705 32.8608 21.8676C33.1154 22.3164 33.37 22.6427 33.605 22.8671C33.7617 23.0099 33.84 23.2138 33.8009 23.4178C33.7617 23.6218 33.6246 23.8054 33.4288 23.8665C33.3308 23.9073 32.1753 24.3153 30.6673 24.3153H30.6478Z" fill="#339966"/>
<path d="M23.1273 9.11957C22.8139 9.11957 22.5593 8.85441 22.5593 8.52806V6.46797C22.5593 6.14162 22.8139 5.87646 23.1273 5.87646C23.4406 5.87646 23.6952 6.14162 23.6952 6.46797V8.52806C23.6952 8.85441 23.4406 9.11957 23.1273 9.11957Z" fill="#339966"/>
<path d="M24.1261 8.0795H22.1481C21.8347 8.0795 21.5801 7.81434 21.5801 7.48799C21.5801 7.16164 21.8347 6.89648 22.1481 6.89648H24.1261C24.4395 6.89648 24.694 7.16164 24.694 7.48799C24.694 7.81434 24.4395 8.0795 24.1261 8.0795Z" fill="#339966"/>
<path d="M18.662 34.7789H18.4857C18.1724 34.7789 17.9178 34.5138 17.9178 34.1874C17.9178 33.8611 18.1724 33.5959 18.4857 33.5959H18.662C18.7795 33.5959 18.897 33.4939 18.897 33.3511V31.8826C18.897 30.9443 18.1528 30.1692 17.2519 30.1692C16.351 30.1692 15.6068 30.9443 15.6068 31.8826V33.3511C15.6068 33.4735 15.7048 33.5959 15.8418 33.5959H16.0181C16.3315 33.5959 16.586 33.8611 16.586 34.1874C16.586 34.5138 16.3315 34.7789 16.0181 34.7789H15.8418C15.0976 34.7789 14.4905 34.1466 14.4905 33.3715V31.9029C14.4905 30.312 15.7439 29.0066 17.2715 29.0066C18.7991 29.0066 20.0525 30.312 20.0525 31.9029V33.3715C20.0525 34.1466 19.4454 34.7789 18.7012 34.7789H18.662Z" fill="#339966"/>
<path d="M17.2519 30.1693C16.9386 30.1693 16.684 29.9041 16.684 29.5778V26.7834C16.684 26.4571 16.9386 26.1919 17.2519 26.1919C17.5653 26.1919 17.8199 26.4571 17.8199 26.7834V29.5778C17.8199 29.9041 17.5653 30.1693 17.2519 30.1693Z" fill="#339966"/>
<path d="M28.9439 30.6995C28.6305 30.6995 28.3759 30.4343 28.3759 30.108V26.8037C28.3759 26.4773 28.6305 26.2122 28.9439 26.2122C29.2572 26.2122 29.5119 26.4773 29.5119 26.8037V30.108C29.5119 30.4343 29.2572 30.6995 28.9439 30.6995Z" fill="#339966"/>
<path d="M28.9439 33.2696C27.9647 33.2696 27.1617 32.4333 27.1617 31.4135C27.1617 30.3936 27.9647 29.5574 28.9439 29.5574C29.9231 29.5574 30.7261 30.3936 30.7261 31.4135C30.7261 32.4333 29.9231 33.2696 28.9439 33.2696ZM28.9439 30.7608C28.5914 30.7608 28.2976 31.0667 28.2976 31.4339C28.2976 31.801 28.5914 32.107 28.9439 32.107C29.2964 32.107 29.5902 31.801 29.5902 31.4339C29.5902 31.0667 29.2964 30.7608 28.9439 30.7608Z" fill="#339966"/>
<path d="M38.932 40.9999H7.06794C6.75459 40.9999 6.5 40.7348 6.5 40.4084C6.5 40.0821 6.75459 39.8169 7.06794 39.8169H38.932C39.2454 39.8169 39.5 40.0821 39.5 40.4084C39.5 40.7348 39.2454 40.9999 38.932 40.9999Z" fill="#339966"/>
</svg>
