<svg width="64" height="64" viewBox="0 0 64 64" fill="none" xmlns="http://www.w3.org/2000/svg">
<path d="M38 27C38.2652 27 38.5196 26.8946 38.7071 26.7071C38.8946 26.5196 39 26.2652 39 26V24C39 23.7348 38.8946 23.4804 38.7071 23.2929C38.5196 23.1054 38.2652 23 38 23C37.7348 23 37.4804 23.1054 37.2929 23.2929C37.1054 23.4804 37 23.7348 37 24V26C37 26.2652 37.1054 26.5196 37.2929 26.7071C37.4804 26.8946 37.7348 27 38 27Z" fill="#C0C0C0"/>
<path d="M39 32H37C37 33.63 34.71 35 32 35C29.29 35 27 33.63 27 32H25C25 34.8 28.07 37 32 37C35.93 37 39 34.8 39 32Z" fill="#C0C0C0"/>
<path d="M26 27C26.2652 27 26.5196 26.8946 26.7071 26.7071C26.8946 26.5196 27 26.2652 27 26V24C27 23.7348 26.8946 23.4804 26.7071 23.2929C26.5196 23.1054 26.2652 23 26 23C25.7348 23 25.4804 23.1054 25.2929 23.2929C25.1054 23.4804 25 23.7348 25 24V26C25 26.2652 25.1054 26.5196 25.2929 26.7071C25.4804 26.8946 25.7348 27 26 27Z" fill="#C0C0C0"/>
<path d="M40.51 40.34C43.6985 38.1394 45.9156 34.794 46.7 31H47.5C48.6929 30.9981 49.8364 30.5234 50.6799 29.6799C51.5234 28.8364 51.9981 27.6929 52 26.5C52.0037 25.9101 51.8888 25.3255 51.662 24.7809C51.4352 24.2363 51.1013 23.7429 50.68 23.33C50.2072 22.8544 49.6328 22.492 49 22.27V19C49 14.4913 47.2089 10.1673 44.0208 6.97918C40.8327 3.79107 36.5087 2 32 2C27.4913 2 23.1673 3.79107 19.9792 6.97918C16.7911 10.1673 15 14.4913 15 19V22.27C14.1247 22.5795 13.3665 23.1521 12.8294 23.9094C12.2923 24.6667 12.0026 25.5716 12 26.5C12.0019 27.6929 12.4766 28.8364 13.3201 29.6799C14.1636 30.5234 15.3071 30.9981 16.5 31H17.31C17.9086 33.8767 19.3254 36.5193 21.39 38.61C22.036 39.2493 22.7389 39.8283 23.49 40.34C20.7423 40.9895 18.2783 42.5098 16.4653 44.6742C14.6523 46.8386 13.5876 49.531 13.43 52.35L13 60.95C12.9953 61.0857 13.0177 61.2211 13.0657 61.3481C13.1138 61.4751 13.1866 61.5914 13.28 61.69C13.372 61.7887 13.4835 61.8672 13.6075 61.9205C13.7314 61.9739 13.8651 62.001 14 62H50C50.1349 62.001 50.2686 61.9739 50.3925 61.9205C50.5165 61.8672 50.628 61.7887 50.72 61.69C50.8134 61.5914 50.8862 61.4751 50.9343 61.3481C50.9823 61.2211 51.0047 61.0857 51 60.95L50.57 52.35C50.414 49.5305 49.3498 46.8373 47.5366 44.6726C45.7234 42.5079 43.2584 40.988 40.51 40.34ZM47 28V24H47.5C48.1623 24.0024 48.7968 24.2665 49.2651 24.7349C49.7335 25.2032 49.9976 25.8377 50 26.5C50 27.163 49.7366 27.7989 49.2678 28.2678C48.7989 28.7366 48.163 29 47.5 29H46.95C46.97 28.67 47 28.34 47 28ZM16.5 29C15.837 29 15.2011 28.7366 14.7322 28.2678C14.2634 27.7989 14 27.163 14 26.5C14.0024 25.8377 14.2665 25.2032 14.7349 24.7349C15.2032 24.2665 15.8377 24.0024 16.5 24H17V28C17 28.33 17.01 28.66 17.03 29H16.5ZM22.81 37.19C21.5987 35.9863 20.6383 34.5542 19.9843 32.9767C19.3303 31.3992 18.9957 29.7077 19 28V23.2L21.07 18.38L22.11 20.45C22.1909 20.6166 22.3176 20.7568 22.4752 20.8542C22.6328 20.9516 22.8148 21.0021 23 21H25V19H27V21H29V19H31V21H33V19H35V21H37V19H39V21H41C41.185 21.0008 41.3664 20.9497 41.5238 20.8525C41.6811 20.7552 41.808 20.6158 41.89 20.45L42.93 18.38L45 23.2V28C44.9991 30.5705 44.2361 33.083 42.8076 35.2199C41.3791 37.3569 39.3491 39.0224 36.9742 40.0059C34.5994 40.9895 31.9863 41.2469 29.4651 40.7457C26.944 40.2445 24.6281 39.0071 22.81 37.19ZM20.11 60H15.05L15.4 53H20.88L20.11 60ZM25 46C24.4701 45.9984 23.9623 45.7872 23.5875 45.4125C23.2128 45.0377 23.0016 44.5299 23 44V42.55C23.679 42.3251 24.3793 42.1709 25.09 42.09C25.3263 43.5763 26.0345 44.9472 27.11 46H25ZM32 46C30.8831 45.9986 29.7991 45.6224 28.9215 44.9316C28.0439 44.2407 27.4236 43.2753 27.16 42.19C28.7185 42.7217 30.3533 42.9953 32 43C33.6476 42.9961 35.2831 42.719 36.84 42.18C36.5787 43.2673 35.9593 44.2352 35.0814 44.9281C34.2036 45.6209 33.1183 45.9984 32 46ZM41 43C40.9976 43.7949 40.6808 44.5566 40.1187 45.1187C39.5566 45.6808 38.7949 45.9976 38 46H36.89C37.9655 44.9472 38.6737 43.5763 38.91 42.09C39.6207 42.1709 40.321 42.3251 41 42.55V43ZM43.9 60L43.12 53H48.6L48.95 60H43.9Z" fill="#C0C0C0"/>
</svg>
