<svg width="65" height="64" viewBox="0 0 65 64" fill="none" xmlns="http://www.w3.org/2000/svg">
<path d="M38.3333 25C38.0681 25 37.8138 25.1054 37.6262 25.2929C37.4387 25.4804 37.3333 25.7348 37.3333 26V28C37.3333 28.2652 37.4387 28.5196 37.6262 28.7071C37.8138 28.8946 38.0681 29 38.3333 29C38.5986 29 38.8529 28.8946 39.0404 28.7071C39.228 28.5196 39.3333 28.2652 39.3333 28V26C39.3333 25.7348 39.228 25.4804 39.0404 25.2929C38.8529 25.1054 38.5986 25 38.3333 25Z" fill="#C0C0C0"/>
<path d="M32.3333 53C32.8856 53 33.3333 52.5523 33.3333 52C33.3333 51.4477 32.8856 51 32.3333 51C31.7811 51 31.3333 51.4477 31.3333 52C31.3333 52.5523 31.7811 53 32.3333 53Z" fill="#C0C0C0"/>
<path d="M32.3333 57C32.8856 57 33.3333 56.5523 33.3333 56C33.3333 55.4477 32.8856 55 32.3333 55C31.7811 55 31.3333 55.4477 31.3333 56C31.3333 56.5523 31.7811 57 32.3333 57Z" fill="#C0C0C0"/>
<path d="M32.3333 37C29.6233 37 27.3333 35.63 27.3333 34H25.3333C25.3333 36.8 28.4133 39 32.3333 39C36.2533 39 39.3333 36.8 39.3333 34H37.3333C37.3333 35.63 35.0433 37 32.3333 37Z" fill="#C0C0C0"/>
<path d="M26.3333 29C26.5986 29 26.8529 28.8946 27.0404 28.7071C27.228 28.5196 27.3333 28.2652 27.3333 28V26C27.3333 25.7348 27.228 25.4804 27.0404 25.2929C26.8529 25.1054 26.5986 25 26.3333 25C26.0681 25 25.8138 25.1054 25.6262 25.2929C25.4387 25.4804 25.3333 25.7348 25.3333 26V28C25.3333 28.2652 25.4387 28.5196 25.6262 28.7071C25.8138 28.8946 26.0681 29 26.3333 29Z" fill="#C0C0C0"/>
<path d="M58.3333 11C58.3312 9.14414 57.593 7.36489 56.2807 6.05259C54.9684 4.7403 53.1892 4.00212 51.3333 4C49.7506 3.99484 48.2144 4.53516 46.9833 5.53C44.2855 3.24885 40.8663 1.99808 37.3333 2H28.3333C24.3566 2.00477 20.544 3.58665 17.732 6.39866C14.92 9.21068 13.3381 13.0232 13.3333 17V18C13.3311 20.2472 14.0226 22.4404 15.3133 24.28C14.6907 24.4952 14.1261 24.8511 13.6633 25.32C13.2393 25.7335 12.903 26.2282 12.6745 26.7745C12.4459 27.3209 12.3299 27.9078 12.3333 28.5C12.3352 29.6929 12.8099 30.8364 13.6534 31.6799C14.4969 32.5235 15.6404 32.9981 16.8333 33H17.6333C18.4152 36.7976 20.6372 40.145 23.8333 42.34C21.0839 42.9807 18.6164 44.4955 16.8007 46.6573C14.9851 48.8191 13.9194 51.5113 13.7633 54.33L13.3333 60.94C13.3263 61.076 13.3469 61.212 13.3939 61.3399C13.4409 61.4677 13.5133 61.5847 13.6068 61.6837C13.7002 61.7828 13.8128 61.8619 13.9377 61.9163C14.0626 61.9706 14.1971 61.9991 14.3333 62H50.3333C50.4695 61.9991 50.6041 61.9706 50.729 61.9163C50.8539 61.8619 50.9664 61.7828 51.0599 61.6837C51.1533 61.5847 51.2258 61.4677 51.2728 61.3399C51.3198 61.212 51.3404 61.076 51.3333 60.94L50.9033 54.35C50.7494 51.5284 49.6848 48.8327 47.8692 46.6673C46.0536 44.502 43.5849 42.9836 40.8333 42.34C41.6209 41.7987 42.3543 41.1825 43.0233 40.5C45.9834 42.7654 49.6059 43.9952 53.3333 44H54.3333C54.5038 43.9995 54.6713 43.9554 54.8199 43.8719C54.9686 43.7885 55.0934 43.6684 55.1826 43.5231C55.2717 43.3778 55.3223 43.2122 55.3294 43.0419C55.3366 42.8715 55.3 42.7022 55.2233 42.55L52.8633 37.83C52.5165 37.1306 52.3352 36.3607 52.3333 35.58V17.92C53.9979 17.6797 55.5204 16.8482 56.6222 15.5775C57.7239 14.3068 58.3314 12.6818 58.3333 11ZM16.8333 31C16.1703 31 15.5344 30.7366 15.0656 30.2678C14.5967 29.7989 14.3333 29.163 14.3333 28.5C14.3359 27.8429 14.596 27.213 15.0578 26.7456C15.5196 26.2782 16.1463 26.0105 16.8033 26C16.9733 26.16 17.1533 26.3 17.3333 26.45V30C17.3333 30.34 17.3633 30.67 17.3833 31H16.8333ZM20.4633 60H15.4033L15.7233 55H21.1833L20.4633 60ZM49.2633 60H44.2033L43.4833 55H48.9433L49.2633 60ZM41.3333 48V46C41.3317 45.48 41.2473 44.9635 41.0833 44.47C43.0124 45.062 44.7434 46.1693 46.0897 47.6724C47.436 49.1755 48.3466 51.0176 48.7233 53H42.3333C42.19 53.0011 42.0485 53.0319 41.9177 53.0904C41.7869 53.1489 41.6697 53.2339 41.5733 53.34C41.4801 53.4492 41.4114 53.5771 41.3717 53.7151C41.332 53.8531 41.3224 53.998 41.3433 54.14L42.1833 60H22.4833L23.3233 54.14C23.3443 53.998 23.3346 53.8531 23.295 53.7151C23.2553 53.5771 23.1865 53.4492 23.0933 53.34C22.997 53.2339 22.8798 53.1489 22.749 53.0904C22.6181 53.0319 22.4766 53.0011 22.3333 53H15.9433C16.3199 51.0175 17.2304 49.1754 18.5767 47.6722C19.923 46.169 21.6541 45.0618 23.5833 44.47C23.4193 44.9635 23.335 45.48 23.3333 46V48C23.3333 48.2652 23.4387 48.5196 23.6262 48.7071C23.8138 48.8946 24.0681 49 24.3333 49H28.3333C29.1122 48.997 29.8795 48.8118 30.5741 48.4594C31.2686 48.1069 31.8711 47.5969 32.3333 46.97C32.7956 47.5969 33.3981 48.1069 34.0926 48.4594C34.7871 48.8118 35.5545 48.997 36.3333 49H40.3333C40.5986 49 40.8529 48.8946 41.0404 48.7071C41.228 48.5196 41.3333 48.2652 41.3333 48ZM32.3333 43C28.8865 42.9968 25.5817 41.6262 23.1445 39.1889C20.7072 36.7516 19.3365 33.4468 19.3333 30V20.47L21.0633 19.03C21.9861 19.6152 23.0489 19.9425 24.141 19.9776C25.2332 20.0128 26.3148 19.7546 27.2733 19.23C27.8166 20.0792 28.5649 20.7779 29.4491 21.2619C30.3334 21.746 31.3253 21.9996 32.3333 21.9996C33.3414 21.9996 34.3333 21.746 35.2175 21.2619C36.1018 20.7779 36.8501 20.0792 37.3933 19.23C38.3519 19.7545 39.4335 20.0126 40.5256 19.9775C41.6178 19.9423 42.6805 19.6151 43.6033 19.03L45.3333 20.47V30C45.3302 33.4468 43.9595 36.7516 41.5222 39.1889C39.0849 41.6262 35.7802 42.9968 32.3333 43Z" fill="#C0C0C0"/>
</svg>
