<svg width="46" height="44" viewBox="0 0 46 44" fill="none" xmlns="http://www.w3.org/2000/svg">
<path d="M22.7401 40.9802C22.5614 40.9802 22.4026 40.9802 22.2239 40.9603C20.1989 40.742 18.5512 39.1146 18.2931 37.1102C18.1541 36.0385 18.3924 34.9669 18.9681 34.0738H12.655C11.841 34.0738 11.166 33.399 11.166 32.5854V26.2744C10.4513 26.7308 9.61754 26.9888 8.74402 26.9888C7.45361 26.9888 6.2426 26.4331 5.38894 25.4805C4.53528 24.5279 4.13823 23.238 4.2772 21.9678C4.49558 19.9634 6.12348 18.2964 8.12859 18.0384C9.20063 17.8994 10.2727 18.1376 11.166 18.7131V12.4021C11.166 11.5885 11.841 10.9137 12.655 10.9137H18.9681C18.5115 10.1992 18.2534 9.36572 18.2534 8.4925C18.2534 7.20252 18.8093 5.99193 19.7622 5.13856C20.7151 4.28518 22.0055 3.88827 23.2761 4.02719C25.2812 4.24549 26.9488 5.87285 27.2069 7.87728C27.3459 8.94896 27.1076 10.0206 26.5319 10.9137H32.845C33.659 10.9137 34.334 11.5885 34.334 12.4021V18.7131C35.2273 18.1376 36.2994 17.8994 37.3714 18.0384C39.3765 18.3162 41.0044 19.9634 41.2228 21.9678C41.3618 23.2578 40.9647 24.5279 40.1111 25.4805C39.2574 26.4331 38.0265 26.9888 36.756 26.9888C35.8825 26.9888 35.0487 26.7308 34.334 26.2744V32.5854C34.334 33.399 33.659 34.0738 32.845 34.0738H26.5319C26.9885 34.7882 27.2466 35.6218 27.2466 36.495C27.2466 37.785 26.6907 38.9956 25.7378 39.8489C24.904 40.5832 23.832 41 22.7202 41L22.7401 40.9802ZM11.7219 24.4287C11.7219 24.4287 11.8609 24.4287 11.9204 24.4684C12.1388 24.5478 12.2976 24.7661 12.2976 25.0042V32.5655C12.2976 32.764 12.4564 32.9029 12.6351 32.9029H20.1989C20.4372 32.9029 20.6556 33.0617 20.735 33.28C20.8144 33.4983 20.735 33.7563 20.5761 33.915C19.7026 34.6692 19.2659 35.7805 19.4247 36.9316C19.6232 38.42 20.8541 39.6306 22.3629 39.8092C23.3356 39.9085 24.2687 39.6306 25.0033 38.9757C25.718 38.3407 26.1349 37.4277 26.1349 36.4751C26.1349 35.5225 25.6981 34.5501 24.9437 33.915C24.765 33.7563 24.6856 33.4983 24.7849 33.28C24.8643 33.0617 25.0827 32.9029 25.3209 32.9029H32.8847C33.0833 32.9029 33.2222 32.7441 33.2222 32.5655V25.0042C33.2222 24.7661 33.381 24.5478 33.5994 24.4684C33.8178 24.389 34.0759 24.4684 34.2347 24.6272C34.87 25.3813 35.8031 25.8179 36.7957 25.8179C37.7883 25.8179 38.6618 25.4012 39.2971 24.6867C39.9522 23.9723 40.2302 23.0395 40.1309 22.0671C39.9522 20.5588 38.7611 19.3283 37.2523 19.1299C36.1008 18.9711 34.9693 19.4077 34.2347 20.2809C34.0759 20.4595 33.8178 20.5389 33.5994 20.4397C33.381 20.3603 33.2222 20.142 33.2222 19.9039V12.3426C33.2222 12.1441 33.0634 12.0052 32.8847 12.0052H25.3209C25.0827 12.0052 24.8643 11.8465 24.7849 11.6281C24.7055 11.4098 24.7849 11.1518 24.9437 10.9931C25.8172 10.2389 26.254 9.12757 26.0952 7.97651C25.8966 6.48807 24.6658 5.27748 23.157 5.09886C22.1842 4.97979 21.2511 5.27748 20.5364 5.93239C19.8217 6.56746 19.4048 7.48037 19.4048 8.43297C19.4048 9.38557 19.8416 10.358 20.596 10.9931C20.7747 11.1518 20.8541 11.4098 20.7548 11.6281C20.6754 11.8465 20.457 12.0052 20.2188 12.0052H12.655C12.4564 12.0052 12.3175 12.164 12.3175 12.3426V19.9039C12.3175 20.142 12.1587 20.3603 11.9403 20.4397C11.7219 20.5191 11.4638 20.4397 11.305 20.2809C10.5506 19.4077 9.41901 18.9711 8.28741 19.1299C6.79847 19.3283 5.58747 20.5588 5.40879 22.0671C5.28968 23.0395 5.58746 23.9723 6.2426 24.6867C6.87788 25.4012 7.7911 25.8179 8.74402 25.8179C9.69695 25.8179 10.6697 25.3813 11.305 24.6272C11.4241 24.4883 11.5829 24.4287 11.7418 24.4287H11.7219Z" fill="#339966"/>
<path d="M16.5858 31.1168C16.5858 31.1168 16.427 31.1169 16.3674 31.0772C16.2086 31.0176 16.0895 30.8787 16.0498 30.7199C15.9307 30.3627 13.3895 21.829 17.8762 17.582C18.1144 17.3637 18.4718 17.3637 18.6902 17.6018C18.9085 17.84 18.8887 18.1972 18.6703 18.4155C15.3351 21.5908 16.5262 27.8224 17.0027 29.7872C17.6181 29.5689 18.4122 29.3903 19.0276 29.2712C19.3254 29.2116 19.6431 29.4101 19.7026 29.7078C19.7622 30.0253 19.5637 30.323 19.2659 30.3826C18.1343 30.6207 17.3005 30.8589 16.8836 31.0772C16.8042 31.1169 16.7247 31.1367 16.6255 31.1367L16.5858 31.1168Z" fill="#339966"/>
<path d="M29.212 31.1169C29.073 31.1169 28.9539 31.0772 28.8547 30.9978C28.8547 30.9978 27.9414 30.2635 26.6709 29.9658C26.3731 29.8864 26.1746 29.5887 26.254 29.2712C26.3334 28.9735 26.6312 28.7751 26.9488 28.8545C27.7032 29.0331 28.3385 29.3308 28.7951 29.6086C29.5892 24.3693 28.9142 20.4994 26.8496 18.3758C26.6312 18.1575 26.6312 17.7805 26.8496 17.5622C27.0679 17.3439 27.4451 17.3439 27.6635 17.5622C30.1451 20.1024 30.8598 24.5082 29.7877 30.6406C29.748 30.839 29.6091 30.9978 29.4304 31.0772C29.3708 31.097 29.2914 31.1169 29.2319 31.1169H29.212Z" fill="#339966"/>
<path d="M22.6011 29.9062C22.482 29.9062 22.3629 29.9062 22.2438 29.9062C20.596 29.7673 19.246 28.7154 18.71 27.1476C18.6703 27.0285 18.6504 26.9492 18.6504 26.9293C18.4122 25.1829 18.4718 23.8532 18.4718 23.7937C18.4718 23.496 18.71 23.2777 19.0078 23.2578C20.8144 23.1189 21.946 20.9756 21.946 20.9557C22.0452 20.7573 22.2438 20.6382 22.4621 20.6382C22.6805 20.6382 22.879 20.7573 22.9783 20.9557C24.0106 23.0594 26.3532 23.7341 26.3731 23.7341C26.6113 23.7937 26.7701 23.9921 26.79 24.2303C26.8496 24.8852 26.79 25.7783 26.6113 26.8499C26.6113 26.9095 26.5915 26.9492 26.5716 27.0087C26.4724 27.2667 26.3532 27.5048 26.2341 27.7232C25.4996 29.0925 24.1496 29.9062 22.6011 29.9062ZM19.7622 26.6515C19.7622 26.6515 19.7622 26.711 19.8019 26.7706C20.1791 27.9018 21.1519 28.6559 22.343 28.7551C23.2959 28.8345 24.5467 28.4574 25.2216 27.1873C25.3209 27.0087 25.4202 26.8102 25.4996 26.5919C25.6187 25.8378 25.6782 25.2027 25.6782 24.7066C24.9636 24.4486 23.4746 23.7341 22.4423 22.2854C21.8864 23.0197 20.9335 24.012 19.6034 24.3097C19.6034 24.8058 19.6232 25.679 19.7622 26.6515Z" fill="#339966"/>
<path d="M26.4326 20.2611C26.4326 20.2611 26.2738 20.2611 26.1944 20.2015C24.8444 19.5863 22.7599 19.5268 22.7401 19.5268C22.7401 19.5268 20.6556 19.5863 19.3056 20.2015C19.0276 20.3405 18.6901 20.2015 18.5512 19.9237L16.6255 15.8355C16.5064 15.5775 16.5858 15.2798 16.824 15.121C16.9034 15.0615 18.8887 13.7715 22.7599 13.7715C26.6312 13.7715 28.5966 15.0615 28.6958 15.121C28.9341 15.2798 29.0135 15.5775 28.8944 15.8355L26.9687 19.9237C26.8694 20.1222 26.6709 20.2611 26.4525 20.2611H26.4326ZM22.7401 18.3956C22.8393 18.3956 24.6459 18.4353 26.1349 18.9513L27.604 15.8355C26.8694 15.4981 25.2415 14.9027 22.7401 14.9027C20.2386 14.9027 18.6107 15.4981 17.8762 15.8355L19.3453 18.9513C20.8541 18.4353 22.6408 18.3956 22.7202 18.3956H22.7401Z" fill="#339966"/>
<path d="M22.6408 18.0979C22.3232 18.0979 22.0651 17.8399 22.0651 17.5224V15.8553C22.0651 15.5378 22.3232 15.2798 22.6408 15.2798C22.9585 15.2798 23.2165 15.5378 23.2165 15.8553V17.5224C23.2165 17.8399 22.9585 18.0979 22.6408 18.0979Z" fill="#339966"/>
<path d="M23.4746 17.2643H21.807C21.4894 17.2643 21.2313 17.0063 21.2313 16.6888C21.2313 16.3713 21.4894 16.1133 21.807 16.1133H23.4746C23.7923 16.1133 24.0503 16.3713 24.0503 16.6888C24.0503 17.0063 23.7923 17.2643 23.4746 17.2643Z" fill="#339966"/>
</svg>
