<svg width="22" height="22" viewBox="0 0 22 22" fill="none" xmlns="http://www.w3.org/2000/svg">
<path d="M11 0.200195C5.072 0.200195 0.247999 5.0242 0.199999 10.9282C0.175999 13.8082 1.28 16.5442 3.32 18.5842C5.336 20.6482 8.048 21.7762 10.928 21.8002H11C16.928 21.8002 21.752 16.9762 21.8 11.0722C21.848 5.12019 17.024 0.248195 11 0.200195ZM16.232 14.6002L15.776 15.0562L15.752 15.0802C14.96 15.8722 14.288 16.0642 13.232 15.7522C12.128 15.4162 11.144 14.8162 10.256 14.0962C8.984 13.0642 7.616 11.7202 6.728 10.3282C5.84 8.8882 5.552 7.37619 6.8 6.12819L6.824 6.1042L7.28 5.6482C7.616 5.3122 8.168 5.3122 8.528 5.6482L9.944 7.06419C10.28 7.40019 10.28 7.95219 9.944 8.31219L9.104 9.15219L9.128 9.1762C10.064 10.5922 11.288 11.8162 12.704 12.7522L12.728 12.7762L13.568 11.9362C13.904 11.6002 14.456 11.6002 14.816 11.9362L16.232 13.3522C16.592 13.7122 16.592 14.2642 16.232 14.6002Z" fill="#3FC07F"/>
</svg>
