<svg width="45" height="44" viewBox="0 0 45 44" fill="none" xmlns="http://www.w3.org/2000/svg">
<path d="M38.9845 39H4.97567C4.43806 39 4 38.5544 4 38.0076V7.58734C4 7.26329 4.25887 7 4.57745 7H9.01771C9.33629 7 9.59516 7.26329 9.59516 7.58734V27.7797H34.4049V7.58734C34.4049 7.26329 34.6637 7 34.9823 7H39.4226C39.7412 7 40 7.26329 40 7.58734V38.0076C40 38.5544 39.562 39 39.0244 39H38.9845ZM5.13497 37.8253H38.8252V8.15443H35.5398V28.3468C35.5398 28.6709 35.281 28.9342 34.9624 28.9342H8.99781C8.67922 28.9342 8.42036 28.6709 8.42036 28.3468V8.15443H5.13497V37.8253Z" fill="#339966"/>
<path d="M32.4336 28.9341H11.5265C11.208 28.9341 10.9491 28.6708 10.9491 28.3467V19.01C10.9491 18.2201 11.5664 17.5923 12.3429 17.5923H23.2345C24.0111 17.5923 24.6283 18.2201 24.6283 19.01V19.7391C24.6283 19.8809 24.7478 19.9822 24.8673 19.9822H31.9956C32.5332 19.9822 32.9712 20.4277 32.9712 20.9746V28.3467C32.9712 28.6708 32.7124 28.9341 32.3938 28.9341H32.4336ZM12.104 27.7594H31.8562V21.1366H24.8872C24.1106 21.1366 23.4934 20.5087 23.4934 19.7189V18.9898C23.4934 18.848 23.3739 18.7467 23.2544 18.7467H12.3629C12.2235 18.7467 12.1239 18.8682 12.1239 18.9898V27.7594H12.104Z" fill="#339966"/>
<path d="M32.4336 15.1215C32.115 15.1215 31.8562 14.8582 31.8562 14.5342V12.4076H24.8872C24.1106 12.4076 23.4934 11.7797 23.4934 10.9899V10.2607C23.4934 10.119 23.3739 10.0177 23.2544 10.0177H12.3629C12.2235 10.0177 12.1239 10.1392 12.1239 10.2607V12.2455C12.1239 12.5696 11.8651 12.8329 11.5465 12.8329C11.2279 12.8329 10.969 12.5696 10.969 12.2455V10.2607C10.969 9.47087 11.5863 8.84302 12.3629 8.84302H23.2544C24.031 8.84302 24.6482 9.47087 24.6482 10.2607V10.9899C24.6482 11.1316 24.7677 11.2329 24.8872 11.2329H32.0155C32.5531 11.2329 32.9912 11.6785 32.9912 12.2253V14.5139C32.9912 14.838 32.7323 15.1012 32.4137 15.1012L32.4336 15.1215Z" fill="#339966"/>
<path d="M32.4336 19.7999C32.115 19.7999 31.8562 19.5366 31.8562 19.2126V16.9847H24.8872C24.1106 16.9847 23.4934 16.3569 23.4934 15.567V14.8379C23.4934 14.6961 23.3739 14.5948 23.2544 14.5948H12.3629C12.2235 14.5948 12.1239 14.7164 12.1239 14.8379V16.5797C12.1239 16.9037 11.8651 17.167 11.5465 17.167C11.2279 17.167 10.969 16.9037 10.969 16.5797V14.8379C10.969 14.048 11.5863 13.4202 12.3629 13.4202H23.2544C24.031 13.4202 24.6482 14.048 24.6482 14.8379V15.567C24.6482 15.7088 24.7677 15.81 24.8872 15.81H32.0155C32.5531 15.81 32.9912 16.2556 32.9912 16.8024V19.1923C32.9912 19.5164 32.7323 19.7797 32.4137 19.7797L32.4336 19.7999Z" fill="#339966"/>
<path d="M27.0376 23.8507H14.7323C14.4137 23.8507 14.1549 23.5874 14.1549 23.2634C14.1549 22.9393 14.4137 22.676 14.7323 22.676H27.0376C27.3562 22.676 27.615 22.9393 27.615 23.2634C27.615 23.5874 27.3562 23.8507 27.0376 23.8507Z" fill="#339966"/>
<path d="M27.0376 26.119H14.7323C14.4137 26.119 14.1549 25.8557 14.1549 25.5317C14.1549 25.2076 14.4137 24.9443 14.7323 24.9443H27.0376C27.3562 24.9443 27.615 25.2076 27.615 25.5317C27.615 25.8557 27.3562 26.119 27.0376 26.119Z" fill="#339966"/>
<path d="M36.1571 34.3619H7.80311C7.48452 34.3619 7.22569 34.0987 7.22569 33.7746C7.22569 33.4505 7.48452 33.1873 7.80311 33.1873H36.1571C36.4757 33.1873 36.7345 33.4505 36.7345 33.7746C36.7345 34.0987 36.4757 34.3619 36.1571 34.3619Z" fill="#339966"/>
</svg>
