<svg width="46" height="44" viewBox="0 0 46 44" fill="none" xmlns="http://www.w3.org/2000/svg">
<path d="M31.1928 39.9803H14.3272C12.8719 39.9803 11.6957 38.8207 11.6957 37.3861V21.467C11.6957 20.3271 12.1741 19.2265 13.0314 18.46L16.2609 15.6103V12.6427C16.2609 12.3282 16.5201 12.0728 16.8391 12.0728H28.7008C29.0198 12.0728 29.2789 12.3282 29.2789 12.6427V15.6103L32.5085 18.46C33.3657 19.2462 33.8442 20.3467 33.8442 21.4866V37.4057C33.8442 38.8404 32.668 39.9999 31.2127 39.9999L31.1928 39.9803ZM17.3973 13.193V15.8462C17.3973 16.0034 17.3375 16.1606 17.1979 16.2589L13.7889 19.2658C13.1908 19.8161 12.832 20.6219 12.832 21.4473V37.3664C12.832 38.1722 13.4899 38.8404 14.3272 38.8404H31.1928C32.0101 38.8404 32.688 38.1722 32.688 37.3664V21.4473C32.688 20.6219 32.3291 19.8358 31.731 19.2658L28.322 16.2589C28.2024 16.1606 28.1227 16.0034 28.1227 15.8462V13.193H17.3973Z" fill="#339966"/>
<path d="M30.4352 13.1734H15.0847C14.7658 13.1734 14.5066 12.9179 14.5066 12.6035V8.59422C14.5066 7.15954 15.6828 6 17.1381 6H28.3619C29.8172 6 30.9934 7.15954 30.9934 8.59422V12.6035C30.9934 12.9179 30.7343 13.1734 30.4153 13.1734H30.4352ZM15.6629 12.0335H29.8571V8.59422C29.8571 7.78844 29.1793 7.12023 28.3619 7.12023H17.1381C16.3208 7.12023 15.6429 7.78844 15.6429 8.59422V12.0335H15.6629Z" fill="#339966"/>
<path d="M23.6172 16.3965H16.8191C16.5002 16.3965 16.241 16.141 16.241 15.8265C16.241 15.5121 16.5002 15.2566 16.8191 15.2566H23.6172C23.9362 15.2566 24.1953 15.5121 24.1953 15.8265C24.1953 16.141 23.9362 16.3965 23.6172 16.3965Z" fill="#339966"/>
<path d="M28.8005 35.6568H16.7194C15.8423 35.6568 15.1047 34.9492 15.1047 34.0649V23.3146C15.1047 22.4498 15.8223 21.7227 16.7194 21.7227H28.8005C29.6776 21.7227 30.4153 22.4302 30.4153 23.3146V34.0649C30.4153 34.9296 29.6976 35.6568 28.8005 35.6568ZM16.7194 22.8822C16.4603 22.8822 16.2609 23.0787 16.2609 23.3342V34.0845C16.2609 34.34 16.4603 34.5365 16.7194 34.5365H28.8005C29.0596 34.5365 29.259 34.34 29.259 34.0845V23.3342C29.259 23.0787 29.0596 22.8822 28.8005 22.8822H16.7194Z" fill="#339966"/>
<path d="M24.1555 33.082H21.3645C21.0455 33.082 20.7864 32.8265 20.7864 32.512V30.645H18.8925C18.5735 30.645 18.3143 30.3895 18.3143 30.075V27.3236C18.3143 27.0091 18.5735 26.7536 18.8925 26.7536H20.7864V24.8866C20.7864 24.5721 21.0455 24.3167 21.3645 24.3167H24.1555C24.4745 24.3167 24.7336 24.5721 24.7336 24.8866V26.7536H26.6275C26.9465 26.7536 27.2056 27.0091 27.2056 27.3236V30.075C27.2056 30.3895 26.9465 30.645 26.6275 30.645H24.7336V32.512C24.7336 32.8265 24.4745 33.082 24.1555 33.082ZM21.9426 31.9421H23.5973V30.075C23.5973 29.7606 23.8564 29.5051 24.1754 29.5051H26.0693V27.8739H24.1754C23.8564 27.8739 23.5973 27.6184 23.5973 27.3039V25.4369H21.9426V27.3039C21.9426 27.6184 21.6834 27.8739 21.3645 27.8739H19.4706V29.5051H21.3645C21.6834 29.5051 21.9426 29.7606 21.9426 30.075V31.9421Z" fill="#339966"/>
<path d="M37.6719 39.9805H7.82815C7.50918 39.9805 7.25 39.725 7.25 39.4105C7.25 39.0961 7.50918 38.8406 7.82815 38.8406H37.6719C37.9909 38.8406 38.25 39.0961 38.25 39.4105C38.25 39.725 37.9909 39.9805 37.6719 39.9805Z" fill="#339966"/>
</svg>
