<svg width="45" height="44" viewBox="0 0 45 44" fill="none" xmlns="http://www.w3.org/2000/svg">
<path d="M32.0622 41.0001H11.8974C10.8478 41.0001 10 40.1559 10 39.1107V12.0152C10 10.97 10.8478 10.1257 11.8974 10.1257H15.9546C16.2775 10.1257 16.5399 10.387 16.5399 10.7086V12.7388C16.5399 13.1408 16.8629 13.4825 17.2868 13.4825H26.7132C27.1169 13.4825 27.46 13.1609 27.46 12.7388V10.7086C27.46 10.387 27.7225 10.1257 28.0454 10.1257H32.1026C33.1522 10.1257 34 10.97 34 12.0152V39.0906C34 40.1358 33.1522 40.98 32.1026 40.98L32.0622 41.0001ZM11.8974 11.2916C11.4937 11.2916 11.1505 11.6132 11.1505 12.0353V39.1107C11.1505 39.5127 11.4735 39.8544 11.8974 39.8544H32.0622C32.4659 39.8544 32.8091 39.5328 32.8091 39.1107V12.0152C32.8091 11.6132 32.4861 11.2715 32.0622 11.2715H28.5904V12.7187C28.5904 13.7639 27.7426 14.6081 26.693 14.6081H17.2666C16.217 14.6081 15.3692 13.7639 15.3692 12.7187V11.2715H11.8974V11.2916Z" fill="#339966"/>
<path d="M30.9722 37.8643H13.0075C12.6846 37.8643 12.4222 37.603 12.4222 37.2814V13.0402C12.4222 12.7186 12.6846 12.4573 13.0075 12.4573H15.9546C16.2775 12.4573 16.5399 12.7186 16.5399 13.0402C16.5399 13.3618 16.2775 13.6231 15.9546 13.6231H13.5929V36.7186H30.3869V13.6231H28.0252C27.7022 13.6231 27.4398 13.3618 27.4398 13.0402C27.4398 12.7186 27.7022 12.4573 28.0252 12.4573H30.9722C31.2952 12.4573 31.5576 12.7186 31.5576 13.0402V37.2814C31.5576 37.603 31.2952 37.8643 30.9722 37.8643Z" fill="#339966"/>
<path d="M26.693 14.6281H17.2666C16.217 14.6281 15.3692 13.7839 15.3692 12.7387V9.72362C15.3692 8.67839 16.217 7.83417 17.2666 7.83417H18.5988C18.8814 6.22613 20.2742 5 21.9697 5C23.6652 5 25.058 6.22613 25.3406 7.83417H26.6728C27.7224 7.83417 28.5702 8.67839 28.5702 9.72362V12.7387C28.5702 13.7839 27.7224 14.6281 26.6728 14.6281H26.693ZM17.2666 8.9799C16.8629 8.9799 16.5197 9.30151 16.5197 9.72362V12.7387C16.5197 13.1407 16.8427 13.4824 17.2666 13.4824H26.693C27.0967 13.4824 27.4398 13.1608 27.4398 12.7387V9.72362C27.4398 9.32161 27.1169 8.9799 26.693 8.9799H24.8158C24.4928 8.9799 24.2304 8.71859 24.2304 8.39699C24.2304 7.15075 23.2212 6.14573 21.9697 6.14573C20.7182 6.14573 19.709 7.15075 19.709 8.39699C19.709 8.71859 19.4466 8.9799 19.1236 8.9799H17.2464H17.2666Z" fill="#339966"/>
<path d="M25.0176 11.5931H18.9621C18.6392 11.5931 18.3768 11.3318 18.3768 11.0102C18.3768 10.6886 18.6392 10.4272 18.9621 10.4272H25.0176C25.3406 10.4272 25.603 10.6886 25.603 11.0102C25.603 11.3318 25.3406 11.5931 25.0176 11.5931Z" fill="#339966"/>
<path d="M18.6392 24.0151C16.4592 24.0151 14.6829 22.2463 14.6829 20.0754C14.6829 17.9046 16.4592 16.1357 18.6392 16.1357C20.8192 16.1357 22.5955 17.9046 22.5955 20.0754C22.5955 22.2463 20.8192 24.0151 18.6392 24.0151ZM18.6392 17.3016C17.1051 17.3016 15.8537 18.5478 15.8537 20.0754C15.8537 21.6031 17.1051 22.8493 18.6392 22.8493C20.1732 22.8493 21.4247 21.6031 21.4247 20.0754C21.4247 18.5478 20.1732 17.3016 18.6392 17.3016Z" fill="#339966"/>
<path d="M20.153 20.6783H17.1253C16.8023 20.6783 16.5399 20.417 16.5399 20.0954C16.5399 19.7738 16.8023 19.5125 17.1253 19.5125H20.153C20.476 19.5125 20.7384 19.7738 20.7384 20.0954C20.7384 20.417 20.476 20.6783 20.153 20.6783Z" fill="#339966"/>
<path d="M18.6392 22.186C18.3162 22.186 18.0538 21.9247 18.0538 21.6031V18.588C18.0538 18.2664 18.3162 18.0051 18.6392 18.0051C18.9622 18.0051 19.2246 18.2664 19.2246 18.588V21.6031C19.2246 21.9247 18.9622 22.186 18.6392 22.186Z" fill="#339966"/>
<path d="M28.6106 20.6783H24.2708C23.9478 20.6783 23.6854 20.417 23.6854 20.0954C23.6854 19.7738 23.9478 19.5125 24.2708 19.5125H28.6106C28.9335 19.5125 29.1959 19.7738 29.1959 20.0954C29.1959 20.417 28.9335 20.6783 28.6106 20.6783Z" fill="#339966"/>
<path d="M28.6106 23.191H23.4634C23.1405 23.191 22.8781 22.9297 22.8781 22.6081C22.8781 22.2865 23.1405 22.0251 23.4634 22.0251H28.6106C28.9336 22.0251 29.196 22.2865 29.196 22.6081C29.196 22.9297 28.9336 23.191 28.6106 23.191Z" fill="#339966"/>
<path d="M28.6106 26.5879H15.2885C14.9655 26.5879 14.7031 26.3266 14.7031 26.005C14.7031 25.6834 14.9655 25.4221 15.2885 25.4221H28.6106C28.9336 25.4221 29.196 25.6834 29.196 26.005C29.196 26.3266 28.9336 26.5879 28.6106 26.5879Z" fill="#339966"/>
<path d="M28.6106 29.1207H15.2885C14.9655 29.1207 14.7031 28.8594 14.7031 28.5377C14.7031 28.2161 14.9655 27.9548 15.2885 27.9548H28.6106C28.9336 27.9548 29.196 28.2161 29.196 28.5377C29.196 28.8594 28.9336 29.1207 28.6106 29.1207Z" fill="#339966"/>
<path d="M28.6106 31.6534H15.2885C14.9655 31.6534 14.7031 31.3921 14.7031 31.0705C14.7031 30.7489 14.9655 30.4875 15.2885 30.4875H28.6106C28.9336 30.4875 29.196 30.7489 29.196 31.0705C29.196 31.3921 28.9336 31.6534 28.6106 31.6534Z" fill="#339966"/>
<path d="M28.6106 34.1658H15.2885C14.9655 34.1658 14.7031 33.9045 14.7031 33.5829C14.7031 33.2613 14.9655 33 15.2885 33H28.6106C28.9336 33 29.196 33.2613 29.196 33.5829C29.196 33.9045 28.9336 34.1658 28.6106 34.1658Z" fill="#339966"/>
</svg>
