<svg width="1101" height="811" viewBox="0 0 1101 811" fill="none" xmlns="http://www.w3.org/2000/svg">
<g clip-path="url(#clip0_30_766)">
<g style="mix-blend-mode:screen" opacity="0.35">
<g style="mix-blend-mode:screen" opacity="0.35">
<path d="M384.755 333.577C384.351 333.58 383.947 333.624 383.552 333.709L354.397 283.21C354.994 282.564 355.439 281.792 355.699 280.95C355.958 280.109 356.025 279.22 355.895 278.349C355.766 277.478 355.442 276.647 354.949 275.918C354.455 275.189 353.805 274.58 353.045 274.137C352.285 273.693 351.435 273.426 350.558 273.355C349.682 273.284 348.8 273.411 347.979 273.727C347.158 274.043 346.418 274.539 345.814 275.18C345.21 275.82 344.758 276.588 344.49 277.426H285.987C285.562 276.088 284.671 274.946 283.477 274.207C282.282 273.469 280.863 273.183 279.477 273.402C278.09 273.62 276.827 274.328 275.917 275.398C275.007 276.468 274.51 277.829 274.516 279.234C274.517 280.691 275.067 282.094 276.057 283.162L246.866 333.709C246.057 333.535 245.221 333.533 244.411 333.704C243.602 333.874 242.837 334.214 242.168 334.7C241.498 335.186 240.939 335.808 240.525 336.526C240.112 337.243 239.855 338.039 239.769 338.863C239.684 339.687 239.774 340.519 240.031 341.306C240.289 342.093 240.71 342.816 241.266 343.429C241.822 344.042 242.501 344.531 243.258 344.864C244.016 345.197 244.835 345.366 245.662 345.361C246.067 345.36 246.471 345.311 246.866 345.217L276.057 395.764C275.462 396.413 275.021 397.187 274.766 398.029C274.511 398.871 274.447 399.76 274.581 400.629C274.714 401.499 275.041 402.328 275.537 403.055C276.033 403.781 276.686 404.387 277.447 404.828C278.208 405.268 279.058 405.532 279.935 405.6C280.811 405.668 281.692 405.538 282.511 405.219C283.331 404.901 284.069 404.403 284.67 403.761C285.272 403.119 285.722 402.351 285.987 401.512H344.454C344.724 402.348 345.178 403.114 345.783 403.752C346.388 404.389 347.128 404.883 347.948 405.197C348.769 405.51 349.65 405.636 350.525 405.564C351.401 405.492 352.249 405.224 353.007 404.78C353.766 404.336 354.415 403.728 354.908 403C355.4 402.272 355.723 401.442 355.853 400.572C355.983 399.703 355.916 398.815 355.658 397.974C355.4 397.134 354.956 396.362 354.361 395.716L383.515 345.217C383.91 345.311 384.314 345.36 384.719 345.361C386.28 345.361 387.778 344.74 388.881 343.635C389.985 342.53 390.606 341.032 390.606 339.469C390.606 337.906 389.985 336.408 388.881 335.303C387.778 334.198 386.28 333.577 384.719 333.577H384.755ZM350.039 393.824C348.797 393.828 347.587 394.225 346.584 394.959C345.58 395.692 344.835 396.725 344.454 397.909H285.987C285.61 396.725 284.867 395.692 283.866 394.957C282.864 394.223 281.655 393.827 280.414 393.824C280.009 393.827 279.606 393.871 279.21 393.957L250.019 343.349C251.011 342.279 251.562 340.874 251.562 339.415C251.562 337.956 251.011 336.55 250.019 335.481L279.21 284.933C279.606 285.023 280.009 285.071 280.414 285.078C281.657 285.075 282.867 284.676 283.868 283.94C284.87 283.203 285.612 282.167 285.987 280.981H344.454C344.834 282.178 345.588 283.221 346.604 283.959C347.619 284.696 348.845 285.088 350.099 285.078C350.503 285.076 350.906 285.035 351.303 284.957L380.482 335.481C379.49 336.55 378.939 337.956 378.939 339.415C378.939 340.874 379.49 342.279 380.482 343.349L351.303 393.884C350.906 393.816 350.502 393.792 350.099 393.812L350.039 393.824Z" fill="#86CDD3"/>
</g>
<g style="mix-blend-mode:screen" opacity="0.35">
<path d="M501.772 399.704C501.367 399.708 500.964 399.752 500.568 399.837L471.413 349.338C472.011 348.691 472.456 347.919 472.715 347.078C472.975 346.236 473.042 345.347 472.912 344.476C472.782 343.605 472.459 342.775 471.966 342.046C471.472 341.317 470.822 340.708 470.062 340.264C469.302 339.821 468.452 339.554 467.575 339.483C466.698 339.412 465.817 339.539 464.996 339.855C464.174 340.17 463.435 340.667 462.831 341.307C462.227 341.947 461.774 342.715 461.507 343.554H403.064C402.639 342.215 401.748 341.073 400.554 340.335C399.359 339.596 397.94 339.311 396.554 339.529C395.167 339.748 393.904 340.456 392.994 341.526C392.084 342.596 391.587 343.956 391.593 345.361C391.594 346.818 392.144 348.221 393.133 349.289L363.942 399.837C363.134 399.662 362.298 399.66 361.488 399.831C360.679 400.002 359.914 400.341 359.245 400.827C358.575 401.314 358.016 401.936 357.602 402.653C357.189 403.37 356.931 404.167 356.846 404.991C356.761 405.814 356.851 406.646 357.108 407.433C357.366 408.22 357.787 408.944 358.343 409.557C358.899 410.17 359.578 410.659 360.335 410.992C361.093 411.325 361.912 411.494 362.739 411.489C363.144 411.487 363.548 411.439 363.942 411.344L393.133 461.891C392.539 462.54 392.098 463.314 391.843 464.156C391.588 464.998 391.524 465.887 391.658 466.757C391.791 467.627 392.118 468.456 392.614 469.182C393.11 469.909 393.763 470.515 394.524 470.955C395.285 471.396 396.135 471.659 397.011 471.727C397.888 471.795 398.769 471.665 399.588 471.347C400.408 471.029 401.146 470.53 401.747 469.888C402.349 469.247 402.799 468.478 403.064 467.639H461.531C461.801 468.476 462.255 469.241 462.86 469.879C463.465 470.517 464.205 471.011 465.025 471.324C465.846 471.638 466.727 471.763 467.602 471.691C468.478 471.619 469.326 471.351 470.084 470.908C470.843 470.464 471.492 469.855 471.985 469.127C472.477 468.399 472.8 467.57 472.93 466.7C473.06 465.83 472.993 464.942 472.735 464.102C472.477 463.261 472.033 462.49 471.438 461.843L500.568 411.344C500.963 411.438 501.367 411.487 501.772 411.489C502.545 411.489 503.311 411.336 504.025 411.04C504.739 410.744 505.388 410.31 505.934 409.763C506.481 409.216 506.915 408.566 507.21 407.851C507.506 407.136 507.658 406.37 507.658 405.596C507.658 404.823 507.506 404.057 507.21 403.342C506.915 402.627 506.481 401.977 505.934 401.43C505.388 400.883 504.739 400.449 504.025 400.153C503.311 399.857 502.545 399.704 501.772 399.704ZM467.056 459.952C465.813 459.955 464.604 460.352 463.601 461.086C462.597 461.82 461.852 462.852 461.47 464.036H403.064C402.687 462.852 401.944 461.819 400.943 461.085C399.941 460.351 398.732 459.954 397.491 459.952C397.086 459.955 396.683 459.999 396.287 460.084L367.096 409.476C368.088 408.407 368.639 407.001 368.639 405.542C368.639 404.083 368.088 402.678 367.096 401.608L396.287 351.061C396.682 351.156 397.086 351.204 397.491 351.205C398.732 351.203 399.941 350.806 400.943 350.072C401.944 349.338 402.687 348.304 403.064 347.121H461.531C461.912 348.304 462.657 349.337 463.661 350.071C464.664 350.805 465.874 351.202 467.116 351.205C467.52 351.204 467.923 351.163 468.32 351.085L497.499 401.608C496.507 402.678 495.956 404.083 495.956 405.542C495.956 407.001 496.507 408.407 497.499 409.476L468.32 460.012C467.903 459.939 467.479 459.914 467.056 459.939V459.952Z" fill="#86CDD3"/>
</g>
<g style="mix-blend-mode:screen" opacity="0.35">
<path d="M384.755 197.743C384.351 197.746 383.947 197.791 383.552 197.876L354.397 147.377C354.994 146.731 355.439 145.958 355.699 145.117C355.958 144.275 356.025 143.386 355.895 142.516C355.766 141.645 355.442 140.814 354.949 140.085C354.455 139.356 353.805 138.747 353.045 138.303C352.285 137.86 351.435 137.593 350.558 137.522C349.682 137.451 348.8 137.578 347.979 137.894C347.158 138.21 346.418 138.706 345.814 139.346C345.21 139.986 344.758 140.754 344.49 141.593H285.987C285.562 140.254 284.671 139.112 283.477 138.374C282.282 137.636 280.863 137.35 279.477 137.568C278.09 137.787 276.827 138.495 275.917 139.565C275.007 140.635 274.51 141.995 274.516 143.4C274.517 144.857 275.067 146.26 276.057 147.329L246.866 197.876C246.007 197.691 245.118 197.7 244.263 197.903C243.408 198.106 242.61 198.499 241.927 199.051C241.243 199.603 240.692 200.302 240.313 201.095C239.934 201.888 239.738 202.756 239.738 203.636C239.738 204.515 239.934 205.383 240.313 206.176C240.692 206.97 241.243 207.668 241.927 208.22C242.61 208.773 243.408 209.165 244.263 209.368C245.118 209.571 246.007 209.581 246.866 209.395L276.057 259.931C275.462 260.579 275.021 261.353 274.766 262.195C274.511 263.038 274.447 263.926 274.581 264.796C274.714 265.666 275.041 266.495 275.537 267.221C276.033 267.948 276.686 268.554 277.447 268.994C278.208 269.435 279.058 269.699 279.935 269.766C280.811 269.834 281.692 269.704 282.511 269.386C283.331 269.068 284.069 268.569 284.67 267.928C285.272 267.286 285.722 266.517 285.987 265.678H344.454C344.721 266.517 345.174 267.285 345.778 267.925C346.382 268.565 347.122 269.062 347.943 269.378C348.764 269.693 349.646 269.82 350.522 269.75C351.399 269.679 352.249 269.411 353.009 268.968C353.769 268.524 354.419 267.915 354.913 267.186C355.406 266.457 355.73 265.627 355.859 264.756C355.989 263.885 355.922 262.996 355.662 262.155C355.403 261.313 354.958 260.541 354.361 259.895L383.515 209.395C384.324 209.57 385.16 209.572 385.97 209.401C386.779 209.23 387.544 208.891 388.213 208.405C388.883 207.918 389.442 207.296 389.856 206.579C390.269 205.862 390.526 205.065 390.612 204.242C390.697 203.418 390.607 202.586 390.349 201.799C390.092 201.012 389.671 200.289 389.115 199.675C388.559 199.062 387.88 198.573 387.123 198.24C386.365 197.908 385.546 197.738 384.719 197.743H384.755ZM350.039 257.991C348.797 257.994 347.587 258.391 346.584 259.125C345.58 259.859 344.835 260.892 344.454 262.075H285.987C285.61 260.892 284.867 259.858 283.866 259.124C282.864 258.39 281.655 257.993 280.414 257.991C280.009 257.994 279.606 258.038 279.21 258.123L250.019 207.576C251.011 206.506 251.562 205.101 251.562 203.642C251.562 202.182 251.011 200.777 250.019 199.708L279.21 149.172C279.606 149.257 280.009 149.302 280.414 149.305C281.655 149.302 282.864 148.905 283.866 148.171C284.867 147.437 285.61 146.404 285.987 145.22H344.454C344.835 146.404 345.58 147.436 346.584 148.17C347.587 148.904 348.797 149.301 350.039 149.305C350.443 149.303 350.846 149.262 351.243 149.184L380.422 199.708C379.43 200.777 378.879 202.182 378.879 203.642C378.879 205.101 379.43 206.506 380.422 207.576L351.243 258.111C350.867 258.027 350.484 257.983 350.099 257.979L350.039 257.991Z" fill="#86CDD3"/>
</g>
<g style="mix-blend-mode:screen" opacity="0.35">
<path d="M501.772 131.616C501.367 131.62 500.964 131.664 500.568 131.749L471.413 81.2495C472.011 80.6032 472.456 79.8309 472.715 78.9895C472.975 78.1481 473.042 77.2591 472.912 76.3882C472.782 75.5173 472.459 74.6866 471.966 73.9576C471.472 73.2286 470.822 72.6198 470.062 72.1761C469.302 71.7325 468.452 71.4654 467.575 71.3945C466.698 71.3236 465.817 71.4507 464.996 71.7664C464.174 72.0822 463.435 72.5785 462.831 73.2188C462.227 73.8591 461.774 74.627 461.507 75.4657H403.064C402.639 74.1268 401.748 72.9848 400.554 72.2465C399.359 71.5082 397.94 71.2224 396.554 71.4409C395.167 71.6594 393.904 72.3677 392.994 73.4375C392.084 74.5074 391.587 75.868 391.593 77.2732C391.594 78.73 392.144 80.1329 393.133 81.2013L363.942 131.749C363.084 131.563 362.195 131.573 361.34 131.776C360.485 131.979 359.687 132.371 359.004 132.924C358.32 133.476 357.769 134.174 357.39 134.968C357.011 135.761 356.815 136.629 356.815 137.508C356.815 138.388 357.011 139.256 357.39 140.049C357.769 140.842 358.32 141.541 359.004 142.093C359.687 142.645 360.485 143.038 361.34 143.241C362.195 143.444 363.084 143.453 363.942 143.268L393.133 193.803C392.536 194.452 392.092 195.227 391.835 196.071C391.577 196.915 391.512 197.806 391.646 198.678C391.779 199.55 392.107 200.381 392.605 201.11C393.102 201.838 393.758 202.444 394.521 202.885C395.285 203.325 396.139 203.587 397.018 203.653C397.897 203.718 398.779 203.585 399.6 203.262C400.42 202.94 401.158 202.436 401.757 201.79C402.357 201.143 402.804 200.37 403.064 199.527H461.531C461.798 200.366 462.251 201.133 462.855 201.774C463.459 202.414 464.199 202.91 465.02 203.226C465.841 203.542 466.722 203.669 467.599 203.598C468.476 203.527 469.326 203.26 470.086 202.816C470.846 202.373 471.496 201.764 471.99 201.035C472.483 200.306 472.807 199.475 472.936 198.604C473.066 197.733 472.999 196.844 472.739 196.003C472.48 195.162 472.035 194.389 471.438 193.743L500.568 143.268C500.964 143.353 501.367 143.397 501.772 143.401C503.333 143.401 504.83 142.78 505.934 141.675C507.038 140.57 507.658 139.071 507.658 137.508C507.658 135.946 507.038 134.447 505.934 133.342C504.83 132.237 503.333 131.616 501.772 131.616ZM467.056 191.863C465.813 191.867 464.604 192.264 463.601 192.998C462.597 193.732 461.852 194.764 461.47 195.948H403.064C402.687 194.764 401.944 193.731 400.943 192.997C399.941 192.263 398.732 191.866 397.491 191.863C397.086 191.866 396.683 191.911 396.287 191.996L367.096 141.388C368.088 140.319 368.639 138.913 368.639 137.454C368.639 135.995 368.088 134.59 367.096 133.52L396.287 82.9846C396.683 83.0697 397.086 83.1142 397.491 83.1171C398.732 83.1147 399.941 82.7178 400.943 81.9837C401.944 81.2496 402.687 80.2162 403.064 79.0324H461.531C461.912 80.2162 462.657 81.2489 463.661 81.9826C464.664 82.7164 465.874 83.1135 467.116 83.1171C467.52 83.1156 467.923 83.0752 468.32 82.9966L497.499 133.52C496.507 134.59 495.956 135.995 495.956 137.454C495.956 138.913 496.507 140.319 497.499 141.388L468.32 191.924C467.903 191.85 467.479 191.826 467.056 191.851V191.863Z" fill="#86CDD3"/>
</g>
<g style="mix-blend-mode:screen" opacity="0.35">
<path d="M619.619 333.577C619.215 333.58 618.811 333.624 618.416 333.709L589.249 283.21C590.26 282.133 590.823 280.712 590.826 279.234C590.831 277.829 590.334 276.468 589.424 275.398C588.514 274.328 587.251 273.62 585.865 273.402C584.478 273.183 583.059 273.469 581.865 274.207C580.67 274.946 579.78 276.088 579.354 277.426H520.852C520.586 276.588 520.137 275.821 519.536 275.179C518.935 274.538 518.198 274.04 517.379 273.722C516.56 273.403 515.681 273.273 514.805 273.34C513.929 273.407 513.08 273.669 512.319 274.108C511.558 274.547 510.905 275.151 510.408 275.876C509.911 276.601 509.583 277.428 509.447 278.297C509.312 279.166 509.373 280.054 509.626 280.896C509.879 281.738 510.317 282.512 510.909 283.162L481.73 333.709C481.334 333.625 480.931 333.58 480.526 333.577C478.965 333.577 477.467 334.198 476.364 335.303C475.26 336.408 474.639 337.906 474.639 339.469C474.639 341.032 475.26 342.53 476.364 343.635C477.467 344.74 478.965 345.361 480.526 345.361C480.931 345.359 481.335 345.311 481.73 345.217L510.909 395.764C510.319 396.414 509.882 397.188 509.63 398.029C509.379 398.87 509.318 399.757 509.454 400.624C509.589 401.492 509.917 402.318 510.413 403.042C510.909 403.766 511.56 404.37 512.32 404.809C513.079 405.248 513.928 405.511 514.802 405.579C515.677 405.647 516.555 405.519 517.373 405.202C518.192 404.886 518.929 404.391 519.531 403.752C520.132 403.113 520.584 402.348 520.852 401.512H579.318C579.586 402.351 580.039 403.12 580.643 403.761C581.248 404.402 581.988 404.898 582.811 405.214C583.633 405.529 584.515 405.656 585.393 405.584C586.27 405.512 587.121 405.244 587.881 404.798C588.641 404.353 589.291 403.743 589.783 403.012C590.276 402.282 590.598 401.449 590.726 400.577C590.854 399.705 590.784 398.816 590.522 397.974C590.26 397.133 589.813 396.361 589.213 395.716L618.38 345.217C618.774 345.311 619.178 345.36 619.583 345.361C621.144 345.361 622.642 344.74 623.746 343.635C624.849 342.53 625.47 341.032 625.47 339.469C625.47 337.906 624.849 336.408 623.746 335.303C622.642 334.198 621.144 333.577 619.583 333.577H619.619ZM584.891 393.824C583.65 393.827 582.441 394.223 581.44 394.958C580.438 395.692 579.695 396.725 579.318 397.909H520.852C520.47 396.725 519.725 395.692 518.722 394.959C517.718 394.225 516.509 393.828 515.266 393.824C514.861 393.828 514.458 393.873 514.062 393.957L484.883 343.349C485.867 342.275 486.413 340.872 486.413 339.415C486.413 337.958 485.867 336.554 484.883 335.481L514.062 284.933C514.458 285.021 514.861 285.07 515.266 285.078C516.511 285.075 517.722 284.677 518.726 283.941C519.73 283.205 520.474 282.168 520.852 280.981H579.318C579.693 282.167 580.435 283.203 581.437 283.94C582.439 284.676 583.648 285.075 584.891 285.078C585.295 285.076 585.698 285.035 586.095 284.957L615.262 335.481C614.278 336.554 613.732 337.958 613.732 339.415C613.732 340.872 614.278 342.275 615.262 343.349L586.035 393.933C585.659 393.853 585.275 393.813 584.891 393.812V393.824Z" fill="#86CDD3"/>
</g>
<g style="mix-blend-mode:screen" opacity="0.35">
<path d="M738.61 399.704C738.206 399.708 737.802 399.752 737.407 399.837L708.216 349.338C708.813 348.691 709.258 347.919 709.517 347.078C709.777 346.236 709.844 345.347 709.714 344.476C709.585 343.605 709.261 342.775 708.768 342.046C708.274 341.317 707.624 340.708 706.864 340.264C706.104 339.821 705.254 339.554 704.377 339.483C703.501 339.412 702.619 339.539 701.798 339.855C700.977 340.17 700.237 340.667 699.633 341.307C699.029 341.947 698.576 342.715 698.309 343.554H639.842C639.417 342.215 638.526 341.073 637.332 340.335C636.137 339.596 634.718 339.311 633.332 339.529C631.945 339.748 630.682 340.456 629.772 341.526C628.862 342.596 628.365 343.956 628.371 345.361C628.372 346.818 628.922 348.221 629.912 349.289L600.721 399.837C599.912 399.662 599.076 399.66 598.266 399.831C597.457 400.002 596.692 400.341 596.023 400.827C595.353 401.314 594.794 401.936 594.38 402.653C593.967 403.37 593.71 404.167 593.624 404.991C593.539 405.814 593.629 406.646 593.886 407.433C594.144 408.22 594.565 408.944 595.121 409.557C595.677 410.17 596.356 410.659 597.113 410.992C597.871 411.325 598.69 411.494 599.517 411.489C599.922 411.487 600.326 411.439 600.721 411.344L629.912 461.891C629.317 462.54 628.876 463.314 628.621 464.156C628.366 464.998 628.302 465.887 628.436 466.757C628.569 467.627 628.896 468.456 629.392 469.182C629.888 469.909 630.541 470.515 631.302 470.955C632.063 471.396 632.913 471.659 633.79 471.727C634.666 471.795 635.547 471.665 636.366 471.347C637.186 471.029 637.924 470.53 638.525 469.888C639.127 469.247 639.577 468.478 639.842 467.639H698.309C698.579 468.476 699.033 469.241 699.638 469.879C700.243 470.517 700.983 471.011 701.803 471.324C702.624 471.638 703.505 471.763 704.38 471.691C705.256 471.619 706.104 471.351 706.862 470.908C707.621 470.464 708.27 469.855 708.763 469.127C709.255 468.399 709.578 467.57 709.708 466.7C709.838 465.83 709.771 464.942 709.513 464.102C709.255 463.261 708.811 462.49 708.216 461.843L737.37 411.344C737.765 411.438 738.169 411.487 738.574 411.489C740.135 411.489 741.633 410.868 742.736 409.763C743.84 408.658 744.461 407.159 744.461 405.596C744.461 404.034 743.84 402.535 742.736 401.43C741.633 400.325 740.135 399.704 738.574 399.704H738.61ZM703.894 459.952C702.652 459.955 701.442 460.352 700.439 461.086C699.435 461.82 698.69 462.852 698.309 464.036H639.842C639.465 462.852 638.722 461.819 637.721 461.085C636.719 460.351 635.51 459.954 634.269 459.952C633.864 459.955 633.461 459.999 633.065 460.084L603.874 409.476C604.866 408.407 605.417 407.001 605.417 405.542C605.417 404.083 604.866 402.678 603.874 401.608L632.981 351.109C633.375 351.204 633.779 351.252 634.185 351.253C635.426 351.251 636.635 350.854 637.636 350.12C638.638 349.386 639.381 348.353 639.758 347.169H698.224C698.606 348.353 699.351 349.385 700.354 350.119C701.358 350.853 702.567 351.25 703.81 351.253C704.214 351.252 704.617 351.212 705.014 351.133L734.193 401.656C733.201 402.726 732.65 404.131 732.65 405.59C732.65 407.05 733.201 408.455 734.193 409.525L705.014 460.06C704.646 459.981 704.27 459.941 703.894 459.939V459.952Z" fill="#86CDD3"/>
</g>
<g style="mix-blend-mode:screen" opacity="0.35">
<path d="M858.179 601.858C857.774 601.861 857.371 601.905 856.975 601.99L827.784 551.491C828.796 550.415 829.36 548.993 829.361 547.515C829.367 546.11 828.87 544.749 827.96 543.679C827.05 542.609 825.787 541.901 824.4 541.683C823.014 541.464 821.595 541.75 820.4 542.488C819.206 543.227 818.315 544.368 817.89 545.707H759.375C759.11 544.869 758.66 544.101 758.059 543.46C757.458 542.819 756.721 542.321 755.903 542.003C755.084 541.684 754.204 541.554 753.329 541.621C752.453 541.687 751.603 541.95 750.842 542.389C750.081 542.828 749.428 543.432 748.931 544.157C748.434 544.882 748.106 545.709 747.971 546.578C747.836 547.447 747.897 548.335 748.15 549.177C748.402 550.018 748.841 550.793 749.432 551.443L720.253 602.051C719.857 601.967 719.454 601.922 719.049 601.918C717.488 601.918 715.991 602.539 714.887 603.644C713.783 604.749 713.163 606.248 713.163 607.81C713.163 609.373 713.783 610.872 714.887 611.977C715.991 613.082 717.488 613.702 719.049 613.702C719.454 613.699 719.857 613.654 720.253 613.57L749.432 664.105C748.843 664.755 748.406 665.529 748.154 666.37C747.902 667.211 747.842 668.098 747.977 668.965C748.113 669.833 748.44 670.659 748.936 671.383C749.432 672.107 750.084 672.711 750.844 673.15C751.603 673.589 752.451 673.852 753.326 673.92C754.2 673.989 755.079 673.86 755.897 673.544C756.715 673.227 757.452 672.732 758.054 672.093C758.656 671.454 759.107 670.689 759.375 669.853H817.841C818.267 671.192 819.158 672.334 820.352 673.072C821.547 673.81 822.966 674.096 824.352 673.878C825.739 673.659 827.002 672.951 827.912 671.881C828.822 670.811 829.319 669.451 829.313 668.045C829.312 666.567 828.748 665.145 827.736 664.069L856.891 613.57C857.287 613.654 857.69 613.698 858.095 613.702C859.656 613.702 861.153 613.082 862.257 611.977C863.361 610.872 863.981 609.373 863.981 607.81C863.981 606.248 863.361 604.749 862.257 603.644C861.153 602.539 859.656 601.918 858.095 601.918L858.179 601.858ZM823.463 662.105C822.222 662.108 821.013 662.504 820.011 663.238C819.01 663.973 818.267 665.006 817.89 666.19H759.375C758.994 665.006 758.248 663.973 757.245 663.24C756.242 662.506 755.032 662.109 753.79 662.105C753.385 662.109 752.982 662.154 752.586 662.238L723.407 611.63C724.391 610.556 724.937 609.153 724.937 607.696C724.937 606.239 724.391 604.835 723.407 603.762L752.586 553.226C752.982 553.31 753.385 553.355 753.79 553.359C755.026 553.359 756.231 552.968 757.234 552.244C758.237 551.519 758.986 550.497 759.375 549.322H817.841C818.219 550.506 818.962 551.54 819.963 552.274C820.965 553.008 822.173 553.405 823.415 553.407C823.819 553.405 824.222 553.364 824.619 553.287L853.785 603.81C852.802 604.883 852.256 606.287 852.256 607.744C852.256 609.201 852.802 610.605 853.785 611.678L824.655 662.226C824.263 662.138 823.864 662.094 823.463 662.093V662.105Z" fill="#86CDD3"/>
</g>
<g style="mix-blend-mode:screen" opacity="0.35">
<path d="M976.953 671.359C976.548 671.361 976.144 671.409 975.75 671.504L946.559 621.004C947.154 620.358 947.598 619.586 947.856 618.746C948.114 617.905 948.181 617.018 948.051 616.148C947.921 615.278 947.598 614.449 947.106 613.72C946.613 612.992 945.964 612.384 945.206 611.94C944.447 611.496 943.599 611.229 942.723 611.157C941.848 611.084 940.967 611.21 940.147 611.523C939.326 611.837 938.586 612.331 937.981 612.969C937.376 613.606 936.922 614.372 936.652 615.209H878.198C877.93 614.372 877.478 613.607 876.877 612.968C876.275 612.33 875.538 611.834 874.719 611.518C873.901 611.202 873.023 611.073 872.148 611.141C871.274 611.209 870.425 611.472 869.666 611.911C868.906 612.35 868.255 612.954 867.759 613.678C867.263 614.402 866.935 615.228 866.8 616.096C866.664 616.963 866.725 617.85 866.976 618.691C867.228 619.532 867.665 620.306 868.255 620.956L839.064 671.564C838.669 671.469 838.265 671.421 837.86 671.419C837.033 671.414 836.214 671.583 835.456 671.916C834.699 672.249 834.02 672.738 833.464 673.351C832.908 673.964 832.487 674.688 832.229 675.475C831.972 676.261 831.882 677.094 831.967 677.917C832.053 678.741 832.31 679.537 832.723 680.255C833.137 680.972 833.696 681.594 834.366 682.08C835.035 682.567 835.8 682.906 836.609 683.077C837.419 683.248 838.255 683.246 839.064 683.071L868.255 733.679C867.265 734.747 866.715 736.15 866.714 737.607C866.717 739.008 867.22 740.362 868.131 741.426C869.043 742.49 870.303 743.194 871.686 743.412C873.069 743.629 874.484 743.347 875.677 742.614C876.871 741.881 877.764 740.747 878.198 739.414H936.652C936.92 740.253 937.372 741.021 937.976 741.661C938.58 742.301 939.32 742.798 940.141 743.114C940.962 743.429 941.844 743.556 942.72 743.486C943.597 743.415 944.447 743.148 945.207 742.704C945.967 742.26 946.617 741.651 947.111 740.922C947.604 740.193 947.928 739.363 948.057 738.492C948.187 737.621 948.12 736.732 947.861 735.891C947.601 735.049 947.156 734.277 946.559 733.631L975.714 683.131C976.109 683.216 976.513 683.26 976.917 683.264C977.69 683.264 978.456 683.111 979.17 682.815C979.884 682.519 980.533 682.085 981.08 681.538C981.626 680.991 982.06 680.341 982.356 679.627C982.651 678.912 982.804 678.145 982.804 677.372C982.804 676.598 982.651 675.832 982.356 675.117C982.06 674.402 981.626 673.752 981.08 673.205C980.533 672.658 979.884 672.224 979.17 671.928C978.456 671.632 977.69 671.479 976.917 671.479L976.953 671.359ZM942.237 731.606C940.993 731.609 939.781 732.007 938.777 732.743C937.773 733.48 937.029 734.516 936.652 735.703H878.198C877.82 734.516 877.076 733.48 876.072 732.743C875.068 732.007 873.857 731.609 872.612 731.606C872.207 731.608 871.803 731.657 871.408 731.751L842.217 681.143C843.209 680.074 843.76 678.668 843.76 677.209C843.76 675.75 843.209 674.344 842.217 673.275L871.408 622.667C871.804 622.752 872.207 622.796 872.612 622.8C873.855 622.796 875.064 622.399 876.067 621.665C877.071 620.932 877.816 619.899 878.198 618.715H936.652C937.033 619.899 937.779 620.932 938.782 621.665C939.785 622.399 940.995 622.796 942.237 622.8C942.642 622.805 943.045 622.765 943.441 622.679L972.62 673.215C971.636 674.288 971.09 675.692 971.09 677.149C971.09 678.606 971.636 680.009 972.62 681.083L943.441 731.606C943.041 731.563 942.638 731.559 942.237 731.594V731.606Z" fill="#86CDD3"/>
</g>
<g style="mix-blend-mode:screen" opacity="0.35">
<path d="M738.61 535.538C738.206 535.541 737.802 535.586 737.407 535.67L708.216 485.171C708.813 484.525 709.258 483.752 709.517 482.911C709.777 482.07 709.844 481.181 709.714 480.31C709.585 479.439 709.261 478.608 708.768 477.879C708.274 477.15 707.624 476.541 706.864 476.098C706.104 475.654 705.254 475.387 704.377 475.316C703.501 475.245 702.619 475.372 701.798 475.688C700.977 476.004 700.237 476.5 699.633 477.14C699.029 477.781 698.576 478.549 698.309 479.387H639.842C639.58 478.546 639.131 477.775 638.53 477.131C637.93 476.487 637.192 475.986 636.372 475.666C635.552 475.345 634.67 475.214 633.793 475.28C632.915 475.347 632.063 475.61 631.301 476.05C630.538 476.491 629.884 477.097 629.387 477.824C628.89 478.552 628.563 479.382 628.43 480.253C628.296 481.124 628.36 482.014 628.617 482.857C628.873 483.7 629.316 484.474 629.912 485.123L600.721 535.706C599.856 535.507 598.958 535.506 598.093 535.702C597.228 535.898 596.418 536.287 595.724 536.84C595.03 537.393 594.469 538.096 594.084 538.896C593.698 539.695 593.498 540.572 593.498 541.46C593.498 542.348 593.698 543.225 594.084 544.024C594.469 544.824 595.03 545.527 595.724 546.08C596.418 546.633 597.228 547.022 598.093 547.218C598.958 547.414 599.856 547.413 600.721 547.214L629.912 597.821C628.922 598.895 628.372 600.301 628.371 601.761C628.368 603.166 628.867 604.524 629.778 605.592C630.689 606.659 631.952 607.366 633.338 607.582C634.723 607.799 636.141 607.513 637.334 606.774C638.527 606.036 639.417 604.895 639.842 603.557H698.309C698.576 604.396 699.029 605.163 699.633 605.804C700.237 606.444 700.977 606.94 701.798 607.256C702.619 607.572 703.501 607.699 704.377 607.628C705.254 607.557 706.104 607.29 706.864 606.846C707.624 606.403 708.274 605.794 708.768 605.065C709.261 604.336 709.585 603.505 709.714 602.634C709.844 601.763 709.777 600.874 709.517 600.033C709.258 599.192 708.813 598.419 708.216 597.773L737.37 547.274C737.766 547.362 738.169 547.411 738.574 547.418C740.135 547.418 741.633 546.798 742.736 545.693C743.84 544.588 744.461 543.089 744.461 541.526C744.461 539.964 743.84 538.465 742.736 537.36C741.633 536.255 740.135 535.634 738.574 535.634L738.61 535.538ZM703.894 595.785C702.651 595.785 701.439 596.18 700.435 596.915C699.431 597.649 698.687 598.684 698.309 599.87H639.842C639.467 598.685 638.724 597.65 637.722 596.916C636.72 596.182 635.511 595.786 634.269 595.785C633.864 595.788 633.461 595.832 633.065 595.917L603.874 545.31C604.866 544.24 605.417 542.835 605.417 541.376C605.417 539.916 604.866 538.511 603.874 537.442L633.065 486.834C633.461 486.919 633.864 486.963 634.269 486.966C635.511 486.966 636.72 486.57 637.722 485.835C638.724 485.101 639.467 484.066 639.842 482.882H698.309C698.687 484.067 699.431 485.102 700.435 485.836C701.439 486.571 702.651 486.966 703.894 486.966C704.298 486.969 704.701 486.933 705.098 486.858L734.277 537.381C733.285 538.451 732.734 539.856 732.734 541.315C732.734 542.775 733.285 544.18 734.277 545.25L705.098 595.773C704.697 595.735 704.294 595.735 703.894 595.773V595.785Z" fill="#86CDD3"/>
</g>
<g style="mix-blend-mode:screen" opacity="0.35">
<path d="M738.61 671.359C738.205 671.361 737.801 671.41 737.407 671.504L708.216 621.004C708.811 620.358 709.255 619.586 709.513 618.746C709.771 617.905 709.838 617.018 709.708 616.148C709.578 615.278 709.255 614.449 708.763 613.72C708.27 612.992 707.621 612.384 706.862 611.94C706.104 611.496 705.256 611.229 704.38 611.157C703.505 611.084 702.624 611.21 701.803 611.523C700.983 611.837 700.243 612.331 699.638 612.969C699.033 613.606 698.579 614.372 698.309 615.209H639.842C639.577 614.37 639.127 613.601 638.525 612.959C637.924 612.318 637.186 611.819 636.366 611.501C635.547 611.183 634.666 611.053 633.79 611.12C632.913 611.188 632.063 611.452 631.302 611.893C630.541 612.333 629.888 612.939 629.392 613.666C628.896 614.392 628.569 615.221 628.436 616.091C628.302 616.961 628.366 617.849 628.621 618.691C628.876 619.534 629.317 620.308 629.912 620.956L600.721 671.564C600.326 671.469 599.922 671.421 599.517 671.419C598.69 671.414 597.871 671.583 597.113 671.916C596.356 672.249 595.677 672.738 595.121 673.351C594.565 673.964 594.144 674.688 593.886 675.475C593.629 676.261 593.539 677.094 593.624 677.917C593.71 678.741 593.967 679.538 594.38 680.255C594.794 680.972 595.353 681.594 596.023 682.081C596.692 682.567 597.457 682.906 598.266 683.077C599.076 683.248 599.912 683.246 600.721 683.071L629.912 733.679C628.922 734.747 628.372 736.15 628.371 737.607C628.365 739.012 628.862 740.373 629.772 741.443C630.682 742.512 631.945 743.221 633.332 743.439C634.718 743.658 636.137 743.372 637.332 742.634C638.526 741.895 639.417 740.753 639.842 739.414H698.309C698.576 740.253 699.029 741.021 699.633 741.661C700.237 742.302 700.977 742.798 701.798 743.114C702.619 743.429 703.501 743.557 704.377 743.486C705.254 743.415 706.104 743.148 706.864 742.704C707.624 742.26 708.274 741.652 708.768 740.923C709.261 740.194 709.585 739.363 709.714 738.492C709.844 737.621 709.777 736.732 709.517 735.891C709.258 735.049 708.813 734.277 708.216 733.631L737.37 683.131C737.766 683.216 738.169 683.26 738.574 683.264C739.347 683.264 740.113 683.112 740.827 682.815C741.541 682.519 742.19 682.085 742.736 681.538C743.283 680.991 743.717 680.342 744.012 679.627C744.308 678.912 744.461 678.146 744.461 677.372C744.461 676.598 744.308 675.832 744.012 675.117C743.717 674.402 743.283 673.753 742.736 673.205C742.19 672.658 741.541 672.224 740.827 671.928C740.113 671.632 739.347 671.48 738.574 671.48L738.61 671.359ZM703.894 731.606C702.65 731.609 701.438 732.007 700.434 732.743C699.43 733.48 698.686 734.516 698.309 735.703H639.842C639.467 734.517 638.725 733.481 637.723 732.745C636.722 732.008 635.512 731.61 634.269 731.606C633.864 731.608 633.46 731.656 633.065 731.751L603.874 681.143C604.866 680.074 605.417 678.668 605.417 677.209C605.417 675.75 604.866 674.345 603.874 673.275L633.065 622.667C633.461 622.752 633.864 622.797 634.269 622.8C635.494 622.807 636.691 622.429 637.69 621.72C638.69 621.011 639.443 620.007 639.842 618.848H698.309C698.69 620.031 699.435 621.064 700.439 621.798C701.442 622.532 702.652 622.929 703.894 622.932C704.299 622.937 704.702 622.897 705.098 622.812L734.277 673.347C733.285 674.417 732.734 675.822 732.734 677.281C732.734 678.741 733.285 680.146 734.277 681.216L705.098 731.739C704.702 731.652 704.299 731.604 703.894 731.594V731.606Z" fill="#86CDD3"/>
</g>
<g style="mix-blend-mode:screen" opacity="0.35">
<path d="M147.616 469.603C147.211 469.607 146.808 469.651 146.412 469.736L117.221 419.236C117.819 418.59 118.264 417.818 118.523 416.976C118.783 416.135 118.85 415.246 118.72 414.375C118.59 413.504 118.267 412.674 117.774 411.945C117.28 411.215 116.63 410.607 115.87 410.163C115.11 409.719 114.26 409.452 113.383 409.381C112.506 409.31 111.625 409.438 110.804 409.753C109.982 410.069 109.243 410.565 108.639 411.206C108.035 411.846 107.582 412.614 107.315 413.453H48.8483C48.471 412.269 47.728 411.235 46.7264 410.501C45.7248 409.767 44.5163 409.37 43.2749 409.368C42.5009 409.366 41.7341 409.518 41.0186 409.813C40.303 410.108 39.6527 410.542 39.1048 411.089C38.557 411.637 38.1223 412.287 37.8257 413.002C37.5292 413.718 37.3765 414.485 37.3765 415.26C37.3775 416.717 37.9278 418.12 38.9173 419.188L9.72631 469.736C9.33063 469.65 8.92728 469.606 8.52256 469.603C7.74955 469.598 6.98317 469.746 6.26718 470.038C5.5512 470.329 4.89963 470.759 4.34967 471.303C3.79972 471.847 3.36215 472.494 3.06196 473.207C2.76177 473.92 2.60483 474.685 2.6001 475.459C2.6001 477.022 3.22026 478.521 4.32417 479.626C5.42807 480.731 6.92529 481.351 8.48645 481.351C8.89194 481.35 9.29591 481.301 9.6902 481.207L38.8812 531.754C37.9043 532.837 37.3675 534.247 37.3765 535.706C37.3765 536.481 37.5292 537.248 37.8257 537.964C38.1223 538.68 38.557 539.33 39.1048 539.877C39.6527 540.424 40.303 540.858 41.0186 541.153C41.7341 541.449 42.5009 541.6 43.2749 541.599C44.5163 541.596 45.7248 541.199 46.7264 540.465C47.728 539.731 48.471 538.698 48.8483 537.514H107.315C107.585 538.351 108.039 539.116 108.644 539.754C109.248 540.392 109.988 540.885 110.809 541.199C111.63 541.513 112.511 541.638 113.386 541.566C114.262 541.494 115.11 541.226 115.868 540.782C116.627 540.338 117.276 539.73 117.769 539.002C118.261 538.274 118.584 537.444 118.714 536.575C118.844 535.705 118.777 534.817 118.519 533.977C118.26 533.136 117.817 532.364 117.221 531.718L146.376 481.243C146.771 481.337 147.175 481.386 147.58 481.387C149.141 481.387 150.638 480.767 151.742 479.662C152.846 478.557 153.466 477.058 153.466 475.495C153.466 473.933 152.846 472.434 151.742 471.329C150.638 470.224 149.141 469.603 147.58 469.603H147.616ZM112.96 529.838C111.718 529.842 110.508 530.239 109.505 530.973C108.501 531.706 107.756 532.739 107.375 533.923H48.8483C48.471 532.739 47.728 531.706 46.7264 530.972C45.7248 530.238 44.5163 529.841 43.2749 529.838C42.8702 529.841 42.4668 529.886 42.0711 529.971L12.8801 479.423C13.865 478.34 14.4028 476.924 14.3848 475.459C14.3809 473.999 13.8313 472.594 12.844 471.519L42.035 420.972C42.4293 421.066 42.8333 421.115 43.2388 421.116C44.4802 421.114 45.6887 420.717 46.6903 419.983C47.6919 419.249 48.4349 418.215 48.8121 417.031H107.315C107.692 418.232 108.444 419.279 109.46 420.021C110.476 420.763 111.703 421.159 112.96 421.152C113.364 421.151 113.767 421.11 114.164 421.032L143.343 471.555C142.351 472.625 141.8 474.03 141.8 475.489C141.8 476.948 142.351 478.354 143.343 479.423L114.08 529.959C113.712 529.88 113.336 529.84 112.96 529.838Z" fill="#86CDD3"/>
</g>
<g style="mix-blend-mode:screen" opacity="0.35">
<path d="M619.619 469.603C619.215 469.606 618.811 469.651 618.416 469.736L589.249 419.236C590.281 418.152 590.855 416.71 590.85 415.212C590.855 413.807 590.358 412.446 589.448 411.376C588.538 410.306 587.275 409.598 585.889 409.38C584.502 409.161 583.083 409.447 581.889 410.185C580.695 410.924 579.804 412.066 579.378 413.405H520.852C520.586 412.566 520.137 411.799 519.536 411.157C518.935 410.516 518.198 410.018 517.379 409.7C516.56 409.381 515.681 409.251 514.805 409.318C513.929 409.385 513.08 409.647 512.319 410.086C511.558 410.525 510.905 411.129 510.408 411.854C509.911 412.579 509.583 413.406 509.447 414.275C509.312 415.144 509.373 416.032 509.626 416.874C509.879 417.716 510.317 418.49 510.909 419.14L481.73 469.687C481.334 469.603 480.931 469.559 480.526 469.555C478.965 469.555 477.467 470.176 476.364 471.281C475.26 472.386 474.639 473.884 474.639 475.447C474.639 477.01 475.26 478.509 476.364 479.614C477.467 480.719 478.965 481.339 480.526 481.339C480.931 481.337 481.335 481.289 481.73 481.195L510.909 531.742C510.319 532.392 509.882 533.166 509.63 534.007C509.379 534.848 509.318 535.735 509.454 536.602C509.589 537.47 509.917 538.296 510.413 539.02C510.909 539.744 511.56 540.348 512.32 540.787C513.079 541.226 513.928 541.489 514.802 541.557C515.677 541.625 516.555 541.497 517.373 541.18C518.192 540.864 518.929 540.369 519.531 539.73C520.132 539.091 520.584 538.326 520.852 537.49H579.318C579.586 538.329 580.039 539.098 580.643 539.739C581.248 540.38 581.988 540.876 582.811 541.192C583.633 541.507 584.515 541.634 585.393 541.562C586.27 541.49 587.121 541.222 587.881 540.776C588.641 540.331 589.291 539.721 589.783 538.99C590.276 538.26 590.598 537.428 590.726 536.555C590.854 535.683 590.784 534.794 590.522 533.952C590.26 533.111 589.813 532.339 589.213 531.694L618.38 481.195C618.774 481.29 619.178 481.338 619.583 481.339C621.144 481.339 622.642 480.719 623.746 479.614C624.849 478.509 625.47 477.01 625.47 475.447C625.47 473.884 624.849 472.386 623.746 471.281C622.642 470.176 621.144 469.555 619.583 469.555L619.619 469.603ZM584.891 529.85C583.65 529.853 582.441 530.25 581.44 530.984C580.438 531.718 579.695 532.751 579.318 533.935H520.852C520.47 532.751 519.725 531.719 518.722 530.985C517.718 530.251 516.509 529.854 515.266 529.85C514.861 529.855 514.458 529.899 514.062 529.983L484.883 479.435C485.867 478.362 486.413 476.958 486.413 475.501C486.413 474.045 485.867 472.641 484.883 471.567L514.062 421.02C514.457 421.113 514.861 421.162 515.266 421.164C516.509 421.161 517.718 420.764 518.722 420.03C519.725 419.296 520.47 418.263 520.852 417.08H579.318C579.695 418.263 580.438 419.297 581.44 420.031C582.441 420.765 583.65 421.162 584.891 421.164C585.295 421.162 585.698 421.122 586.095 421.044L615.262 471.567C614.278 472.641 613.732 474.045 613.732 475.501C613.732 476.958 614.278 478.362 615.262 479.435L586.035 529.959C585.659 529.879 585.275 529.839 584.891 529.838V529.85Z" fill="#86CDD3"/>
</g>
<g style="mix-blend-mode:screen" opacity="0.35">
<path d="M501.772 535.706C501.367 535.71 500.964 535.754 500.568 535.839L471.413 485.34C472.011 484.693 472.456 483.921 472.715 483.08C472.975 482.238 473.042 481.349 472.912 480.478C472.782 479.607 472.459 478.777 471.966 478.048C471.472 477.319 470.822 476.71 470.062 476.266C469.302 475.823 468.452 475.556 467.575 475.485C466.698 475.414 465.817 475.541 464.996 475.857C464.174 476.172 463.435 476.669 462.831 477.309C462.227 477.949 461.774 478.717 461.507 479.556H403.064C402.639 478.217 401.748 477.075 400.554 476.337C399.359 475.598 397.94 475.313 396.554 475.531C395.167 475.75 393.904 476.458 392.994 477.528C392.084 478.598 391.587 479.958 391.593 481.363C391.594 482.82 392.144 484.223 393.133 485.291L363.942 535.899C363.084 535.714 362.195 535.723 361.34 535.926C360.485 536.13 359.687 536.522 359.004 537.074C358.32 537.626 357.769 538.325 357.39 539.118C357.011 539.911 356.815 540.78 356.815 541.659C356.815 542.538 357.011 543.406 357.39 544.2C357.769 544.993 358.32 545.691 359.004 546.244C359.687 546.796 360.485 547.188 361.34 547.391C362.195 547.595 363.084 547.604 363.942 547.418L393.133 597.954C392.534 598.603 392.089 599.378 391.83 600.223C391.572 601.068 391.507 601.96 391.64 602.833C391.773 603.707 392.101 604.539 392.6 605.268C393.099 605.997 393.755 606.604 394.521 607.044C395.286 607.484 396.14 607.746 397.021 607.81C397.901 607.874 398.784 607.739 399.605 607.414C400.426 607.09 401.163 606.584 401.762 605.935C402.361 605.286 402.806 604.51 403.064 603.665H461.531C461.801 604.502 462.255 605.267 462.86 605.905C463.465 606.543 464.205 607.037 465.025 607.35C465.846 607.664 466.727 607.789 467.602 607.717C468.478 607.645 469.326 607.377 470.084 606.934C470.843 606.49 471.492 605.882 471.985 605.153C472.477 604.425 472.8 603.596 472.93 602.726C473.06 601.856 472.993 600.969 472.735 600.128C472.477 599.288 472.033 598.516 471.438 597.869L500.568 547.382C500.964 547.467 501.367 547.511 501.772 547.515C503.333 547.515 504.83 546.894 505.934 545.789C507.038 544.684 507.658 543.185 507.658 541.623C507.658 540.06 507.038 538.561 505.934 537.456C504.83 536.351 503.333 535.73 501.772 535.73V535.706ZM467.056 595.954C465.813 595.957 464.604 596.354 463.601 597.088C462.597 597.822 461.852 598.855 461.47 600.038H403.064C402.687 598.855 401.944 597.821 400.943 597.087C399.941 596.353 398.732 595.956 397.491 595.954C397.086 595.957 396.683 596.001 396.287 596.086L367.096 545.478C368.088 544.409 368.639 543.004 368.639 541.544C368.639 540.085 368.088 538.68 367.096 537.61L396.287 487.063C396.682 487.158 397.086 487.206 397.491 487.207C398.732 487.205 399.941 486.808 400.943 486.074C401.944 485.34 402.687 484.306 403.064 483.123H461.531C461.912 484.306 462.657 485.339 463.661 486.073C464.664 486.807 465.874 487.204 467.116 487.207C467.52 487.206 467.923 487.166 468.32 487.087L497.499 537.61C496.507 538.68 495.956 540.085 495.956 541.544C495.956 543.004 496.507 544.409 497.499 545.478L468.32 596.014C467.902 595.945 467.478 595.925 467.056 595.954Z" fill="#86CDD3"/>
</g>
<g style="mix-blend-mode:screen" opacity="0.35">
<path d="M384.755 469.603C384.351 469.606 383.947 469.651 383.552 469.736L354.397 419.236C354.994 418.59 355.439 417.818 355.699 416.976C355.958 416.135 356.025 415.246 355.895 414.375C355.766 413.504 355.442 412.674 354.949 411.945C354.455 411.216 353.805 410.607 353.045 410.163C352.285 409.719 351.435 409.452 350.558 409.381C349.682 409.31 348.8 409.438 347.979 409.753C347.158 410.069 346.418 410.565 345.814 411.206C345.21 411.846 344.758 412.614 344.49 413.453H285.987C285.562 412.114 284.671 410.972 283.477 410.233C282.282 409.495 280.863 409.209 279.477 409.428C278.09 409.646 276.827 410.355 275.917 411.424C275.007 412.494 274.51 413.855 274.516 415.26C274.517 416.717 275.067 418.12 276.057 419.188L246.866 469.736C246.057 469.561 245.221 469.559 244.411 469.73C243.602 469.9 242.837 470.24 242.168 470.726C241.498 471.213 240.939 471.835 240.525 472.552C240.112 473.269 239.855 474.066 239.769 474.889C239.684 475.713 239.774 476.545 240.031 477.332C240.289 478.119 240.71 478.842 241.266 479.456C241.822 480.069 242.501 480.558 243.258 480.89C244.016 481.223 244.835 481.393 245.662 481.387C246.067 481.386 246.471 481.338 246.866 481.243L276.057 531.79C275.462 532.439 275.021 533.213 274.766 534.055C274.511 534.897 274.447 535.786 274.581 536.656C274.714 537.526 275.041 538.354 275.537 539.081C276.033 539.808 276.686 540.413 277.447 540.854C278.208 541.294 279.058 541.558 279.935 541.626C280.811 541.694 281.692 541.564 282.511 541.246C283.331 540.927 284.069 540.429 284.67 539.787C285.272 539.146 285.722 538.377 285.987 537.538H344.454C344.724 538.375 345.178 539.14 345.783 539.778C346.388 540.416 347.128 540.91 347.948 541.223C348.769 541.537 349.65 541.662 350.525 541.59C351.401 541.518 352.249 541.25 353.007 540.806C353.766 540.363 354.415 539.754 354.908 539.026C355.4 538.298 355.723 537.468 355.853 536.599C355.983 535.729 355.916 534.841 355.658 534.001C355.4 533.16 354.956 532.388 354.361 531.742L383.515 481.243C383.91 481.338 384.314 481.386 384.719 481.387C386.28 481.387 387.778 480.767 388.881 479.662C389.985 478.557 390.606 477.058 390.606 475.495C390.606 473.933 389.985 472.434 388.881 471.329C387.778 470.224 386.28 469.603 384.719 469.603H384.755ZM350.039 529.85C348.797 529.854 347.587 530.251 346.584 530.985C345.58 531.719 344.835 532.751 344.454 533.935H285.987C285.61 532.751 284.867 531.718 283.866 530.984C282.864 530.25 281.655 529.853 280.414 529.85C280.009 529.853 279.606 529.898 279.21 529.983L250.019 479.435C251.011 478.366 251.562 476.961 251.562 475.501C251.562 474.042 251.011 472.637 250.019 471.567L279.21 421.02C279.605 421.115 280.009 421.163 280.414 421.164C281.655 421.162 282.864 420.765 283.866 420.031C284.867 419.297 285.61 418.263 285.987 417.08H344.454C344.835 418.263 345.58 419.296 346.584 420.03C347.587 420.764 348.797 421.161 350.039 421.164C350.443 421.162 350.846 421.122 351.243 421.044L380.422 471.567C379.43 472.637 378.879 474.042 378.879 475.501C378.879 476.961 379.43 478.366 380.422 479.435L351.243 529.971C350.867 529.887 350.484 529.843 350.099 529.838L350.039 529.85Z" fill="#86CDD3"/>
</g>
<g style="mix-blend-mode:screen" opacity="0.35">
<path d="M264.633 399.704C264.228 399.708 263.825 399.753 263.429 399.837L234.274 349.338C234.872 348.691 235.317 347.919 235.576 347.078C235.835 346.236 235.903 345.347 235.773 344.476C235.643 343.605 235.32 342.775 234.826 342.046C234.333 341.317 233.682 340.708 232.922 340.264C232.163 339.821 231.313 339.554 230.436 339.483C229.559 339.412 228.678 339.539 227.857 339.855C227.035 340.17 226.295 340.667 225.692 341.307C225.088 341.947 224.635 342.715 224.367 343.554H165.925C165.492 342.221 164.599 341.087 163.405 340.354C162.212 339.622 160.796 339.339 159.413 339.556C158.03 339.774 156.77 340.478 155.859 341.542C154.948 342.606 154.445 343.96 154.441 345.361C154.442 346.818 154.993 348.221 155.982 349.289L126.779 399.837C125.971 399.662 125.134 399.66 124.325 399.831C123.515 400.002 122.751 400.341 122.081 400.827C121.412 401.314 120.852 401.936 120.439 402.653C120.026 403.37 119.768 404.167 119.683 404.991C119.598 405.814 119.687 406.646 119.945 407.433C120.203 408.22 120.624 408.944 121.18 409.557C121.736 410.17 122.414 410.659 123.172 410.992C123.929 411.325 124.748 411.494 125.575 411.489C125.981 411.486 126.385 411.438 126.779 411.344L155.958 461.891C154.978 462.965 154.433 464.365 154.429 465.82C154.433 467.221 154.936 468.575 155.847 469.639C156.758 470.703 158.018 471.407 159.401 471.625C160.784 471.842 162.2 471.559 163.393 470.827C164.586 470.094 165.48 468.96 165.913 467.627H224.367C224.638 468.464 225.092 469.229 225.697 469.867C226.301 470.505 227.041 470.999 227.862 471.312C228.683 471.626 229.563 471.751 230.439 471.679C231.314 471.607 232.163 471.339 232.921 470.895C233.68 470.452 234.329 469.843 234.821 469.115C235.314 468.387 235.637 467.558 235.767 466.688C235.897 465.818 235.83 464.93 235.572 464.09C235.313 463.249 234.87 462.478 234.274 461.831L263.429 411.344C263.824 411.438 264.227 411.487 264.633 411.489C265.406 411.489 266.171 411.336 266.886 411.04C267.6 410.744 268.249 410.31 268.795 409.763C269.342 409.216 269.775 408.566 270.071 407.851C270.367 407.136 270.519 406.37 270.519 405.596C270.519 404.823 270.367 404.057 270.071 403.342C269.775 402.627 269.342 401.977 268.795 401.43C268.249 400.883 267.6 400.449 266.886 400.153C266.171 399.857 265.406 399.704 264.633 399.704ZM229.917 459.952C228.674 459.955 227.465 460.352 226.461 461.086C225.458 461.82 224.712 462.852 224.331 464.036H165.925C165.544 462.852 164.798 461.82 163.795 461.086C162.792 460.352 161.582 459.955 160.34 459.952C159.935 459.955 159.532 459.999 159.136 460.084L129.957 409.476C130.941 408.403 131.487 406.999 131.487 405.542C131.487 404.085 130.941 402.682 129.957 401.608L159.088 351.109C159.482 351.203 159.886 351.252 160.292 351.253C161.542 351.26 162.763 350.868 163.776 350.133C164.789 349.399 165.542 348.36 165.925 347.169H224.379C224.761 348.353 225.506 349.385 226.509 350.119C227.513 350.853 228.722 351.25 229.965 351.253C230.369 351.253 230.772 351.212 231.169 351.133L260.348 401.656C259.364 402.73 258.818 404.134 258.818 405.59C258.818 407.047 259.364 408.451 260.348 409.525L231.169 460.06C230.769 459.974 230.361 459.933 229.953 459.939L229.917 459.952Z" fill="#86CDD3"/>
</g>
<g style="mix-blend-mode:screen" opacity="0.35">
<path d="M1095.1 601.858C1094.7 601.861 1094.29 601.905 1093.9 601.99L1064.69 551.491C1065.71 550.415 1066.27 548.993 1066.27 547.515C1066.28 546.11 1065.78 544.749 1064.87 543.679C1063.96 542.609 1062.7 541.901 1061.31 541.683C1059.92 541.464 1058.51 541.75 1057.31 542.488C1056.12 543.227 1055.23 544.368 1054.8 545.707H996.334C996.068 544.869 995.619 544.101 995.018 543.46C994.417 542.819 993.68 542.321 992.861 542.003C992.043 541.684 991.163 541.554 990.287 541.621C989.411 541.687 988.562 541.95 987.801 542.389C987.04 542.828 986.387 543.432 985.89 544.157C985.393 544.882 985.065 545.709 984.93 546.578C984.794 547.447 984.855 548.335 985.108 549.177C985.361 550.018 985.799 550.793 986.391 551.443L957.212 602.051C956.816 601.966 956.413 601.922 956.008 601.918C954.447 601.918 952.95 602.539 951.846 603.644C950.742 604.749 950.122 606.248 950.122 607.81C950.122 609.373 950.742 610.872 951.846 611.977C952.95 613.082 954.447 613.702 956.008 613.702C956.413 613.699 956.816 613.654 957.212 613.57L986.391 664.105C985.801 664.755 985.364 665.529 985.113 666.37C984.861 667.211 984.801 668.098 984.936 668.965C985.071 669.833 985.399 670.659 985.895 671.383C986.391 672.107 987.043 672.711 987.802 673.15C988.562 673.589 989.41 673.852 990.284 673.92C991.159 673.989 992.037 673.86 992.856 673.544C993.674 673.227 994.411 672.732 995.013 672.093C995.615 671.454 996.066 670.689 996.334 669.853H1054.8C1055.23 671.192 1056.12 672.334 1057.31 673.072C1058.51 673.81 1059.92 674.096 1061.31 673.878C1062.7 673.659 1063.96 672.951 1064.87 671.881C1065.78 670.811 1066.28 669.451 1066.27 668.045C1066.27 666.567 1065.71 665.145 1064.69 664.069L1093.86 613.57C1094.67 613.744 1095.51 613.746 1096.32 613.576C1097.13 613.405 1097.89 613.065 1098.56 612.579C1099.23 612.093 1099.79 611.471 1100.2 610.754C1100.62 610.036 1100.87 609.24 1100.96 608.416C1101.04 607.593 1100.95 606.76 1100.7 605.973C1100.44 605.187 1100.02 604.463 1099.46 603.85C1098.91 603.237 1098.23 602.748 1097.47 602.415C1096.71 602.082 1095.89 601.913 1095.07 601.918L1095.1 601.858ZM1060.37 662.105C1059.13 662.108 1057.92 662.504 1056.92 663.238C1055.92 663.973 1055.18 665.006 1054.8 666.19H996.334C995.953 665.006 995.207 663.973 994.204 663.24C993.2 662.506 991.991 662.109 990.748 662.105C990.344 662.109 989.941 662.154 989.545 662.238L960.366 611.63C961.349 610.556 961.895 609.153 961.895 607.696C961.895 606.239 961.349 604.835 960.366 603.762L989.545 553.226C989.941 553.31 990.344 553.355 990.748 553.359C991.991 553.355 993.2 552.958 994.204 552.224C995.207 551.491 995.953 550.458 996.334 549.274H1054.8C1055.18 550.458 1055.92 551.491 1056.92 552.225C1057.92 552.959 1059.13 553.356 1060.37 553.359C1060.78 553.356 1061.18 553.316 1061.58 553.238L1090.76 603.762C1089.76 604.831 1089.21 606.237 1089.21 607.696C1089.21 609.155 1089.76 610.56 1090.76 611.63L1061.52 662.226C1061.14 662.142 1060.76 662.097 1060.37 662.093V662.105Z" fill="#86CDD3"/>
</g>
</g>
<g opacity="0.45">
<g style="mix-blend-mode:multiply" opacity="0.75">
<path d="M846.238 341.192H776.023L740.91 401.994L776.023 462.795H846.238L881.351 401.994L846.238 341.192Z" fill="#A0D6DB"/>
</g>
<g style="mix-blend-mode:multiply" opacity="0.75">
<path d="M160.508 602.605H90.2935L55.192 663.406L90.2935 724.208H160.508L195.622 663.406L160.508 602.605Z" fill="#A0D6DB"/>
</g>
<g style="mix-blend-mode:multiply" opacity="0.45">
<path d="M731.195 276.318H660.98L625.867 337.119L660.98 397.921H731.195L766.297 337.119L731.195 276.318Z" fill="#A0D6DB"/>
</g>
<g style="mix-blend-mode:multiply" opacity="0.45">
<path d="M846.238 474.266H776.023L740.91 535.068L776.023 595.869H846.238L881.351 535.068L846.238 474.266Z" fill="#A0D6DB"/>
</g>
<g style="mix-blend-mode:multiply" opacity="0.45">
<path d="M616.694 471.495H546.479L511.366 532.296L546.479 593.098H616.694L651.796 532.296L616.694 471.495Z" fill="#A0D6DB"/>
</g>
<g style="mix-blend-mode:multiply" opacity="0.25">
<path d="M614.877 78.0804H544.662L509.548 138.882L544.662 199.683H614.877L649.978 138.882L614.877 78.0804Z" fill="#A0D6DB"/>
</g>
<g style="mix-blend-mode:multiply" opacity="0.25">
<path d="M273.793 145.316H203.579L168.477 206.118L203.579 266.919H273.793L308.907 206.118L273.793 145.316Z" fill="#A0D6DB"/>
</g>
<g style="mix-blend-mode:multiply" opacity="0.25">
<path d="M962.556 407.32H892.342L857.228 468.121L892.342 528.923H962.556L997.67 468.121L962.556 407.32Z" fill="#A0D6DB"/>
</g>
<g style="mix-blend-mode:multiply" opacity="0.25">
<path d="M505.046 663.406H434.831L399.718 724.208L434.831 785.009H505.046L540.148 724.208L505.046 663.406Z" fill="#A0D6DB"/>
</g>
<g style="mix-blend-mode:multiply" opacity="0.25">
<path d="M274.395 538.321H204.18L169.079 599.123L204.18 659.924H274.395L309.509 599.123L274.395 538.321Z" fill="#A0D6DB"/>
</g>
<g style="mix-blend-mode:multiply" opacity="0.25">
<path d="M500.388 276.318H430.173L395.059 337.119L430.173 397.921H500.388L535.501 337.119L500.388 276.318Z" fill="#A0D6DB"/>
</g>
<g style="mix-blend-mode:multiply" opacity="0.25">
<path d="M615.491 209.082H545.276L510.162 269.884L545.276 330.685H615.491L650.592 269.884L615.491 209.082Z" fill="#A0D6DB"/>
</g>
<g style="mix-blend-mode:multiply" opacity="0.25">
<path d="M731.195 407.32H660.98L625.867 468.121L660.98 528.923H731.195L766.297 468.121L731.195 407.32Z" fill="#A0D6DB"/>
</g>
<g style="mix-blend-mode:multiply" opacity="0.25">
<path d="M161.11 339.987H90.8833L55.7819 400.789L90.8833 461.59H161.11L196.212 400.789L161.11 339.987Z" fill="#A0D6DB"/>
</g>
<g style="mix-blend-mode:multiply" opacity="0.75">
<path d="M500.388 145.316H430.173L395.059 206.118L430.173 266.919H500.388L535.501 206.118L500.388 145.316Z" fill="#A0D6DB"/>
</g>
<g style="mix-blend-mode:multiply" opacity="0.75">
<path d="M614.877 339.987H544.662L509.548 400.789L544.662 461.59H614.877L649.978 400.789L614.877 339.987Z" fill="#A0D6DB"/>
</g>
<g style="mix-blend-mode:multiply" opacity="0.75">
<path d="M160.508 210.287H90.2935L55.192 271.088L90.2935 331.89H160.508L195.622 271.088L160.508 210.287Z" fill="#A0D6DB"/>
</g>
<g style="mix-blend-mode:multiply" opacity="0.75">
<path d="M387.692 604.352H317.478L282.364 665.154L317.478 725.955H387.692L422.806 665.154L387.692 604.352Z" fill="#A0D6DB"/>
</g>
<g style="mix-blend-mode:multiply" opacity="0.75">
<path d="M274.395 407.32H204.18L169.079 468.121L204.18 528.923H274.395L309.509 468.121L274.395 407.32Z" fill="#A0D6DB"/>
</g>
<g style="mix-blend-mode:multiply" opacity="0.45">
<path d="M387.091 210.287H316.876L281.762 271.088L316.876 331.89H387.091L422.204 271.088L387.091 210.287Z" fill="#A0D6DB"/>
</g>
<g style="mix-blend-mode:multiply" opacity="0.45">
<path d="M274.395 276.318H204.18L169.079 337.119L204.18 397.921H274.395L309.509 337.119L274.395 276.318Z" fill="#A0D6DB"/>
</g>
<g style="mix-blend-mode:multiply" opacity="0.45">
<path d="M160.508 469.688H90.2935L55.192 530.489L90.2935 591.291H160.508L195.622 530.489L160.508 469.688Z" fill="#A0D6DB"/>
</g>
<g style="mix-blend-mode:multiply" opacity="0.45">
<path d="M273.793 669.323H203.579L168.477 730.124L203.579 790.926H273.793L308.907 730.124L273.793 669.323Z" fill="#A0D6DB"/>
</g>
<g style="mix-blend-mode:multiply" opacity="0.45">
<path d="M500.388 407.32H430.173L395.059 468.121L430.173 528.923H500.388L535.501 468.121L500.388 407.32Z" fill="#A0D6DB"/>
</g>
</g>
<g style="mix-blend-mode:multiply">
<g style="mix-blend-mode:screen">
<path d="M266.114 672.841C265.708 672.849 265.305 672.898 264.91 672.986L235.743 622.462C236.756 621.382 237.319 619.956 237.32 618.474C237.323 617.07 236.823 615.711 235.912 614.643C235.001 613.576 233.739 612.87 232.353 612.653C230.967 612.436 229.549 612.723 228.356 613.461C227.163 614.199 226.274 615.341 225.848 616.679H167.358C167.083 615.849 166.626 615.091 166.022 614.46C165.417 613.829 164.68 613.341 163.863 613.031C163.046 612.721 162.17 612.598 161.3 612.67C160.429 612.741 159.586 613.007 158.831 613.446C158.075 613.885 157.428 614.487 156.934 615.209C156.441 615.93 156.115 616.753 155.979 617.617C155.843 618.48 155.902 619.364 156.15 620.202C156.399 621.04 156.831 621.812 157.415 622.462L128.236 672.986C127.84 672.898 127.437 672.849 127.032 672.841C126.236 672.805 125.441 672.931 124.694 673.211C123.948 673.491 123.266 673.92 122.69 674.471C122.114 675.022 121.655 675.685 121.342 676.418C121.029 677.152 120.867 677.941 120.867 678.739C120.867 679.537 121.029 680.327 121.342 681.06C121.655 681.794 122.114 682.456 122.69 683.007C123.266 683.559 123.948 683.987 124.694 684.267C125.441 684.548 126.236 684.673 127.032 684.637C127.437 684.629 127.84 684.581 128.236 684.493L157.415 735.04C156.823 735.69 156.385 736.465 156.132 737.307C155.879 738.149 155.818 739.037 155.954 739.905C156.089 740.774 156.417 741.601 156.914 742.326C157.411 743.051 158.064 743.655 158.825 744.094C159.586 744.533 160.435 744.796 161.311 744.863C162.187 744.929 163.066 744.799 163.885 744.481C164.704 744.162 165.441 743.664 166.042 743.023C166.643 742.382 167.092 741.614 167.358 740.776H225.824C226.089 741.617 226.541 742.388 227.144 743.032C227.748 743.675 228.489 744.174 229.311 744.492C230.134 744.809 231.017 744.938 231.896 744.867C232.775 744.796 233.627 744.529 234.388 744.083C235.149 743.638 235.801 743.027 236.294 742.296C236.788 741.565 237.11 740.731 237.238 739.858C237.366 738.985 237.296 738.094 237.033 737.252C236.77 736.409 236.321 735.637 235.719 734.992L264.874 684.493C265.269 684.581 265.672 684.629 266.077 684.637C266.874 684.673 267.669 684.548 268.415 684.267C269.161 683.987 269.843 683.559 270.419 683.007C270.995 682.456 271.454 681.794 271.767 681.06C272.081 680.327 272.242 679.537 272.242 678.739C272.242 677.941 272.081 677.152 271.767 676.418C271.454 675.685 270.995 675.022 270.419 674.471C269.843 673.92 269.161 673.491 268.415 673.211C267.669 672.931 266.874 672.805 266.077 672.841H266.114ZM231.397 733.088C230.155 733.089 228.946 733.485 227.944 734.219C226.942 734.954 226.2 735.988 225.824 737.173H167.358C166.98 735.987 166.235 734.952 165.231 734.218C164.227 733.484 163.016 733.088 161.772 733.088C161.368 733.092 160.964 733.137 160.569 733.221L131.353 682.709C132.337 681.636 132.883 680.232 132.883 678.775C132.883 677.319 132.337 675.915 131.353 674.841L160.532 624.233C160.928 624.317 161.331 624.362 161.736 624.366C162.98 624.366 164.191 623.97 165.195 623.236C166.199 622.502 166.944 621.467 167.322 620.281H225.788C226.163 621.466 226.906 622.501 227.908 623.235C228.91 623.969 230.119 624.365 231.361 624.366C231.765 624.368 232.168 624.331 232.565 624.258L261.732 674.781C260.748 675.854 260.202 677.258 260.202 678.715C260.202 680.172 260.748 681.576 261.732 682.649L232.589 733.197C232.196 733.124 231.797 733.087 231.397 733.088Z" fill="#E4EEF6"/>
</g>
<g style="mix-blend-mode:screen">
<path d="M383.142 738.981C382.738 738.984 382.334 739.028 381.939 739.113L352.736 688.614C353.746 687.537 354.31 686.115 354.312 684.638C354.318 683.232 353.821 681.872 352.911 680.802C352.001 679.732 350.738 679.024 349.352 678.805C347.965 678.587 346.546 678.873 345.352 679.611C344.157 680.349 343.267 681.491 342.841 682.83H284.374C284.109 681.992 283.659 681.224 283.058 680.583C282.458 679.942 281.721 679.444 280.902 679.125C280.083 678.807 279.204 678.676 278.328 678.743C277.452 678.81 276.602 679.073 275.841 679.512C275.081 679.951 274.428 680.555 273.931 681.28C273.434 682.005 273.106 682.832 272.97 683.701C272.835 684.569 272.896 685.457 273.149 686.299C273.402 687.141 273.84 687.916 274.431 688.566L245.252 739.113C244.857 739.029 244.453 738.984 244.049 738.981C243.276 738.981 242.51 739.133 241.796 739.429C241.082 739.725 240.433 740.159 239.886 740.706C239.34 741.254 238.906 741.903 238.61 742.618C238.315 743.333 238.162 744.099 238.162 744.873C238.162 745.647 238.315 746.413 238.61 747.128C238.906 747.842 239.34 748.492 239.886 749.039C240.433 749.586 241.082 750.02 241.796 750.316C242.51 750.613 243.276 750.765 244.049 750.765C244.454 750.757 244.857 750.709 245.252 750.62L274.431 801.168C273.84 801.818 273.402 802.592 273.149 803.434C272.896 804.276 272.835 805.164 272.97 806.033C273.106 806.902 273.434 807.729 273.931 808.454C274.428 809.179 275.081 809.783 275.841 810.222C276.602 810.661 277.452 810.923 278.328 810.99C279.204 811.057 280.083 810.926 280.902 810.608C281.721 810.29 282.458 809.792 283.058 809.151C283.659 808.509 284.109 807.741 284.374 806.903H342.877C343.142 807.745 343.593 808.516 344.197 809.159C344.801 809.803 345.541 810.301 346.364 810.619C347.187 810.937 348.07 811.065 348.949 810.995C349.828 810.924 350.679 810.656 351.441 810.211C352.202 809.766 352.854 809.155 353.347 808.424C353.84 807.692 354.163 806.859 354.291 805.986C354.419 805.113 354.349 804.222 354.086 803.379C353.823 802.537 353.373 801.765 352.772 801.12L381.939 750.62C382.75 750.803 383.591 750.812 384.406 750.646C385.221 750.48 385.991 750.143 386.667 749.657C387.342 749.171 387.907 748.548 388.324 747.828C388.741 747.107 389.001 746.307 389.087 745.479C389.172 744.651 389.082 743.814 388.821 743.024C388.56 742.233 388.135 741.507 387.573 740.893C387.011 740.279 386.326 739.791 385.562 739.462C384.799 739.132 383.974 738.968 383.142 738.981ZM348.414 799.228C347.172 799.228 345.963 799.625 344.961 800.359C343.959 801.093 343.216 802.128 342.841 803.313H284.374C283.997 802.127 283.252 801.092 282.248 800.358C281.244 799.623 280.032 799.228 278.789 799.228C278.384 799.232 277.981 799.276 277.585 799.36L248.406 748.813C249.398 747.743 249.949 746.338 249.949 744.879C249.949 743.42 249.398 742.014 248.406 740.945L277.585 690.337C277.981 690.425 278.384 690.473 278.789 690.482C280.033 690.479 281.245 690.081 282.249 689.345C283.253 688.608 283.997 687.572 284.374 686.385H342.877C343.252 687.571 343.994 688.607 344.996 689.343C345.998 690.08 347.207 690.478 348.45 690.482C348.854 690.479 349.257 690.439 349.654 690.361L378.833 740.884C377.841 741.954 377.29 743.359 377.29 744.819C377.29 746.278 377.841 747.683 378.833 748.753L349.654 799.288C349.245 799.218 348.829 799.194 348.414 799.216V799.228Z" fill="#E4EEF6"/>
</g>
<g style="mix-blend-mode:screen">
<path d="M266.113 537.02C265.709 537.024 265.306 537.068 264.91 537.152L235.743 486.653C236.754 485.576 237.317 484.154 237.32 482.677C237.325 481.272 236.828 479.911 235.918 478.841C235.008 477.771 233.745 477.063 232.359 476.844C230.972 476.626 229.553 476.912 228.359 477.65C227.165 478.388 226.274 479.53 225.848 480.869H167.358C167.092 480.031 166.643 479.263 166.042 478.622C165.441 477.981 164.704 477.483 163.885 477.165C163.066 476.846 162.187 476.716 161.311 476.782C160.435 476.849 159.586 477.112 158.825 477.551C158.064 477.99 157.411 478.594 156.914 479.319C156.417 480.044 156.089 480.871 155.954 481.74C155.818 482.608 155.879 483.496 156.132 484.338C156.385 485.18 156.823 485.955 157.415 486.605L128.236 537.212C127.84 537.128 127.437 537.084 127.032 537.08C126.259 537.08 125.494 537.232 124.779 537.528C124.065 537.825 123.416 538.259 122.87 538.806C122.323 539.353 121.89 540.002 121.594 540.717C121.298 541.432 121.146 542.198 121.146 542.972C121.146 543.746 121.298 544.512 121.594 545.227C121.89 545.942 122.323 546.591 122.87 547.138C123.416 547.686 124.065 548.12 124.779 548.416C125.494 548.712 126.259 548.864 127.032 548.864C127.437 548.862 127.841 548.813 128.236 548.72L157.415 599.327C156.825 599.977 156.388 600.751 156.137 601.592C155.885 602.433 155.824 603.32 155.96 604.188C156.095 605.055 156.423 605.881 156.919 606.605C157.415 607.329 158.066 607.933 158.826 608.372C159.586 608.811 160.434 609.074 161.308 609.143C162.183 609.211 163.061 609.082 163.879 608.766C164.698 608.449 165.435 607.954 166.037 607.315C166.639 606.676 167.09 605.911 167.358 605.075H225.824C226.092 605.915 226.545 606.683 227.149 607.324C227.754 607.965 228.495 608.461 229.317 608.777C230.139 609.092 231.021 609.219 231.899 609.147C232.777 609.075 233.627 608.807 234.387 608.362C235.147 607.917 235.797 607.306 236.289 606.575C236.782 605.845 237.104 605.013 237.232 604.141C237.36 603.269 237.29 602.379 237.028 601.537C236.766 600.696 236.319 599.924 235.719 599.279L264.874 548.78C265.268 548.873 265.672 548.922 266.077 548.924C267.639 548.924 269.136 548.304 270.24 547.199C271.344 546.094 271.964 544.595 271.964 543.032C271.964 541.47 271.344 539.971 270.24 538.866C269.136 537.761 267.639 537.14 266.077 537.14L266.113 537.02ZM231.397 597.267C230.156 597.269 228.947 597.666 227.946 598.4C226.944 599.134 226.201 600.168 225.824 601.352H167.358C166.977 600.168 166.231 599.135 165.228 598.401C164.224 597.668 163.015 597.271 161.772 597.267C161.368 597.271 160.964 597.315 160.569 597.399L131.39 546.792C132.373 545.718 132.919 544.314 132.919 542.858C132.919 541.401 132.373 539.997 131.39 538.923L160.569 488.316C160.963 488.409 161.367 488.458 161.772 488.46C163.017 488.458 164.228 488.06 165.232 487.323C166.236 486.587 166.98 485.551 167.358 484.364H225.824C226.199 485.55 226.941 486.586 227.943 487.322C228.945 488.059 230.154 488.457 231.397 488.46C231.801 488.458 232.204 488.418 232.601 488.34L261.768 538.863C260.784 539.937 260.238 541.341 260.238 542.797C260.238 544.254 260.784 545.658 261.768 546.732L232.601 597.267C232.201 597.219 231.798 597.215 231.397 597.255V597.267Z" fill="#E4EEF6"/>
</g>
<g style="mix-blend-mode:screen">
<path d="M500.978 672.841C500.573 672.849 500.169 672.897 499.774 672.986L470.583 622.462C471.18 621.816 471.625 621.044 471.885 620.202C472.144 619.361 472.211 618.472 472.082 617.601C471.952 616.73 471.628 615.899 471.135 615.17C470.642 614.441 469.991 613.833 469.231 613.389C468.471 612.945 467.622 612.678 466.745 612.607C465.868 612.536 464.986 612.663 464.165 612.979C463.344 613.295 462.604 613.791 462 614.432C461.396 615.072 460.944 615.84 460.676 616.679H402.222C401.789 615.347 400.896 614.213 399.704 613.48C398.512 612.748 397.098 612.464 395.716 612.68C394.334 612.896 393.074 613.598 392.161 614.66C391.249 615.721 390.745 617.074 390.738 618.474C390.714 619.944 391.248 621.369 392.231 622.462L363.04 673.01C362.175 672.81 361.277 672.809 360.412 673.005C359.547 673.201 358.737 673.591 358.043 674.144C357.349 674.697 356.788 675.399 356.403 676.199C356.018 676.999 355.818 677.875 355.818 678.763C355.818 679.651 356.018 680.528 356.403 681.328C356.788 682.128 357.349 682.83 358.043 683.383C358.737 683.936 359.547 684.325 360.412 684.521C361.277 684.718 362.175 684.716 363.04 684.517L392.231 735.04C391.241 736.114 390.691 737.52 390.69 738.98C390.696 740.381 391.201 741.733 392.113 742.795C393.025 743.856 394.286 744.558 395.668 744.774C397.05 744.99 398.464 744.707 399.656 743.974C400.848 743.241 401.741 742.107 402.174 740.776H460.628C460.896 741.615 461.348 742.382 461.952 743.023C462.556 743.663 463.296 744.159 464.117 744.475C464.938 744.791 465.82 744.918 466.697 744.847C467.573 744.776 468.423 744.509 469.183 744.065C469.943 743.622 470.594 743.013 471.087 742.284C471.58 741.555 471.904 740.724 472.034 739.853C472.163 738.982 472.096 738.093 471.837 737.252C471.577 736.411 471.132 735.638 470.535 734.992L499.69 684.493C500.085 684.581 500.488 684.63 500.893 684.637C501.69 684.673 502.485 684.548 503.231 684.267C503.977 683.987 504.659 683.559 505.235 683.007C505.811 682.456 506.27 681.794 506.583 681.06C506.897 680.327 507.058 679.537 507.058 678.739C507.058 677.941 506.897 677.152 506.583 676.418C506.27 675.685 505.811 675.022 505.235 674.471C504.659 673.92 503.977 673.491 503.231 673.211C502.485 672.931 501.69 672.805 500.893 672.841H500.978ZM466.261 733.088C465.018 733.088 463.807 733.484 462.803 734.218C461.799 734.952 461.054 735.987 460.676 737.173H402.222C401.844 735.987 401.099 734.952 400.095 734.218C399.091 733.484 397.88 733.088 396.636 733.088C396.232 733.092 395.828 733.136 395.433 733.221L366.206 682.71C367.197 681.64 367.748 680.235 367.748 678.775C367.748 677.316 367.197 675.911 366.206 674.841L395.397 624.234C395.792 624.318 396.196 624.363 396.6 624.366C397.844 624.366 399.055 623.971 400.059 623.236C401.063 622.502 401.808 621.467 402.186 620.281H460.64C461.018 621.467 461.763 622.502 462.767 623.236C463.771 623.971 464.982 624.366 466.225 624.366C466.629 624.369 467.032 624.333 467.429 624.258L496.608 674.781C495.624 675.854 495.078 677.258 495.078 678.715C495.078 680.172 495.624 681.576 496.608 682.649L467.441 733.197C467.052 733.123 466.657 733.087 466.261 733.088Z" fill="#E4EEF6"/>
</g>
</g>
<g style="mix-blend-mode:multiply">
<g style="mix-blend-mode:screen">
<path d="M859.551 334.637C859.147 334.641 858.743 334.686 858.348 334.77L829.193 284.271C830.204 283.194 830.767 281.772 830.77 280.294C830.775 278.889 830.278 277.528 829.368 276.459C828.458 275.389 827.195 274.68 825.809 274.462C824.422 274.243 823.003 274.529 821.809 275.268C820.614 276.006 819.724 277.148 819.298 278.487H760.796C760.53 277.649 760.081 276.881 759.48 276.24C758.879 275.599 758.142 275.1 757.323 274.782C756.504 274.464 755.625 274.333 754.749 274.4C753.873 274.467 753.024 274.729 752.263 275.168C751.502 275.607 750.849 276.211 750.352 276.936C749.855 277.661 749.527 278.489 749.391 279.357C749.256 280.226 749.317 281.114 749.57 281.956C749.823 282.798 750.261 283.572 750.853 284.222L721.674 334.77C721.278 334.686 720.874 334.641 720.47 334.637C718.909 334.637 717.411 335.258 716.308 336.363C715.204 337.468 714.583 338.967 714.583 340.529C714.583 342.092 715.204 343.591 716.308 344.696C717.411 345.801 718.909 346.422 720.47 346.422C720.875 346.413 721.278 346.365 721.674 346.277L750.853 396.824C750.263 397.474 749.826 398.248 749.574 399.089C749.323 399.93 749.262 400.817 749.398 401.685C749.533 402.552 749.861 403.378 750.357 404.102C750.853 404.826 751.504 405.43 752.264 405.869C753.023 406.308 753.872 406.572 754.746 406.64C755.621 406.708 756.499 406.579 757.317 406.263C758.136 405.946 758.873 405.451 759.475 404.812C760.076 404.174 760.528 403.408 760.796 402.572H819.262C819.537 403.403 819.994 404.162 820.599 404.793C821.204 405.425 821.943 405.913 822.76 406.223C823.578 406.532 824.455 406.655 825.326 406.583C826.197 406.51 827.041 406.243 827.797 405.803C828.552 405.362 829.2 404.758 829.692 404.034C830.185 403.311 830.509 402.487 830.643 401.622C830.777 400.757 830.716 399.874 830.465 399.035C830.214 398.197 829.78 397.425 829.193 396.776L858.348 346.277C858.743 346.365 859.146 346.413 859.551 346.422C861.113 346.422 862.61 345.801 863.714 344.696C864.818 343.591 865.438 342.092 865.438 340.529C865.438 338.967 864.818 337.468 863.714 336.363C862.61 335.258 861.113 334.637 859.551 334.637ZM824.835 394.884C823.594 394.887 822.385 395.284 821.384 396.018C820.382 396.752 819.639 397.785 819.262 398.969H760.796C760.414 397.785 759.669 396.753 758.665 396.019C757.662 395.285 756.453 394.888 755.21 394.884C754.805 394.888 754.402 394.932 754.006 395.017L724.827 344.409C725.811 343.336 726.357 341.932 726.357 340.475C726.357 339.018 725.811 337.615 724.827 336.541L754.006 285.994C754.402 286.082 754.805 286.131 755.21 286.138C756.455 286.136 757.666 285.737 758.67 285.001C759.674 284.265 760.418 283.228 760.796 282.041H819.262C819.637 283.227 820.379 284.264 821.381 285C822.383 285.736 823.592 286.135 824.835 286.138C825.239 286.136 825.642 286.096 826.039 286.018L855.206 336.541C854.222 337.615 853.676 339.018 853.676 340.475C853.676 341.932 854.222 343.336 855.206 344.409L826.039 394.945C825.641 394.877 825.238 394.853 824.835 394.872V394.884Z" fill="#E4EEF6"/>
</g>
<g style="mix-blend-mode:screen">
<path d="M976.616 264.738C976.212 264.741 975.808 264.786 975.413 264.871L946.246 214.372C947.257 213.295 947.82 211.873 947.823 210.395C947.828 208.99 947.331 207.63 946.421 206.56C945.511 205.49 944.248 204.782 942.862 204.563C941.475 204.345 940.056 204.63 938.862 205.369C937.667 206.107 936.777 207.249 936.351 208.588H877.848C877.583 207.75 877.133 206.982 876.532 206.341C875.932 205.7 875.195 205.202 874.376 204.883C873.557 204.565 872.678 204.434 871.802 204.501C870.926 204.568 870.077 204.831 869.316 205.27C868.555 205.709 867.902 206.313 867.405 207.038C866.908 207.763 866.58 208.59 866.444 209.459C866.309 210.327 866.37 211.215 866.623 212.057C866.876 212.899 867.314 213.674 867.905 214.324L838.726 264.931C838.331 264.847 837.927 264.802 837.523 264.799C835.962 264.799 834.464 265.419 833.36 266.524C832.257 267.629 831.636 269.128 831.636 270.691C831.636 272.254 832.257 273.752 833.36 274.857C834.464 275.962 835.962 276.583 837.523 276.583C837.928 276.576 838.331 276.527 838.726 276.438L867.905 327.046C867.316 327.696 866.879 328.47 866.627 329.311C866.376 330.152 866.315 331.039 866.451 331.906C866.586 332.774 866.914 333.6 867.41 334.324C867.906 335.048 868.557 335.652 869.317 336.091C870.076 336.53 870.924 336.793 871.799 336.861C872.673 336.929 873.552 336.801 874.37 336.484C875.189 336.168 875.926 335.673 876.527 335.034C877.129 334.395 877.581 333.63 877.848 332.794H936.327C936.595 333.633 937.047 334.402 937.652 335.043C938.257 335.684 938.997 336.18 939.82 336.496C940.642 336.811 941.524 336.938 942.402 336.866C943.279 336.794 944.13 336.526 944.89 336.08C945.65 335.635 946.3 335.025 946.792 334.294C947.285 333.564 947.607 332.731 947.735 331.859C947.863 330.987 947.793 330.098 947.531 329.256C947.269 328.415 946.822 327.643 946.222 326.998L975.388 276.499C976.2 276.682 977.041 276.69 977.856 276.524C978.671 276.358 979.441 276.021 980.116 275.535C980.792 275.05 981.357 274.426 981.774 273.706C982.191 272.986 982.451 272.185 982.537 271.357C982.622 270.529 982.532 269.692 982.271 268.902C982.01 268.111 981.584 267.385 981.023 266.771C980.461 266.157 979.776 265.669 979.012 265.34C978.249 265.01 977.424 264.846 976.592 264.859L976.616 264.738ZM941.888 324.986C940.65 324.99 939.446 325.386 938.447 326.118C937.447 326.849 936.705 327.879 936.327 329.058H877.848C877.467 327.875 876.722 326.842 875.718 326.108C874.715 325.374 873.506 324.977 872.263 324.974C871.858 324.978 871.455 325.022 871.059 325.106L841.88 274.498C842.864 273.425 843.41 272.021 843.41 270.564C843.41 269.108 842.864 267.704 841.88 266.63L871.059 216.083C871.455 216.171 871.858 216.219 872.263 216.227C873.508 216.225 874.719 215.827 875.723 215.09C876.727 214.354 877.471 213.318 877.848 212.131H936.327C936.702 213.317 937.444 214.353 938.446 215.089C939.447 215.825 940.657 216.224 941.9 216.227C942.304 216.225 942.707 216.185 943.104 216.107L972.283 266.63C971.291 267.7 970.74 269.105 970.74 270.564C970.74 272.024 971.291 273.429 972.283 274.498L943.104 325.034C942.702 324.969 942.294 324.949 941.888 324.974V324.986Z" fill="#E4EEF6"/>
</g>
</g>
<g style="mix-blend-mode:multiply">
<g style="mix-blend-mode:screen">
<path d="M856.987 738.981C856.583 738.984 856.179 739.028 855.784 739.113L826.581 688.614C827.592 687.537 828.155 686.115 828.158 684.638C828.163 683.232 827.666 681.872 826.756 680.802C825.846 679.732 824.583 679.024 823.197 678.805C821.81 678.587 820.391 678.873 819.197 679.611C818.002 680.349 817.112 681.491 816.686 682.83H758.171C757.906 681.992 757.456 681.224 756.855 680.583C756.254 679.942 755.518 679.444 754.699 679.125C753.88 678.807 753.001 678.676 752.125 678.743C751.249 678.81 750.399 679.073 749.638 679.512C748.877 679.951 748.224 680.555 747.728 681.28C747.231 682.005 746.903 682.832 746.767 683.701C746.632 684.569 746.693 685.457 746.946 686.299C747.199 687.141 747.637 687.916 748.228 688.566L719.049 739.113C718.654 739.029 718.25 738.984 717.846 738.981C716.285 738.981 714.787 739.601 713.683 740.706C712.579 741.811 711.959 743.31 711.959 744.873C711.959 746.436 712.579 747.934 713.683 749.039C714.787 750.144 716.285 750.765 717.846 750.765C718.251 750.757 718.654 750.709 719.049 750.62L748.228 801.168C747.637 801.818 747.199 802.592 746.946 803.434C746.693 804.276 746.632 805.164 746.767 806.033C746.903 806.902 747.231 807.729 747.728 808.454C748.224 809.179 748.877 809.783 749.638 810.222C750.399 810.661 751.249 810.923 752.125 810.99C753.001 811.057 753.88 810.926 754.699 810.608C755.518 810.29 756.254 809.792 756.855 809.151C757.456 808.509 757.906 807.741 758.171 806.903H816.638C816.903 807.745 817.354 808.516 817.958 809.159C818.562 809.803 819.302 810.301 820.125 810.619C820.947 810.937 821.831 811.065 822.71 810.995C823.589 810.924 824.44 810.656 825.202 810.211C825.963 809.766 826.615 809.155 827.108 808.424C827.601 807.692 827.924 806.859 828.052 805.986C828.179 805.113 828.109 804.222 827.846 803.379C827.583 802.537 827.134 801.765 826.532 801.12L855.699 750.62C856.511 750.803 857.352 750.812 858.166 750.646C858.981 750.48 859.752 750.143 860.427 749.657C861.103 749.171 861.668 748.548 862.085 747.828C862.502 747.107 862.762 746.307 862.847 745.479C862.933 744.651 862.842 743.814 862.582 743.024C862.321 742.233 861.895 741.507 861.334 740.893C860.772 740.279 860.087 739.791 859.323 739.462C858.559 739.132 857.735 738.968 856.903 738.981H856.987ZM822.271 799.228C821.028 799.228 819.816 799.623 818.812 800.358C817.808 801.092 817.064 802.127 816.686 803.313H758.171C757.731 801.923 756.788 800.748 755.528 800.017C754.268 799.286 752.782 799.052 751.358 799.36L722.167 748.813C723.159 747.743 723.71 746.338 723.71 744.879C723.71 743.42 723.159 742.014 722.167 740.945L751.358 690.337C752.783 690.663 754.277 690.436 755.541 689.703C756.806 688.969 757.745 687.784 758.171 686.385H816.638C817.015 687.572 817.759 688.608 818.763 689.345C819.767 690.081 820.979 690.479 822.223 690.482C822.627 690.479 823.03 690.439 823.427 690.361L852.606 740.884C851.614 741.954 851.063 743.359 851.063 744.819C851.063 746.278 851.614 747.683 852.606 748.753L823.427 799.288C823.045 799.224 822.658 799.199 822.271 799.216V799.228Z" fill="#E4EEF6"/>
</g>
</g>
<g style="mix-blend-mode:multiply">
<g style="mix-blend-mode:screen">
<path d="M145.016 60.2353C144.612 60.2383 144.208 60.2827 143.813 60.3678L114.622 9.86861C115.219 9.22235 115.664 8.45001 115.923 7.60861C116.183 6.76721 116.25 5.87824 116.12 5.00732C115.991 4.13639 115.667 3.30576 115.174 2.57673C114.68 1.84771 114.03 1.23891 113.27 0.795278C112.51 0.351649 111.66 0.0845207 110.783 0.0136069C109.907 -0.0573069 109.025 0.069805 108.204 0.385565C107.383 0.701325 106.643 1.19767 106.039 1.83795C105.435 2.47823 104.983 3.24611 104.715 4.08488H46.2485C45.8745 2.91076 45.1406 1.88432 44.151 1.15114C43.1614 0.417956 41.9664 0.0152491 40.7353 0.00012077C39.9613 -0.00146366 39.1946 0.149772 38.479 0.445172C37.7635 0.740572 37.1131 1.17433 36.5653 1.72163C36.0174 2.26893 35.5827 2.91902 35.2862 3.63467C34.9896 4.35033 34.8369 5.11751 34.8369 5.8923C34.838 7.34919 35.3882 8.75202 36.3777 9.82041L7.18675 60.3678C6.79106 60.2827 6.38771 60.2383 5.983 60.2353C4.42184 60.2353 2.92462 60.8561 1.82072 61.9611C0.716815 63.0661 0.0966492 64.5648 0.0966492 66.1275C0.0966492 67.6902 0.716815 69.1889 1.82072 70.2939C2.92462 71.3989 4.42184 72.0196 5.983 72.0196C6.38771 72.0167 6.79106 71.9723 7.18675 71.8871L36.3176 122.41C35.3303 123.485 34.7806 124.891 34.7767 126.351C34.7767 127.125 34.9294 127.893 35.226 128.608C35.5225 129.324 35.9572 129.974 36.5051 130.521C37.0529 131.069 37.7033 131.502 38.4188 131.798C39.1344 132.093 39.9011 132.244 40.6751 132.243C41.9165 132.24 43.1251 131.843 44.1267 131.109C45.1283 130.375 45.8713 129.342 46.2485 128.158H104.715C104.983 128.997 105.435 129.765 106.039 130.405C106.643 131.045 107.383 131.542 108.204 131.857C109.025 132.173 109.907 132.3 110.783 132.229C111.66 132.158 112.51 131.891 113.27 131.448C114.03 131.004 114.68 130.395 115.174 129.666C115.667 128.937 115.991 128.107 116.12 127.236C116.25 126.365 116.183 125.476 115.923 124.634C115.664 123.793 115.219 123.021 114.622 122.374L143.777 71.8871C144.585 72.0617 145.421 72.0637 146.231 71.893C147.04 71.7223 147.805 71.3828 148.474 70.8965C149.144 70.4102 149.703 69.7882 150.117 69.0708C150.53 68.3535 150.788 67.5571 150.873 66.7335C150.958 65.9098 150.868 65.0775 150.611 64.2907C150.353 63.5039 149.932 62.7804 149.376 62.1673C148.82 61.5541 148.141 61.0652 147.384 60.7323C146.626 60.3994 145.807 60.2301 144.98 60.2353H145.016ZM110.3 120.483C109.058 120.486 107.848 120.883 106.845 121.617C105.842 122.351 105.096 123.383 104.715 124.567H46.2485C45.8765 123.391 45.1436 122.362 44.1538 121.626C43.1641 120.891 41.9679 120.486 40.7353 120.47C40.3306 120.473 39.9273 120.518 39.5316 120.603L10.3406 70.0556C11.317 68.9817 11.8541 67.5795 11.8453 66.1275C11.8311 64.651 11.2591 63.2347 10.2443 62.1632L39.4353 11.6278C39.831 11.713 40.2343 11.7574 40.639 11.7604C41.8804 11.7579 43.089 11.361 44.0906 10.627C45.0922 9.89287 45.8351 8.85946 46.2124 7.67561H104.715C105.096 8.85943 105.842 9.89215 106.845 10.6259C107.848 11.3596 109.058 11.7567 110.3 11.7604C110.704 11.7582 111.107 11.7178 111.504 11.6399L140.647 62.1632C139.655 63.2328 139.104 64.6381 139.104 66.0974C139.104 67.5566 139.655 68.9619 140.647 70.0315L111.48 120.591C111.092 120.509 110.697 120.468 110.3 120.47V120.483Z" fill="#E4EEF6"/>
</g>
<g style="mix-blend-mode:screen">
<path d="M263.778 129.736C263.373 129.739 262.97 129.784 262.574 129.869L233.335 79.3817C233.935 78.7367 234.383 77.965 234.645 77.1235C234.907 76.282 234.976 75.3923 234.849 74.5202C234.721 73.6482 234.399 72.8161 233.906 72.0855C233.414 71.3548 232.763 70.7444 232.003 70.2992C231.243 69.8541 230.393 69.5856 229.516 69.5138C228.638 69.4419 227.755 69.5684 226.933 69.884C226.111 70.1996 225.37 70.6961 224.766 71.3369C224.161 71.9777 223.708 72.7463 223.44 73.586H165.022C164.757 72.747 164.307 71.9783 163.705 71.3366C163.104 70.6949 162.366 70.1965 161.546 69.8783C160.727 69.56 159.846 69.43 158.969 69.4978C158.093 69.5656 157.243 69.8295 156.482 70.27C155.721 70.7105 155.068 71.3163 154.572 72.0429C154.076 72.7695 153.749 73.5983 153.616 74.4681C153.482 75.338 153.546 76.2267 153.801 77.0688C154.056 77.9108 154.497 78.6848 155.091 79.3336L125.9 129.869C125.505 129.784 125.101 129.74 124.697 129.736C123.136 129.736 121.638 130.357 120.534 131.462C119.43 132.567 118.81 134.066 118.81 135.629C118.81 137.191 119.43 138.69 120.534 139.795C121.638 140.9 123.136 141.521 124.697 141.521C125.101 141.517 125.505 141.473 125.9 141.388L155.091 191.936C154.095 193.019 153.544 194.439 153.551 195.912C153.545 197.317 154.042 198.678 154.952 199.748C155.862 200.817 157.125 201.526 158.512 201.744C159.898 201.963 161.317 201.677 162.511 200.939C163.706 200.2 164.597 199.058 165.022 197.719H223.489C223.914 199.058 224.805 200.2 226 200.939C227.194 201.677 228.613 201.963 230 201.744C231.386 201.526 232.649 200.817 233.559 199.748C234.469 198.678 234.966 197.317 234.96 195.912C234.959 194.434 234.395 193.012 233.383 191.936L262.55 141.436C263.359 141.611 264.195 141.613 265.005 141.442C265.814 141.272 266.579 140.932 267.248 140.446C267.918 139.96 268.477 139.337 268.891 138.62C269.304 137.903 269.561 137.106 269.646 136.283C269.732 135.459 269.642 134.627 269.384 133.84C269.127 133.053 268.706 132.33 268.15 131.717C267.594 131.103 266.915 130.614 266.158 130.282C265.4 129.949 264.581 129.779 263.754 129.785L263.778 129.736ZM229.062 189.984C227.821 189.986 226.612 190.383 225.61 191.117C224.609 191.851 223.866 192.885 223.489 194.068H165.022C164.641 192.885 163.896 191.852 162.892 191.118C161.889 190.384 160.68 189.987 159.437 189.984C159.032 189.986 158.628 190.035 158.233 190.128L129.018 139.569C130.002 138.495 130.548 137.091 130.548 135.635C130.548 134.178 130.002 132.774 129.018 131.7L158.197 81.0928C158.593 81.1768 158.996 81.2212 159.401 81.2253C160.643 81.2217 161.853 80.8246 162.856 80.0908C163.86 79.3571 164.605 78.3244 164.986 77.1405H223.453C223.83 78.3244 224.573 79.3578 225.574 80.0919C226.576 80.826 227.785 81.2229 229.026 81.2253C229.43 81.2291 229.834 81.1887 230.23 81.1048L259.397 131.64C258.413 132.714 257.867 134.118 257.867 135.574C257.867 137.031 258.413 138.435 259.397 139.508L230.23 190.032C229.843 189.976 229.452 189.956 229.062 189.972V189.984Z" fill="#E4EEF6"/>
</g>
<g style="mix-blend-mode:screen">
<path d="M381.927 60.2352C381.522 60.2387 381.119 60.2831 380.723 60.3677L351.532 9.8685C352.129 9.22224 352.574 8.4499 352.834 7.6085C353.093 6.7671 353.16 5.87813 353.031 5.0072C352.901 4.13628 352.577 3.30565 352.084 2.57662C351.591 1.8476 350.94 1.23879 350.18 0.795165C349.42 0.351536 348.57 0.0844077 347.694 0.0134939C346.817 -0.0574198 345.935 0.069692 345.114 0.385452C344.293 0.701212 343.553 1.19755 342.949 1.83784C342.345 2.47812 341.893 3.24599 341.625 4.08477H283.159C282.733 2.74587 281.842 1.60386 280.648 0.865556C279.453 0.127251 278.034 -0.158545 276.648 0.0599278C275.261 0.2784 273.998 0.986693 273.088 2.05655C272.178 3.1264 271.681 4.48708 271.687 5.89219C271.688 7.34908 272.238 8.75191 273.228 9.8203L244.037 60.3677C243.178 60.1823 242.289 60.1915 241.434 60.3948C240.58 60.5981 239.781 60.9903 239.098 61.5426C238.414 62.0949 237.863 62.7933 237.484 63.5866C237.105 64.38 236.909 65.2481 236.909 66.1274C236.909 67.0066 237.105 67.8748 237.484 68.6681C237.863 69.4614 238.414 70.1598 239.098 70.7121C239.781 71.2644 240.58 71.6566 241.434 71.8599C242.289 72.0632 243.178 72.0725 244.037 71.887L273.228 122.41C272.634 123.059 272.193 123.833 271.937 124.675C271.682 125.517 271.619 126.406 271.752 127.276C271.885 128.146 272.212 128.974 272.708 129.701C273.204 130.428 273.857 131.033 274.618 131.474C275.379 131.914 276.229 132.178 277.106 132.246C277.982 132.314 278.863 132.184 279.682 131.866C280.502 131.547 281.24 131.049 281.842 130.407C282.443 129.766 282.893 128.997 283.159 128.158H341.673C341.941 128.997 342.393 129.765 342.997 130.405C343.601 131.045 344.341 131.541 345.162 131.857C345.983 132.173 346.865 132.3 347.742 132.229C348.619 132.158 349.468 131.891 350.228 131.448C350.988 131.004 351.639 130.395 352.132 129.666C352.625 128.937 352.949 128.106 353.079 127.235C353.208 126.365 353.141 125.476 352.882 124.634C352.622 123.793 352.177 123.02 351.58 122.374L380.735 71.8749C381.131 71.9595 381.534 72.0039 381.939 72.0075C383.5 72.0075 384.997 71.3867 386.101 70.2817C387.205 69.1767 387.825 67.678 387.825 66.1153C387.825 64.5526 387.205 63.0539 386.101 61.9489C384.997 60.8439 383.5 60.2231 381.939 60.2231L381.927 60.2352ZM347.21 120.482C345.968 120.486 344.758 120.883 343.755 121.617C342.752 122.351 342.006 123.383 341.625 124.567H283.159C282.781 123.383 282.038 122.35 281.037 121.616C280.035 120.882 278.827 120.485 277.585 120.482C277.181 120.485 276.777 120.53 276.382 120.615L247.191 70.0675C248.182 68.9979 248.733 67.5926 248.733 66.1334C248.733 64.6742 248.182 63.2689 247.191 62.1992L276.382 11.6639C276.777 11.749 277.181 11.7934 277.585 11.7964C278.827 11.7939 280.035 11.3971 281.037 10.663C282.038 9.92891 282.781 8.89549 283.159 7.71165H341.673C342.054 8.89546 342.8 9.92819 343.803 10.6619C344.806 11.3957 346.016 11.7928 347.258 11.7964C347.663 11.7942 348.066 11.7539 348.462 11.6759L377.569 62.1631C376.577 63.2327 376.026 64.638 376.026 66.0972C376.026 67.5565 376.577 68.9617 377.569 70.0314L348.39 120.567C348.001 120.492 347.606 120.46 347.21 120.47V120.482Z" fill="#E4EEF6"/>
</g>
</g>
<path d="M353.313 53.1863H326.566L326.53 49.5835V26.4004H300.637V53.1863H273.842V79.0685H300.637V105.854H326.53V79.0685H353.313V53.1863Z" fill="#CDE4FC"/>
<path d="M236.297 392.655H209.549L209.501 389.04V365.869H183.608V392.655H156.825V418.538H183.608V445.323H209.501V418.538H236.297V392.655Z" fill="#CDE4FC"/>
<path d="M505.01 193.177H478.263L478.227 189.574V166.391H452.334V193.177H425.538V219.071H452.334V245.857H478.227V219.071H505.01V193.177Z" fill="#CDE4FC"/>
<path d="M967.191 455.18H940.431L940.395 451.565V428.394H914.503V455.18H887.719V481.062H914.503V507.848H940.395V481.062H967.191V455.18Z" fill="#CDE4FC"/>
<path d="M829.734 594.616H802.987L802.939 591.001V567.83H777.046V594.616H750.263V620.498H777.046V647.284H802.939V620.498H829.734V594.616Z" fill="#CDE4FC"/>
</g>
<defs>
<clipPath id="clip0_30_766">
<rect width="1101" height="811" fill="white"/>
</clipPath>
</defs>
</svg>
