<svg width="1101" height="811" viewBox="0 0 1101 811" fill="none" xmlns="http://www.w3.org/2000/svg">
<g clip-path="url(#clip0_30_971)">
<g style="mix-blend-mode:screen" opacity="0.35">
<g style="mix-blend-mode:screen" opacity="0.35">
<path d="M716.245 333.577C716.649 333.58 717.053 333.624 717.448 333.709L746.603 283.21C746.006 282.564 745.561 281.791 745.302 280.95C745.042 280.109 744.975 279.22 745.105 278.349C745.234 277.478 745.558 276.647 746.051 275.918C746.545 275.189 747.195 274.58 747.955 274.137C748.715 273.693 749.565 273.426 750.442 273.355C751.318 273.284 752.2 273.411 753.021 273.727C753.842 274.043 754.582 274.539 755.186 275.179C755.79 275.82 756.242 276.587 756.51 277.426H815.013C815.438 276.087 816.329 274.945 817.523 274.207C818.718 273.469 820.137 273.183 821.523 273.401C822.91 273.62 824.173 274.328 825.083 275.398C825.993 276.468 826.49 277.829 826.484 279.234C826.483 280.691 825.933 282.093 824.944 283.162L854.135 333.709C854.943 333.535 855.779 333.533 856.589 333.703C857.398 333.874 858.163 334.214 858.832 334.7C859.502 335.186 860.061 335.808 860.475 336.525C860.888 337.243 861.146 338.039 861.231 338.863C861.316 339.686 861.226 340.519 860.969 341.306C860.711 342.092 860.29 342.816 859.734 343.429C859.178 344.042 858.499 344.531 857.742 344.864C856.984 345.197 856.165 345.366 855.338 345.361C854.933 345.36 854.529 345.311 854.135 345.216L824.944 395.764C825.538 396.413 825.979 397.186 826.234 398.029C826.489 398.871 826.553 399.759 826.419 400.629C826.286 401.499 825.959 402.328 825.463 403.054C824.967 403.781 824.314 404.387 823.553 404.827C822.792 405.268 821.942 405.532 821.066 405.599C820.189 405.667 819.308 405.537 818.489 405.219C817.669 404.901 816.931 404.402 816.33 403.761C815.728 403.119 815.278 402.35 815.013 401.511H756.546C756.276 402.348 755.822 403.114 755.217 403.751C754.612 404.389 753.872 404.883 753.052 405.197C752.231 405.51 751.35 405.636 750.475 405.563C749.599 405.491 748.751 405.224 747.993 404.78C747.234 404.336 746.585 403.728 746.092 403C745.6 402.271 745.277 401.442 745.147 400.572C745.017 399.702 745.084 398.815 745.342 397.974C745.6 397.134 746.044 396.362 746.639 395.716L717.485 345.216C717.09 345.311 716.686 345.36 716.281 345.361C714.72 345.361 713.222 344.74 712.119 343.635C711.015 342.53 710.394 341.032 710.394 339.469C710.394 337.906 711.015 336.407 712.119 335.302C713.222 334.197 714.72 333.577 716.281 333.577H716.245ZM750.961 393.824C752.203 393.827 753.413 394.225 754.416 394.958C755.42 395.692 756.165 396.725 756.546 397.909H815.013C815.39 396.725 816.133 395.691 817.134 394.957C818.136 394.223 819.345 393.826 820.586 393.824C820.991 393.827 821.394 393.871 821.79 393.956L850.981 343.349C849.989 342.279 849.438 340.874 849.438 339.415C849.438 337.955 849.989 336.55 850.981 335.48L821.79 284.933C821.394 285.022 820.991 285.071 820.586 285.078C819.343 285.074 818.133 284.676 817.132 283.939C816.13 283.203 815.388 282.167 815.013 280.981H756.546C756.166 282.178 755.412 283.221 754.396 283.958C753.381 284.696 752.156 285.088 750.901 285.078C750.497 285.075 750.094 285.035 749.697 284.957L720.518 335.48C721.51 336.55 722.061 337.955 722.061 339.415C722.061 340.874 721.51 342.279 720.518 343.349L749.697 393.884C750.094 393.816 750.498 393.792 750.901 393.812L750.961 393.824Z" fill="#86CDD3"/>
</g>
<g style="mix-blend-mode:screen" opacity="0.35">
<path d="M599.228 399.704C599.633 399.708 600.036 399.752 600.432 399.837L629.587 349.337C628.989 348.691 628.544 347.919 628.285 347.077C628.025 346.236 627.958 345.347 628.088 344.476C628.217 343.605 628.541 342.775 629.034 342.046C629.528 341.316 630.178 340.708 630.938 340.264C631.698 339.82 632.548 339.553 633.425 339.482C634.302 339.411 635.183 339.539 636.004 339.854C636.825 340.17 637.565 340.666 638.169 341.307C638.773 341.947 639.226 342.715 639.493 343.554H697.936C698.361 342.215 699.252 341.073 700.446 340.334C701.641 339.596 703.06 339.31 704.446 339.529C705.833 339.747 707.096 340.456 708.006 341.525C708.916 342.595 709.413 343.956 709.407 345.361C709.406 346.818 708.856 348.221 707.867 349.289L737.058 399.837C737.866 399.662 738.702 399.66 739.512 399.831C740.321 400.001 741.086 400.341 741.755 400.827C742.425 401.313 742.984 401.936 743.398 402.653C743.811 403.37 744.068 404.167 744.154 404.99C744.239 405.814 744.149 406.646 743.892 407.433C743.634 408.22 743.213 408.943 742.657 409.556C742.101 410.17 741.422 410.659 740.665 410.991C739.907 411.324 739.088 411.494 738.261 411.488C737.856 411.487 737.452 411.439 737.058 411.344L707.867 461.891C708.461 462.54 708.902 463.314 709.157 464.156C709.412 464.998 709.476 465.887 709.342 466.757C709.209 467.627 708.882 468.455 708.386 469.182C707.89 469.908 707.237 470.514 706.476 470.955C705.715 471.395 704.865 471.659 703.988 471.727C703.112 471.795 702.231 471.665 701.412 471.347C700.592 471.028 699.854 470.53 699.253 469.888C698.651 469.247 698.201 468.478 697.936 467.639H639.469C639.199 468.476 638.745 469.241 638.14 469.879C637.535 470.517 636.795 471.01 635.975 471.324C635.154 471.638 634.273 471.763 633.398 471.691C632.522 471.619 631.674 471.351 630.916 470.907C630.157 470.464 629.508 469.855 629.015 469.127C628.523 468.399 628.2 467.569 628.07 466.7C627.94 465.83 628.007 464.942 628.265 464.102C628.523 463.261 628.967 462.489 629.562 461.843L600.432 411.344C600.037 411.438 599.633 411.487 599.228 411.488C598.455 411.488 597.689 411.336 596.975 411.04C596.261 410.744 595.612 410.31 595.066 409.763C594.519 409.215 594.085 408.566 593.79 407.851C593.494 407.136 593.342 406.37 593.342 405.596C593.342 404.822 593.494 404.056 593.79 403.341C594.085 402.627 594.519 401.977 595.066 401.43C595.612 400.883 596.261 400.449 596.975 400.153C597.689 399.856 598.455 399.704 599.228 399.704ZM633.944 459.951C635.187 459.955 636.396 460.352 637.399 461.086C638.403 461.82 639.148 462.852 639.53 464.036H697.936C698.313 462.852 699.056 461.819 700.057 461.085C701.059 460.351 702.268 459.954 703.509 459.951C703.914 459.954 704.317 459.999 704.713 460.084L733.904 409.476C732.912 408.407 732.361 407.001 732.361 405.542C732.361 404.083 732.912 402.677 733.904 401.608L704.713 351.06C704.318 351.155 703.914 351.204 703.509 351.205C702.268 351.203 701.059 350.806 700.057 350.072C699.056 349.338 698.313 348.304 697.936 347.12H639.469C639.088 348.304 638.343 349.337 637.339 350.071C636.336 350.804 635.126 351.201 633.884 351.205C633.48 351.204 633.077 351.163 632.68 351.085L603.501 401.608C604.493 402.677 605.044 404.083 605.044 405.542C605.044 407.001 604.493 408.407 603.501 409.476L632.68 460.012C633.097 459.938 633.521 459.914 633.944 459.939V459.951Z" fill="#86CDD3"/>
</g>
<g style="mix-blend-mode:screen" opacity="0.35">
<path d="M716.245 197.743C716.649 197.746 717.053 197.791 717.448 197.876L746.603 147.377C746.006 146.73 745.561 145.958 745.301 145.117C745.042 144.275 744.975 143.386 745.105 142.515C745.234 141.644 745.558 140.814 746.051 140.085C746.545 139.356 747.195 138.747 747.955 138.303C748.715 137.86 749.565 137.593 750.442 137.522C751.318 137.451 752.2 137.578 753.021 137.894C753.842 138.209 754.582 138.706 755.186 139.346C755.79 139.986 756.242 140.754 756.51 141.593H815.013C815.438 140.254 816.329 139.112 817.523 138.374C818.718 137.635 820.137 137.35 821.523 137.568C822.91 137.787 824.173 138.495 825.083 139.565C825.993 140.635 826.49 141.995 826.484 143.4C826.483 144.857 825.933 146.26 824.943 147.328L854.134 197.876C854.993 197.69 855.882 197.7 856.737 197.903C857.592 198.106 858.39 198.498 859.073 199.051C859.757 199.603 860.308 200.301 860.687 201.095C861.066 201.888 861.262 202.756 861.262 203.636C861.262 204.515 861.066 205.383 860.687 206.176C860.308 206.97 859.757 207.668 859.073 208.22C858.39 208.773 857.592 209.165 856.737 209.368C855.882 209.571 854.993 209.581 854.134 209.395L824.943 259.931C825.538 260.579 825.979 261.353 826.234 262.195C826.489 263.037 826.553 263.926 826.419 264.796C826.286 265.666 825.959 266.495 825.463 267.221C824.967 267.948 824.314 268.554 823.553 268.994C822.792 269.435 821.942 269.699 821.065 269.766C820.189 269.834 819.308 269.704 818.489 269.386C817.669 269.068 816.931 268.569 816.33 267.928C815.728 267.286 815.278 266.517 815.013 265.678H756.546C756.279 266.517 755.826 267.285 755.222 267.925C754.618 268.565 753.878 269.062 753.057 269.377C752.236 269.693 751.354 269.82 750.478 269.749C749.601 269.678 748.751 269.411 747.991 268.968C747.231 268.524 746.581 267.915 746.087 267.186C745.594 266.457 745.27 265.627 745.141 264.756C745.011 263.885 745.078 262.996 745.338 262.154C745.597 261.313 746.042 260.541 746.639 259.894L717.485 209.395C716.676 209.57 715.84 209.572 715.03 209.401C714.221 209.23 713.456 208.891 712.787 208.405C712.117 207.918 711.558 207.296 711.144 206.579C710.731 205.862 710.474 205.065 710.388 204.242C710.303 203.418 710.393 202.586 710.651 201.799C710.908 201.012 711.329 200.288 711.885 199.675C712.441 199.062 713.12 198.573 713.877 198.24C714.635 197.907 715.454 197.738 716.281 197.743H716.245ZM750.961 257.991C752.203 257.994 753.413 258.391 754.416 259.125C755.42 259.859 756.165 260.892 756.546 262.075H815.013C815.39 260.892 816.133 259.858 817.134 259.124C818.136 258.39 819.345 257.993 820.586 257.991C820.991 257.994 821.394 258.038 821.79 258.123L850.981 207.576C849.989 206.506 849.438 205.101 849.438 203.642C849.438 202.182 849.989 200.777 850.981 199.707L821.79 149.172C821.394 149.257 820.991 149.302 820.586 149.305C819.345 149.302 818.136 148.905 817.134 148.171C816.133 147.437 815.39 146.404 815.013 145.22H756.546C756.165 146.404 755.42 147.436 754.416 148.17C753.413 148.904 752.203 149.301 750.961 149.305C750.557 149.302 750.154 149.262 749.757 149.184L720.578 199.707C721.57 200.777 722.121 202.182 722.121 203.642C722.121 205.101 721.57 206.506 720.578 207.576L749.757 258.111C750.133 258.027 750.516 257.983 750.901 257.979L750.961 257.991Z" fill="#86CDD3"/>
</g>
<g style="mix-blend-mode:screen" opacity="0.35">
<path d="M599.228 131.616C599.633 131.619 600.036 131.664 600.432 131.748L629.587 81.2492C628.989 80.603 628.544 79.8306 628.285 78.9892C628.025 78.1478 627.958 77.2589 628.088 76.3879C628.218 75.517 628.541 74.6864 629.034 73.9573C629.528 73.2283 630.178 72.6195 630.938 72.1759C631.698 71.7323 632.548 71.4651 633.425 71.3942C634.302 71.3233 635.183 71.4504 636.004 71.7662C636.826 72.082 637.565 72.5783 638.169 73.2186C638.773 73.8589 639.226 74.6267 639.493 75.4655H697.936C698.361 74.1266 699.252 72.9846 700.447 72.2463C701.641 71.508 703.06 71.2222 704.447 71.4407C705.833 71.6591 707.096 72.3674 708.006 73.4373C708.916 74.5071 709.413 75.8678 709.407 77.2729C709.406 78.7298 708.856 80.1327 707.867 81.201L737.058 131.748C737.916 131.563 738.805 131.572 739.66 131.776C740.515 131.979 741.313 132.371 741.996 132.923C742.68 133.476 743.231 134.174 743.61 134.967C743.989 135.761 744.185 136.629 744.185 137.508C744.185 138.387 743.989 139.255 743.61 140.049C743.231 140.842 742.68 141.541 741.996 142.093C741.313 142.645 740.515 143.037 739.66 143.241C738.805 143.444 737.916 143.453 737.058 143.268L707.867 193.803C708.464 194.452 708.908 195.227 709.166 196.071C709.423 196.915 709.488 197.806 709.354 198.678C709.221 199.55 708.893 200.381 708.395 201.109C707.898 201.837 707.242 202.444 706.479 202.884C705.715 203.325 704.862 203.587 703.982 203.653C703.103 203.718 702.221 203.584 701.4 203.262C700.58 202.939 699.842 202.436 699.243 201.79C698.643 201.143 698.196 200.37 697.936 199.527H639.469C639.202 200.365 638.749 201.133 638.145 201.774C637.541 202.414 636.801 202.91 635.98 203.226C635.159 203.542 634.278 203.669 633.401 203.598C632.524 203.527 631.674 203.26 630.914 202.816C630.154 202.373 629.504 201.764 629.01 201.035C628.517 200.306 628.193 199.475 628.064 198.604C627.934 197.733 628.001 196.844 628.261 196.003C628.52 195.161 628.965 194.389 629.563 193.743L600.432 143.268C600.036 143.352 599.633 143.397 599.228 143.4C597.667 143.4 596.17 142.779 595.066 141.674C593.962 140.569 593.342 139.071 593.342 137.508C593.342 135.945 593.962 134.447 595.066 133.342C596.17 132.237 597.667 131.616 599.228 131.616ZM633.944 191.863C635.187 191.867 636.396 192.264 637.4 192.998C638.403 193.731 639.148 194.764 639.53 195.948H697.936C698.313 194.764 699.056 193.731 700.057 192.997C701.059 192.262 702.268 191.866 703.509 191.863C703.914 191.866 704.317 191.911 704.713 191.996L733.904 141.388C732.912 140.318 732.361 138.913 732.361 137.454C732.361 135.995 732.912 134.589 733.904 133.52L704.713 82.9844C704.317 83.0695 703.914 83.1139 703.509 83.1169C702.268 83.1144 701.059 82.7176 700.057 81.9835C699.056 81.2494 698.313 80.216 697.936 79.0321H639.469C639.088 80.2159 638.343 81.2487 637.339 81.9824C636.336 82.7161 635.127 83.1133 633.884 83.1169C633.48 83.1154 633.077 83.075 632.68 82.9964L603.501 133.52C604.493 134.589 605.044 135.995 605.044 137.454C605.044 138.913 604.493 140.318 603.501 141.388L632.68 191.923C633.097 191.85 633.521 191.826 633.944 191.851V191.863Z" fill="#86CDD3"/>
</g>
<g style="mix-blend-mode:screen" opacity="0.35">
<path d="M481.381 333.577C481.785 333.58 482.189 333.624 482.584 333.709L511.751 283.21C510.74 282.133 510.177 280.711 510.174 279.234C510.169 277.828 510.666 276.468 511.576 275.398C512.486 274.328 513.749 273.62 515.135 273.401C516.522 273.183 517.941 273.469 519.135 274.207C520.33 274.945 521.22 276.087 521.646 277.426H580.148C580.414 276.588 580.863 275.82 581.464 275.179C582.065 274.538 582.802 274.04 583.621 273.721C584.44 273.403 585.319 273.272 586.195 273.339C587.071 273.406 587.92 273.669 588.681 274.108C589.442 274.547 590.095 275.151 590.592 275.876C591.089 276.601 591.417 277.428 591.553 278.297C591.688 279.165 591.627 280.053 591.374 280.895C591.121 281.737 590.683 282.512 590.091 283.162L619.27 333.709C619.666 333.625 620.069 333.58 620.474 333.577C622.035 333.577 623.532 334.197 624.636 335.302C625.74 336.407 626.36 337.906 626.36 339.469C626.36 341.031 625.74 342.53 624.636 343.635C623.532 344.74 622.035 345.361 620.474 345.361C620.069 345.359 619.665 345.31 619.27 345.216L590.091 395.764C590.681 396.414 591.118 397.188 591.37 398.029C591.621 398.87 591.682 399.757 591.546 400.624C591.411 401.491 591.083 402.318 590.587 403.042C590.091 403.766 589.44 404.37 588.68 404.809C587.921 405.248 587.072 405.511 586.198 405.579C585.323 405.647 584.445 405.518 583.627 405.202C582.808 404.886 582.071 404.39 581.469 403.752C580.868 403.113 580.416 402.347 580.148 401.511H521.682C521.414 402.351 520.961 403.12 520.357 403.76C519.752 404.401 519.012 404.898 518.189 405.213C517.367 405.529 516.485 405.655 515.607 405.584C514.73 405.512 513.879 405.243 513.119 404.798C512.359 404.353 511.709 403.742 511.217 403.012C510.724 402.281 510.402 401.449 510.274 400.577C510.146 399.705 510.216 398.815 510.478 397.974C510.74 397.132 511.187 396.361 511.787 395.716L482.62 345.216C482.226 345.311 481.822 345.36 481.417 345.361C479.856 345.361 478.358 344.74 477.254 343.635C476.15 342.53 475.53 341.031 475.53 339.469C475.53 337.906 476.15 336.407 477.254 335.302C478.358 334.197 479.856 333.577 481.417 333.577H481.381ZM516.109 393.824C517.35 393.826 518.559 394.223 519.56 394.957C520.562 395.691 521.305 396.725 521.682 397.909H580.148C580.53 396.725 581.275 395.692 582.278 394.958C583.282 394.225 584.491 393.827 585.734 393.824C586.138 393.828 586.542 393.872 586.938 393.956L616.117 343.349C615.133 342.275 614.587 340.871 614.587 339.415C614.587 337.958 615.133 336.554 616.117 335.48L586.938 284.933C586.542 285.021 586.139 285.069 585.734 285.078C584.489 285.075 583.278 284.677 582.274 283.94C581.27 283.204 580.526 282.168 580.148 280.981H521.682C521.307 282.167 520.565 283.203 519.563 283.939C518.561 284.676 517.352 285.074 516.109 285.078C515.705 285.075 515.302 285.035 514.905 284.957L485.738 335.48C486.722 336.554 487.268 337.958 487.268 339.415C487.268 340.871 486.722 342.275 485.738 343.349L514.965 393.932C515.341 393.853 515.724 393.812 516.109 393.812V393.824Z" fill="#86CDD3"/>
</g>
<g style="mix-blend-mode:screen" opacity="0.35">
<path d="M362.39 399.704C362.794 399.708 363.198 399.752 363.593 399.837L392.784 349.337C392.187 348.691 391.742 347.919 391.483 347.077C391.223 346.236 391.156 345.347 391.286 344.476C391.415 343.605 391.739 342.775 392.232 342.046C392.726 341.316 393.376 340.708 394.136 340.264C394.896 339.82 395.746 339.553 396.623 339.482C397.499 339.411 398.381 339.539 399.202 339.854C400.023 340.17 400.763 340.666 401.367 341.307C401.971 341.947 402.424 342.715 402.691 343.554H461.158C461.583 342.215 462.474 341.073 463.668 340.334C464.863 339.596 466.282 339.31 467.668 339.529C469.055 339.747 470.318 340.456 471.228 341.525C472.138 342.595 472.635 343.956 472.629 345.361C472.628 346.818 472.078 348.221 471.088 349.289L500.279 399.837C501.088 399.662 501.924 399.66 502.734 399.831C503.543 400.001 504.308 400.341 504.977 400.827C505.647 401.313 506.206 401.936 506.62 402.653C507.033 403.37 507.29 404.167 507.376 404.99C507.461 405.814 507.371 406.646 507.114 407.433C506.856 408.22 506.435 408.943 505.879 409.556C505.323 410.17 504.644 410.659 503.887 410.991C503.129 411.324 502.31 411.494 501.483 411.488C501.078 411.487 500.674 411.439 500.279 411.344L471.088 461.891C471.683 462.54 472.124 463.314 472.379 464.156C472.634 464.998 472.698 465.887 472.564 466.757C472.431 467.627 472.104 468.455 471.608 469.182C471.112 469.908 470.459 470.514 469.698 470.955C468.937 471.395 468.087 471.659 467.21 471.727C466.334 471.795 465.453 471.665 464.634 471.347C463.814 471.028 463.076 470.53 462.475 469.888C461.873 469.247 461.423 468.478 461.158 467.639H402.691C402.421 468.476 401.967 469.241 401.362 469.879C400.757 470.517 400.017 471.01 399.197 471.324C398.376 471.638 397.495 471.763 396.62 471.691C395.744 471.619 394.896 471.351 394.138 470.907C393.379 470.464 392.73 469.855 392.237 469.127C391.745 468.399 391.422 467.569 391.292 466.7C391.162 465.83 391.229 464.942 391.487 464.102C391.745 463.261 392.189 462.489 392.784 461.843L363.63 411.344C363.235 411.438 362.831 411.487 362.426 411.488C360.865 411.488 359.367 410.868 358.264 409.763C357.16 408.658 356.539 407.159 356.539 405.596C356.539 404.034 357.16 402.535 358.264 401.43C359.367 400.325 360.865 399.704 362.426 399.704H362.39ZM397.106 459.951C398.348 459.955 399.558 460.352 400.561 461.086C401.565 461.82 402.31 462.852 402.691 464.036H461.158C461.535 462.852 462.278 461.819 463.279 461.085C464.281 460.351 465.49 459.954 466.731 459.951C467.136 459.954 467.539 459.999 467.935 460.084L497.126 409.476C496.134 408.407 495.583 407.001 495.583 405.542C495.583 404.083 496.134 402.677 497.126 401.608L468.019 351.109C467.625 351.203 467.221 351.252 466.815 351.253C465.574 351.251 464.365 350.854 463.364 350.12C462.362 349.386 461.619 348.352 461.242 347.168H402.776C402.394 348.352 401.649 349.385 400.646 350.119C399.642 350.853 398.433 351.25 397.19 351.253C396.786 351.252 396.383 351.211 395.986 351.133L366.807 401.656C367.799 402.726 368.35 404.131 368.35 405.59C368.35 407.049 367.799 408.455 366.807 409.524L395.986 460.06C396.354 459.981 396.73 459.941 397.106 459.939V459.951Z" fill="#86CDD3"/>
</g>
<g style="mix-blend-mode:screen" opacity="0.35">
<path d="M242.821 601.858C243.226 601.86 243.629 601.905 244.025 601.99L273.216 551.491C272.204 550.415 271.64 548.993 271.639 547.515C271.633 546.109 272.13 544.749 273.04 543.679C273.95 542.609 275.213 541.901 276.6 541.682C277.986 541.464 279.405 541.75 280.6 542.488C281.794 543.226 282.685 544.368 283.11 545.707H341.625C341.89 544.869 342.34 544.101 342.941 543.46C343.542 542.819 344.279 542.321 345.097 542.002C345.916 541.684 346.796 541.553 347.671 541.62C348.547 541.687 349.397 541.95 350.158 542.389C350.919 542.828 351.572 543.432 352.069 544.157C352.566 544.882 352.894 545.709 353.029 546.578C353.164 547.446 353.103 548.334 352.85 549.176C352.598 550.018 352.159 550.793 351.568 551.443L380.747 602.05C381.143 601.966 381.546 601.922 381.951 601.918C383.512 601.918 385.009 602.539 386.113 603.644C387.217 604.749 387.837 606.247 387.837 607.81C387.837 609.373 387.217 610.871 386.113 611.976C385.009 613.081 383.512 613.702 381.951 613.702C381.546 613.699 381.143 613.654 380.747 613.57L351.568 664.105C352.157 664.755 352.594 665.529 352.846 666.37C353.098 667.211 353.158 668.098 353.023 668.965C352.887 669.833 352.56 670.659 352.064 671.383C351.568 672.107 350.916 672.711 350.156 673.15C349.397 673.589 348.549 673.852 347.674 673.92C346.8 673.988 345.921 673.859 345.103 673.543C344.285 673.227 343.548 672.731 342.946 672.093C342.344 671.454 341.893 670.689 341.625 669.853H283.159C282.733 671.192 281.842 672.333 280.648 673.072C279.453 673.81 278.034 674.096 276.648 673.877C275.261 673.659 273.998 672.951 273.088 671.881C272.178 670.811 271.681 669.45 271.687 668.045C271.688 666.567 272.252 665.145 273.264 664.069L244.109 613.57C243.713 613.654 243.31 613.698 242.905 613.702C241.344 613.702 239.847 613.081 238.743 611.976C237.639 610.871 237.019 609.373 237.019 607.81C237.019 606.247 237.639 604.749 238.743 603.644C239.847 602.539 241.344 601.918 242.905 601.918L242.821 601.858ZM277.537 662.105C278.778 662.107 279.987 662.504 280.989 663.238C281.99 663.972 282.733 665.006 283.11 666.19H341.625C342.006 665.006 342.752 663.973 343.755 663.239C344.758 662.506 345.968 662.108 347.21 662.105C347.615 662.109 348.018 662.153 348.414 662.237L377.593 611.63C376.609 610.556 376.063 609.152 376.063 607.696C376.063 606.239 376.609 604.835 377.593 603.761L348.414 553.226C348.018 553.31 347.615 553.354 347.21 553.359C345.974 553.358 344.769 552.968 343.766 552.244C342.763 551.519 342.014 550.497 341.625 549.322H283.159C282.781 550.506 282.038 551.539 281.037 552.273C280.035 553.007 278.827 553.404 277.585 553.407C277.181 553.404 276.778 553.364 276.381 553.286L247.215 603.81C248.198 604.883 248.744 606.287 248.744 607.744C248.744 609.2 248.198 610.604 247.215 611.678L276.345 662.225C276.737 662.138 277.136 662.094 277.537 662.093V662.105Z" fill="#86CDD3"/>
</g>
<g style="mix-blend-mode:screen" opacity="0.35">
<path d="M124.047 671.359C124.452 671.361 124.856 671.409 125.25 671.503L154.441 621.004C153.846 620.358 153.402 619.586 153.144 618.746C152.886 617.905 152.819 617.017 152.949 616.148C153.079 615.278 153.402 614.448 153.894 613.72C154.387 612.992 155.036 612.384 155.794 611.94C156.553 611.496 157.401 611.228 158.277 611.156C159.152 611.084 160.033 611.21 160.853 611.523C161.674 611.837 162.414 612.331 163.019 612.968C163.624 613.606 164.078 614.372 164.348 615.208H222.802C223.07 614.372 223.522 613.607 224.123 612.968C224.725 612.33 225.462 611.834 226.281 611.518C227.099 611.201 227.977 611.073 228.852 611.141C229.726 611.209 230.575 611.472 231.334 611.911C232.094 612.35 232.745 612.954 233.241 613.678C233.737 614.402 234.065 615.228 234.2 616.096C234.336 616.963 234.275 617.85 234.024 618.691C233.772 619.532 233.335 620.306 232.745 620.956L261.936 671.564C262.331 671.469 262.735 671.42 263.14 671.419C263.967 671.414 264.786 671.583 265.544 671.916C266.301 672.249 266.98 672.738 267.536 673.351C268.092 673.964 268.513 674.688 268.771 675.474C269.028 676.261 269.118 677.094 269.033 677.917C268.947 678.741 268.69 679.537 268.277 680.255C267.863 680.972 267.304 681.594 266.634 682.08C265.965 682.566 265.2 682.906 264.391 683.077C263.581 683.247 262.745 683.245 261.936 683.071L232.745 733.678C233.735 734.747 234.285 736.15 234.286 737.607C234.283 739.008 233.78 740.362 232.869 741.426C231.957 742.49 230.697 743.194 229.314 743.412C227.931 743.629 226.516 743.346 225.323 742.614C224.129 741.881 223.236 740.747 222.802 739.414H164.348C164.08 740.253 163.628 741.021 163.024 741.661C162.42 742.301 161.68 742.798 160.859 743.113C160.038 743.429 159.156 743.556 158.28 743.485C157.403 743.414 156.553 743.147 155.793 742.704C155.033 742.26 154.383 741.651 153.889 740.922C153.396 740.193 153.072 739.363 152.943 738.492C152.813 737.621 152.88 736.732 153.139 735.89C153.399 735.049 153.844 734.277 154.441 733.63L125.286 683.131C124.891 683.216 124.487 683.26 124.083 683.264C123.31 683.264 122.544 683.111 121.83 682.815C121.116 682.519 120.467 682.085 119.92 681.538C119.374 680.991 118.94 680.341 118.644 679.626C118.349 678.911 118.196 678.145 118.196 677.371C118.196 676.598 118.349 675.831 118.644 675.117C118.94 674.402 119.374 673.752 119.92 673.205C120.467 672.658 121.116 672.224 121.83 671.928C122.544 671.632 123.31 671.479 124.083 671.479L124.047 671.359ZM158.763 731.606C160.007 731.609 161.219 732.007 162.223 732.743C163.227 733.479 163.971 734.516 164.348 735.703H222.802C223.18 734.516 223.924 733.479 224.928 732.743C225.932 732.007 227.143 731.609 228.388 731.606C228.793 731.608 229.197 731.656 229.592 731.751L258.783 681.143C257.791 680.073 257.24 678.668 257.24 677.209C257.24 675.75 257.791 674.344 258.783 673.275L229.592 622.667C229.196 622.752 228.793 622.796 228.388 622.8C227.145 622.796 225.936 622.399 224.933 621.665C223.929 620.931 223.184 619.899 222.802 618.715H164.348C163.967 619.899 163.221 620.931 162.218 621.665C161.215 622.399 160.005 622.796 158.763 622.8C158.358 622.805 157.955 622.764 157.559 622.679L128.38 673.214C129.364 674.288 129.91 675.692 129.91 677.149C129.91 678.605 129.364 680.009 128.38 681.083L157.559 731.606C157.959 731.563 158.362 731.559 158.763 731.594V731.606Z" fill="#86CDD3"/>
</g>
<g style="mix-blend-mode:screen" opacity="0.35">
<path d="M362.39 535.537C362.794 535.541 363.198 535.585 363.593 535.67L392.784 485.171C392.187 484.524 391.742 483.752 391.483 482.911C391.223 482.069 391.156 481.18 391.286 480.309C391.415 479.438 391.739 478.608 392.232 477.879C392.726 477.15 393.376 476.541 394.136 476.097C394.896 475.654 395.746 475.387 396.623 475.316C397.499 475.245 398.381 475.372 399.202 475.688C400.023 476.003 400.763 476.5 401.367 477.14C401.971 477.78 402.424 478.548 402.691 479.387H461.158C461.42 478.546 461.869 477.775 462.47 477.131C463.07 476.486 463.808 475.986 464.628 475.665C465.448 475.345 466.33 475.213 467.207 475.28C468.085 475.346 468.937 475.61 469.699 476.05C470.462 476.49 471.116 477.097 471.613 477.824C472.11 478.551 472.437 479.381 472.57 480.252C472.704 481.123 472.64 482.013 472.383 482.856C472.127 483.699 471.684 484.474 471.088 485.122L500.279 535.706C501.144 535.507 502.042 535.505 502.907 535.702C503.772 535.898 504.582 536.287 505.276 536.84C505.97 537.393 506.531 538.095 506.916 538.895C507.302 539.695 507.502 540.572 507.502 541.46C507.502 542.348 507.302 543.224 506.916 544.024C506.531 544.824 505.97 545.526 505.276 546.079C504.582 546.632 503.772 547.021 502.907 547.218C502.042 547.414 501.144 547.413 500.279 547.213L471.088 597.821C472.078 598.894 472.628 600.301 472.629 601.761C472.632 603.165 472.133 604.524 471.222 605.591C470.311 606.659 469.048 607.365 467.662 607.582C466.277 607.799 464.859 607.512 463.666 606.774C462.473 606.036 461.583 604.894 461.158 603.556H402.691C402.424 604.395 401.971 605.163 401.367 605.803C400.763 606.444 400.023 606.94 399.202 607.256C398.381 607.572 397.499 607.699 396.623 607.628C395.746 607.557 394.896 607.29 394.136 606.846C393.376 606.402 392.726 605.794 392.232 605.065C391.739 604.336 391.415 603.505 391.286 602.634C391.156 601.763 391.223 600.874 391.483 600.033C391.742 599.191 392.187 598.419 392.784 597.773L363.63 547.273C363.234 547.362 362.831 547.411 362.426 547.418C360.865 547.418 359.367 546.797 358.264 545.692C357.16 544.587 356.539 543.089 356.539 541.526C356.539 539.963 357.16 538.465 358.264 537.36C359.367 536.255 360.865 535.634 362.426 535.634L362.39 535.537ZM397.106 595.785C398.349 595.784 399.561 596.18 400.565 596.914C401.569 597.649 402.313 598.684 402.691 599.869H461.158C461.533 598.684 462.276 597.65 463.278 596.916C464.28 596.181 465.489 595.785 466.731 595.785C467.136 595.788 467.539 595.832 467.935 595.917L497.126 545.309C496.134 544.24 495.583 542.835 495.583 541.375C495.583 539.916 496.134 538.511 497.126 537.441L467.935 486.833C467.539 486.919 467.136 486.963 466.731 486.966C465.489 486.965 464.28 486.569 463.278 485.835C462.276 485.101 461.533 484.066 461.158 482.881H402.691C402.313 484.067 401.569 485.102 400.565 485.836C399.561 486.57 398.349 486.966 397.106 486.966C396.702 486.968 396.299 486.932 395.902 486.858L366.723 537.381C367.715 538.451 368.266 539.856 368.266 541.315C368.266 542.774 367.715 544.18 366.723 545.249L395.902 595.772C396.303 595.734 396.706 595.734 397.106 595.772V595.785Z" fill="#86CDD3"/>
</g>
<g style="mix-blend-mode:screen" opacity="0.35">
<path d="M362.39 671.359C362.795 671.361 363.199 671.409 363.593 671.503L392.784 621.004C392.189 620.358 391.745 619.586 391.487 618.746C391.229 617.905 391.162 617.017 391.292 616.148C391.422 615.278 391.745 614.448 392.237 613.72C392.73 612.992 393.379 612.384 394.138 611.94C394.896 611.496 395.744 611.228 396.62 611.156C397.495 611.084 398.376 611.21 399.197 611.523C400.017 611.837 400.757 612.331 401.362 612.968C401.967 613.606 402.421 614.372 402.691 615.208H461.158C461.423 614.369 461.873 613.601 462.475 612.959C463.076 612.317 463.814 611.819 464.634 611.501C465.453 611.183 466.334 611.052 467.21 611.12C468.087 611.188 468.937 611.452 469.698 611.892C470.459 612.333 471.112 612.939 471.608 613.665C472.104 614.392 472.431 615.221 472.564 616.091C472.698 616.96 472.634 617.849 472.379 618.691C472.124 619.533 471.683 620.307 471.088 620.956L500.279 671.564C500.674 671.469 501.078 671.42 501.483 671.419C502.31 671.414 503.129 671.583 503.887 671.916C504.644 672.249 505.323 672.738 505.879 673.351C506.435 673.964 506.856 674.688 507.114 675.474C507.371 676.261 507.461 677.094 507.376 677.917C507.29 678.741 507.033 679.537 506.62 680.255C506.206 680.972 505.647 681.594 504.977 682.08C504.308 682.567 503.543 682.906 502.734 683.077C501.924 683.247 501.088 683.245 500.279 683.071L471.088 733.679C472.078 734.747 472.628 736.15 472.629 737.607C472.635 739.012 472.138 740.372 471.228 741.442C470.318 742.512 469.055 743.22 467.668 743.439C466.282 743.657 464.863 743.372 463.668 742.633C462.474 741.895 461.583 740.753 461.158 739.414H402.691C402.424 740.253 401.971 741.021 401.367 741.661C400.763 742.301 400.023 742.798 399.202 743.113C398.381 743.429 397.499 743.556 396.623 743.485C395.746 743.414 394.896 743.147 394.136 742.704C393.376 742.26 392.726 741.651 392.232 740.922C391.739 740.193 391.415 739.363 391.286 738.492C391.156 737.621 391.223 736.732 391.483 735.89C391.742 735.049 392.187 734.277 392.784 733.63L363.63 683.131C363.234 683.216 362.831 683.26 362.426 683.264C361.653 683.264 360.887 683.111 360.173 682.815C359.459 682.519 358.81 682.085 358.264 681.538C357.717 680.991 357.283 680.341 356.988 679.626C356.692 678.912 356.539 678.145 356.539 677.372C356.539 676.598 356.692 675.832 356.988 675.117C357.283 674.402 357.717 673.752 358.264 673.205C358.81 672.658 359.459 672.224 360.173 671.928C360.887 671.632 361.653 671.479 362.426 671.479L362.39 671.359ZM397.106 731.606C398.35 731.609 399.562 732.007 400.566 732.743C401.57 733.479 402.314 734.516 402.691 735.703H461.158C461.533 734.517 462.275 733.481 463.277 732.744C464.278 732.008 465.488 731.609 466.731 731.606C467.136 731.607 467.54 731.656 467.935 731.751L497.126 681.143C496.134 680.073 495.583 678.668 495.583 677.209C495.583 675.75 496.134 674.344 497.126 673.275L467.935 622.667C467.539 622.752 467.136 622.797 466.731 622.8C465.506 622.806 464.309 622.429 463.31 621.72C462.31 621.011 461.557 620.006 461.158 618.847H402.691C402.31 620.031 401.565 621.064 400.561 621.798C399.558 622.531 398.348 622.929 397.106 622.932C396.701 622.937 396.298 622.896 395.902 622.812L366.723 673.347C367.715 674.417 368.266 675.822 368.266 677.281C368.266 678.74 367.715 680.146 366.723 681.215L395.902 731.739C396.298 731.652 396.701 731.604 397.106 731.594V731.606Z" fill="#86CDD3"/>
</g>
<g style="mix-blend-mode:screen" opacity="0.35">
<path d="M953.384 469.603C953.789 469.606 954.192 469.651 954.588 469.735L983.779 419.236C983.181 418.59 982.736 417.818 982.477 416.976C982.217 416.135 982.15 415.246 982.28 414.375C982.41 413.504 982.733 412.673 983.226 411.944C983.72 411.215 984.37 410.606 985.13 410.163C985.89 409.719 986.74 409.452 987.617 409.381C988.494 409.31 989.375 409.437 990.196 409.753C991.018 410.069 991.757 410.565 992.361 411.205C992.965 411.846 993.418 412.614 993.685 413.452H1052.15C1052.53 412.269 1053.27 411.235 1054.27 410.501C1055.28 409.767 1056.48 409.37 1057.73 409.368C1058.5 409.366 1059.27 409.517 1059.98 409.813C1060.7 410.108 1061.35 410.542 1061.9 411.089C1062.44 411.636 1062.88 412.287 1063.17 413.002C1063.47 413.718 1063.62 414.485 1063.62 415.26C1063.62 416.717 1063.07 418.12 1062.08 419.188L1091.27 469.735C1091.67 469.65 1092.07 469.606 1092.48 469.603C1093.25 469.598 1094.02 469.746 1094.73 470.038C1095.45 470.329 1096.1 470.759 1096.65 471.303C1097.2 471.847 1097.64 472.494 1097.94 473.207C1098.24 473.92 1098.4 474.685 1098.4 475.459C1098.4 477.022 1097.78 478.52 1096.68 479.625C1095.57 480.73 1094.07 481.351 1092.51 481.351C1092.11 481.35 1091.7 481.301 1091.31 481.206L1062.12 531.754C1063.1 532.837 1063.63 534.247 1063.62 535.706C1063.62 536.481 1063.47 537.248 1063.17 537.964C1062.88 538.679 1062.44 539.329 1061.9 539.877C1061.35 540.424 1060.7 540.858 1059.98 541.153C1059.27 541.449 1058.5 541.6 1057.73 541.598C1056.48 541.596 1055.28 541.199 1054.27 540.465C1053.27 539.731 1052.53 538.697 1052.15 537.514H993.685C993.415 538.35 992.961 539.116 992.356 539.754C991.752 540.391 991.012 540.885 990.191 541.199C989.37 541.512 988.489 541.638 987.614 541.566C986.738 541.493 985.89 541.226 985.132 540.782C984.373 540.338 983.724 539.73 983.231 539.002C982.739 538.273 982.416 537.444 982.286 536.574C982.156 535.705 982.223 534.817 982.481 533.976C982.74 533.136 983.183 532.364 983.779 531.718L954.624 481.243C954.229 481.337 953.825 481.385 953.42 481.387C951.859 481.387 950.362 480.766 949.258 479.661C948.154 478.556 947.534 477.058 947.534 475.495C947.534 473.932 948.154 472.434 949.258 471.329C950.362 470.224 951.859 469.603 953.42 469.603H953.384ZM988.04 529.838C989.282 529.842 990.492 530.239 991.495 530.973C992.499 531.706 993.244 532.739 993.625 533.923H1052.15C1052.53 532.739 1053.27 531.705 1054.27 530.971C1055.28 530.237 1056.48 529.84 1057.73 529.838C1058.13 529.841 1058.53 529.885 1058.93 529.971L1088.12 479.423C1087.13 478.34 1086.6 476.923 1086.62 475.459C1086.62 473.999 1087.17 472.593 1088.16 471.519L1058.96 420.971C1058.57 421.066 1058.17 421.115 1057.76 421.116C1056.52 421.113 1055.31 420.717 1054.31 419.982C1053.31 419.248 1052.57 418.215 1052.19 417.031H993.685C993.308 418.232 992.556 419.279 991.54 420.021C990.524 420.762 989.297 421.159 988.04 421.152C987.636 421.15 987.233 421.11 986.836 421.032L957.657 471.555C958.649 472.625 959.2 474.03 959.2 475.489C959.2 476.948 958.649 478.354 957.657 479.423L986.92 529.958C987.288 529.88 987.664 529.839 988.04 529.838Z" fill="#86CDD3"/>
</g>
<g style="mix-blend-mode:screen" opacity="0.35">
<path d="M481.381 469.603C481.785 469.606 482.189 469.65 482.584 469.735L511.751 419.236C510.719 418.151 510.145 416.71 510.15 415.212C510.145 413.806 510.642 412.446 511.552 411.376C512.462 410.306 513.724 409.598 515.111 409.379C516.498 409.161 517.917 409.447 519.111 410.185C520.305 410.923 521.196 412.065 521.622 413.404H580.148C580.414 412.566 580.863 411.798 581.464 411.157C582.065 410.516 582.802 410.018 583.621 409.699C584.44 409.381 585.319 409.25 586.195 409.317C587.071 409.384 587.92 409.647 588.681 410.086C589.442 410.525 590.095 411.129 590.592 411.854C591.089 412.579 591.417 413.406 591.553 414.275C591.688 415.143 591.627 416.031 591.374 416.873C591.121 417.715 590.683 418.49 590.091 419.14L619.27 469.687C619.666 469.603 620.069 469.558 620.474 469.555C622.035 469.555 623.532 470.175 624.636 471.28C625.74 472.385 626.36 473.884 626.36 475.447C626.36 477.009 625.74 478.508 624.636 479.613C623.532 480.718 622.035 481.339 620.474 481.339C620.069 481.337 619.665 481.289 619.27 481.194L590.091 531.742C590.681 532.392 591.118 533.166 591.37 534.007C591.621 534.848 591.682 535.735 591.546 536.602C591.411 537.469 591.083 538.296 590.587 539.02C590.091 539.744 589.44 540.348 588.68 540.787C587.921 541.226 587.072 541.489 586.198 541.557C585.323 541.625 584.445 541.496 583.627 541.18C582.808 540.864 582.071 540.368 581.469 539.73C580.868 539.091 580.416 538.325 580.148 537.489H521.682C521.414 538.329 520.961 539.098 520.357 539.738C519.752 540.379 519.012 540.876 518.189 541.191C517.367 541.507 516.485 541.633 515.607 541.562C514.73 541.49 513.879 541.221 513.119 540.776C512.359 540.331 511.709 539.72 511.217 538.99C510.724 538.259 510.402 537.427 510.274 536.555C510.146 535.683 510.216 534.793 510.478 533.952C510.74 533.11 511.187 532.339 511.787 531.694L482.62 481.194C482.226 481.289 481.822 481.338 481.417 481.339C479.856 481.339 478.358 480.718 477.254 479.613C476.15 478.508 475.53 477.009 475.53 475.447C475.53 473.884 476.15 472.385 477.254 471.28C478.358 470.175 479.856 469.555 481.417 469.555L481.381 469.603ZM516.109 529.85C517.35 529.852 518.559 530.249 519.56 530.983C520.562 531.717 521.305 532.751 521.682 533.935H580.148C580.53 532.751 581.275 531.718 582.278 530.985C583.282 530.251 584.491 529.854 585.734 529.85C586.138 529.854 586.542 529.899 586.938 529.983L616.117 479.435C615.133 478.362 614.587 476.958 614.587 475.501C614.587 474.044 615.133 472.64 616.117 471.567L586.938 421.019C586.543 421.113 586.139 421.161 585.734 421.164C584.491 421.16 583.282 420.763 582.278 420.03C581.275 419.296 580.53 418.263 580.148 417.079H521.682C521.305 418.263 520.562 419.296 519.56 420.031C518.559 420.765 517.35 421.162 516.109 421.164C515.705 421.162 515.302 421.121 514.905 421.044L485.738 471.567C486.722 472.64 487.268 474.044 487.268 475.501C487.268 476.958 486.722 478.362 485.738 479.435L514.965 529.958C515.341 529.879 515.724 529.838 516.109 529.838V529.85Z" fill="#86CDD3"/>
</g>
<g style="mix-blend-mode:screen" opacity="0.35">
<path d="M599.228 535.706C599.633 535.71 600.036 535.754 600.432 535.839L629.587 485.34C628.989 484.693 628.544 483.921 628.285 483.08C628.025 482.238 627.958 481.349 628.088 480.478C628.218 479.607 628.541 478.777 629.034 478.048C629.528 477.319 630.178 476.71 630.938 476.266C631.698 475.823 632.548 475.555 633.425 475.485C634.302 475.414 635.183 475.541 636.004 475.857C636.826 476.172 637.565 476.669 638.169 477.309C638.773 477.949 639.226 478.717 639.493 479.556H697.936C698.361 478.217 699.252 477.075 700.447 476.337C701.641 475.598 703.06 475.313 704.447 475.531C705.833 475.749 707.096 476.458 708.006 477.528C708.916 478.597 709.413 479.958 709.407 481.363C709.406 482.82 708.856 484.223 707.867 485.291L737.058 535.899C737.916 535.714 738.805 535.723 739.66 535.926C740.515 536.129 741.313 536.522 741.996 537.074C742.68 537.626 743.231 538.325 743.61 539.118C743.989 539.911 744.185 540.779 744.185 541.659C744.185 542.538 743.989 543.406 743.61 544.199C743.231 544.993 742.68 545.691 741.996 546.243C741.313 546.796 740.515 547.188 739.66 547.391C738.805 547.595 737.916 547.604 737.058 547.418L707.867 597.954C708.466 598.602 708.911 599.378 709.17 600.223C709.428 601.068 709.493 601.96 709.36 602.833C709.227 603.706 708.899 604.539 708.4 605.268C707.901 605.997 707.245 606.604 706.479 607.044C705.714 607.484 704.86 607.746 703.979 607.81C703.099 607.874 702.216 607.739 701.395 607.414C700.574 607.089 699.837 606.584 699.238 605.935C698.639 605.286 698.194 604.51 697.936 603.665H639.469C639.199 604.502 638.745 605.267 638.14 605.905C637.535 606.543 636.795 607.037 635.975 607.35C635.154 607.664 634.273 607.789 633.398 607.717C632.522 607.645 631.674 607.377 630.916 606.934C630.157 606.49 629.508 605.882 629.015 605.153C628.523 604.425 628.2 603.596 628.07 602.726C627.94 601.856 628.007 600.968 628.265 600.128C628.523 599.287 628.967 598.516 629.563 597.869L600.432 547.382C600.036 547.467 599.633 547.511 599.228 547.515C597.667 547.515 596.17 546.894 595.066 545.789C593.962 544.684 593.342 543.185 593.342 541.622C593.342 540.06 593.962 538.561 595.066 537.456C596.17 536.351 597.667 535.73 599.228 535.73V535.706ZM633.944 595.953C635.187 595.957 636.396 596.354 637.4 597.088C638.403 597.822 639.148 598.854 639.53 600.038H697.936C698.313 598.854 699.056 597.821 700.057 597.087C701.059 596.353 702.268 595.956 703.509 595.953C703.914 595.956 704.317 596.001 704.713 596.086L733.904 545.478C732.912 544.409 732.361 543.003 732.361 541.544C732.361 540.085 732.912 538.68 733.904 537.61L704.713 487.063C704.318 487.157 703.915 487.206 703.509 487.207C702.268 487.205 701.059 486.808 700.057 486.074C699.056 485.34 698.313 484.306 697.936 483.122H639.469C639.088 484.306 638.343 485.339 637.339 486.073C636.336 486.806 635.127 487.204 633.884 487.207C633.48 487.206 633.077 487.165 632.68 487.087L603.501 537.61C604.493 538.68 605.044 540.085 605.044 541.544C605.044 543.003 604.493 544.409 603.501 545.478L632.68 596.014C633.098 595.945 633.522 595.924 633.944 595.953Z" fill="#86CDD3"/>
</g>
<g style="mix-blend-mode:screen" opacity="0.35">
<path d="M716.245 469.603C716.649 469.606 717.053 469.65 717.448 469.735L746.603 419.236C746.006 418.59 745.561 417.817 745.302 416.976C745.042 416.135 744.975 415.246 745.105 414.375C745.234 413.504 745.558 412.673 746.051 411.944C746.545 411.215 747.195 410.606 747.955 410.163C748.715 409.719 749.565 409.452 750.442 409.381C751.318 409.31 752.2 409.437 753.021 409.753C753.842 410.069 754.582 410.565 755.186 411.205C755.79 411.846 756.242 412.614 756.51 413.452H815.013C815.438 412.113 816.329 410.971 817.523 410.233C818.718 409.495 820.137 409.209 821.523 409.427C822.91 409.646 824.173 410.354 825.083 411.424C825.993 412.494 826.49 413.855 826.484 415.26C826.483 416.717 825.933 418.119 824.944 419.188L854.135 469.735C854.943 469.561 855.779 469.559 856.589 469.729C857.398 469.9 858.163 470.24 858.832 470.726C859.502 471.212 860.061 471.834 860.475 472.552C860.888 473.269 861.146 474.065 861.231 474.889C861.316 475.713 861.226 476.545 860.969 477.332C860.711 478.118 860.29 478.842 859.734 479.455C859.178 480.068 858.499 480.557 857.742 480.89C856.984 481.223 856.165 481.392 855.338 481.387C854.933 481.386 854.529 481.337 854.135 481.243L824.944 531.79C825.538 532.439 825.979 533.213 826.234 534.055C826.489 534.897 826.553 535.786 826.419 536.655C826.286 537.525 825.959 538.354 825.463 539.081C824.967 539.807 824.314 540.413 823.553 540.854C822.792 541.294 821.942 541.558 821.066 541.626C820.189 541.694 819.308 541.563 818.489 541.245C817.669 540.927 816.931 540.429 816.33 539.787C815.728 539.145 815.278 538.377 815.013 537.538H756.546C756.276 538.374 755.822 539.14 755.217 539.778C754.612 540.415 753.872 540.909 753.052 541.223C752.231 541.536 751.35 541.662 750.475 541.59C749.599 541.517 748.751 541.25 747.993 540.806C747.234 540.362 746.585 539.754 746.092 539.026C745.6 538.298 745.277 537.468 745.147 536.598C745.017 535.729 745.084 534.841 745.342 534C745.6 533.16 746.044 532.388 746.639 531.742L717.485 481.243C717.09 481.337 716.686 481.386 716.281 481.387C714.72 481.387 713.222 480.766 712.119 479.661C711.015 478.556 710.394 477.058 710.394 475.495C710.394 473.932 711.015 472.434 712.119 471.329C713.222 470.224 714.72 469.603 716.281 469.603H716.245ZM750.961 529.85C752.203 529.854 753.413 530.251 754.416 530.984C755.42 531.718 756.165 532.751 756.546 533.935H815.013C815.39 532.751 816.133 531.717 817.134 530.983C818.136 530.249 819.345 529.852 820.586 529.85C820.991 529.853 821.394 529.897 821.79 529.983L850.981 479.435C849.989 478.365 849.438 476.96 849.438 475.501C849.438 474.042 849.989 472.636 850.981 471.567L821.79 421.019C821.395 421.114 820.991 421.163 820.586 421.164C819.345 421.161 818.136 420.765 817.134 420.031C816.133 419.296 815.39 418.263 815.013 417.079H756.546C756.165 418.263 755.42 419.296 754.416 420.029C753.413 420.763 752.203 421.16 750.961 421.164C750.557 421.162 750.154 421.121 749.757 421.043L720.578 471.567C721.57 472.636 722.121 474.042 722.121 475.501C722.121 476.96 721.57 478.365 720.578 479.435L749.757 529.97C750.133 529.887 750.516 529.842 750.901 529.838L750.961 529.85Z" fill="#86CDD3"/>
</g>
<g style="mix-blend-mode:screen" opacity="0.35">
<path d="M836.367 399.704C836.772 399.708 837.175 399.752 837.571 399.836L866.726 349.337C866.128 348.691 865.683 347.919 865.424 347.077C865.165 346.236 865.097 345.347 865.227 344.476C865.357 343.605 865.68 342.774 866.174 342.045C866.667 341.316 867.318 340.708 868.078 340.264C868.837 339.82 869.687 339.553 870.564 339.482C871.441 339.411 872.322 339.538 873.144 339.854C873.965 340.17 874.705 340.666 875.308 341.307C875.912 341.947 876.365 342.715 876.633 343.554H935.075C935.508 342.221 936.401 341.087 937.595 340.354C938.788 339.621 940.204 339.338 941.587 339.556C942.97 339.774 944.23 340.478 945.141 341.542C946.052 342.605 946.555 343.96 946.559 345.361C946.558 346.818 946.007 348.221 945.018 349.289L974.221 399.836C975.029 399.662 975.866 399.66 976.675 399.831C977.485 400.001 978.249 400.341 978.919 400.827C979.588 401.313 980.148 401.935 980.561 402.653C980.974 403.37 981.232 404.167 981.317 404.99C981.402 405.814 981.313 406.646 981.055 407.433C980.797 408.22 980.376 408.943 979.82 409.556C979.264 410.169 978.586 410.658 977.828 410.991C977.071 411.324 976.252 411.494 975.425 411.488C975.019 411.486 974.615 411.437 974.221 411.344L945.042 461.891C946.022 462.965 946.567 464.365 946.571 465.819C946.567 467.221 946.064 468.575 945.153 469.639C944.242 470.703 942.982 471.406 941.599 471.624C940.216 471.842 938.8 471.559 937.607 470.826C936.414 470.094 935.52 468.959 935.087 467.627H876.633C876.362 468.463 875.908 469.229 875.303 469.867C874.699 470.504 873.959 470.998 873.138 471.312C872.317 471.626 871.437 471.751 870.561 471.679C869.686 471.607 868.837 471.339 868.079 470.895C867.32 470.451 866.671 469.843 866.179 469.115C865.686 468.387 865.363 467.557 865.233 466.687C865.103 465.818 865.17 464.93 865.428 464.089C865.687 463.249 866.13 462.477 866.726 461.831L837.571 411.344C837.176 411.438 836.773 411.486 836.367 411.488C835.594 411.488 834.829 411.336 834.115 411.04C833.4 410.744 832.751 410.31 832.205 409.763C831.658 409.215 831.225 408.566 830.929 407.851C830.633 407.136 830.481 406.37 830.481 405.596C830.481 404.822 830.633 404.056 830.929 403.341C831.225 402.626 831.658 401.977 832.205 401.43C832.751 400.883 833.4 400.449 834.115 400.152C834.829 399.856 835.594 399.704 836.367 399.704ZM871.083 459.951C872.326 459.955 873.535 460.352 874.539 461.086C875.542 461.819 876.288 462.852 876.669 464.036H935.075C935.456 462.852 936.202 461.819 937.205 461.086C938.208 460.352 939.418 459.955 940.66 459.951C941.065 459.955 941.468 459.999 941.864 460.084L971.043 409.476C970.059 408.402 969.513 406.999 969.513 405.542C969.513 404.085 970.059 402.681 971.043 401.608L941.912 351.109C941.518 351.203 941.114 351.251 940.708 351.253C939.458 351.26 938.237 350.867 937.224 350.133C936.211 349.398 935.458 348.36 935.075 347.168H876.621C876.239 348.352 875.494 349.385 874.491 350.119C873.487 350.852 872.278 351.25 871.035 351.253C870.631 351.252 870.228 351.212 869.831 351.133L840.652 401.656C841.636 402.729 842.182 404.133 842.182 405.59C842.182 407.047 841.636 408.451 840.652 409.524L869.831 460.06C870.231 459.973 870.639 459.933 871.047 459.939L871.083 459.951Z" fill="#86CDD3"/>
</g>
<g style="mix-blend-mode:screen" opacity="0.35">
<path d="M5.89838 601.858C6.3031 601.861 6.70645 601.905 7.10213 601.99L36.3052 551.491C35.2932 550.415 34.7293 548.993 34.7282 547.515C34.7226 546.109 35.2198 544.749 36.1299 543.679C37.0399 542.609 38.3025 541.901 39.6892 541.682C41.0758 541.464 42.4948 541.75 43.6892 542.488C44.8835 543.226 45.7742 544.368 46.2 545.707H104.666C104.932 544.869 105.381 544.101 105.982 543.46C106.583 542.819 107.32 542.321 108.139 542.002C108.957 541.684 109.837 541.553 110.713 541.62C111.589 541.687 112.438 541.95 113.199 542.389C113.96 542.828 114.613 543.432 115.11 544.157C115.607 544.882 115.935 545.709 116.07 546.578C116.206 547.446 116.145 548.334 115.892 549.176C115.639 550.018 115.201 550.793 114.609 551.443L143.788 602.05C144.184 601.966 144.587 601.921 144.992 601.918C146.553 601.918 148.05 602.539 149.154 603.644C150.258 604.749 150.878 606.247 150.878 607.81C150.878 609.373 150.258 610.871 149.154 611.976C148.05 613.081 146.553 613.702 144.992 613.702C144.587 613.699 144.184 613.654 143.788 613.57L114.609 664.105C115.199 664.755 115.636 665.529 115.887 666.37C116.139 667.211 116.199 668.098 116.064 668.965C115.929 669.833 115.601 670.659 115.105 671.383C114.609 672.107 113.957 672.711 113.198 673.15C112.438 673.589 111.59 673.852 110.716 673.92C109.841 673.988 108.963 673.859 108.144 673.543C107.326 673.227 106.589 672.731 105.987 672.093C105.385 671.454 104.934 670.689 104.666 669.853H46.2C45.7742 671.192 44.8835 672.333 43.6892 673.072C42.4948 673.81 41.0758 674.096 39.6892 673.877C38.3025 673.659 37.0399 672.951 36.1299 671.881C35.2198 670.811 34.7226 669.45 34.7282 668.045C34.7293 666.567 35.2932 665.145 36.3052 664.069L7.13828 613.57C6.32967 613.744 5.49335 613.746 4.6839 613.576C3.87445 613.405 3.11008 613.065 2.44054 612.579C1.77098 612.093 1.21132 611.471 0.79808 610.753C0.384842 610.036 0.127304 609.24 0.0422058 608.416C-0.0428772 607.592 0.0464325 606.76 0.304291 605.973C0.562134 605.186 0.982712 604.463 1.53867 603.85C2.09464 603.237 2.7735 602.748 3.53091 602.415C4.28835 602.082 5.10733 601.913 5.93452 601.918L5.89838 601.858ZM40.6267 662.105C41.868 662.107 43.0766 662.504 44.0782 663.238C45.0798 663.972 45.8228 665.006 46.2 666.19H104.666C105.047 665.006 105.793 663.973 106.796 663.239C107.8 662.506 109.009 662.108 110.252 662.105C110.656 662.109 111.059 662.153 111.455 662.237L140.634 611.63C139.651 610.556 139.105 609.152 139.105 607.696C139.105 606.239 139.651 604.835 140.634 603.761L111.455 553.226C111.059 553.31 110.656 553.354 110.252 553.359C109.009 553.355 107.8 552.958 106.796 552.224C105.793 551.49 105.047 550.458 104.666 549.274H46.2C45.8228 550.458 45.0798 551.491 44.0782 552.225C43.0766 552.959 41.868 553.356 40.6267 553.359C40.2225 553.356 39.8195 553.316 39.4229 553.238L10.244 603.761C11.2356 604.831 11.7866 606.236 11.7866 607.696C11.7866 609.155 11.2356 610.56 10.244 611.63L39.4831 662.225C39.8587 662.142 40.2419 662.097 40.6267 662.093V662.105Z" fill="#86CDD3"/>
</g>
</g>
<g opacity="0.45">
<g style="mix-blend-mode:multiply" opacity="0.75">
<path d="M254.762 341.192H324.977L360.09 401.993L324.977 462.795H254.762L219.649 401.993L254.762 341.192Z" fill="#A0D6DB"/>
</g>
<g style="mix-blend-mode:multiply" opacity="0.75">
<path d="M940.492 602.605H1010.71L1045.81 663.406L1010.71 724.208H940.492L905.378 663.406L940.492 602.605Z" fill="#A0D6DB"/>
</g>
<g style="mix-blend-mode:multiply" opacity="0.45">
<path d="M369.805 276.318H440.02L475.133 337.119L440.02 397.921H369.805L334.703 337.119L369.805 276.318Z" fill="#A0D6DB"/>
</g>
<g style="mix-blend-mode:multiply" opacity="0.45">
<path d="M254.762 474.266H324.977L360.09 535.068L324.977 595.869H254.762L219.649 535.068L254.762 474.266Z" fill="#A0D6DB"/>
</g>
<g style="mix-blend-mode:multiply" opacity="0.45">
<path d="M484.306 471.495H554.521L589.634 532.296L554.521 593.098H484.306L449.204 532.296L484.306 471.495Z" fill="#A0D6DB"/>
</g>
<g style="mix-blend-mode:multiply" opacity="0.25">
<path d="M486.123 78.0803H556.338L591.452 138.882L556.338 199.683H486.123L451.022 138.882L486.123 78.0803Z" fill="#A0D6DB"/>
</g>
<g style="mix-blend-mode:multiply" opacity="0.25">
<path d="M827.207 145.316H897.421L932.523 206.118L897.421 266.919H827.207L792.093 206.118L827.207 145.316Z" fill="#A0D6DB"/>
</g>
<g style="mix-blend-mode:multiply" opacity="0.25">
<path d="M138.444 407.319H208.658L243.772 468.121L208.658 528.922H138.444L103.33 468.121L138.444 407.319Z" fill="#A0D6DB"/>
</g>
<g style="mix-blend-mode:multiply" opacity="0.25">
<path d="M595.954 663.406H666.169L701.282 724.208L666.169 785.009H595.954L560.852 724.208L595.954 663.406Z" fill="#A0D6DB"/>
</g>
<g style="mix-blend-mode:multiply" opacity="0.25">
<path d="M826.605 538.321H896.819L931.921 599.123L896.819 659.924H826.605L791.491 599.123L826.605 538.321Z" fill="#A0D6DB"/>
</g>
<g style="mix-blend-mode:multiply" opacity="0.25">
<path d="M600.612 276.318H670.827L705.941 337.119L670.827 397.921H600.612L565.499 337.119L600.612 276.318Z" fill="#A0D6DB"/>
</g>
<g style="mix-blend-mode:multiply" opacity="0.25">
<path d="M485.509 209.082H555.724L590.838 269.884L555.724 330.685H485.509L450.408 269.884L485.509 209.082Z" fill="#A0D6DB"/>
</g>
<g style="mix-blend-mode:multiply" opacity="0.25">
<path d="M369.805 407.319H440.02L475.133 468.121L440.02 528.922H369.805L334.703 468.121L369.805 407.319Z" fill="#A0D6DB"/>
</g>
<g style="mix-blend-mode:multiply" opacity="0.25">
<path d="M939.89 339.987H1010.12L1045.22 400.789L1010.12 461.59H939.89L904.788 400.789L939.89 339.987Z" fill="#A0D6DB"/>
</g>
<g style="mix-blend-mode:multiply" opacity="0.75">
<path d="M600.612 145.316H670.827L705.941 206.118L670.827 266.919H600.612L565.499 206.118L600.612 145.316Z" fill="#A0D6DB"/>
</g>
<g style="mix-blend-mode:multiply" opacity="0.75">
<path d="M486.123 339.987H556.338L591.452 400.789L556.338 461.59H486.123L451.022 400.789L486.123 339.987Z" fill="#A0D6DB"/>
</g>
<g style="mix-blend-mode:multiply" opacity="0.75">
<path d="M940.492 210.287H1010.71L1045.81 271.088L1010.71 331.89H940.492L905.378 271.088L940.492 210.287Z" fill="#A0D6DB"/>
</g>
<g style="mix-blend-mode:multiply" opacity="0.75">
<path d="M713.308 604.352H783.522L818.636 665.153L783.522 725.955H713.308L678.194 665.153L713.308 604.352Z" fill="#A0D6DB"/>
</g>
<g style="mix-blend-mode:multiply" opacity="0.75">
<path d="M826.605 407.319H896.819L931.921 468.121L896.819 528.922H826.605L791.491 468.121L826.605 407.319Z" fill="#A0D6DB"/>
</g>
<g style="mix-blend-mode:multiply" opacity="0.45">
<path d="M713.909 210.287H784.124L819.238 271.088L784.124 331.89H713.909L678.796 271.088L713.909 210.287Z" fill="#A0D6DB"/>
</g>
<g style="mix-blend-mode:multiply" opacity="0.45">
<path d="M826.605 276.318H896.819L931.921 337.119L896.819 397.921H826.605L791.491 337.119L826.605 276.318Z" fill="#A0D6DB"/>
</g>
<g style="mix-blend-mode:multiply" opacity="0.45">
<path d="M940.492 469.687H1010.71L1045.81 530.489L1010.71 591.29H940.492L905.378 530.489L940.492 469.687Z" fill="#A0D6DB"/>
</g>
<g style="mix-blend-mode:multiply" opacity="0.45">
<path d="M827.207 669.323H897.421L932.523 730.124L897.421 790.926H827.207L792.093 730.124L827.207 669.323Z" fill="#A0D6DB"/>
</g>
<g style="mix-blend-mode:multiply" opacity="0.45">
<path d="M600.612 407.319H670.827L705.941 468.121L670.827 528.922H600.612L565.499 468.121L600.612 407.319Z" fill="#A0D6DB"/>
</g>
</g>
<g style="mix-blend-mode:multiply">
<g style="mix-blend-mode:screen">
<path d="M834.886 672.841C835.292 672.849 835.695 672.898 836.09 672.986L865.257 622.462C864.244 621.382 863.681 619.956 863.68 618.474C863.677 617.07 864.177 615.711 865.088 614.643C865.999 613.576 867.261 612.87 868.647 612.653C870.033 612.436 871.451 612.723 872.644 613.461C873.837 614.199 874.726 615.341 875.152 616.679H933.642C933.917 615.849 934.374 615.091 934.978 614.46C935.583 613.829 936.32 613.341 937.137 613.031C937.954 612.721 938.83 612.598 939.7 612.67C940.571 612.741 941.414 613.007 942.169 613.446C942.925 613.885 943.572 614.487 944.066 615.209C944.559 615.93 944.885 616.753 945.021 617.617C945.157 618.48 945.098 619.364 944.85 620.202C944.601 621.04 944.169 621.812 943.585 622.462L972.764 672.986C973.16 672.898 973.563 672.849 973.968 672.841C974.764 672.805 975.559 672.931 976.306 673.211C977.052 673.491 977.734 673.92 978.31 674.471C978.886 675.022 979.345 675.685 979.658 676.418C979.971 677.152 980.133 677.941 980.133 678.739C980.133 679.537 979.971 680.327 979.658 681.06C979.345 681.794 978.886 682.456 978.31 683.007C977.734 683.559 977.052 683.987 976.306 684.267C975.559 684.548 974.764 684.673 973.968 684.637C973.563 684.629 973.16 684.581 972.764 684.493L943.585 735.04C944.177 735.69 944.615 736.465 944.868 737.307C945.121 738.149 945.182 739.037 945.046 739.905C944.911 740.774 944.583 741.601 944.086 742.326C943.589 743.051 942.936 743.655 942.175 744.094C941.414 744.533 940.565 744.796 939.689 744.863C938.813 744.929 937.934 744.799 937.115 744.481C936.296 744.162 935.559 743.664 934.958 743.023C934.357 742.382 933.908 741.614 933.642 740.776H875.176C874.911 741.617 874.459 742.388 873.856 743.032C873.252 743.675 872.511 744.174 871.689 744.492C870.866 744.809 869.983 744.938 869.104 744.867C868.225 744.796 867.373 744.529 866.612 744.083C865.851 743.638 865.199 743.027 864.706 742.296C864.212 741.565 863.89 740.731 863.762 739.858C863.634 738.985 863.704 738.094 863.967 737.252C864.23 736.409 864.679 735.637 865.281 734.992L836.126 684.493C835.731 684.581 835.328 684.629 834.923 684.637C834.126 684.673 833.331 684.548 832.585 684.267C831.839 683.987 831.157 683.559 830.581 683.007C830.005 682.456 829.546 681.794 829.233 681.06C828.919 680.327 828.758 679.537 828.758 678.739C828.758 677.941 828.919 677.152 829.233 676.418C829.546 675.685 830.005 675.022 830.581 674.471C831.157 673.92 831.839 673.491 832.585 673.211C833.331 672.931 834.126 672.805 834.923 672.841H834.886ZM869.603 733.088C870.845 733.089 872.054 733.485 873.056 734.219C874.058 734.954 874.8 735.988 875.176 737.173H933.642C934.02 735.987 934.765 734.952 935.769 734.218C936.773 733.484 937.984 733.088 939.228 733.088C939.632 733.092 940.036 733.137 940.431 733.221L969.647 682.709C968.663 681.636 968.117 680.232 968.117 678.775C968.117 677.319 968.663 675.915 969.647 674.841L940.468 624.233C940.072 624.317 939.669 624.362 939.264 624.366C938.02 624.366 936.809 623.97 935.805 623.236C934.801 622.502 934.056 621.467 933.678 620.281H875.212C874.837 621.466 874.094 622.501 873.092 623.235C872.09 623.969 870.881 624.365 869.639 624.366C869.235 624.368 868.832 624.331 868.435 624.258L839.268 674.781C840.252 675.854 840.798 677.258 840.798 678.715C840.798 680.172 840.252 681.576 839.268 682.649L868.411 733.197C868.804 733.124 869.203 733.087 869.603 733.088Z" fill="#E4EEF6"/>
</g>
<g style="mix-blend-mode:screen">
<path d="M717.858 738.981C718.262 738.984 718.666 739.028 719.061 739.113L748.264 688.614C747.254 687.537 746.69 686.115 746.688 684.638C746.682 683.232 747.179 681.872 748.089 680.802C748.999 679.732 750.262 679.024 751.648 678.805C753.035 678.587 754.454 678.873 755.648 679.611C756.843 680.349 757.733 681.491 758.159 682.83H816.626C816.891 681.992 817.341 681.224 817.942 680.583C818.542 679.942 819.279 679.444 820.098 679.125C820.917 678.807 821.796 678.676 822.672 678.743C823.548 678.81 824.398 679.073 825.159 679.512C825.919 679.951 826.572 680.555 827.069 681.28C827.566 682.005 827.894 682.832 828.03 683.701C828.165 684.569 828.104 685.457 827.851 686.299C827.598 687.141 827.16 687.916 826.569 688.566L855.748 739.113C856.143 739.029 856.547 738.984 856.951 738.981C857.724 738.981 858.49 739.133 859.204 739.429C859.918 739.725 860.567 740.159 861.114 740.706C861.66 741.254 862.094 741.903 862.39 742.618C862.685 743.333 862.838 744.099 862.838 744.873C862.838 745.647 862.685 746.413 862.39 747.128C862.094 747.842 861.66 748.492 861.114 749.039C860.567 749.586 859.918 750.02 859.204 750.316C858.49 750.613 857.724 750.765 856.951 750.765C856.546 750.757 856.143 750.709 855.748 750.62L826.569 801.168C827.16 801.818 827.598 802.592 827.851 803.434C828.104 804.276 828.165 805.164 828.03 806.033C827.894 806.902 827.566 807.729 827.069 808.454C826.572 809.179 825.919 809.783 825.159 810.222C824.398 810.661 823.548 810.923 822.672 810.99C821.796 811.057 820.917 810.926 820.098 810.608C819.279 810.29 818.542 809.792 817.942 809.151C817.341 808.509 816.891 807.741 816.626 806.903H758.123C757.858 807.745 757.407 808.516 756.803 809.159C756.199 809.803 755.459 810.301 754.636 810.619C753.813 810.937 752.93 811.065 752.051 810.995C751.172 810.924 750.321 810.656 749.559 810.211C748.798 809.766 748.146 809.155 747.653 808.424C747.16 807.692 746.837 806.859 746.709 805.986C746.581 805.113 746.651 804.222 746.914 803.379C747.177 802.537 747.627 801.765 748.228 801.12L719.061 750.62C718.25 750.803 717.409 750.812 716.594 750.646C715.779 750.48 715.009 750.143 714.333 749.657C713.658 749.171 713.093 748.548 712.676 747.828C712.259 747.107 711.999 746.307 711.913 745.479C711.828 744.651 711.918 743.814 712.179 743.024C712.44 742.233 712.865 741.507 713.427 740.893C713.989 740.279 714.674 739.791 715.438 739.462C716.201 739.132 717.026 738.968 717.858 738.981ZM752.586 799.228C753.828 799.228 755.037 799.625 756.039 800.359C757.041 801.093 757.784 802.128 758.159 803.313H816.626C817.003 802.127 817.748 801.092 818.752 800.358C819.756 799.623 820.968 799.228 822.211 799.228C822.616 799.232 823.019 799.276 823.415 799.36L852.594 748.813C851.602 747.743 851.051 746.338 851.051 744.879C851.051 743.42 851.602 742.014 852.594 740.945L823.415 690.337C823.019 690.425 822.616 690.473 822.211 690.482C820.967 690.479 819.755 690.081 818.751 689.345C817.747 688.608 817.003 687.572 816.626 686.385H758.123C757.748 687.571 757.006 688.607 756.004 689.343C755.002 690.08 753.793 690.478 752.55 690.482C752.146 690.479 751.743 690.439 751.346 690.361L722.167 740.884C723.159 741.954 723.71 743.359 723.71 744.819C723.71 746.278 723.159 747.683 722.167 748.753L751.346 799.288C751.755 799.218 752.171 799.194 752.586 799.216V799.228Z" fill="#E4EEF6"/>
</g>
<g style="mix-blend-mode:screen">
<path d="M834.887 537.02C835.291 537.024 835.694 537.068 836.09 537.152L865.257 486.653C864.246 485.576 863.683 484.154 863.68 482.677C863.675 481.272 864.172 479.911 865.082 478.841C865.992 477.771 867.255 477.063 868.641 476.844C870.028 476.626 871.447 476.912 872.641 477.65C873.835 478.388 874.726 479.53 875.152 480.869H933.642C933.908 480.031 934.357 479.263 934.958 478.622C935.559 477.981 936.296 477.483 937.115 477.165C937.934 476.846 938.813 476.716 939.689 476.782C940.565 476.849 941.414 477.112 942.175 477.551C942.936 477.99 943.589 478.594 944.086 479.319C944.583 480.044 944.911 480.871 945.046 481.74C945.182 482.608 945.121 483.496 944.868 484.338C944.615 485.18 944.177 485.955 943.585 486.605L972.764 537.212C973.16 537.128 973.563 537.084 973.968 537.08C974.741 537.08 975.506 537.232 976.221 537.528C976.935 537.825 977.584 538.259 978.13 538.806C978.677 539.353 979.11 540.002 979.406 540.717C979.702 541.432 979.854 542.198 979.854 542.972C979.854 543.746 979.702 544.512 979.406 545.227C979.11 545.942 978.677 546.591 978.13 547.138C977.584 547.686 976.935 548.12 976.221 548.416C975.506 548.712 974.741 548.864 973.968 548.864C973.563 548.862 973.159 548.813 972.764 548.72L943.585 599.327C944.175 599.977 944.612 600.751 944.863 601.592C945.115 602.433 945.176 603.32 945.04 604.188C944.905 605.055 944.577 605.881 944.081 606.605C943.585 607.329 942.934 607.933 942.174 608.372C941.414 608.811 940.566 609.074 939.692 609.143C938.817 609.211 937.939 609.082 937.121 608.766C936.302 608.449 935.565 607.954 934.963 607.315C934.361 606.676 933.91 605.911 933.642 605.075H875.176C874.908 605.915 874.455 606.683 873.851 607.324C873.246 607.965 872.505 608.461 871.683 608.777C870.861 609.092 869.979 609.219 869.101 609.147C868.223 609.075 867.373 608.807 866.613 608.362C865.853 607.917 865.203 607.306 864.711 606.575C864.218 605.845 863.896 605.013 863.768 604.141C863.64 603.269 863.71 602.379 863.972 601.537C864.234 600.696 864.681 599.924 865.281 599.279L836.126 548.78C835.732 548.873 835.328 548.922 834.923 548.924C833.361 548.924 831.864 548.304 830.76 547.199C829.656 546.094 829.036 544.595 829.036 543.032C829.036 541.47 829.656 539.971 830.76 538.866C831.864 537.761 833.361 537.14 834.923 537.14L834.887 537.02ZM869.603 597.267C870.844 597.269 872.053 597.666 873.054 598.4C874.056 599.134 874.799 600.168 875.176 601.352H933.642C934.023 600.168 934.769 599.135 935.772 598.401C936.776 597.668 937.985 597.271 939.228 597.267C939.632 597.271 940.036 597.315 940.431 597.399L969.61 546.792C968.627 545.718 968.081 544.314 968.081 542.858C968.081 541.401 968.627 539.997 969.61 538.923L940.431 488.316C940.037 488.409 939.633 488.458 939.228 488.46C937.983 488.458 936.772 488.06 935.768 487.323C934.764 486.587 934.02 485.551 933.642 484.364H875.176C874.801 485.55 874.059 486.586 873.057 487.322C872.055 488.059 870.846 488.457 869.603 488.46C869.199 488.458 868.796 488.418 868.399 488.34L839.232 538.863C840.216 539.937 840.762 541.341 840.762 542.797C840.762 544.254 840.216 545.658 839.232 546.732L868.399 597.267C868.799 597.219 869.202 597.215 869.603 597.255V597.267Z" fill="#E4EEF6"/>
</g>
<g style="mix-blend-mode:screen">
<path d="M600.022 672.841C600.427 672.849 600.831 672.897 601.226 672.986L630.417 622.462C629.82 621.816 629.375 621.044 629.115 620.202C628.856 619.361 628.789 618.472 628.918 617.601C629.048 616.73 629.372 615.899 629.865 615.17C630.358 614.441 631.009 613.833 631.769 613.389C632.529 612.945 633.378 612.678 634.255 612.607C635.132 612.536 636.014 612.663 636.835 612.979C637.656 613.295 638.396 613.791 639 614.432C639.604 615.072 640.056 615.84 640.324 616.679H698.778C699.211 615.347 700.104 614.213 701.296 613.48C702.488 612.748 703.902 612.464 705.284 612.68C706.666 612.896 707.926 613.598 708.839 614.66C709.751 615.721 710.255 617.074 710.262 618.474C710.286 619.944 709.752 621.369 708.769 622.462L737.96 673.01C738.825 672.81 739.723 672.809 740.588 673.005C741.453 673.201 742.263 673.591 742.957 674.144C743.651 674.697 744.212 675.399 744.597 676.199C744.982 676.999 745.182 677.875 745.182 678.763C745.182 679.651 744.982 680.528 744.597 681.328C744.212 682.128 743.651 682.83 742.957 683.383C742.263 683.936 741.453 684.325 740.588 684.521C739.723 684.718 738.825 684.716 737.96 684.517L708.769 735.04C709.759 736.114 710.309 737.52 710.31 738.98C710.304 740.381 709.799 741.733 708.887 742.795C707.975 743.856 706.714 744.558 705.332 744.774C703.95 744.99 702.536 744.707 701.344 743.974C700.152 743.241 699.259 742.107 698.826 740.776H640.372C640.104 741.615 639.652 742.382 639.048 743.023C638.444 743.663 637.704 744.159 636.883 744.475C636.062 744.791 635.18 744.918 634.303 744.847C633.427 744.776 632.577 744.509 631.817 744.065C631.057 743.622 630.406 743.013 629.913 742.284C629.42 741.555 629.096 740.724 628.966 739.853C628.837 738.982 628.904 738.093 629.163 737.252C629.423 736.411 629.868 735.638 630.465 734.992L601.31 684.493C600.915 684.581 600.512 684.63 600.107 684.637C599.31 684.673 598.515 684.548 597.769 684.267C597.023 683.987 596.341 683.559 595.765 683.007C595.189 682.456 594.73 681.794 594.417 681.06C594.103 680.327 593.942 679.537 593.942 678.739C593.942 677.941 594.103 677.152 594.417 676.418C594.73 675.685 595.189 675.022 595.765 674.471C596.341 673.92 597.023 673.491 597.769 673.211C598.515 672.931 599.31 672.805 600.107 672.841H600.022ZM634.739 733.088C635.982 733.088 637.193 733.484 638.197 734.218C639.201 734.952 639.946 735.987 640.324 737.173H698.778C699.156 735.987 699.901 734.952 700.905 734.218C701.909 733.484 703.12 733.088 704.364 733.088C704.768 733.092 705.172 733.136 705.567 733.221L734.794 682.71C733.803 681.64 733.252 680.235 733.252 678.775C733.252 677.316 733.803 675.911 734.794 674.841L705.603 624.234C705.208 624.318 704.804 624.363 704.4 624.366C703.156 624.366 701.945 623.971 700.941 623.236C699.937 622.502 699.192 621.467 698.814 620.281H640.36C639.982 621.467 639.237 622.502 638.233 623.236C637.229 623.971 636.018 624.366 634.775 624.366C634.371 624.369 633.968 624.333 633.571 624.258L604.392 674.781C605.376 675.854 605.922 677.258 605.922 678.715C605.922 680.172 605.376 681.576 604.392 682.649L633.559 733.197C633.948 733.123 634.343 733.087 634.739 733.088Z" fill="#E4EEF6"/>
</g>
</g>
<g style="mix-blend-mode:multiply">
<g style="mix-blend-mode:screen">
<path d="M241.449 334.637C241.853 334.641 242.256 334.686 242.652 334.77L271.807 284.27C270.796 283.193 270.233 281.772 270.23 280.294C270.225 278.889 270.722 277.528 271.632 276.458C272.542 275.389 273.805 274.68 275.191 274.462C276.578 274.243 277.997 274.529 279.191 275.267C280.385 276.006 281.276 277.148 281.702 278.487H340.204C340.47 277.649 340.919 276.881 341.52 276.24C342.121 275.598 342.858 275.1 343.677 274.782C344.496 274.464 345.375 274.333 346.251 274.4C347.127 274.467 347.976 274.729 348.737 275.168C349.498 275.607 350.151 276.211 350.648 276.936C351.145 277.661 351.473 278.489 351.608 279.357C351.744 280.226 351.683 281.114 351.43 281.956C351.177 282.798 350.739 283.572 350.147 284.222L379.326 334.77C379.722 334.686 380.125 334.641 380.53 334.637C382.091 334.637 383.589 335.258 384.692 336.363C385.796 337.468 386.417 338.967 386.417 340.529C386.417 342.092 385.796 343.591 384.692 344.696C383.589 345.801 382.091 346.421 380.53 346.421C380.125 346.413 379.722 346.365 379.326 346.277L350.147 396.824C350.737 397.474 351.174 398.248 351.426 399.089C351.677 399.93 351.738 400.817 351.602 401.685C351.467 402.552 351.139 403.378 350.643 404.102C350.147 404.826 349.496 405.43 348.736 405.869C347.976 406.308 347.128 406.571 346.254 406.639C345.379 406.708 344.501 406.579 343.683 406.263C342.864 405.946 342.127 405.451 341.525 404.812C340.923 404.173 340.472 403.408 340.204 402.572H281.738C281.463 403.403 281.006 404.162 280.401 404.793C279.796 405.425 279.057 405.913 278.24 406.223C277.422 406.532 276.545 406.655 275.674 406.582C274.803 406.51 273.958 406.243 273.203 405.802C272.448 405.362 271.8 404.758 271.308 404.034C270.815 403.311 270.49 402.487 270.357 401.622C270.223 400.757 270.284 399.873 270.535 399.035C270.786 398.197 271.22 397.425 271.807 396.776L242.652 346.277C242.257 346.365 241.854 346.413 241.449 346.421C239.887 346.421 238.39 345.801 237.286 344.696C236.182 343.591 235.562 342.092 235.562 340.529C235.562 338.967 236.182 337.468 237.286 336.363C238.39 335.258 239.887 334.637 241.449 334.637ZM276.165 394.884C277.406 394.887 278.615 395.284 279.616 396.018C280.618 396.752 281.361 397.785 281.738 398.969H340.204C340.586 397.785 341.331 396.753 342.334 396.019C343.338 395.285 344.547 394.888 345.79 394.884C346.195 394.888 346.598 394.932 346.994 395.017L376.173 344.409C375.189 343.336 374.643 341.932 374.643 340.475C374.643 339.018 375.189 337.614 376.173 336.541L346.994 285.993C346.598 286.082 346.195 286.131 345.79 286.138C344.545 286.135 343.334 285.737 342.33 285.001C341.326 284.265 340.582 283.228 340.204 282.041H281.738C281.363 283.227 280.621 284.263 279.619 285C278.617 285.736 277.408 286.135 276.165 286.138C275.761 286.136 275.358 286.095 274.961 286.018L245.794 336.541C246.778 337.614 247.324 339.018 247.324 340.475C247.324 341.932 246.778 343.336 245.794 344.409L274.961 394.945C275.358 394.877 275.762 394.853 276.165 394.872V394.884Z" fill="#E4EEF6"/>
</g>
<g style="mix-blend-mode:screen">
<path d="M124.384 264.738C124.788 264.741 125.192 264.786 125.587 264.871L154.754 214.372C153.743 213.295 153.18 211.873 153.177 210.395C153.172 208.99 153.669 207.629 154.579 206.56C155.489 205.49 156.752 204.781 158.138 204.563C159.525 204.344 160.944 204.63 162.138 205.369C163.333 206.107 164.223 207.249 164.649 208.588H223.152C223.417 207.75 223.867 206.982 224.467 206.341C225.068 205.7 225.805 205.201 226.624 204.883C227.443 204.565 228.322 204.434 229.198 204.501C230.074 204.568 230.923 204.83 231.684 205.269C232.445 205.708 233.098 206.312 233.595 207.037C234.092 207.762 234.42 208.59 234.556 209.458C234.691 210.327 234.63 211.215 234.377 212.057C234.124 212.899 233.686 213.673 233.095 214.323L262.273 264.931C262.669 264.846 263.073 264.802 263.477 264.798C265.038 264.798 266.536 265.419 267.64 266.524C268.743 267.629 269.364 269.128 269.364 270.691C269.364 272.253 268.743 273.752 267.64 274.857C266.536 275.962 265.038 276.583 263.477 276.583C263.072 276.575 262.669 276.527 262.273 276.438L233.095 327.046C233.684 327.696 234.121 328.47 234.373 329.311C234.624 330.152 234.685 331.039 234.549 331.906C234.414 332.774 234.086 333.6 233.59 334.324C233.094 335.048 232.443 335.652 231.683 336.091C230.924 336.53 230.075 336.793 229.201 336.861C228.327 336.929 227.448 336.8 226.63 336.484C225.811 336.168 225.074 335.672 224.472 335.034C223.871 334.395 223.419 333.63 223.152 332.793H164.673C164.405 333.633 163.952 334.402 163.348 335.042C162.743 335.683 162.003 336.18 161.18 336.495C160.358 336.811 159.476 336.938 158.598 336.866C157.721 336.794 156.87 336.525 156.11 336.08C155.35 335.635 154.7 335.025 154.208 334.294C153.715 333.563 153.393 332.731 153.265 331.859C153.137 330.987 153.207 330.097 153.469 329.256C153.731 328.414 154.178 327.643 154.778 326.998L125.611 276.498C124.8 276.681 123.959 276.69 123.144 276.524C122.329 276.358 121.559 276.021 120.883 275.535C120.208 275.049 119.643 274.426 119.226 273.706C118.809 272.985 118.549 272.185 118.463 271.357C118.378 270.529 118.468 269.692 118.729 268.902C118.99 268.111 119.416 267.385 119.977 266.771C120.539 266.157 121.224 265.669 121.988 265.34C122.751 265.01 123.576 264.846 124.408 264.859L124.384 264.738ZM159.112 324.985C160.35 324.99 161.554 325.386 162.553 326.117C163.552 326.849 164.295 327.878 164.673 329.058H223.152C223.533 327.874 224.278 326.842 225.282 326.108C226.285 325.374 227.494 324.977 228.737 324.973C229.142 324.977 229.545 325.022 229.941 325.106L259.12 274.498C258.136 273.425 257.59 272.021 257.59 270.564C257.59 269.107 258.136 267.703 259.12 266.63L229.941 216.083C229.545 216.17 229.142 216.219 228.737 216.227C227.492 216.224 226.281 215.826 225.277 215.09C224.273 214.354 223.529 213.317 223.152 212.13H164.673C164.298 213.316 163.556 214.352 162.554 215.089C161.552 215.825 160.343 216.224 159.1 216.227C158.696 216.225 158.293 216.184 157.896 216.107L128.717 266.63C129.709 267.7 130.26 269.105 130.26 270.564C130.26 272.023 129.709 273.429 128.717 274.498L157.896 325.034C158.298 324.969 158.706 324.949 159.112 324.973V324.985Z" fill="#E4EEF6"/>
</g>
</g>
<g style="mix-blend-mode:multiply">
<g style="mix-blend-mode:screen">
<path d="M244.013 738.98C244.417 738.983 244.821 739.028 245.216 739.113L274.419 688.614C273.408 687.537 272.845 686.115 272.842 684.637C272.837 683.232 273.334 681.872 274.244 680.802C275.154 679.732 276.417 679.024 277.803 678.805C279.19 678.587 280.609 678.872 281.803 679.611C282.998 680.349 283.888 681.491 284.314 682.83H342.829C343.094 681.992 343.544 681.224 344.145 680.583C344.745 679.942 345.482 679.444 346.301 679.125C347.12 678.807 347.999 678.676 348.875 678.743C349.751 678.81 350.601 679.073 351.362 679.511C352.123 679.95 352.775 680.555 353.272 681.28C353.769 682.005 354.097 682.832 354.233 683.7C354.368 684.569 354.307 685.457 354.054 686.299C353.801 687.141 353.363 687.915 352.772 688.565L381.951 739.113C382.346 739.028 382.75 738.984 383.154 738.98C384.715 738.98 386.213 739.601 387.317 740.706C388.42 741.811 389.041 743.31 389.041 744.873C389.041 746.435 388.42 747.934 387.317 749.039C386.213 750.144 384.715 750.765 383.154 750.765C382.749 750.757 382.346 750.709 381.951 750.62L352.772 801.168C353.363 801.818 353.801 802.592 354.054 803.434C354.307 804.276 354.368 805.164 354.233 806.033C354.097 806.901 353.769 807.729 353.272 808.454C352.775 809.178 352.123 809.783 351.362 810.222C350.601 810.661 349.751 810.923 348.875 810.99C347.999 811.057 347.12 810.926 346.301 810.608C345.482 810.289 344.745 809.791 344.145 809.15C343.544 808.509 343.094 807.741 342.829 806.903H284.362C284.097 807.745 283.646 808.516 283.042 809.159C282.438 809.802 281.698 810.301 280.875 810.619C280.053 810.937 279.169 811.065 278.29 810.994C277.411 810.924 276.56 810.656 275.798 810.211C275.037 809.766 274.385 809.155 273.892 808.423C273.399 807.692 273.076 806.859 272.948 805.986C272.82 805.112 272.891 804.221 273.154 803.379C273.417 802.537 273.866 801.764 274.468 801.119L245.301 750.62C244.489 750.803 243.648 750.812 242.833 750.646C242.019 750.48 241.248 750.143 240.573 749.657C239.897 749.171 239.332 748.547 238.915 747.827C238.498 747.107 238.238 746.307 238.152 745.479C238.067 744.651 238.158 743.814 238.418 743.023C238.679 742.233 239.105 741.507 239.666 740.893C240.228 740.279 240.913 739.791 241.677 739.461C242.441 739.132 243.265 738.968 244.097 738.98H244.013ZM278.729 799.228C279.972 799.228 281.184 799.623 282.188 800.357C283.192 801.092 283.936 802.127 284.314 803.312H342.829C343.269 801.923 344.212 800.748 345.471 800.017C346.731 799.286 348.218 799.052 349.642 799.36L378.833 748.813C377.841 747.743 377.29 746.338 377.29 744.879C377.29 743.419 377.841 742.014 378.833 740.944L349.642 690.337C348.217 690.662 346.723 690.436 345.458 689.702C344.194 688.969 343.255 687.784 342.829 686.385H284.362C283.985 687.572 283.241 688.608 282.237 689.344C281.233 690.081 280.021 690.479 278.777 690.481C278.373 690.479 277.97 690.439 277.573 690.361L248.394 740.884C249.386 741.954 249.937 743.359 249.937 744.818C249.937 746.278 249.386 747.683 248.394 748.752L277.573 799.288C277.955 799.223 278.342 799.199 278.729 799.216V799.228Z" fill="#E4EEF6"/>
</g>
</g>
<g style="mix-blend-mode:multiply">
<g style="mix-blend-mode:screen">
<path d="M955.984 60.2352C956.388 60.2381 956.792 60.2826 957.187 60.3677L986.378 9.86849C985.781 9.22223 985.336 8.44989 985.077 7.60849C984.817 6.76709 984.75 5.87812 984.88 5.00719C985.009 4.13627 985.333 3.30564 985.826 2.57661C986.32 1.84759 986.97 1.23879 987.73 0.795156C988.49 0.351527 989.34 0.0843986 990.217 0.0134848C991.093 -0.057429 991.975 0.0696829 992.796 0.385443C993.617 0.701203 994.357 1.19754 994.961 1.83783C995.565 2.47811 996.017 3.24598 996.285 4.08476H1054.75C1055.13 2.91064 1055.86 1.8842 1056.85 1.15102C1057.84 0.417834 1059.03 0.0151271 1060.26 -1.30059e-06C1061.04 -0.00158573 1061.81 0.14965 1062.52 0.44505C1063.24 0.74045 1063.89 1.17421 1064.43 1.72151C1064.98 2.2688 1065.42 2.91889 1065.71 3.63455C1066.01 4.35021 1066.16 5.11739 1066.16 5.89218C1066.16 7.34907 1065.61 8.7519 1064.62 9.82029L1093.81 60.3677C1094.21 60.2826 1094.61 60.2381 1095.02 60.2352C1096.58 60.2352 1098.08 60.856 1099.18 61.9609C1100.28 63.0659 1100.9 64.5646 1100.9 66.1273C1100.9 67.69 1100.28 69.1888 1099.18 70.2938C1098.08 71.3988 1096.58 72.0195 1095.02 72.0195C1094.61 72.0165 1094.21 71.9722 1093.81 71.887L1064.68 122.41C1065.67 123.485 1066.22 124.891 1066.22 126.35C1066.22 127.125 1066.07 127.892 1065.77 128.608C1065.48 129.324 1065.04 129.974 1064.49 130.521C1063.95 131.068 1063.3 131.502 1062.58 131.798C1061.87 132.093 1061.1 132.244 1060.32 132.243C1059.08 132.24 1057.87 131.843 1056.87 131.109C1055.87 130.375 1055.13 129.342 1054.75 128.158H996.285C996.017 128.997 995.565 129.765 994.961 130.405C994.357 131.045 993.617 131.541 992.796 131.857C991.975 132.173 991.093 132.3 990.217 132.229C989.34 132.158 988.49 131.891 987.73 131.448C986.97 131.004 986.32 130.395 985.826 129.666C985.333 128.937 985.009 128.106 984.88 127.235C984.75 126.365 984.817 125.476 985.077 124.634C985.336 123.793 985.781 123.02 986.378 122.374L957.223 71.887C956.415 72.0616 955.579 72.0636 954.769 71.8929C953.96 71.7222 953.195 71.3826 952.526 70.8964C951.856 70.4101 951.297 69.788 950.883 69.0707C950.47 68.3534 950.212 67.557 950.127 66.7333C950.042 65.9097 950.132 65.0773 950.389 64.2906C950.647 63.5038 951.068 62.7803 951.624 62.1671C952.18 61.554 952.859 61.0651 953.616 60.7322C954.373 60.3993 955.193 60.2299 956.02 60.2352H955.984ZM990.7 120.482C991.942 120.486 993.152 120.883 994.155 121.617C995.158 122.351 995.904 123.383 996.285 124.567H1054.75C1055.12 123.391 1055.86 122.362 1056.85 121.626C1057.84 120.891 1059.03 120.486 1060.26 120.47C1060.67 120.473 1061.07 120.518 1061.47 120.603L1090.66 70.0555C1089.68 68.9816 1089.15 67.5794 1089.15 66.1273C1089.17 64.6509 1089.74 63.2346 1090.76 62.1631L1061.56 11.6277C1061.17 11.7129 1060.77 11.7573 1060.36 11.7603C1059.12 11.7578 1057.91 11.3609 1056.91 10.6268C1055.91 9.89275 1055.16 8.85934 1054.79 7.67549H996.285C995.904 8.8593 995.158 9.89203 994.155 10.6258C993.152 11.3595 991.942 11.7566 990.7 11.7603C990.296 11.7581 989.893 11.7177 989.496 11.6398L960.353 62.1631C961.345 63.2327 961.896 64.638 961.896 66.0972C961.896 67.5564 961.345 68.9617 960.353 70.0314L989.52 120.591C989.908 120.508 990.303 120.468 990.7 120.47V120.482Z" fill="#E4EEF6"/>
</g>
<g style="mix-blend-mode:screen">
<path d="M837.222 129.736C837.626 129.739 838.03 129.783 838.425 129.869L867.665 79.3816C867.064 78.7366 866.617 77.9648 866.355 77.1233C866.093 76.2818 866.023 75.3922 866.151 74.5201C866.279 73.6481 866.601 72.816 867.094 72.0853C867.586 71.3547 868.237 70.7442 868.997 70.2991C869.757 69.8539 870.607 69.5855 871.484 69.5136C872.362 69.4418 873.244 69.5683 874.067 69.8839C874.889 70.1995 875.63 70.696 876.234 71.3368C876.839 71.9776 877.292 72.7462 877.559 73.5858H935.978C936.243 72.7468 936.693 71.9781 937.295 71.3364C937.896 70.6947 938.634 70.1964 939.454 69.8782C940.273 69.5599 941.154 69.4299 942.03 69.4977C942.907 69.5655 943.757 69.8294 944.518 70.2699C945.279 70.7103 945.932 71.3162 946.428 72.0428C946.924 72.7694 947.251 73.5982 947.384 74.468C947.518 75.3378 947.454 76.2266 947.199 77.0686C946.943 77.9107 946.503 78.6847 945.908 79.3334L975.099 129.869C975.495 129.784 975.899 129.74 976.303 129.736C977.864 129.736 979.362 130.357 980.466 131.462C981.569 132.567 982.19 134.066 982.19 135.628C982.19 137.191 981.569 138.69 980.466 139.795C979.362 140.9 977.864 141.521 976.303 141.521C975.899 141.517 975.495 141.473 975.099 141.388L945.908 191.936C946.905 193.019 947.456 194.439 947.449 195.912C947.455 197.317 946.958 198.678 946.048 199.747C945.138 200.817 943.875 201.526 942.488 201.744C941.102 201.963 939.683 201.677 938.488 200.938C937.294 200.2 936.403 199.058 935.978 197.719H877.511C877.085 199.058 876.195 200.2 875 200.938C873.806 201.677 872.387 201.963 871 201.744C869.614 201.526 868.351 200.817 867.441 199.747C866.531 198.678 866.034 197.317 866.039 195.912C866.041 194.434 866.604 193.012 867.616 191.936L838.449 141.436C837.641 141.611 836.805 141.613 835.995 141.442C835.186 141.271 834.421 140.932 833.752 140.446C833.082 139.959 832.523 139.337 832.109 138.62C831.696 137.903 831.439 137.106 831.353 136.283C831.268 135.459 831.358 134.627 831.615 133.84C831.873 133.053 832.294 132.33 832.85 131.716C833.406 131.103 834.085 130.614 834.842 130.281C835.6 129.949 836.419 129.779 837.246 129.784L837.222 129.736ZM871.938 189.983C873.179 189.986 874.388 190.383 875.389 191.117C876.391 191.851 877.134 192.884 877.511 194.068H935.978C936.359 192.884 937.104 191.852 938.108 191.118C939.111 190.384 940.32 189.987 941.563 189.983C941.968 189.986 942.372 190.035 942.767 190.128L971.982 139.569C970.998 138.495 970.452 137.091 970.452 135.634C970.452 134.178 970.998 132.774 971.982 131.7L942.803 81.0927C942.407 81.1767 942.004 81.2211 941.599 81.2252C940.357 81.2216 939.147 80.8245 938.144 80.0907C937.14 79.357 936.395 78.3242 936.014 77.1404H877.547C877.17 78.3243 876.427 79.3577 875.426 80.0918C874.424 80.8259 873.215 81.2227 871.974 81.2252C871.57 81.229 871.166 81.1886 870.77 81.1047L841.603 131.64C842.587 132.714 843.133 134.117 843.133 135.574C843.133 137.031 842.587 138.435 841.603 139.508L870.77 190.032C871.157 189.976 871.548 189.956 871.938 189.971V189.983Z" fill="#E4EEF6"/>
</g>
<g style="mix-blend-mode:screen">
<path d="M719.073 60.2351C719.478 60.2386 719.881 60.283 720.277 60.3676L749.468 9.86838C748.871 9.22212 748.426 8.44978 748.166 7.60838C747.907 6.76698 747.84 5.87801 747.969 5.00708C748.099 4.13616 748.423 3.30552 748.916 2.5765C749.409 1.84747 750.06 1.23867 750.82 0.795043C751.58 0.351414 752.43 0.0842857 753.306 0.0133719C754.183 -0.0575419 755.065 0.06957 755.886 0.38533C756.707 0.70109 757.447 1.19743 758.051 1.83771C758.655 2.47799 759.107 3.24587 759.375 4.08465H817.841C818.267 2.74574 819.158 1.60374 820.352 0.865434C821.546 0.127129 822.965 -0.158667 824.352 0.0598057C825.739 0.278278 827.001 0.986571 827.911 2.05642C828.821 3.12628 829.319 4.48696 829.313 5.89206C829.312 7.34896 828.762 8.75179 827.772 9.82018L856.963 60.3676C857.822 60.1822 858.711 60.1914 859.566 60.3947C860.42 60.598 861.219 60.9902 861.902 61.5425C862.586 62.0948 863.137 62.7932 863.516 63.5865C863.894 64.3798 864.091 65.248 864.091 66.1272C864.091 67.0065 863.894 67.8746 863.516 68.668C863.137 69.4613 862.586 70.1597 861.902 70.712C861.219 71.2643 860.42 71.6565 859.566 71.8598C858.711 72.0631 857.822 72.0723 856.963 71.8869L827.772 122.41C828.366 123.059 828.807 123.833 829.063 124.675C829.318 125.517 829.381 126.406 829.248 127.276C829.115 128.145 828.788 128.974 828.292 129.701C827.796 130.427 827.143 131.033 826.382 131.474C825.621 131.914 824.771 132.178 823.894 132.246C823.018 132.314 822.137 132.184 821.317 131.865C820.498 131.547 819.76 131.049 819.158 130.407C818.557 129.765 818.107 128.997 817.841 128.158H759.327C759.059 128.997 758.607 129.764 758.003 130.405C757.399 131.045 756.659 131.541 755.838 131.857C755.017 132.173 754.135 132.3 753.258 132.229C752.381 132.158 751.532 131.891 750.772 131.447C750.012 131.004 749.361 130.395 748.868 129.666C748.374 128.937 748.051 128.106 747.921 127.235C747.791 126.364 747.859 125.475 748.118 124.634C748.378 123.793 748.822 123.02 749.42 122.374L720.265 71.8748C719.869 71.9594 719.466 72.0038 719.061 72.0074C717.5 72.0074 716.003 71.3866 714.899 70.2816C713.795 69.1766 713.175 67.6779 713.175 66.1152C713.175 64.5525 713.795 63.0538 714.899 61.9488C716.003 60.8438 717.5 60.223 719.061 60.223L719.073 60.2351ZM753.79 120.482C755.032 120.486 756.242 120.883 757.245 121.617C758.248 122.351 758.994 123.383 759.375 124.567H817.841C818.219 123.383 818.961 122.35 819.963 121.616C820.965 120.882 822.173 120.485 823.415 120.482C823.819 120.485 824.223 120.53 824.618 120.615L853.809 70.0674C852.818 68.9978 852.267 67.5925 852.267 66.1333C852.267 64.674 852.818 63.2688 853.809 62.1991L824.618 11.6637C824.223 11.7489 823.819 11.7933 823.415 11.7963C822.173 11.7938 820.965 11.397 819.963 10.6629C818.961 9.92879 818.219 8.89537 817.841 7.71152H759.327C758.946 8.89534 758.2 9.92807 757.197 10.6618C756.194 11.3955 754.984 11.7927 753.741 11.7963C753.337 11.7941 752.934 11.7537 752.538 11.6758L723.431 62.163C724.423 63.2326 724.974 64.6379 724.974 66.0971C724.974 67.5563 724.423 68.9616 723.431 70.0313L752.61 120.567C752.999 120.492 753.394 120.46 753.79 120.47V120.482Z" fill="#E4EEF6"/>
</g>
</g>
<path d="M747.687 53.1861H774.434L774.47 49.5833V26.4001H800.363V53.1861H827.158V79.0683H800.363V105.854H774.47V79.0683H747.687V53.1861Z" fill="#CDE4FC"/>
<path d="M864.703 392.655H891.451L891.499 389.04V365.869H917.392V392.655H944.175V418.538H917.392V445.323H891.499V418.538H864.703V392.655Z" fill="#CDE4FC"/>
<path d="M595.99 193.177H622.737L622.773 189.574V166.391H648.666V193.177H675.461V219.071H648.666V245.857H622.773V219.071H595.99V193.177Z" fill="#CDE4FC"/>
<path d="M133.809 455.18H160.568L160.605 451.565V428.394H186.497V455.18H213.281V481.062H186.497V507.848H160.605V481.062H133.809V455.18Z" fill="#CDE4FC"/>
<path d="M271.266 594.616H298.013L298.061 591.001V567.83H323.954V594.616H350.737V620.498H323.954V647.284H298.061V620.498H271.266V594.616Z" fill="#CDE4FC"/>
</g>
<defs>
<clipPath id="clip0_30_971">
<rect width="1101" height="811" fill="white" transform="matrix(-1 0 0 1 1101 0)"/>
</clipPath>
</defs>
</svg>
