<svg width="46" height="44" viewBox="0 0 46 44" fill="none" xmlns="http://www.w3.org/2000/svg">
<path d="M16.0743 19.2659C12.7703 19.2659 10.0946 16.6062 10.0946 13.3218V7.78059C10.0946 6.67236 11.0068 5.76562 12.1216 5.76562C12.446 5.76562 12.7095 6.02757 12.7095 6.34996C12.7095 6.67235 12.446 6.9343 12.1216 6.9343C11.6351 6.9343 11.25 7.31715 11.25 7.80074V13.3419C11.25 15.9815 13.3987 18.1174 16.0541 18.1174C18.7095 18.1174 20.8581 15.9815 20.8581 13.3419V7.80074C20.8581 7.31715 20.473 6.9343 19.9865 6.9343C19.6622 6.9343 19.3987 6.67235 19.3987 6.34996C19.3987 6.02757 19.6622 5.76562 19.9865 5.76562C21.1014 5.76562 22.0135 6.67236 22.0135 7.78059V13.3218C22.0135 16.6062 19.3378 19.2659 16.0338 19.2659H16.0743Z" fill="#339966"/>
<path d="M16.0743 19.6286C12.5878 19.6286 9.75 16.8077 9.75 13.3419C9.75 12.8382 10.1757 12.415 10.6824 12.415C11.1892 12.415 11.6149 12.8382 11.6149 13.3419C11.6149 15.78 13.6216 17.7749 16.0743 17.7749C18.527 17.7749 20.5338 15.78 20.5338 13.3419C20.5338 12.8382 20.9595 12.415 21.4662 12.415C21.973 12.415 22.3986 12.8382 22.3986 13.3419C22.3986 16.8077 19.5608 19.6286 16.0743 19.6286V19.6286Z" fill="#339966"/>
<path d="M30.6081 40.0001C28.723 40.0001 27.1825 38.4687 27.1825 36.5948V31.9805C27.1825 30.832 26.25 29.9051 25.0946 29.9051C23.9392 29.9051 23.0068 30.832 23.0068 31.9805V36.2523C23.0068 38.3075 21.3244 39.98 19.2568 39.98C17.1892 39.98 15.5068 38.3075 15.5068 36.2523V18.6818C15.5068 18.3594 15.7703 18.0974 16.0946 18.0974C16.4189 18.0974 16.6825 18.3594 16.6825 18.6818V36.2523C16.6825 37.6627 17.8379 38.8314 19.277 38.8314C20.7162 38.8314 21.8716 37.6829 21.8716 36.2523V31.9805C21.8716 30.1872 23.3311 28.7364 25.1352 28.7364C26.9392 28.7364 28.3987 30.1872 28.3987 31.9805V36.5948C28.3987 37.8239 29.4122 38.8314 30.6487 38.8314C31.8852 38.8314 32.8987 37.8239 32.8987 36.5948V21.7848C32.8987 21.4624 33.1622 21.2005 33.4865 21.2005C33.8108 21.2005 34.0743 21.4624 34.0743 21.7848V36.5948C34.0743 38.4687 32.5338 40.0001 30.6487 40.0001H30.6081Z" fill="#339966"/>
<path d="M33.4257 22.3691C31.6014 22.3691 30.1014 20.878 30.1014 19.0646C30.1014 17.2511 31.6014 15.76 33.4257 15.76C35.25 15.76 36.75 17.2511 36.75 19.0646C36.75 20.878 35.25 22.3691 33.4257 22.3691ZM33.4257 16.9085C32.2298 16.9085 31.277 17.8757 31.277 19.0444C31.277 20.2131 32.25 21.1803 33.4257 21.1803C34.6014 21.1803 35.5743 20.2131 35.5743 19.0444C35.5743 17.8757 34.6014 16.9085 33.4257 16.9085Z" fill="#339966"/>
<path d="M33.4257 20.1928C34.0526 20.1928 34.5608 19.6876 34.5608 19.0644C34.5608 18.4412 34.0526 17.936 33.4257 17.936C32.7988 17.936 32.2905 18.4412 32.2905 19.0644C32.2905 19.6876 32.7988 20.1928 33.4257 20.1928Z" fill="#339966"/>
<path d="M13.7635 5H13.1554C12.4054 5 11.7973 5.60449 11.7973 6.35002C11.7973 7.09556 12.4054 7.70006 13.1554 7.70006H13.7635C14.5135 7.70006 15.1216 7.09556 15.1216 6.35002C15.1216 5.60449 14.5135 5 13.7635 5Z" fill="#339966"/>
<path d="M18.4054 5H19.0135C19.7635 5 20.3716 5.60449 20.3716 6.35002C20.3716 7.09556 19.7635 7.70006 19.0135 7.70006H18.4054C17.6554 7.70006 17.0473 7.09556 17.0473 6.35002C17.0473 5.60449 17.6554 5 18.4054 5Z" fill="#339966"/>
</svg>
