<svg width="136" height="148" viewBox="0 0 136 148" fill="none" xmlns="http://www.w3.org/2000/svg">
<path d="M-2.02739 185.5L-25.7434 75.4077C-14.6008 75.4077 -3.92859 72.2937 -2.02739 68.4833C-0.126189 64.6729 3.65656 66.2373 6.37116 71.9455C9.08576 77.6538 13.094 81.4396 15.2647 80.351C17.4354 79.2623 21.4436 81.268 24.1582 84.8038C26.8728 88.3396 30.3469 76.9574 31.8708 59.4747L35.2224 21.1206C36.7463 3.65752 39.3776 3.64281 41.073 21.0961L44.7971 59.5041C46.4925 76.9525 50.5447 88.3396 53.8032 84.8038C57.0617 81.268 62.8486 77.9382 66.651 77.384C70.4534 76.8299 76.9018 70.1654 80.9786 62.5495C85.0554 54.9336 90.1711 52.0452 92.3418 56.1253C94.5125 60.2054 97.8542 65.5409 99.7554 67.9929C101.657 70.4449 106.326 73.1078 110.129 73.9267C113.931 74.7457 126.162 75.3979 137.304 75.3979C148.447 75.3979 159.119 72.2839 161.02 68.4735C162.921 64.6631 166.704 66.2275 169.419 71.9357C172.133 77.644 176.142 81.4298 178.312 80.3412C180.483 79.2525 184.491 81.2582 187.206 84.794C189.92 88.3297 193.394 76.9476 194.918 59.4649L198.265 21.1059C199.789 3.64281 202.42 3.6281 204.116 21.0814L207.84 59.4894C209.535 76.9378 213.587 88.3248 216.846 84.7891C220.104 81.2533 225.891 77.9235 229.694 77.3693C233.496 76.8152 239.944 70.1507 244.021 62.5348C248.098 54.9189 253.214 52.0304 255.384 56.1106C257.555 60.1907 260.897 65.5262 262.798 67.9782C264.699 70.4302 269.369 73.0931 273.171 73.912C276.974 74.731 285.108 75.3832 291.238 75.3832H302.385" fill="url(#paint0_linear_219_1227)"/>
<path d="M-46 75.4077H-25.7434C-14.6008 75.4077 -3.92859 72.2937 -2.02739 68.4833C-0.126193 64.6729 3.65656 66.2373 6.37116 71.9455C9.08576 77.6538 13.094 81.4396 15.2647 80.351C17.4354 79.2623 21.4436 81.268 24.1582 84.8038C26.8728 88.3396 30.3469 76.9574 31.8708 59.4747L35.2224 21.1206C36.7463 3.65752 39.3776 3.64281 41.073 21.0961L44.797 59.5041C46.4924 76.9525 50.5447 88.3396 53.8032 84.8038C57.0617 81.268 62.8486 77.9382 66.651 77.3841C70.4534 76.8299 76.9018 70.1654 80.9786 62.5495C85.0554 54.9336 90.1711 52.0452 92.3418 56.1253C94.5125 60.2054 97.8542 65.5409 99.7554 67.9929C101.657 70.4449 106.326 73.1078 110.129 73.9267C113.931 74.7457 126.162 75.3979 137.304 75.3979C148.447 75.3979 159.119 72.2839 161.02 68.4735C162.921 64.6631 166.704 66.2275 169.419 71.9357C172.133 77.644 176.142 81.4298 178.312 80.3412C180.483 79.2525 184.491 81.2582 187.206 84.794C189.92 88.3297 193.394 76.9476 194.918 59.4649L198.265 21.1059C199.789 3.64281 202.42 3.6281 204.116 21.0814L207.84 59.4894C209.535 76.9378 213.587 88.3248 216.846 84.7891C220.104 81.2533 225.891 77.9235 229.694 77.3693C233.496 76.8152 239.944 70.1507 244.021 62.5348C248.098 54.9189 253.214 52.0304 255.384 56.1106C257.555 60.1907 260.897 65.5262 262.798 67.9782C264.699 70.4302 269.369 73.0931 273.171 73.912C276.974 74.731 285.108 75.3832 291.238 75.3832H302.385" stroke="#FF4C4D" stroke-width="2" stroke-linecap="round" stroke-linejoin="round"/>
<path d="M110.91 16.488C110.91 16.488 102.198 12.924 102.198 6.426C102.18 3.708 104.268 1.512 106.842 1.512C108.66 1.512 110.244 2.628 111 4.248C111.756 2.628 113.34 1.512 115.158 1.512C117.732 1.512 119.82 3.708 119.82 6.426C119.82 12.888 110.91 16.488 110.91 16.488Z" fill="#FF8080"/>
<defs>
<linearGradient id="paint0_linear_219_1227" x1="138.321" y1="8" x2="138.321" y2="185.5" gradientUnits="userSpaceOnUse">
<stop stop-color="#FF8080"/>
<stop offset="0.697917" stop-color="#FF8080" stop-opacity="0"/>
</linearGradient>
</defs>
</svg>
