<svg width="46" height="44" viewBox="0 0 46 44" fill="none" xmlns="http://www.w3.org/2000/svg">
<path d="M19.1179 26.0676C18.9787 26.0676 18.8197 26.0062 18.7203 25.9037L15.5196 22.605C15.3009 22.3796 15.3009 21.9904 15.5196 21.765C15.7383 21.5396 16.116 21.5396 16.3347 21.765L19.5354 25.0637C19.754 25.2891 19.754 25.6783 19.5354 25.9037C19.4161 26.0267 19.2769 26.0676 19.1378 26.0676H19.1179Z" fill="#339966"/>
<path d="M22.8156 29.8786C22.6765 29.8786 22.5174 29.8171 22.418 29.7147L20.6884 27.9322C20.4697 27.7068 20.4697 27.3175 20.6884 27.0921C20.9071 26.8668 21.2848 26.8668 21.5035 27.0921L23.2331 28.8747C23.4518 29.1 23.4518 29.4893 23.2331 29.7147C23.1138 29.8376 22.9746 29.8786 22.8355 29.8786H22.8156Z" fill="#339966"/>
<path d="M12.4779 36.4759C12.3388 36.4759 12.1797 36.4145 12.0803 36.312L9.1182 33.2592C8.9194 33.0543 8.8995 32.7675 9.03866 32.5216L11.2851 28.8746C11.464 28.5673 11.7026 28.2804 11.9412 28.0346L14.1876 25.7193C14.4063 25.4939 14.784 25.4939 15.0027 25.7193L19.4161 30.2678C19.6348 30.4932 19.6348 30.8825 19.4161 31.1079L17.1696 33.4231C16.9311 33.669 16.6528 33.9148 16.3546 34.0992L12.8159 36.4145C12.8159 36.4145 12.6171 36.4964 12.5177 36.4964L12.4779 36.4759ZM10.2315 32.747L12.5575 35.1442L15.7184 33.0953C15.9371 32.9519 16.1557 32.7675 16.3347 32.5831L18.1835 30.6776L14.5653 26.9487L12.7165 28.8541C12.5376 29.0385 12.3587 29.2639 12.2195 29.4893L10.2315 32.747Z" fill="#339966"/>
<path d="M14.466 31.3536C14.3268 31.3536 14.1677 31.2922 14.0683 31.1897C13.8497 30.9644 13.8497 30.5751 14.0683 30.3497L16.3744 27.973C16.5931 27.7476 16.9709 27.7476 17.1895 27.973C17.4082 28.1984 17.4082 28.5877 17.1895 28.813L14.8834 31.1897C14.7642 31.3127 14.625 31.3536 14.4858 31.3536H14.466Z" fill="#339966"/>
<path d="M12.7364 40.0001C12.2592 40.0001 11.7821 39.8157 11.4044 39.4264L6.05664 33.9149C5.6988 33.5461 5.5 33.0544 5.5 32.5421C5.5 32.0299 5.6988 31.5382 6.05664 31.1694C6.79221 30.4113 7.98501 30.4113 8.72057 31.1694L14.0683 36.6809C14.4262 37.0497 14.625 37.5414 14.625 38.0536C14.625 38.5659 14.4262 39.0576 14.0683 39.4264C13.7105 39.7952 13.2135 40.0001 12.7364 40.0001ZM7.38861 31.7841C7.20969 31.7841 7.0109 31.866 6.87173 32.0094C6.73257 32.1529 6.65305 32.3373 6.65305 32.5421C6.65305 32.747 6.73257 32.9314 6.87173 33.0749L12.2195 38.5863C12.4978 38.8732 12.9749 38.8732 13.2533 38.5863C13.3924 38.4429 13.472 38.2585 13.472 38.0536C13.472 37.8487 13.3924 37.6643 13.2533 37.5209L7.90551 32.0094C7.76635 31.866 7.56753 31.7841 7.38861 31.7841Z" fill="#339966"/>
<path d="M21.1656 33.2592C20.8873 33.2592 20.589 33.1362 20.3703 32.9109L12.3984 24.6949C11.9611 24.2441 11.9611 23.5065 12.3984 23.0558L14.2075 21.1913C14.6449 20.7405 15.3606 20.7405 15.7979 21.1913L15.9371 21.3347L24.8831 12.1147C25.3006 11.6845 25.8573 11.4386 26.4537 11.4386C27.0501 11.4386 27.6067 11.6845 28.0242 12.1147C28.1634 12.2582 28.4218 12.2582 28.5809 12.1147L28.7797 11.9098C29.893 10.7625 31.702 10.7625 32.7954 11.9098C33.9087 13.0572 33.9087 14.9217 32.7954 16.0486L32.5966 16.2535C32.5966 16.2535 32.4774 16.4379 32.4774 16.5403C32.4774 16.6428 32.5171 16.7452 32.5966 16.8272C33.4714 17.7287 33.4714 19.1834 32.5966 20.0644L23.6506 29.2844L23.7897 29.4278C24.0084 29.6532 24.1277 29.94 24.1277 30.2473C24.1277 30.5547 24.0084 30.8415 23.7897 31.0669L21.9807 32.9314C21.762 33.1567 21.4638 33.2797 21.1854 33.2797L21.1656 33.2592ZM14.963 22.0313L13.1936 23.8958L21.1656 32.0913L22.9349 30.2268L22.3981 29.7146C22.1795 29.4892 22.1795 29.1 22.3981 28.8746L31.7418 19.2448C31.9406 19.0399 32.0599 18.7531 32.0599 18.4663C32.0599 18.1794 31.9406 17.8926 31.7418 17.6877C31.1454 17.073 31.1454 16.0691 31.7418 15.4544L31.9406 15.2495C32.2587 14.9217 32.4376 14.4709 32.4376 14.0202C32.4376 13.5694 32.2587 13.1187 31.9406 12.7909C31.3044 12.1352 30.1713 12.1352 29.5351 12.7909L29.3363 12.9958C28.7399 13.6104 27.7658 13.6104 27.1694 12.9958C26.7718 12.586 26.0561 12.586 25.6386 12.9958L16.2949 22.6255C16.0763 22.8509 15.6985 22.8509 15.4799 22.6255L14.9431 22.0723L14.963 22.0313Z" fill="#339966"/>
<path d="M32.3581 12.9343C32.2189 12.9343 32.0599 12.8728 31.9605 12.7704C31.7418 12.545 31.7418 12.1557 31.9605 11.9303L38.5209 5.16903C38.7396 4.94366 39.1173 4.94366 39.336 5.16903C39.5547 5.39441 39.5547 5.7837 39.336 6.00907L32.7756 12.7704C32.6563 12.8933 32.5171 12.9343 32.378 12.9343H32.3581Z" fill="#339966"/>
<path d="M21.3842 23.2811C21.2451 23.2811 21.086 23.2197 20.9866 23.1172L19.9727 22.0723C19.754 21.8469 19.754 21.4576 19.9727 21.2323C20.1914 21.0069 20.5691 21.0069 20.7878 21.2323L21.8017 22.2772C22.0204 22.5026 22.0204 22.8919 21.8017 23.1172C21.6824 23.2402 21.5433 23.2811 21.4041 23.2811H21.3842Z" fill="#339966"/>
<path d="M23.6704 20.9249C23.5313 20.9249 23.3722 20.8635 23.2728 20.761L22.259 19.7161C22.0403 19.4907 22.0403 19.1014 22.259 18.8761C22.4776 18.6507 22.8553 18.6507 23.074 18.8761L24.0879 19.921C24.3066 20.1464 24.3066 20.5357 24.0879 20.761C23.9686 20.884 23.8295 20.9249 23.6903 20.9249H23.6704Z" fill="#339966"/>
<path d="M25.9567 18.5687C25.8175 18.5687 25.6585 18.5073 25.5591 18.4048L24.5452 17.3599C24.3265 17.1345 24.3265 16.7452 24.5452 16.5199C24.7639 16.2945 25.1416 16.2945 25.3603 16.5199L26.3741 17.5648C26.5928 17.7902 26.5928 18.1795 26.3741 18.4048C26.2549 18.5278 26.1157 18.5687 25.9765 18.5687H25.9567Z" fill="#339966"/>
<path d="M30.1116 15.7209C29.9724 15.7209 29.8134 15.6594 29.714 15.557L27.1892 12.9549C26.9705 12.7295 26.9705 12.3402 27.1892 12.1148C27.4079 11.8895 27.7856 11.8895 28.0043 12.1148L30.5291 14.7169C30.7477 14.9423 30.7477 15.3316 30.5291 15.557C30.4098 15.6799 30.2706 15.7209 30.1315 15.7209H30.1116Z" fill="#339966"/>
<path d="M31.8611 39.9999H8.00492C7.68683 39.9999 7.42838 39.7335 7.42838 39.4057C7.42838 39.0779 7.68683 38.8115 8.00492 38.8115H31.8611C32.1792 38.8115 32.4376 39.0779 32.4376 39.4057C32.4376 39.7335 32.1792 39.9999 31.8611 39.9999Z" fill="#339966"/>
</svg>
