<svg width="32" height="32" viewBox="0 0 32 32" fill="none" xmlns="http://www.w3.org/2000/svg">
<path d="M16 5.76001C10.3552 5.76001 5.76001 10.3552 5.76001 16C5.76001 21.6448 10.3552 26.24 16 26.24C21.6448 26.24 26.24 21.6448 26.24 16C26.24 10.3552 21.6448 5.76001 16 5.76001ZM23.7504 20.4864C23.728 20.4832 23.7056 20.48 23.68 20.48H21.2C21.5136 19.312 21.7024 18.016 21.7472 16.64H24.9344C24.8352 18.0352 24.416 19.3408 23.7504 20.4864ZM8.24961 20.4864C7.58401 19.3408 7.16481 18.032 7.06561 16.64H10.2528C10.2976 18.016 10.4896 19.312 10.8 20.48H8.32001C8.29441 20.48 8.27201 20.4832 8.24961 20.4864ZM8.24961 11.5136C8.27201 11.5168 8.29441 11.52 8.32001 11.52H10.8C10.4864 12.688 10.2976 13.984 10.2528 15.36H7.06561C7.16481 13.9648 7.58401 12.6592 8.24961 11.5136ZM16.64 10.24V7.13601C17.728 7.46241 18.704 8.60801 19.3984 10.24H16.64ZM19.856 11.52C20.1984 12.672 20.4128 13.9776 20.464 15.36H16.64V11.52H19.856ZM15.36 7.13601V10.24H12.6016C13.296 8.61121 14.272 7.46561 15.36 7.13601ZM15.36 11.52V15.36H11.5328C11.584 13.9776 11.8016 12.672 12.1408 11.52H15.36ZM11.5328 16.64H15.36V20.48H12.144C11.8016 19.328 11.584 18.0224 11.5328 16.64ZM15.36 21.76V24.864C14.272 24.5376 13.296 23.392 12.6016 21.76H15.36ZM16.64 24.864V21.76H19.3984C18.704 23.3888 17.728 24.5344 16.64 24.864ZM16.64 20.48V16.64H20.4672C20.416 18.0224 20.1984 19.328 19.8592 20.48H16.64ZM21.7472 15.36C21.7024 13.984 21.5104 12.688 21.2 11.52H23.68C23.7056 11.52 23.728 11.5168 23.7504 11.5136C24.416 12.6592 24.8352 13.968 24.9344 15.36H21.7472ZM22.8576 10.24H20.7904C20.4224 9.26401 19.9648 8.41601 19.4336 7.72481C20.768 8.28161 21.9392 9.14881 22.8576 10.24ZM12.5664 7.72481C12.0352 8.41601 11.5744 9.26721 11.2096 10.24H9.14241C10.0608 9.14881 11.232 8.28161 12.5664 7.72481ZM9.14241 21.76H11.2096C11.5776 22.736 12.0352 23.584 12.5664 24.2752C11.232 23.7184 10.0608 22.8512 9.14241 21.76ZM19.4304 24.2752C19.9616 23.584 20.4224 22.7328 20.7872 21.76H22.8544C21.9392 22.8512 20.768 23.7184 19.4304 24.2752Z" fill="white"/>
</svg>
